<svg height="1920" viewBox="0 0 1920 1920" width="1920" xmlns="http://www.w3.org/2000/svg"><path d="m1057.803101 61.483276 800.74707 800.747071c53.70166 53.70166 53.740723 140.208862.000122 193.949341l-800.747192 800.747314c-53.74054 53.740478-140.247742 53.701416-193.949341-.000244l-800.747139-800.74707c-53.750247-53.750306-53.779544-140.247742-.039036-193.988282l800.747234-800.747192c53.74054-53.740479 140.238037-53.711182 193.988282.039062z" fill="none" stroke="#000" stroke-width="16.958158"/><path d="m1020.947815 106.720215 792.365417 792.365417c33.283204 33.283203 33.27356 86.896973-.029296 120.199707l-792.365479 792.36554c-33.3125 33.3125-86.926208 33.322266-120.209412.039062l-792.365486-792.365478c-33.331993-33.332031-33.322258-86.945862-.019516-120.248596l792.365532-792.36554c33.3125-33.312378 86.926209-33.322143 120.25824.009888z" fill="#ffcb00" stroke="#000" stroke-width="38.985085"/><path d="m1402.420288 770.854736c-28.223389 0-51.182129 22.852539-51.182129 50.875122v197.693177c27.019409 12.335266 43.367798 37.312317 43.367798 64.485168 0 18.0719-7.212158 35.305664-20.409058 48.620606l-104.890136 115.065185c-4.851441 6.043701-11.343628 15.439697-14.601563 25.909912-1.794189 5.606934-2.325439 11.603272-2.4906 19.110596h-33.216431c.153442-10.505615 1.015137-19.712647 4.084106-29.096924 5.630494-18.142578 16.950562-32.944824 23.631592-40.794433l103.296631-110.662354c6.268066-7.377441 9.679321-16.77356 9.679321-26.429199 0-22.380371-18.225341-40.570313-40.605713-40.570313-10.611816 0-20.6333 4.013428-28.246948 11.379029l-214.195068 215.080444c-37.040894 38.776123-34.609253 78.295898-34.609253 107.876709l.200561 77.658447h183.717286v-32.638061c0-21.164551 4.131347-35.140503 20.857666-50.898804l168.820556-179.255371c24.162842-28.258667 37.654663-64.402588 37.654663-101.833008v-270.700806c.011841-28.022583-22.769897-50.875122-50.863281-50.875122z"/><path d="m637.616394 1056.452148c-7.660767-7.330322-17.670532-11.355468-28.258728-11.355468-22.392151 0-40.652893 18.178222-40.652893 40.546753 0 9.679321 3.423096 19.075317 9.69104 26.452758l103.320312 110.662354c6.669251 7.837891 18.001038 22.616455 23.643372 40.759033 3.03363 9.407959 3.895325 18.591309 4.084168 29.108643h-33.263611c-.129883-7.519043-.684632-13.527222-2.467041-19.122315-3.246094-10.470215-9.726502-19.85437-14.613343-25.862549l-104.890197-115.112548c-13.20868-13.314942-20.409119-30.548706-20.409119-48.620606 0-27.172851 16.31311-52.149902 43.367859-64.485168v-197.693177c0-28.022583-22.970581-50.875122-51.193909-50.875122-28.093475 0-50.851562 22.852539-50.851562 50.875122v270.700806c0 37.43042 13.468353 73.574341 37.631103 101.833008l168.832398 179.24353c16.749878 15.781983 20.845886 29.757935 20.845886 50.910645v32.638061h183.740784l.212524-77.658447c0-29.580811 2.4198-69.100586-34.597473-107.876709z"/><g fill-rule="evenodd"><path d="m1222.680542 930.30835c-16.999146 0-29.990234-4.626282-38.973999-13.878907-12.049805-11.350647-18.074707-27.703857-18.074707-49.060302 0-21.786744 6.024902-38.140015 18.074707-49.060303 8.983765-9.252686 21.974853-13.878906 38.973999-13.878906 16.999023 0 29.990234 4.62622 38.973877 13.878906 11.996216 10.920288 17.994263 27.273559 17.994263 49.060303 0 21.356445-5.998047 37.709655-17.994263 49.060302-8.983643 9.252625-21.974854 13.878907-38.973877 13.878907zm23.481079-31.953736c5.756104-7.262329 8.634033-17.590698 8.634033-30.985473 0-13.341065-2.891357-23.656006-8.674316-30.945069-5.782959-7.289184-13.596436-10.933716-23.440796-10.933716s-17.698242 3.630982-23.56189 10.893311c-5.863525 7.262207-8.79541 17.590576-8.79541 30.985474 0 13.394775 2.931885 23.723144 8.79541 30.985473 5.863648 7.262207 13.71753 10.893311 23.56189 10.893311s17.671387-3.631104 23.481079-10.893311zm-144.921509-17.99414h-25.65979v46.639526h-24.288086v-118.938965h58.339844c8.338135.161377 14.75293 1.183472 19.244873 3.066284 4.491699 1.882813 8.297608 4.653199 11.417725 8.311158 2.582153 3.012451 4.626343 6.347656 6.132568 10.005737 1.506226 3.658081 2.259277 7.827026 2.259277 12.507202 0 5.648315-1.425537 11.202515-4.276611 16.66272-2.851074 5.460083-7.557983 9.319824-14.120972 11.579223 5.487061 2.205567 9.373658 5.33899 11.659913 9.400513 2.286254 4.061401 3.429321 10.261231 3.429321 18.599304v7.988465c0 5.433227.215332 9.118103.64563 11.054687.645508 3.066284 2.151733 5.325623 4.518676 6.778076v2.985596h-27.35437l-1.613769-6.374634c-.645508-3.335205-.995239-6.751159-1.04895-10.247803l-.161377-11.054687c-.107666-7.584961-1.492798-12.641602-4.15564-15.169922-2.662842-2.528442-7.652222-3.79248-14.968262-3.79248zm15.089234-21.625367c4.949096-2.259277 7.423584-6.724243 7.423584-13.394775 0-7.208374-2.393799-12.049805-7.181397-14.524414-2.689819-1.398682-6.724365-2.0979-12.10376-2.0979h-28.887451v31.953735h28.161255c5.594605 0 9.790527-.645508 12.587769-1.936646zm-130.63916 68.264893h-53.901856v-118.938965h57.775024c14.578248.215088 24.906678 4.437988 30.985474 12.668457 3.657959 5.056763 5.487061 11.108521 5.487061 18.15564 0 7.262207-1.829102 13.098877-5.487061 17.51001-2.044189 2.474487-5.05664 4.733886-9.037475 6.778076 6.078796 2.205566 10.664672 5.702148 13.757934 10.489868 3.09314 4.78772 4.639649 10.597412 4.639649 17.429321 0 7.047058-1.775147 13.367798-5.325562 18.962403-2.259399 3.711853-5.083496 6.831848-8.472595 9.360229-3.819397 2.904907-8.324646 4.895264-13.515808 5.97113-5.191162 1.075867-10.82605 1.613831-16.904785 1.613831zm-.564881-52.368652h-29.613708v31.71167h29.210266c5.218078 0 9.27948-.699341 12.184387-2.097962 5.271851-2.582153 7.907715-7.531189 7.907715-14.847229 0-6.186401-2.555176-10.436035-7.66565-12.749145-2.851074-1.291138-6.858764-1.963501-12.02301-2.017334zm12.345764-22.674317c3.227661-1.936523 4.841492-5.40625 4.841492-10.409179 0-5.540772-2.151733-9.198731-6.455261-10.973999-3.711853-1.237183-8.445679-1.855835-14.201721-1.855835h-26.143982v26.224609h29.210266c5.218078 0 9.467773-.995117 12.749206-2.985596zm-139.43457 23.077759h-57.774963v30.582031h65.844116v21.383179h-90.132202v-118.938965h87.227295v21.060425h-62.939209v25.256348h57.774963zm-197.693726 51.96521h-23.158386v-118.938965h36.149719l21.625245 93.521179 21.463928-93.521179h35.746216v118.938965h-23.158387l.161377-99.815186-22.512878 99.815186h-24.126709l-22.351502-99.815186.161377 19.365967z"/><path d="m1360.661133 562.087158v30.086304h-50.835449v139.826538h-35.734742v-139.826538h-51.06604v-30.086304zm-219.249756 145.359619c8.376587 0 15.177734-.922119 20.40332-2.766601 9.913574-3.535034 14.870362-10.105469 14.870362-19.71167 0-5.609985-2.459229-9.951904-7.377442-13.025879-4.918457-2.997192-12.641601-5.648438-23.170044-7.953857l-17.982544-4.034546c-17.675415-3.996216-29.894287-8.338135-36.656982-13.025879-11.45044-7.838623-17.175781-20.095948-17.175781-36.772217 0-15.216187 5.533203-27.857666 16.599365-37.924927 11.066406-10.067261 27.319702-15.10083 48.760742-15.10083 17.905762 0 33.179443 4.745361 45.821045 14.236328 12.641724 9.490845 19.269897 23.265869 19.884644 41.32544h-34.12085c-.614868-10.220948-5.072022-17.483155-13.371704-21.786621-5.533203-2.843506-12.411133-4.265137-20.634033-4.265137-9.14502 0-16.445557 1.84436-21.901856 5.533081-5.456299 3.688843-8.184326 8.837646-8.184326 15.446655 0 6.071045 2.689697 10.605103 8.069092 13.602295 3.458252 1.998047 10.835693 4.341919 22.132446 7.031616l29.279419 7.031617c12.83374 3.073974 22.516602 7.185424 29.048828 12.33435 10.144165 7.99231 15.216065 19.557861 15.216065 34.697266 0 15.523559-5.936524 28.414795-17.809693 38.674194-11.873169 10.259277-28.645263 15.388916-50.316772 15.388916-22.132569 0-39.538697-5.052734-52.21875-15.158447-12.680176-10.105713-19.020142-23.995972-19.020142-41.671265h33.890259c1.075928 7.761719 3.189209 13.563843 6.340088 17.40625 5.763672 6.993286 15.638672 10.489868 29.625244 10.489868zm-131.64209-40.921997v-104.437622h36.080567v104.437622c0 18.059571-2.804932 32.122803-8.41504 42.190064-10.451416 18.443725-30.393554 27.665527-59.826782 27.665527-29.433227 0-49.413757-9.221802-59.942138-27.665527-5.609986-10.067261-8.414917-24.130493-8.414917-42.190064v-104.437622h36.080566v104.437622c0 11.681031 1.38324 20.211182 4.14978 25.590699 4.303589 9.529296 13.679077 14.293823 28.126709 14.293823 14.37085 0 23.707886-4.764527 28.011414-14.293823 2.76654-5.379517 4.149841-13.909668 4.149841-25.590699zm-198.846435-1.15271h-36.656922v66.62793h-34.697265v-169.912842h83.34259c11.911621.230591 21.075806 1.690674 27.492676 4.380371 6.416931 2.689698 11.853943 6.647461 16.311157 11.873169 3.688843 4.303589 6.609009 9.068115 8.760803 14.293823 2.151795 5.225831 3.227661 11.181519 3.227661 17.867432 0 8.069092-2.036438 16.003662-6.109497 23.803955-4.072998 7.800171-10.79718 13.313965-20.17279 16.541748 7.838623 3.150757 13.390869 7.627198 16.656982 13.429322s4.899048 14.658813 4.899048 26.570434v11.412109c0 7.761719.307434 13.025879.922241 15.792359.92218 4.380493 3.073914 7.608032 6.455322 9.682983v4.265137h-39.077636l-2.305542-9.106567c-.922119-4.764649-1.421631-9.644532-1.498535-14.639771l-.23053-15.792358c-.153687-10.835816-2.132508-18.059449-5.936585-21.671387-3.804016-3.611938-10.931701-5.417847-21.383178-5.417847zm21.556091-30.89331c7.070129-3.227661 10.605163-9.606079 10.605163-19.135376 0-10.29773-3.419738-17.214112-10.259338-20.749146-3.842468-1.998047-9.606079-2.99707-17.290955-2.99707h-41.267883v45.648193h40.230408c7.992309 0 13.98645-.922241 17.982605-2.766601zm-114.46637-72.391602v30.086304h-50.83551v139.826538h-35.734741v-139.826538h-51.066101v-30.086304z"/><path d="m1036.506958 317.824829h17.474731v84.175171h-17.474731zm-37.975891 82.119385c-4.644653 2.855347-10.355286 4.282959-17.131958 4.282959-11.154846 0-20.29187-3.864136-27.411194-11.592652-7.423889-7.766601-11.135742-18.388305-11.135742-31.865478 0-13.629517 3.749939-24.555786 11.25-32.779175 7.5-8.223389 17.417419-12.335083 29.752502-12.335083 10.698059 0 19.292481 2.712525 25.783631 8.137695 6.49115 5.425171 10.212585 12.192261 11.164367 20.301392h-17.303283c-1.33252-5.748779-4.587586-9.765137-9.765259-12.049438-2.893433-1.256348-6.110413-1.884522-9.651001-1.884522-6.776672 0-12.344544 2.560303-16.703674 7.680786-4.359192 5.120606-6.538697 12.820435-6.538697 23.09961 0 10.355468 2.360352 17.684082 7.081177 21.986084s10.088806 6.453003 16.104065 6.453003c5.901062 0 10.736023-1.703614 14.505066-5.110962 3.769104-3.407349 6.09137-7.871216 6.967041-13.39148h-19.473389v-14.048218h35.063477v45.171265h-11.649719l-1.770325-10.507568c-3.388367 3.997436-6.434021 6.814697-9.137085 8.451782zm-86.802002-15.247559h-31.008911l-5.824829 17.303345h-18.388367l30.038086-84.175171h19.873108l29.809631 84.175171h-19.073608zm-4.911194-14.505005-10.507568-33.121826-10.850281 33.121826z"/></g></svg>