<?xml version="1.0" encoding="UTF-8"?>
<!-- Generated by Pixelmator Pro 3.6.12 -->
<svg width="1920" height="1920" viewBox="0 0 1920 1920" xmlns="http://www.w3.org/2000/svg">
    <path id="Rectangle" fill="#000000" fill-rule="evenodd" stroke="none" d="M 0 1920 L 1920 1920 L 1920 0 L 0 0 Z"/>
    <g id="Group">
        <g id="g1">
            <g id="layer1">
                <path id="rect4136" fill="#eeeded" stroke="none" d="M 1150.07251 420.157227 L 1719.489258 420.157227 L 1719.489258 836.2677 L 1150.07251 836.2677 Z"/>
                <path id="rect4140-9" fill="#707171" stroke="none" d="M 1421.839478 689.536865 L 1493.514404 689.536865 L 1493.514404 807.003418 L 1421.839478 807.003418 Z"/>
                <path id="rect4140-9-2" fill="#707171" stroke="none" d="M 1421.839478 450.621704 L 1493.514404 450.621704 L 1493.514404 568.088379 L 1421.839478 568.088379 Z"/>
                <g id="g4191">
                    <path id="rect4138" fill="#0c1d5e" stroke="none" d="M 346.291473 350.473633 L 1265.473267 350.473633 L 1265.473267 919.888 L 346.291473 919.888 Z"/>
                    <path id="rect4187" fill="#0c1d5e" stroke="none" d="M 333.700348 350.473633 L 1265.473267 350.473633 L 1265.473267 919.888 L 333.700348 919.888 Z"/>
                    <path id="rect4189" fill="#0c1d5e" stroke="none" d="M 249.895584 350.318604 L 462.929199 350.318604 L 462.929199 920.249878 L 249.895584 920.249878 Z"/>
                </g>
            </g>
            <path id="Rounded-Rectangle" fill="#ffffff" fill-rule="evenodd" stroke="none" d="M 163 883.615479 C 163 903.83551 179.391617 920.227112 199.611694 920.227112 L 1233.89209 920.227112 C 1254.112183 920.227112 1270.503784 903.83551 1270.503784 883.615479 L 1270.503784 386.611694 C 1270.503784 366.391602 1254.112183 350 1233.89209 350 L 199.611694 350 C 179.391617 350 163 366.391602 163 386.611694 Z"/>
        </g>
        <g id="Group-copy">
            <g id="g2">
                <path id="path1" fill="#eeeded" stroke="none" d="M 739.035278 1500.842773 L 169.618561 1500.842773 L 169.618561 1084.732422 L 739.035278 1084.732422 Z"/>
                <path id="path2" fill="#707171" stroke="none" d="M 467.268311 1231.463135 L 395.593414 1231.463135 L 395.593414 1113.996582 L 467.268311 1113.996582 Z"/>
                <path id="path3" fill="#707171" stroke="none" d="M 467.268311 1470.378296 L 395.593414 1470.378296 L 395.593414 1352.911621 L 467.268311 1352.911621 Z"/>
                <g id="g3">
                    <path id="path4" fill="#0c1d5e" stroke="none" d="M 1542.816284 1570.526367 L 623.634583 1570.526367 L 623.634583 1001.112 L 1542.816284 1001.112 Z"/>
                    <path id="path5" fill="#0c1d5e" stroke="none" d="M 1555.407471 1570.526367 L 623.634583 1570.526367 L 623.634583 1001.112 L 1555.407471 1001.112 Z"/>
                    <path id="path6" fill="#0c1d5e" stroke="none" d="M 1639.21228 1570.681396 L 1426.178589 1570.681396 L 1426.178589 1000.750122 L 1639.21228 1000.750122 Z"/>
                </g>
            </g>
            <path id="path7" fill="#1a9600" fill-rule="evenodd" stroke="none" d="M 1726.107788 1037.384521 C 1726.107788 1017.16449 1709.716187 1000.772888 1689.496094 1000.772888 L 655.215759 1000.772888 C 634.995667 1000.772888 618.604065 1017.16449 618.604065 1037.384521 L 618.604065 1534.388306 C 618.604065 1554.608398 634.995667 1571 655.215759 1571 L 1689.496094 1571 C 1709.716187 1571 1726.107788 1554.608398 1726.107788 1534.388306 Z"/>
            <g id="g4">
                <text id="CONSCIOUSLY-" xml:space="preserve" x="780.46251" y="1243" font-family="Helvetica" font-size="110.750375" font-weight="700" fill="#ffffff">CONSCIOUSLY</text>
                <text id="CURATED-" xml:space="preserve" x="775.67446" y="1410" font-family="Helvetica" font-size="168.569254" font-weight="700" fill="#ffffff">CURATED</text>
            </g>
        </g>
        <g id="g5">
            <path id="Path-copy-3" fill="#e61e2b" fill-rule="evenodd" stroke="none" d="M 621.855713 459.200562 C 571.689941 417.685547 500.506226 413.169556 445.498749 448.015137 C 390.490356 482.859741 364.156982 549.146606 380.25589 612.239868 C 393.127625 662.6875 423.739197 706.811768 466.486115 736.536377 L 621.855713 845.173218 L 621.855713 640.910034 C 621.855713 634.464844 625.667297 628.630249 631.570801 626.043335 C 637.474487 623.457031 644.347656 624.606201 649.087036 628.974365 L 649.089905 628.971802 C 658.122192 644.153198 674.692078 654.328247 693.640442 654.328247 C 722.253967 654.328247 745.447693 631.133545 745.447693 602.520996 C 745.447693 573.909424 722.253967 550.714722 693.640442 550.714722 C 674.692078 550.714722 658.122192 560.890503 649.089905 576.072021 L 649.087036 576.069336 C 644.347656 580.436523 637.474487 581.58667 631.570801 578.999634 C 625.667297 576.412476 621.855713 570.577881 621.855713 564.133667 L 621.855713 459.200562 Z"/>
            <path id="Path-copy" fill="#e61e2b" fill-rule="evenodd" stroke="none" d="M 780.616089 459.200562 C 830.779846 417.685547 901.963562 413.169556 956.971985 448.015137 C 1011.9823 482.859741 1038.313965 549.146606 1022.216797 612.239868 C 1009.34314 662.6875 978.732727 706.811768 935.985657 736.536377 L 780.616089 845.173218 L 780.616089 640.910034 C 780.616089 634.464844 784.431519 628.630249 790.331421 626.043335 C 796.235046 623.457031 803.108215 624.606201 807.84668 628.974365 L 807.850525 628.971802 C 816.882629 644.153198 833.454529 654.328247 852.402832 654.328247 C 881.014404 654.328247 904.208313 631.133545 904.208313 602.520996 C 904.208313 573.909424 881.014404 550.714722 852.402832 550.714722 C 833.454529 550.714722 816.882629 560.890503 807.850525 576.072021 L 807.84668 576.069336 C 803.108215 580.436523 796.235046 581.58667 790.331421 578.999634 C 784.431519 576.412476 780.616089 570.577881 780.616089 564.133667 L 780.616089 459.200562 Z"/>
        </g>
    </g>
</svg>
