<svg height="1484" viewBox="0 0 1920 1484" width="1920" xmlns="http://www.w3.org/2000/svg" xmlns:xlink="http://www.w3.org/1999/xlink"><radialGradient id="a" cx="248.290223" cy="1070.94681" gradientUnits="userSpaceOnUse" r="70.302213"><stop offset=".00001" stop-color="#f30000"/><stop offset="1" stop-color="#d30000"/></radialGradient><path d="m0 1484h1920v-1484h-1920z" fill="#fff" fill-rule="evenodd"/><path d="m20.268702 25.635254h1879.462743v657.973205h-1879.462743z"/><path d="m1821.420288 354.621948c0 75.16565-90.756592 147.252869-252.304077 200.402893-161.54773 53.150269-380.65332 83.009705-609.116211 83.009705s-447.568542-29.859436-609.11618-83.009705c-161.547654-53.150024-252.304161-125.237243-252.304161-200.402893 0-75.165771 90.756507-147.252929 252.304161-200.403198 161.547638-53.150024 380.653289-83.009521 609.11618-83.009521s447.568481 29.859497 609.116211 83.009521c161.547485 53.150269 252.304077 125.237427 252.304077 200.403198z" fill="#f30000" stroke="#fff" stroke-linecap="round" stroke-linejoin="round" stroke-width="7.758526"/><path d="m216.47728 229.648071h92.215896c20.795451 0 36.647726 1.591309 47.556824 4.773926 14.659098 4.319255 27.215912 11.991577 37.670441 23.016968 10.454549 11.025472 18.409098 24.551514 23.863647 40.578125 5.454549 15.913004 8.181824 35.576945 8.181824 58.991821 0 20.573161-2.556824 38.304769-7.670471 53.194824-6.25 18.18628-15.170451 32.905803-26.761353 44.15857-8.75 8.52478-20.568176 15.174133-35.454529 19.948059-11.136373 3.523559-26.022745 5.285339-44.659118 5.285339h-94.943161zm50.454544 42.283081v165.552002h37.67044c14.090922 0 24.261383-.795654 30.511383-2.386963 8.181804-2.045979 14.943167-5.512736 20.284089-10.400268 5.454549-4.887533 9.886362-12.900879 13.29544-24.040039 3.409099-11.252767 5.113648-26.540609 5.113648-45.863526 0-19.322916-1.704549-34.156087-5.113648-44.499511-3.409078-10.343425-8.181803-18.413575-14.318176-24.21045s-13.920461-9.718302-23.352264-11.764282c-7.045451-1.591308-20.852275-2.386963-41.420472-2.386963z" fill="#fff"/><path d="m694.261353 479.595703h-54.886353l-21.818176-56.775268h-99.886353l-20.62503 56.775268h-53.522705l97.329559-249.947632h53.352234zm-92.897706-98.887817-34.431823-92.75-33.75 92.75z" fill="#fff"/><path d="m722.386353 479.595703v-249.947632h49.090942l102.272705 166.915894v-166.915894h46.875v249.947632h-50.625l-100.738647-162.994507v162.994507z" fill="#fff"/><path d="m1090.397827 387.698242v-42.112671h108.75v99.569947c-10.568196 10.229736-25.909098 19.266031-46.022705 27.108886-20 7.729167-40.284098 11.59375-60.852295 11.59375-26.136393 0-48.920512-5.455892-68.352356-16.367675-19.431844-11.025391-34.034118-26.71106-43.806824-47.057007-9.772745-20.459554-14.659118-42.680909-14.659118-66.664063 0-26.029053 5.454549-49.159708 16.363647-69.391968 10.909099-20.232259 26.875021-35.747436 47.897766-46.545532 16.022705-8.297444 35.965902-12.446167 59.82959-12.446167 31.022787 0 55.227295 6.535685 72.613526 19.607056 17.500081 12.957682 28.750122 30.916626 33.750122 53.876831l-50.11377 9.377319c-3.522705-12.275716-10.170369-21.937174-19.942993-28.984375-9.659098-7.160888-21.761393-10.741333-36.306885-10.741333-22.045491 0-39.602335 6.990357-52.670532 20.97107-12.954549 13.980712-19.431824 34.724446-19.431824 62.231201 0 29.666341 6.590922 51.944498 19.772766 66.834472 13.181885 14.776368 30.45459 22.164551 51.818116 22.164551 10.568196 0 21.136434-2.045939 31.704712-6.137817 10.681803-4.205567 19.829467-9.263631 27.442993-15.174195v-31.71228z" fill="#fff"/><path d="m1245.511475 479.595703v-249.947632h185.284057v42.283081h-134.82959v55.411377h125.454468v42.112549h-125.454468v68.028076h139.602295v42.112549z" fill="#fff"/><path d="m1478.863647 479.595703v-249.947632h106.193116c26.704671 0 46.079712 2.273316 58.125122 6.819947 12.159017 4.432861 21.874918 12.389322 29.147705 23.869384 7.272705 11.480144 10.909057 24.608358 10.909057 39.384644 0 18.754639-5.511352 34.269816-16.534057 46.545532-11.022787 12.16211-27.500082 19.834432-49.431885 23.016968 10.909098 6.365234 19.886434 13.355591 26.932007 20.971069 7.159017 7.61556 16.76123 21.141602 28.806641 40.578125l30.511474 48.761963h-60.340942l-36.477295-54.388306c-12.95459-19.436604-21.818237-31.655517-26.590943-36.656738-4.772623-5.114909-9.829427-8.581665-15.17041-10.400268-5.340901-1.932292-13.806803-2.898438-25.397705-2.898438h-10.227295v104.34375zm50.45459-144.239868h37.329468c24.204671 0 39.318319-1.02299 45.340942-3.06897 6.022706-2.045898 10.738607-5.569458 14.147706-10.570678 3.409098-5.001303 5.113647-11.252849 5.113647-18.754639 0-8.411133-2.272705-15.174154-6.818115-20.289063-4.431885-5.228597-10.738688-8.524861-18.92041-9.888794-4.090983-.568359-16.363729-.852539-36.818238-.852539h-39.375z" fill="#fff"/><path d="m113.368652 1014.537842 135.874588 55.951172-219.133903-.111573" fill="none" stroke="#d30000" stroke-width="7.758526"/><path d="m192.763657 935.632324 56.524124 135.664795-154.872238-155.067871" fill="none" stroke="#d30000" stroke-width="7.758526"/><path d="m304.685425 935.99231-55.9375 135.907836.111633-219.187622" fill="none" stroke="#d30000" stroke-width="7.758526"/><path d="m383.571625 1015.406738-135.631638 56.537964 155.029984-154.910156" fill="none" stroke="#d30000" stroke-width="7.758526"/><path d="m383.211792 1127.355835-135.874588-55.951172 219.133896.111694" fill="none" stroke="#d30000" stroke-width="7.758526"/><path d="m303.816681 1206.261353-56.524002-135.664917 154.872116 155.067993" fill="none" stroke="#d30000" stroke-width="7.758526"/><path d="m191.89502 1205.901611 55.937423-135.908081-.111572 219.187622" fill="none" stroke="#d30000" stroke-width="7.758526"/><path d="m113.008842 1126.487061 135.63163-56.538086-155.029968 154.910034" fill="none" stroke="#d30000" stroke-width="7.758526"/><path d="m318.592407 1070.946777c0 38.836426-31.475372 70.319458-70.3022 70.319458-38.826782 0-70.3022-31.483032-70.3022-70.319458 0-38.836303 31.475418-70.319397 70.3022-70.319397 38.826828 0 70.3022 31.483094 70.3022 70.319397z" fill="#fff"/><path d="m318.592407 1070.946777c0 38.836426-31.475372 70.319458-70.3022 70.319458-38.826782 0-70.3022-31.483032-70.3022-70.319458 0-38.836303 31.475418-70.319397 70.3022-70.319397 38.826828 0 70.3022 31.483094 70.3022 70.319397z" fill="url(#a)"/><path d="m403.408661 1071.784546h1486.483917" fill="none" stroke="#d30000" stroke-width="7.758526"/><path d="m21.692532 22.786865h1876.614963v1438.426148h-1876.614963z" fill="none" stroke="#000" stroke-linecap="round" stroke-linejoin="round" stroke-width="7.758526"/><g fill-rule="evenodd"><path d="m210.24884 1044.164307c7.941834 0 14.387238 6.447021 14.387238 14.389648 0 7.94397-6.445404 14.390747-14.387238 14.390747-7.940643.000366-14.386032-6.446777-14.386032-14.390747 0-7.942627 6.445389-14.389648 14.386032-14.389648z" fill="#fff"/><path d="m210.24884 1073.937378c-8.488769 0-15.378006-6.891235-15.378006-15.382935 0-8.490966 6.889237-15.381836 15.378006-15.381836 8.489975 0 15.379212 6.89087 15.379212 15.381836 0 8.492188-6.889237 15.382935-15.379212 15.382935zm0-1.984497c7.393708 0 13.395264-6.002808 13.395264-13.398682 0-7.394287-6.001556-13.397217-13.395264-13.397217-7.393722 0-13.394058 6.00293-13.394058 13.397217 0 7.39624 6.000336 13.398682 13.394058 13.398682z"/><path d="m215.440323 1052.349487c3.25119 0 5.889984 2.639527 5.889984 5.89148 0 3.250732-2.638794 5.890381-5.889984 5.890381-3.249985 0-5.888779-2.639649-5.888779-5.890381 0-3.251953 2.638794-5.89148 5.888779-5.89148z"/><path d="m218.014847 1054.873779c-.827057 0-1.498871.671875-1.498871 1.499268 0 .828369.671814 1.500366 1.498871 1.500366.828262 0 1.500076-.671997 1.500076-1.500366 0-.827393-.671814-1.499268-1.500076-1.499268z" fill="#fff"/><path d="m247.417679 1044.164307c7.941833 0 14.387222 6.447021 14.387222 14.389648 0 7.94397-6.445389 14.390747-14.387222 14.390747-7.940643.000366-14.386032-6.446777-14.386032-14.390747 0-7.942627 6.445389-14.389648 14.386032-14.389648z" fill="#fff"/><path d="m247.417679 1073.937378c-8.48877 0-15.378006-6.891235-15.378006-15.382935 0-8.490966 6.889236-15.381836 15.378006-15.381836 8.489975 0 15.379196 6.89087 15.379196 15.381836 0 8.492188-6.889221 15.382935-15.379196 15.382935zm0-1.984497c7.393707 0 13.395248-6.002808 13.395248-13.398682 0-7.394287-6.001541-13.397217-13.395248-13.397217-7.393723 0-13.394058 6.00293-13.394058 13.397217 0 7.39624 6.000335 13.398682 13.394058 13.398682z"/><path d="m252.609161 1052.349487c3.251191 0 5.889985 2.639527 5.889985 5.89148 0 3.250732-2.638794 5.890381-5.889985 5.890381-3.249984 0-5.888778-2.639649-5.888778-5.890381 0-3.251953 2.638794-5.89148 5.888778-5.89148z"/><path d="m255.183685 1054.873779c-.827057 0-1.498886.671875-1.498886 1.499268 0 .828369.671829 1.500366 1.498886 1.500366.828247 0 1.500092-.671997 1.500092-1.500366 0-.827393-.671845-1.499268-1.500092-1.499268z" fill="#fff"/><path d="m285.913971 1044.164307c7.941833 0 14.387237 6.447021 14.387237 14.389648 0 7.94397-6.445404 14.390747-14.387237 14.390747-7.940643.000366-14.386017-6.446777-14.386017-14.390747 0-7.942627 6.445374-14.389648 14.386017-14.389648z" fill="#fff"/><path d="m285.913971 1073.937378c-8.48877 0-15.377991-6.891235-15.377991-15.382935 0-8.490966 6.889221-15.381836 15.377991-15.381836 8.48999 0 15.379211 6.89087 15.379211 15.381836 0 8.492188-6.889221 15.382935-15.379211 15.382935zm0-1.984497c7.393707 0 13.395264-6.002808 13.395264-13.398682 0-7.394287-6.001557-13.397217-13.395264-13.397217s-13.394043 6.00293-13.394043 13.397217c0 7.39624 6.000336 13.398682 13.394043 13.398682z"/><path d="m291.105469 1052.349487c3.25119 0 5.889984 2.639527 5.889984 5.89148 0 3.250732-2.638794 5.890381-5.889984 5.890381-3.25 0-5.888794-2.639649-5.888794-5.890381 0-3.251953 2.638794-5.89148 5.888794-5.89148z"/><path d="m293.679993 1054.873779c-.827057 0-1.498902.671875-1.498902 1.499268 0 .828369.671845 1.500366 1.498902 1.500366.828247 0 1.500061-.671997 1.500061-1.500366 0-.827393-.671814-1.499268-1.500061-1.499268z" fill="#fff"/><path d="m270.602539 1113.547363c0-12.175293-9.867523-22.045166-22.039673-22.045166-12.172149 0-22.039673 9.869873-22.039673 22.045166z"/><path d="m1747.571045 937.113831c5.419678 0 9.820068-.59668 13.201172-1.789978 6.414184-2.287232 9.621216-6.538453 9.621216-12.753724 0-3.629699-1.591065-6.438964-4.773316-8.427856-3.182251-1.939209-8.179199-3.654602-14.991211-5.14624l-11.634887-2.610413c-11.436158-2.585571-19.341919-5.394836-23.717408-8.427856-7.408691-5.071656-11.112915-13.002259-11.112915-23.791993 0-9.845031 3.579956-18.024169 10.739991-24.537841 7.160034-6.51355 17.676147-9.770325 31.548584-9.770325 11.585327 0 21.467407 3.070251 29.646728 9.210999 8.179321 6.140686 12.467773 15.053283 12.865601 26.737976h-22.076538c-.397828-6.613038-3.281617-11.311707-8.651612-14.096192-3.580078-1.839721-8.030151-2.759582-13.350464-2.759582-5.91687 0-10.640381 1.193359-14.170654 3.580017-3.530395 2.386657-5.29541 5.718017-5.29541 9.99414 0 3.92804 1.740234 6.861634 5.220825 8.800782 2.237427 1.292785 7.010742 2.809265 14.319824 4.54956l18.944092 4.549561c8.303711 1.988891 14.568604 4.648987 18.794922 7.980407 6.563354 5.171082 9.844971 12.654175 9.844971 22.449463 0 10.043885-3.840943 18.384644-11.523072 25.022583-7.682006 6.63794-18.533813 9.956848-32.55542 9.956848-14.320068 0-25.581909-3.269226-33.786132-9.807678-8.204224-6.538452-12.306153-15.525635-12.306153-26.961731h21.927368c.696045 5.021912 2.063477 8.775879 4.102051 11.262024 3.729126 4.524719 10.118408 6.787049 19.167847 6.787049zm-79.007324-32.145264h-53.401367v28.266907h60.859741v19.764526h-83.309204v-109.935364h80.624145v19.466187h-58.174682v23.344482h53.401367zm-103.694214-61.903931v19.466187h-32.891113v90.469177h-23.120728v-90.469177h-33.040283v-19.466187zm-128.306519 87.336731h-40.498657l-7.607544 22.598633h-24.015625l39.230713-109.935364h25.954834l38.932373 109.935364h-24.910889zm-6.414306-18.944092-13.723145-43.258178-14.170898 43.258178zm-93.103394 41.542725h-22.971558l-44.898925-78.088379v78.088379h-21.405274v-109.935364h24.09021l43.780152 76.745911v-76.745911h21.405395zm-146.877808-109.935364h22.82251v109.935364h-22.82251zm-44.698974 101.731262c-8.204346 7.508057-18.695557 11.262024-31.474121 11.262024-15.811646 0-28.242066-5.071594-37.291504-15.214965-9.049439-10.193055-13.574097-24.164795-13.574097-41.91565 0-19.192749 5.146118-33.984924 15.438599-44.376892 8.950073-9.049438 20.336304-13.574097 34.15918-13.574097 18.496582 0 32.020874 6.06604 40.572998 18.198243 4.723632 6.81195 7.259521 13.648681 7.607543 20.510376h-22.971557c-1.491699-5.270569-3.406006-9.248291-5.74292-11.933289-4.176636-4.773377-10.366943-7.159973-18.571167-7.159973-8.353394 0-14.941406 3.368591-19.764526 10.105957-4.822998 6.737366-7.234497 16.271484-7.234497 28.6026s2.548217 21.566894 7.644775 27.707581c5.096558 6.140686 11.572754 9.210998 19.428833 9.210998 8.054932 0 14.195557-2.635254 18.421997-7.905762 2.337036-2.834167 4.276123-7.085388 5.817505-12.753723h22.747803c-1.988892 11.983093-7.060547 21.728516-15.214844 29.236572zm-136.585449-34.159057v-67.572205h23.344482v67.572205c0 11.684753-1.814819 20.783752-5.44458 27.297363-6.762207 11.93335-19.664917 17.899963-38.708557 17.899963s-31.971192-5.966613-38.783142-17.899963c-3.629761-6.513611-5.44458-15.61261-5.44458-27.297363v-67.572205h23.344482v67.572205c0 7.5578.89502 13.076904 2.684998 16.557434 2.784485 6.165588 8.850464 9.248291 18.198242 9.248291 9.298096 0 15.339233-3.082703 18.123657-9.248291 1.790039-3.48053 2.684998-8.999634 2.684998-16.557434zm-172.086792-67.572205h22.971557v90.170838h54.445557v19.764526h-77.417114zm-107.050537 0h22.971557v90.170838h54.445618v19.764526h-77.417175zm-59.690247 87.336731h-40.498596l-7.607422 22.598633h-24.015747l39.230652-109.935364h25.954895l38.932312 109.935364h-24.910706zm-6.414124-18.944092-13.723266-43.258178-14.170777 43.258178zm-116.447937 41.542725v-49.075623h-42.959838v49.075623h-22.747803v-109.935364h22.747803v41.91565h42.959838v-41.91565h22.822388v109.935364z"/><path d="m1678.110352 1214.064697-36.76941 68.616333v41.31897h-22.971557v-41.31897l-38.037354-68.616333h27.073731l22.822387 47.882202 21.852784-47.882202zm-181.782593 0h22.971557v90.170777h54.445557v19.764526h-77.417114zm-27.172119 0v19.466065h-32.890992v90.469238h-23.120849v-90.469238h-33.040283v-19.466065zm-115.030884 109.935303h-22.971436l-44.899048-78.088379v78.088379h-21.405395v-109.935303h24.090332l43.780273 76.74585v-76.74585h21.405274zm-128.008301-48.031494h-53.401367v28.266968h60.859741v19.764526h-83.309204v-109.935303h80.624268v19.466065h-58.174805v23.344482h53.401367zm-153.217285 48.031494h-47.36023v-109.935303h47.36023c6.812012.099366 12.480225.89502 17.004883 2.386597 7.707031 2.535889 13.947021 7.184814 18.720337 13.947021 3.828613 5.469483 6.439087 11.386353 7.831176 17.750733 1.392334 6.364502 2.088379 12.430542 2.088379 18.198242 0 14.618408-2.933593 26.999023-8.800781 37.142334-7.955566 13.673706-20.236816 20.510376-36.843994 20.510376zm17.079468-81.89209c-3.530274-5.966675-10.516114-8.949951-20.957764-8.949951h-21.181519v71.748779h21.181519c10.839478 0 18.397095-5.345092 22.673218-16.0354 2.336914-5.867188 3.505371-12.853027 3.505371-20.957764 0-11.1875-1.740234-19.789306-5.220825-25.805664zm-122.414551-28.043213h22.822388v109.935303h-22.822388zm-27.321228 19.466065h-55.116882v25.283691h48.255249v19.093262h-48.255249v46.092285h-22.822388v-109.786133h77.93927zm-113.091736 90.469238h-22.971558l-44.898925-78.088379v78.088379h-21.405335v-109.935303h24.090271l43.780274 76.74585v-76.74585h21.405273zm-172.832642 3.057861c-15.71228 0-27.71997-4.276001-36.02362-12.828247-11.137757-10.491333-16.706604-25.606689-16.706604-45.346435 0-20.137574 5.568847-35.252808 16.706604-45.346558 8.30365-8.552124 20.31134-12.828125 36.02362-12.828125 15.71222 0 27.719971 4.276001 36.02356 12.828125 11.088074 10.09375 16.632019 25.208984 16.632019 45.346558 0 19.739746-5.543945 34.855102-16.632019 45.346435-8.303589 8.552246-20.31134 12.828247-36.02356 12.828247zm21.703614-29.53479c5.320312-6.712524 7.980407-16.259033 7.980407-28.639892 0-12.331177-2.672546-21.865235-8.017639-28.602661-5.345215-6.737305-12.56726-10.105957-21.666382-10.105957-9.099182 0-16.35852 3.356201-21.778259 10.068725-5.419739 6.712525-8.129577 16.259033-8.129577 28.639893 0 12.380859 2.709838 21.927368 8.129577 28.639892 5.419739 6.712525 12.679077 10.068726 21.778259 10.068726 9.099122 0 16.333619-3.356201 21.703614-10.068726zm-116.820801 18.272827c-8.204224 7.508057-18.695435 11.261963-31.47406 11.261963-15.811676 0-28.242035-5.071533-37.291504-15.214843-9.049438-10.193116-13.574097-24.164795-13.574097-41.91565 0-19.192871 5.14618-33.984985 15.43869-44.376953 8.950013-9.049438 20.336213-13.574097 34.159028-13.574097 18.496643 0 32.020935 6.06604 40.57312 18.198243 4.723633 6.812011 7.259399 13.648681 7.607483 20.510376h-22.971558c-1.491699-5.27063-3.405945-9.248291-5.74292-11.93335-4.176636-4.773316-10.367004-7.159912-18.571167-7.159912-8.353332 0-14.941406 3.368652-19.764465 10.105957-4.823059 6.737427-7.234558 16.271484-7.234558 28.602661 0 12.331055 2.548217 21.566895 7.644745 27.70752 5.096527 6.140747 11.572784 9.211059 19.428863 9.211059 8.054993 0 14.195618-2.635254 18.421997-7.905884 2.336975-2.834106 4.276123-7.085327 5.817505-12.753662h22.747803c-1.988892 11.983032-7.060486 21.728516-15.214905 29.236572z"/></g></svg>