<svg height="1920" viewBox="0 0 1920 1920" width="1920" xmlns="http://www.w3.org/2000/svg" xmlns:xlink="http://www.w3.org/1999/xlink"><clipPath id="a"><path d="m84.171687 956.019176c0 483.01327 392.948122 875.976808 875.94816 875.976808 482.876509 0 875.734183-392.963538 875.734183-875.976808 0-482.934139-392.857674-875.827145-875.734183-875.827145-483.000038 0-875.94816 392.893006-875.94816 875.827145z"/></clipPath><path d="m84.171684 961.439331c0 483.013306 392.948128 875.976807 875.948189 875.976807 482.876465 0 875.734253-392.963501 875.734253-875.976807 0-482.934082-392.857788-875.827026-875.734253-875.827026-483.000061 0-875.948189 392.892944-875.948189 875.827026z" fill="#231f20"/><path d="m368.837158 961.439331c0 327.037476 266.000611 593.17273 593.144165 593.17273 326.988526 0 592.920899-266.135254 592.920899-593.17273 0-326.97583-265.932373-593.022583-592.920899-593.022583-327.143554 0-593.144165 266.046753-593.144165 593.022583z" fill="#00a1fe"/><g fill-rule="evenodd"><g clip-path="url(#a)"><path d="m740.069153 1315.420166h-347.993042c-12.744141 0-23.172821 10.428711-23.172821 23.173096 0 12.748901 10.42868 23.175293 23.172821 23.175293h347.993042c12.746643 0 23.175476-10.426392 23.175476-23.175293 0-12.744385-10.428833-23.173096-23.175476-23.173096z" fill="#f66"/><path d="m392.076111 1315.420166c-12.744141 0-23.172821 10.428711-23.172821 23.173096 0 12.748901 10.42868 23.175293 23.172821 23.175293 12.749176 0 23.177795-10.426392 23.177795-23.175293 0-12.744385-10.428619-23.173096-23.177795-23.173096z" fill="#f99"/><path d="m590.822083 1857.820557h-49.4917v-496.052002h49.4917z" fill="#f66"/></g><path d="m755.926514 1047.583374c-17.903931 10.759766-37.098084 20.019775-64.20813 34.024048-56.595703 29.232178-108.402954 66.920654-153.63855 111.769043 17.460815 3.3479 44.788757-8.206787 75.064392-24.215088-45.660522 28.231201-93.730225 56.14624-117.234405 87.25708 24.458587.298096 59.443328-11.869141 102.037017-33.059936-37.611938 20.327636-74.612609 41.075317-99.599517 70.134765 27.348663 1.74707 60.290313-9.925781 93.322235-21.809448-28.205872 13.456543-56.742798 26.488159-76.947571 50.233154 101.275818 7.177979 191.345093-9.651977 262.414795-108.573242 26.412658-36.761963 42.058105-79.488525 46.08905-123.518555 1.569336-17.134399-6.104126-32.641235-20.677185-41.787841-14.571594-9.146729-31.874084-9.315796-46.622131-.45398z" fill="#547520"/><path d="m832.530762 828.139404c16.851928 16.323365 23.977661 40.248658 18.803467 63.130738l-18.803467 97.38623-10.747559 15.447022c-10.366516 14.902648-16.621826 32.276977-18.131531 50.370605-12.885559 154.331177-143.353332 272.166626-298.19934 269.317993-7.996094 147.900391.905761 288.515747-58.435059 431.181397-17.093048-52.145874-22.498596-114.523072-22.834473-181.341553-4.833313 99.35852-21.276153 199.286621-64.473694 279.394653-13.803527-68.712768-19.744659-144.8031 0-244.974853-24.256561 48.157348-53.170867 89.706421-89.993896 120.055053 17.69693-152.146972 83.103088-313.619628 175.962891-456.697876l5.368866-64.474975c2.636932-31.602539 8.383392-62.783936 17.114746-93.103027 15.673614-54.420166 42.900604-97.152649 85.603668-134.345643l14.146973-12.321533c29.201721-25.433777 51.594116-57.75122 65.148132-94.026184 14.427856-38.616211 47.3573-67.354248 87.569885-76.425171 40.212219-9.071289 82.290772 2.745117 111.900391 31.427124z" fill="#6e9234"/><path d="m522.528137 1323.597168-17.075805.194824c-1.809174 33.504151-2.75644 66.628418-3.820374 99.489868-23.733002-8.877563-50.407196-9.11145-75.033875.428589-39.776367 15.417847-73.699432 41.870484-98.228668 75.593628 23.141419-59.752197 51.912049-118.857056 85.145905-175.706909z" fill="#547520"/><path d="m808.62738 1030.306519c-2.605285 7.795166-4.28778 15.906005-4.976989 24.16748-12.409302 148.622437-133.865601 263.376831-281.124695 269.123169 78.554748-30.96582 130.603088-94.187866 153.615295-178.213745 38.397156-140.192993 111.757019-184.59198 132.486389-115.076904z" fill="#b0db6b"/><path d="m482.476501 1074.368286c16.257752-36.393188 39.479432-67.176208 71.28888-94.883118l14.146973-12.321533c29.204162-25.431579 51.594116-57.75122 65.148132-94.026184 14.43042-38.616211 47.3573-67.354248 87.569885-76.425171 35.545715-8.019409 72.548828.287232 101.107727 22.131714-38.17926-3.388183-74.817016 18.115845-90.091186 54.099854l-9.033387 27.493591-17.674987 6.383118c-51.489624 18.590454-84.04535 69.477295-79.339905 124.017822zm-75.769012 262.893433c73.463135-2.882813 142.373199-40.626099 184.113678-103.36145 23.309143-35.030884 36.559753-75.788331 38.313049-117.829468l2.355652-56.557862-170.084839 80.54773c-5.008545 21.96875-8.473602 44.314087-10.358062 66.873169l-5.368866 64.474975c-13.905793 21.429322-26.908081 43.39856-38.970612 65.852906z" fill="#547520"/><path d="m851.334229 891.270142 10.746521 3.358886c25.550659 7.98407 45.005432 28.83545 51.20465 54.874024 6.20044 26.040039-1.77008 53.42041-20.981506 72.062134-12.341186-14.0542-35.326782-29.111695-59.773132-32.908814-13.846009-1.944336-24.97699-12.374145-27.814942-26.062134-1.725158-8.316223-7.148864-15.392029-14.729858-19.219787l-5.498047-2.774659c9.800293-2.546691 17.726135-9.740661 21.209045-19.246521 6.949158-18.966491 25.466675-31.17395 45.637269-30.083129z" fill="#ffb700"/><path d="m892.303894 1021.565186c-12.341186-14.0542-35.326782-29.111695-59.773132-32.908814-13.846009-1.944336-24.97699-12.374145-27.814942-26.062134-1.725158-8.316223-7.148864-15.392029-14.729858-19.219787l-5.498047-2.774659c49.650024.877869 93.128784 33.527405 107.815979 80.965394z" fill="#f58f00"/><path d="m925.072815 881.317505c-19.983337-2.824341-51.322754-11.911621-74.879273-24.07251-25.852417-46.774658-110.35205-43.398559-138.788085 10.716919l-21.210267 3.928833c-62.894531 11.646118-122.765014 35.967102-175.960266 71.483704l-7.85733-16.496521c-20.151459-42.325684-10.623566-92.82666 23.56723-124.900269 31.81189-29.838501 50.46344-71.095459 51.846436-114.688598 2.04657-64.494507 52.898071-116.806885 117.307129-120.677247 64.41156-3.875122 121.162841 41.969117 130.92334 105.752564 8.839843 57.777588 39.351501 110.022095 85.32965 146.109741 19.272156 15.125488 23.52356 42.601929 9.721436 62.843384z" fill="#333"/><path d="m751.833435 604.111816c-24.387817 0-41.065735 22.445923-37.253906 50.130738 2.495849 18.127807 13.15332 34.004638 27.060119 42.809326l.041382.332397c2.415589 17.540894 14.66565 31.758301 27.362183 31.758301 12.69928 0 21.035217-14.217407 18.61969-31.758301l-.048584-.332397c11.48175-8.804688 17.768738-24.681519 15.272888-42.809326-3.80957-27.684815-26.668152-50.130738-51.053772-50.130738zm25.409363 46.337159c8.255615.864379 15.943848 8.808471 17.17456 17.743408 1.231995 8.934448-4.465515 15.475952-12.71875 14.614013-8.255432-.864379-15.944885-8.809448-17.17456-17.744262-1.230713-8.934815 4.465759-15.478638 12.71875-14.613159zm-38.064758 0c8.018005-.865479 15.514038 5.678344 16.744751 14.613159 1.228454 8.934814-4.273072 16.879883-12.290162 17.744262-8.016845.861939-15.511535-5.679565-16.742248-14.614013-1.229736-8.934937 4.272095-16.879029 12.287659-17.743408zm23.317871 32.69226h.433349c2.022156-.703857 4.772522 2.085572 6.142151 6.229615 1.368286 4.145507.838684 8.074218-1.184631 8.77539-1.002075.349488-2.18042-.159424-3.283509-1.263672-.797302 1.104248-1.838317 1.61316-2.935363 1.263672-2.215576-.701172-3.826294-4.629883-3.599854-8.77539.230103-4.144043 2.209595-6.933472 4.427857-6.229615zm45.538574 37.313599c-.149597-.254517.569702 1.294067-.421143-.798584-.993591-2.088013-1.134704-8.463989 1.603455-10.188721 2.737915-1.724243 6.731262.615723 8.310303 3.944336 1.580017 3.329712 1.332946 5.838989.273803 8.021851 2.167115.146972 4.131897 1.263672 5.71222 4.593384 1.5802 3.327148 1.134643 8.463623-1.603272 10.188842-2.738159 1.723999-7.318176-1.853027-8.310303-3.943481-.991089-2.089111-.248291-.557495-.354248-.838745l-29.966369 18.880371 13.40039 7.194946.125367-.838745c.776733-3.901977 4.010314-5.667358 7.223205-3.943481 3.212952 1.725219 5.186462 6.288086 4.410706 10.190307-.550232 2.754883-2.324036 4.444702-4.449585 4.59314 1.661804 2.182983 2.483581 5.265747 1.935547 8.023071-.779114 3.901978-4.011231 5.667481-7.226685 3.94104-3.210388-1.722778-5.183838-6.286987-4.408447-10.188843l.20343-.796386-21.630371-11.613159-18.433472 11.613159.422608.796386c1.85028 3.901856 1.13446 8.466065-1.603455 10.188843-2.738159 1.726441-6.459717-.039062-8.311523-3.94104-1.307496-2.757324-1.333191-5.840088-.272767-8.023071-2.166931-.148438-4.407226-1.838257-5.714721-4.59314-1.851807-3.902221-1.132263-8.465088 1.603454-10.190307 2.737915-1.723877 6.458496.041504 8.312744 3.943481l.35431.838745 11.420715-7.194946-35.166016-18.880371c-.027893.28125.293518-1.250366-.122925.838745-.417602 2.090454-4.012695 5.66748-7.224426 3.943481-3.212585-1.725219-5.072937-6.861694-4.410644-10.188842.663452-3.329712 2.324035-4.446412 4.449829-4.593384-1.660584-2.182862-2.598084-4.692139-1.937073-8.021851.664734-3.328613 4.015259-5.668579 7.225647-3.944336 3.212707 1.724732 4.825867 8.100708 4.410767 10.188721-.417664 2.092651-.122986.544067-.200989.798584l43.391296 23.295898z" fill="#fff"/><path d="m573.456543 997.303772c-16.209229 13.174011-33.905945 25.046509-58.773682 42.731262-51.912017 36.918091-97.890075 81.533814-136.351684 132.306275 17.760193.856933 43.185272-14.435303 70.899414-34.547608-41.222809 34.379639-84.880615 68.793213-103.763306 102.90625 24.256531-3.15332 57.178803-20.130615 96.358612-47.112793-34.368652 25.425049-68.079742 51.180176-88.720398 83.472901 27.322052-2.125489 58.291443-18.32251 89.319519-34.743531-26.033905 17.297486-52.447754 34.221314-69.100036 60.57544 101.272308-7.168335 188.071563-36.522217 244.491668-144.470825 20.968201-40.118897 30.433899-84.62378 28.220581-128.784302-.860961-17.184326-10.644287-31.455139-26.358947-38.455445-15.717285-7.000549-32.869934-4.729858-46.221741 6.122376z" fill="#6e9234"/><path d="m504.6073 1047.353271c-24.996643 18.535645-48.549469 38.887696-70.475586 60.873536-4.429199 14.529052-6.954132 29.663086-7.441132 45.027343 7.256104-4.615478 14.811432-9.850463 22.540009-15.460449l-22.615479 18.798828c-.087585 6.928467.236298 13.893311.991028 20.868164.845001 7.797608 2.215881 15.470215 4.071137 22.979248l10.14862-6.852783-10.000061 7.436035c7.845307 31.245728 24.229737 59.598877 47.144501 81.94043 40.499695-14.344116 76.728393-37.719116 107.146362-75.566894-47.009338-40.544922-76.359649-98.139893-81.509399-160.043458z" fill="#8ab348"/><path d="m773.333496 906.820557c-5.868103 0-10.65509-7.610291-10.65509-16.938355 0-9.329346 4.786987-16.938354 10.65509-16.938354 5.868286 0 10.653992 7.609008 10.653992 16.938354 0 9.328064-4.785706 16.938355-10.653992 16.938355z" fill="#333"/></g><path d="m960.119873 1831.995972c-483.000061 0-875.948189-392.963501-875.948189-875.976807 0-482.934082 392.948128-875.827148 875.948189-875.827148 482.876465 0 875.734253 392.893066 875.734253 875.827148 0 483.013306-392.857788 875.976807-875.734253 875.976807zm1.86145-282.804077c326.988526 0 592.920899-266.135254 592.920899-593.17273 0-326.97583-265.932373-593.022583-592.920899-593.022583-327.143554 0-593.144165 266.046753-593.144165 593.022583 0 327.037476 266.000611 593.17273 593.144165 593.17273z" fill="#231f20" opacity=".810915"/><path d="m1580.167114 815.305298v182.118225c0 28.737488-23.296386 52.033752-52.033813 52.033752l-514.133301-2.457275c-24.903015 0-45.42041-15.036865-50.532288-38.406067l-4.467712-4.593933 3.276123-5.53125-.010315-183.163452c0-28.737427 23.296326-52.033814 52.033814-52.033814h513.833679c28.737427 0 52.033813 23.296387 52.033813 52.033814z" fill-rule="evenodd"/><path d="m1578.167114 813.305298v182.118225c0 28.737488-23.296386 52.033752-52.033813 52.033752h-513.833679c-17.045899 0-32.177369-8.196533-41.668213-20.863281l-52.643067-10.57373 42.277466-30.711975v-172.002991c0-28.737427 23.296326-52.033814 52.033814-52.033814h513.833679c28.737427 0 52.033813 23.296387 52.033813 52.033814z" fill="#fff" fill-rule="evenodd"/><g opacity=".797981"><path d="m1373.284058 1179.709961v71.546387c0 28.737548-23.296387 52.033813-52.033814 52.033813h-303.530456c-28.737488 0-52.033814-23.296265-52.033814-52.033813v-71.546387c0-9.054688 2.312805-17.569336 6.379883-24.985107l-23.724487-64.989991 56.819519 39.467041c4.022033-.996826 8.228698-1.525879 12.558899-1.525879h303.530456c28.737427 0 52.033814 23.296387 52.033814 52.033936z" fill="#fff" fill-rule="evenodd"/><text><tspan font-family="Keep Calm" font-size="34.689195" font-weight="500" letter-spacing="3.122028" x="1066.594503" y="1202">GULLIBLE</tspan><tspan font-family="Keep Calm" font-size="34.689195" font-weight="500" letter-spacing="3.122028" x="1050.13448" y="1260.8">INVESTORS</tspan></text></g><g fill-rule="evenodd" opacity=".797981"><path d="m1375.284058 1217.483154v-35.773193c0-28.737549-23.296387-52.033936-52.033814-52.033936h-303.530456c-28.737488 0-52.033814 23.296387-52.033814 52.033936v71.546387c0 28.737548 23.576538 49.743652 52.314026 49.743652l303.250244 2.290161c28.737427 0 52.033814-23.296265 52.033814-52.033813z"/><path d="m1373.284058 1179.709961v71.546387c0 28.737548-23.296387 52.033813-52.033814 52.033813h-303.530456c-28.737488 0-52.033814-23.296265-52.033814-52.033813v-71.546387c0-9.054688 2.312805-17.569336 6.379883-24.985107l-23.724487-64.989991 56.819519 39.467041c4.022033-.996826 8.228698-1.525879 12.558899-1.525879h303.530456c28.737427 0 52.033814 23.296387 52.033814 52.033936z" fill="#fff"/><path d="m1286.702881 1252.515259-.676514 2.965942-1.890625 2.480225-2.87915 1.717163-6.92041.433594-5.134034-1.821167-2.410888-1.717041 3.815796-3.850586 3.260742 1.959961 3.468872.572387 2.619141-.832641 1.092651-2.046631-1.109985-2.185303-9.973145-5.099365-1.699829-2.358887-.641724-3.191406c0-1.179443.237061-2.266358.711182-3.260742l1.942505-2.549683 2.879272-1.647827 3.555664-.5896c2.127564 0 3.9198.277466 5.376709.83252 1.457032.554932 2.752076 1.364502 3.885254 2.428223l-3.74646 3.781127-2.324096-1.543579-3.018067-.537841-2.636352.884643-1.075318 2.064087 1.214112 2.237305 8.047851 3.694458 2.428223 1.907837 1.387573 2.341552zm-24.941651 7.28479h-5.931762l-2.757813-8.221436-2.70581-2.46289-2.168091-.346924h-2.011963v11.03125h-5.307373v-27.716797l10.961792-.034668 3.29541.607178 2.636353 1.682373 1.734497 2.532226.242798 5.515625-2.723023 3.833252-2.098755 1.12732 2.150757 1.404907 1.318237 2.202881zm-7.04187-19.391358-.364257-1.769043-2.462891-2.306884-5.706421-.32959v8.637695l5.706421-.294922 2.462891-2.185425zm-21.125732 5.515625c0 1.988892-.387329 3.862061-1.162109 5.619629-.774659 1.757569-1.832642 3.283936-3.173951 4.57898-1.34143 1.295044-2.902343 2.318481-4.683105 3.069946-1.780762.751709-3.677002 1.127442-5.688965 1.127442-2.012085 0-3.914185-.375733-5.706421-1.127442-1.792358-.751465-3.359009-1.774902-4.700439-3.069946-1.341309-1.295044-2.399292-2.815552-3.17395-4.561646-.774781-1.745971-1.16211-3.625-1.16211-5.636963 0-2.011962.387329-3.896728 1.16211-5.654296.774658-1.757569 1.832641-3.283936 3.17395-4.57898 1.34143-1.295044 2.908081-2.312622 4.700439-3.052612 1.792236-.740113 3.694336-1.110108 5.706421-1.110108 2.011963 0 3.908203.369995 5.688965 1.110108 1.780762.73999 3.341675 1.763305 4.683105 3.069946 1.341309 1.306641 2.399292 2.832886 3.173951 4.57898.77478 1.746093 1.162109 3.625 1.162109 5.636962zm-5.411499 0c0-1.271972-.242798-2.46875-.728516-3.590332l-1.994629-2.948486-2.96582-2.012085c-1.133301-.497192-2.335815-.745727-3.607666-.745727l-3.642456.745727-2.965942 2.012085-1.994629 2.948486c-.485596 1.121582-.728394 2.31836-.728394 3.590332 0 1.24878.242798 2.43982.728394 3.572998l1.994629 2.965943 2.965942 2.011963c1.133179.497192 2.34729.745727 3.642456.745727 1.271851 0 2.474365-.248535 3.607666-.745727l2.96582-2.011963c.844117-.844116 1.509034-1.832764 1.994629-2.965943zm-28.063477-9.053955h-7.666381v22.929688h-5.446167v-22.929688h-7.666382v-4.787109h20.77893zm-25.982299 15.644898-.676392 2.965942-1.890625 2.480225-2.87915 1.717163-6.920533.433594-5.133911-1.821167-2.411011-1.717041 3.815796-3.850586 3.260865 1.959961 3.468872.572387 2.619018-.832641 1.092774-2.046631-1.110108-2.185303-9.973144-5.099365-1.699707-2.358887-.641724-3.191406c0-1.179443.236939-2.266358.71106-3.260742l1.942627-2.549683 2.87915-1.647827 3.555664-.5896c2.127564 0 3.919922.277466 5.376831.83252 1.457031.554932 2.751953 1.364502 3.885254 2.428223l-3.74646 3.781127-2.324219-1.543579-3.017944-.537841-2.636353.884643-1.075439 2.064087 1.214233 2.237305 8.047852 3.694458 2.428223 1.907837 1.387573 2.341552zm-25.808716 7.28479h-18.315918v-27.716797h18.315918v4.440308h-13.043213v6.62561h12.869751v4.336182h-12.869751v7.631591h13.043213zm-24.386475-27.751465-10.510864 27.751465h-4.925903l-10.753663-27.751465h5.966553l7.215332 19.495361 7.111328-19.495361zm-32.260986 27.751465h-5.272827l-12.522705-19.460694v19.460694h-5.272828v-27.751465h6.035889l11.759644 18.10791v-18.10791h5.272827zm-31.393799 0h-5.376709v-27.716797h5.376709zm209.609497-58.800049h-18.315796v-27.716675h18.315796v4.440308h-13.043091v6.625488h12.869629v4.336182h-12.869629v7.631592h13.043091zm-24.559936 0h-18.766846v-27.716675h5.480957v22.513306h13.285889zm-25.704712-7.943848c0 1.15625-.237061 2.22583-.71106 3.208741l-1.890625 2.532348-2.723022 1.647705-14.448121.555054v-27.751343h9.990479l3.347534.53772 2.688355 1.561035 1.786621 2.497559.641723 3.312744-.693847 3.018066-1.838501 2.462891 2.827148 2.688476zm-6.625611-11.794311-1.404907-2.948609-6.365479-.971191v7.631592l6.365479-.83252zm1.04065 11.482055-.329468-1.595703-2.220215-2.011963-6.261353-.277465v7.666381l5.758423-.208251 2.636353-1.855835zm-22.513306 8.256104h-5.376709v-27.716675h5.376709zm-11.62085 0h-18.766845v-27.716675h5.480957v22.513306h13.285888zm-25.010864 0h-18.766846v-27.716675h5.480835v22.513306h13.286011zm-26.398559-27.751343v15.055054c0 1.850098-.277466 3.572998-.83252 5.168701-.554932 1.595703-1.358643 2.989014-2.410889 4.180054s-2.335693 2.127563-3.850464 2.809936c-1.51477.682129-3.243408 1.023194-5.186035 1.023194-1.896362 0-3.607666-.335205-5.134033-1.00586-1.526367-.670654-2.827148-1.589965-3.902466-2.757812-1.075439-1.167969-1.902221-2.543945-2.480346-4.128052-.578125-1.584106-.867188-3.289673-.867188-5.116699v-15.228516h5.376831v15.263306l1.769165 5.446045 2.168091 1.647827 2.96582.607056 3.070069-.572388 2.150634-1.595703 1.28357-2.410889.433594-3.052612v-15.332642zm-31.601807 22.651978-5.463501 4.266845-6.226807 1.352784c-2.058227 0-3.989135-.369873-5.793091-1.109986-1.803833-.740112-3.376342-1.757568-4.717651-3.052612-1.341308-1.295166-2.405151-2.821411-3.191406-4.578979-.786377-1.757691-1.179444-3.653931-1.179444-5.689087 0-1.98877.38733-3.856202 1.16211-5.602295.774658-1.746094 1.838501-3.266602 3.191406-4.561524 1.352905-1.295166 2.931152-2.318481 4.734985-3.070068 1.803956-.751587 3.734864-1.127442 5.793091-1.127442 2.38208 0 4.550171.485596 6.504273 1.457032 1.954223.971191 3.613403 2.266357 4.977905 3.885132l-3.642334 3.711792c-1.040649-1.410767-2.208618-2.422486-3.503662-3.035401-1.295044-.612793-2.740357-.919189-4.336182-.919189-1.318115 0-2.55542.242798-3.71167.728515l-3.035278 1.994629-2.046753 2.948487c-.497192 1.121582-.745727 2.318359-.745727 3.590332 0 1.295166.248535 2.503418.745727 3.625l2.046753 2.966064 3.035278 2.011963c1.15625.485596 2.393555.728394 3.71167.728394l3.53833-.693726 2.983277-1.838623v-2.671021h-5.688965v-4.578979h10.857666z"/></g><path d="m1527.881836 970.609375c0 2.341492-.507324 4.565918-1.521973 6.67334-1.014648 2.107361-2.432617 3.967529-4.253784 5.580627-1.821167 1.613037-3.980591 2.900879-6.478149 3.863465-2.497681.962646-5.255371 1.443969-8.273438 1.443969l-7.297729-.468322-6.087891-1.482972-5.463623-2.614685-5.424438-3.863525 8.585449-8.663635c2.49768 2.08136 4.943237 3.55133 7.336914 4.409912 2.393555.85852 4.995117 1.287842 7.804931 1.287842l3.239136-.507386 2.653687-1.365844 1.795166-2.029358.663574-2.575623-.546387-2.653747-1.951294-2.263489-3.902588-2.224426-12.995361-5.385498c-2.107422-1.066712-3.95459-2.354493-5.541626-3.863526-1.587036-1.508972-2.861816-3.278076-3.824463-5.307434-.962646-2.029358-1.44397-4.422852-1.44397-7.180664 0-2.653748.533326-5.099304 1.599976-7.336731 1.066773-2.237488 2.523682-4.149719 4.37085-5.736755 1.84729-1.587036 4.006591-2.822815 6.478271-3.707398 2.471558-.884582 5.138306-1.326843 8.000244-1.326843 4.78711 0 8.81958.62439 12.097779 1.873169 3.278198 1.24884 6.192016 3.070007 8.741699 5.463562l-8.429444 8.507507c-1.561035-1.508972-3.304199-2.666687-5.22937-3.473266-1.925293-.806519-4.18872-1.209778-6.790527-1.209778l-3.317139.546387-2.614624 1.443908-1.756225 2.107422-.66333 2.536621.624389 2.692749 2.1073 2.341492 10.068604 4.722107c3.12207 1.092712 5.801757 2.28949 8.039184 3.590332s4.058716 2.73175 5.463501 4.292786c1.405029 1.560974 2.445557 3.317138 3.122071 5.268432.676513 1.951233 1.014648 4.149658 1.014648 6.595276zm-58.85022-46.049927v33.874024c0 4.162719-.624389 8.039184-1.873169 11.629516-1.248779 3.590332-3.057007 6.725342-5.42456 9.405152-2.367554 2.679748-5.255371 4.787048-8.663574 6.322082-3.408204 1.534973-7.29773 2.30249-11.66858 2.30249-4.266845 0-8.117309-.754455-11.551513-2.263488-3.434204-1.508973-6.361206-3.577271-8.780762-6.205017-2.419556-2.627747-4.279785-5.723694-5.580566-9.288025-1.300904-3.564331-1.951294-7.401795-1.951294-11.512452v-34.264282h12.0979v34.342285c0 2.393555.338135 4.644043 1.014648 6.751404.676392 2.107361 1.66504 3.941529 2.965821 5.502564 1.300903 1.561035 2.927002 2.796814 4.878174 3.707397 1.951416.910584 4.175781 1.365906 6.673339 1.365906 2.653809 0 4.956299-.42926 6.907471-1.287842 1.951416-.858581 3.564453-2.055298 4.839234-3.590332 1.27478-1.534973 2.237426-3.34314 2.887817-5.424499.650391-2.08136.975708-4.37085.975708-6.86847v-34.498413zm-71.104126 31.220276c0 4.474915-.871582 8.689636-2.614746 12.644226s-4.123657 7.388794-7.141601 10.302674c-3.018067 2.913879-6.530274 5.216369-10.536866 6.90747-4.006591 1.691101-8.273315 2.536682-12.800293 2.536682-4.526977 0-8.806762-.845581-12.839355-2.536682-4.032715-1.691101-7.557861-3.993591-10.575928-6.90747-3.017944-2.91388-5.398437-6.335083-7.141601-10.263672s-2.614746-8.15625-2.614746-12.683228c0-4.526977.871582-8.7677 2.614746-12.722229 1.743164-3.95459 4.123657-7.388794 7.141601-10.302734 3.018067-2.91388 6.543213-5.203369 10.575928-6.868469 4.032593-1.665101 8.312378-2.49762 12.839355-2.49762 4.526978 0 8.793702.832519 12.800293 2.49762 4.006592 1.6651 7.518799 3.96759 10.536866 6.907531 3.017944 2.939881 5.398437 6.374085 7.141601 10.302674 1.743164 3.928588 2.614746 8.15625 2.614746 12.683227zm-12.175903 0c0-2.861877-.546387-5.554626-1.639038-8.078247-1.092774-2.523621-2.588745-4.735046-4.488037-6.634338-1.89917-1.899231-4.123535-3.408203-6.67334-4.526917-2.549561-1.118713-5.255371-1.6781-8.117188-1.6781-2.91394 0-5.64563.559387-8.195312 1.6781-2.549683 1.118714-4.77417 2.627686-6.67334 4.526917-1.899292 1.899292-3.395264 4.110717-4.487915 6.634338-1.092773 2.523621-1.639038 5.21637-1.639038 8.078247 0 2.809815.546265 5.489563 1.639038 8.039246 1.092651 2.549621 2.588623 4.774048 4.487915 6.67334 1.89917 1.899231 4.123657 3.408203 6.67334 4.526916 2.549682 1.118713 5.281372 1.678101 8.195312 1.678101 2.861817 0 5.567627-.559388 8.117188-1.678101 2.549805-1.118713 4.77417-2.627685 6.67334-4.526916 1.899292-1.899292 3.395263-4.123719 4.488037-6.67334 1.092651-2.549683 1.639038-5.229431 1.639038-8.039246zm-70.479858 31.220276h-12.097779v-62.362488h12.097779zm-25.366456-11.239319c-3.12207 3.798523-6.90747 6.816406-11.356323 9.053894-4.448974 2.237488-9.353027 3.356201-14.712524 3.356201-4.631104 0-8.97583-.845581-13.034546-2.536682-4.058594-1.691101-7.596924-3.993591-10.614868-6.90747-3.017945-2.91388-5.398438-6.335083-7.141602-10.263672s-2.614746-8.15625-2.614746-12.683228c0-4.526977.871582-8.754639 2.614746-12.683227 1.743164-3.928589 4.123657-7.362793 7.141602-10.302674 3.017944-2.939941 6.556274-5.242431 10.614868-6.907531 4.058716-1.665101 8.403442-2.49762 13.034546-2.49762 5.359497 0 10.26355 1.118713 14.712524 3.356201 4.448853 2.237427 8.15625 5.151306 11.122193 8.741699l-8.351441 8.585572c-1.925171-2.757813-4.40979-4.982239-7.453857-6.67334-3.043946-1.691101-6.387085-2.536682-10.029419-2.536682-2.913941 0-5.658692.559387-8.234375 1.6781-2.575684 1.118714-4.826172 2.627686-6.751465 4.526917-1.925171 1.899292-3.447144 4.110717-4.565918 6.634338s-1.678101 5.21637-1.678101 8.078247c0 2.809815.559327 5.476563 1.678101 8.000183 1.118774 2.523682 2.640747 4.735108 4.565918 6.634339 1.925293 1.899231 4.175781 3.408203 6.751465 4.526916 2.575683 1.118713 5.320434 1.678101 8.234375 1.678101 3.850464 0 7.258667-.871582 10.224609-2.614685 2.965943-1.743164 5.4375-4.045655 7.414795-6.907532zm-75.865234 11.239319h-11.863769l-28.17627-43.786438v43.786438h-11.863647v-62.440552h13.58081l26.459107 40.742432v-40.742432h11.863769zm-68.294311-31.220276c0 4.474915-.871582 8.689636-2.614747 12.644226-1.743164 3.95459-4.123657 7.388794-7.141601 10.302674-3.018067 2.913879-6.530274 5.216369-10.536865 6.90747-4.006592 1.691101-8.273316 2.536682-12.800293 2.536682-4.526978 0-8.806763-.845581-12.839356-2.536682s-7.557861-3.993591-10.575928-6.90747c-3.017944-2.91388-5.398437-6.335083-7.141601-10.263672s-2.614746-8.15625-2.614746-12.683228c0-4.526977.871582-8.7677 2.614746-12.722229 1.743164-3.95459 4.123657-7.388794 7.141601-10.302734 3.018067-2.91388 6.543335-5.203369 10.575928-6.868469 4.032593-1.665101 8.312378-2.49762 12.839356-2.49762 4.526977 0 8.793701.832519 12.800293 2.49762 4.006591 1.6651 7.518798 3.96759 10.536865 6.907531 3.017944 2.939881 5.398437 6.374085 7.141601 10.302674 1.743165 3.928588 2.614747 8.15625 2.614747 12.683227zm-12.175904 0c0-2.861877-.546386-5.554626-1.63916-8.078247-1.092651-2.523621-2.588623-4.735046-4.487915-6.634338-1.89917-1.899231-4.123657-3.408203-6.67334-4.526917-2.54956-1.118713-5.255371-1.6781-8.117187-1.6781-2.913941 0-5.64563.559387-8.195313 1.6781-2.549682 1.118714-4.77417 2.627686-6.67334 4.526917-1.899292 1.899292-3.395263 4.110717-4.487915 6.634338-1.092773 2.523621-1.63916 5.21637-1.63916 8.078247 0 2.809815.546387 5.489563 1.63916 8.039246 1.092652 2.549621 2.588623 4.774048 4.487915 6.67334 1.89917 1.899231 4.123658 3.408203 6.67334 4.526916 2.549683 1.118713 5.281372 1.678101 8.195313 1.678101 2.861816 0 5.567627-.559388 8.117187-1.678101 2.549683-1.118713 4.77417-2.627685 6.67334-4.526916 1.899292-1.899292 3.395264-4.123719 4.487915-6.67334 1.092774-2.549683 1.63916-5.229431 1.63916-8.039246zm-62.440552 19.980957c-3.12207 3.798523-6.90747 6.816406-11.356445 9.053894-4.448852 2.237488-9.353027 3.356201-14.712524 3.356201-4.631104 0-8.97583-.845581-13.034424-2.536682-4.058716-1.691101-7.596924-3.993591-10.614929-6.90747-3.018006-2.91388-5.398499-6.335083-7.141663-10.263672-1.743103-3.928589-2.614685-8.15625-2.614685-12.683228 0-4.526977.871582-8.754639 2.614685-12.683227 1.743164-3.928589 4.123657-7.362793 7.141663-10.302674 3.018005-2.939941 6.556213-5.242431 10.614929-6.907531 4.058594-1.665101 8.40332-2.49762 13.034424-2.49762 5.359497 0 10.263672 1.118713 14.712524 3.356201 4.448975 2.237427 8.15625 5.151306 11.122193 8.741699l-8.351319 8.585572c-1.925293-2.757813-4.409912-4.982239-7.453857-6.67334-3.044068-1.691101-6.387207-2.536682-10.029541-2.536682-2.913941 0-5.658692.559387-8.234375 1.6781-2.575684 1.118714-4.82605 2.627686-6.751343 4.526917-1.925293 1.899292-3.447266 4.110717-4.56604 6.634338-1.118652 2.523621-1.67804 5.21637-1.67804 8.078247 0 2.809815.559388 5.476563 1.67804 8.000183 1.118774 2.523682 2.640747 4.735108 4.56604 6.634339s4.175659 3.408203 6.751343 4.526916c2.575683 1.118713 5.320434 1.678101 8.234375 1.678101 3.850464 0 7.258667-.871582 10.224609-2.614685 2.965942-1.743164 5.4375-4.045655 7.414795-6.907532z" fill-rule="evenodd"/><path d="m1365.368286 877h-11.863769v-41.679077l-19.668824 33.171509-18.888183-33.483643v41.991211h-11.86377v-62.440552h13.658936l17.32727 30.986084 18.107788-30.986084h13.190552zm-75.5531 0h-13.268677l-5.775757-12.488159h-30.283569l-5.853882 12.488159h-13.268555l29.503174-62.440552h9.444092zm-23.80542-22.556641-10.38086-22.478637-10.536743 22.478637zm-89.52417 22.556641h-12.097901v-62.362549h12.097901z" fill-rule="evenodd"/><path d="m573.456543 997.303772c-16.209229 13.174011-33.905945 25.046509-58.773682 42.731262-51.912017 36.918091-97.890075 81.533814-136.351684 132.306275 17.760193.856933 43.185272-14.435303 70.899414-34.547608-41.222809 34.379639-84.880615 68.793213-103.763306 102.90625 24.256531-3.15332 57.178803-20.130615 96.358612-47.112793-34.368652 25.425049-68.079742 51.180176-88.720398 83.472901 27.322052-2.125489 58.291443-18.32251 89.319519-34.743531-26.033905 17.297486-52.447754 34.221314-69.100036 60.57544 101.272308-7.168335 188.071563-36.522217 244.491668-144.470825 20.968201-40.118897 30.433899-84.62378 28.220581-128.784302-.860961-17.184326-10.644287-31.455139-26.358947-38.455445-15.717285-7.000549-32.869934-4.729858-46.221741 6.122376z" fill="#6e9234" fill-rule="evenodd"/><path d="m504.6073 1047.353271c-24.996643 18.535645-48.549469 38.887696-70.475586 60.873536-4.429199 14.529052-6.954132 29.663086-7.441132 45.027343 7.256104-4.615478 14.811432-9.850463 22.540009-15.460449l-22.615479 18.798828c-.087585 6.928467.236298 13.893311.991028 20.868164.845001 7.797608 2.215881 15.470215 4.071137 22.979248l10.14862-6.852783-10.000061 7.436035c7.845307 31.245728 24.229737 59.598877 47.144501 81.94043 40.499695-14.344116 76.728393-37.719116 107.146362-75.566894-47.009338-40.544922-76.359649-98.139893-81.509399-160.043458z" fill="#8ab348" fill-rule="evenodd"/><path d="m1129.040649 1601.615845 95.829346-33.21814 50.267578 145.014404-95.829345 33.218262-8.052857-23.231445 68.242066-23.655274-12.016358-34.665527-67.334717 23.34082-7.864135-22.686889 67.334716-23.340821-13.840942-39.928833-68.242065 23.655274zm475.530152-475.491333 16.85022-100.013916 151.346801 25.498535-16.850219 100.013916-24.245728-4.084839 11.999268-71.222046-36.1792-6.095459-11.839843 70.275025-23.677491-3.989136 11.839722-70.274903-41.672363-7.020996-11.99939 71.222046zm20.774902-146.35968-1.968628-29.708802 67.850952-4.496032-4.000732-60.375916-67.850952 4.496094-1.968628-29.70874 153.143921-10.14795 1.968628 29.708741-60.759278 4.026245 4.000733 60.375793 60.759277-4.026123 1.968628 29.708801zm106.498901-193.877015-12.623413-40.531494-121.227905 37.756226-8.967773-28.793945 121.227783-37.756226-12.623413-40.531494 25.309326-7.882569 34.214722 109.856934zm-617.961425-465.801147-102.957764-14.113892 20.844605-152.057617 30.068969 4.121948-16.931274 123.511109 72.888672 9.991943zm-143.546326-16.294067-101.133057 7.669067-11.605285-153.040283 101.133056-7.669068 1.859192 24.51709-72.019043 5.461304 2.774231 36.584106 71.061341-5.388672 1.815551 23.942505-71.061279 5.388672 3.195435 42.138794 72.018982-5.461304zm-152.38916-28.609009c1.875915 6.12207 2.35614 12.169433 1.440613 18.142334-.915528 5.9729-2.882569 11.464233-5.901245 16.474365-3.018677 5.010132-6.933411 9.390625-11.744202 13.141602-4.810852 3.751098-10.216004 6.545776-16.215576 8.384277l-59.378784 17.993896-45.021912-146.928711 52.894348-16.207885c6.366943-1.95105 12.565369-2.812378 18.595581-2.584107 6.030151.228272 11.618836 1.529419 16.766174 3.903321 5.1474 2.373901 9.650818 5.815551 13.510498 10.325195 3.859742 4.509765 6.783753 10.009155 8.772278 16.498535 1.688294 5.509888 2.095948 11.211182 1.222901 17.104004-.873047 5.892944-2.785828 11.233765-5.738343 16.022705 3.671204.616211 7.136963 1.76416 10.3974 3.443848 3.260376 1.679687 6.237854 3.747436 8.932434 6.203247 2.694642 2.45581 5.016907 5.226562 6.96698 8.312256 1.950074 3.085815 3.450379 6.342773 4.500855 9.771118zm-54.213562-51.695679c-1.088013-3.550903-2.699402-6.405518-4.834107-8.564087-2.134765-2.158569-4.59729-3.747803-7.387695-4.767944-2.790466-1.02002-5.786255-1.508423-8.987427-1.465088-3.201233.043335-6.393554.552734-9.577026 1.52832l-16.713135 5.121216 12.381043 40.405396 16.769409-4.937623c3.183472-.975463 6.131897-2.280761 8.845398-3.915771 2.713501-1.635132 4.958862-3.595581 6.736328-5.881348 1.777405-2.285888 2.954956-4.890136 3.532715-7.812866.577698-2.922729.322571-6.159424-.765503-9.710205zm24.137695 59.103394c-.937988-3.061036-2.382507-5.698975-4.333557-7.913819-1.951111-2.214844-4.20874-3.90039-6.773071-5.056762-2.56427-1.15625-5.312683-1.820923-8.245301-1.993775-2.932678-.172851-5.929443.209595-8.990478 1.147583l-24.610596 7.54126 12.437317 40.588989 21.304688-6.528198c3.061035-.937866 6.00946-2.243164 8.845398-3.915772 2.835876-1.672607 5.194397-3.701171 7.0755-6.085693 1.881104-2.384643 3.171692-5.057007 3.871887-8.017334.700135-2.960205.506226-6.215698-.581787-9.766479zm-240.346741 15.17102-34.122375 25.255127 75.536804 102.05835-24.240784 17.941406-75.536834-102.05835-34.122376 25.255127-15.770172-21.307129 92.485535-68.451782zm-148.220489 77.841431 34.946075 42.754638-13.163543 13.187012-42.681305-35.005371zm65.649963 158.105835-16.755279 23.911621-128.046356-5.050293 88.252533 61.84021-16.75528 23.911621-125.850342-88.185791 19.18039-27.372437 119.486053 4.212037-82.11734-57.541138 16.75528-23.911499zm-167.202301 115.320312c10.427002 3.545166 19.55716 8.914917 27.390747 16.109619 7.833588 7.19458 13.949677 15.462159 18.34842 24.802735 4.398742 9.340698 6.981201 19.348633 7.747467 30.02417.766265 10.675537-.643799 21.287353-4.230194 31.835571-3.586396 10.548218-8.947144 19.850586-16.082337 27.907227-7.135223 8.05664-15.29303 14.446777-24.473633 19.17041-9.180603 4.723755-19.038208 7.56018-29.57312 8.509521s-21.076324-.36914-31.624573-3.955566c-10.548248-3.586426-19.739029-8.976807-27.572616-16.171509-7.833588-7.19458-13.949661-15.462158-18.348404-24.802734-4.398743-9.340699-6.940582-19.368653-7.625626-30.084229-.685028-10.715576.765641-21.34729 4.352051-31.895508 3.586395-10.548218 8.906509-19.830566 15.960495-27.84729 7.053986-8.016601 15.201462-14.376343 24.442703-19.079468 9.241227-4.703002 19.129151-7.529174 29.664048-8.478515 10.534912-.949341 21.076324.36914 31.624572 3.955566zm-9.646118 28.370972c-6.668426-2.267334-13.375549-3.127441-20.121582-2.580689-6.746033.546875-13.083984 2.28064-19.014023 5.201416-5.930069 2.920777-11.208343 6.908448-15.835037 11.963013-4.626663 5.054688-8.073593 10.916138-10.340851 17.584595-2.308487 6.789673-3.169311 13.598022-2.582489 20.425293.586823 6.82727 2.340592 13.20581 5.261368 19.135864s6.888428 11.167725 11.903091 15.713257c5.014664 4.54541 10.856125 7.95166 17.524552 10.218994 6.547195 2.225952 13.223984 3.075928 20.030655 2.549683 6.80664-.526123 13.174896-2.249634 19.10495-5.17041 5.930053-2.920777 11.208343-6.908448 15.835022-11.963135 4.626678-5.054688 8.094207-10.976685 10.40271-17.766358 2.267242-6.668457 3.107452-13.416259 2.520629-20.24353-.586822-6.827148-2.340576-13.20581-5.261352-19.135864s-6.918762-11.177979-11.994019-15.744019c-5.075286-4.56604-10.886444-7.962036-17.433624-10.18811zm-52.130874 182.729492c10.619979.438355 20.494125 2.640137 29.622756 6.605713 9.128632 3.965454 17.047516 9.290771 23.756836 15.976196 6.70932 6.685303 11.89563 14.557373 15.559113 23.616394 3.663483 9.05896 5.278686 18.83429 4.845673 29.326355l-2.6456 64.103394-153.541122-6.336731 2.645584-64.103394c.433014-10.492065 2.880218-20.099731 7.341659-28.823425 4.461472-8.723633 10.278809-16.141602 17.452225-22.254028 7.173416-6.112427 15.504166-10.76709 24.992493-13.964234 9.488327-3.197143 19.478348-4.579223 29.970383-4.14624zm-2.011307 30.10083c-7.160004-.423706-13.986222.384033-20.478836 2.423096-6.492646 2.039062-12.227738 5.134766-17.20546 9.287048-4.977722 4.152344-8.972702 9.338501-11.985062 15.558533-3.012344 6.220093-4.68219 13.296509-5.009597 21.229492l-1.069321 25.910095 104.791824 4.324829 1.069306-25.910095c.322143-7.805053-.700226-14.86438-3.067139-21.178283-2.366882-6.313904-5.795624-11.742371-10.286316-16.285462s-9.853912-8.128845-16.089828-10.757324c-6.235916-2.62854-13.125702-4.162476-20.669571-4.601929zm1078.279693 750.439697c-3.828735-6.214599-6.23352-12.742431-7.214355-19.583618-.980835-6.841186-.680054-13.49414.902222-19.959106 1.582397-6.464844 4.410766-12.494141 8.485229-18.087769s9.164551-10.27124 15.270142-14.032837l21.587768-13.299804-26.297363-42.685059 25.349243-15.617187 80.504517 130.671508-46.937134 28.917115c-6.105713 3.761596-12.572632 6.204101-19.401123 7.327636-6.828491 1.123413-13.468872.965332-19.921143-.474487-6.45227-1.439697-12.496093-4.108643-18.131592-8.006958-5.635498-3.898193-10.367553-8.954712-14.196411-15.169434zm25.387329-15.189331c2.082276 3.379883 4.657105 6.155518 7.72461 8.326783 3.067505 2.171386 6.363159 3.675537 9.887207 4.512695 3.524048.83728 7.160889 1.003174 10.910766.497925 3.749878-.505249 7.314698-1.799073 10.694581-3.881348l16.845092-10.37793-30.428466-49.390258-16.845093 10.377929c-3.379883 2.082276-6.121949 4.71167-8.226074 7.888184-2.104126 3.176514-3.54126 6.581177-4.311158 10.214233-.770019 3.633057-.858398 7.334961-.265014 11.105713.593383 3.770874 1.931274 7.34607 4.013549 10.726074zm150.813843-38.846191-20.565918-108.253662-44.852905-44.248169 21.17981-21.469238 45.126342 44.518066 105.955933 21.14978-24.282471 24.61438-74.006714-16.884155 16.672852 75.001465zm31.754029-270.25647-14.84021 25.81189 133.05603 76.499145 14.84021-25.811767-52.789429-30.35083 30.159302-52.456299 52.789429 30.350708 14.84021-25.81189-133.055909-76.499267-14.840332 25.812011 58.95105 33.893189-30.159302 52.456421zm-53.855957-781.183593 60.3302 81.52893 20.845459-15.425293-42.962403-58.058594 33.970337-25.137573 42.391236 57.286499 19.301269-14.282837-42.391113-57.286377 29.492432-21.823974 42.962524 58.058471 19.764526-14.62561-60.3302-81.528931zm-65.538331-64.516724 143.611329-79.86499-24.950562-21.067383-99.733765 57.078979 39.118531-108.260376-25.244141-21.315185-53.642456 155.831543zm-181.611572-115.744629 90.539795 45.708374 11.686768-23.149414-64.475342-32.549927 19.045166-37.724853 63.61792 32.117065 10.821167-21.434692-63.61792-32.117066 16.534668-32.752075 64.47522 32.549927 11.08081-21.948975-90.539795-45.708374zm-72.229492-23.743897 28.437744 8.819581 45.463501-146.591553-28.437622-8.81958z" fill="#f00" fill-rule="evenodd"/></svg>