<svg height="2377" viewBox="0 0 4231 2377" width="4231" xmlns="http://www.w3.org/2000/svg" xmlns:xlink="http://www.w3.org/1999/xlink"><linearGradient id="a" gradientUnits="userSpaceOnUse" x1="69.699264" x2="657.165447" y1="226.856923" y2="226.856923"><stop offset=".00001" stop-color="#450"/><stop offset="1" stop-color="#8a0"/></linearGradient><linearGradient id="b" gradientUnits="userSpaceOnUse" x1="61.508248" x2="900.462963" y1="538.156095" y2="538.156095"><stop offset=".00001" stop-color="#8a0"/><stop offset="1" stop-color="#aad400"/></linearGradient><linearGradient id="c" gradientUnits="userSpaceOnUse" x1="61.508248" x2="1101.142864" y1="857.646283" y2="844.792064"><stop offset=".00001" stop-color="#aad400"/><stop offset="1" stop-color="#d4ff2a"/></linearGradient><linearGradient id="d" gradientUnits="userSpaceOnUse" x1="68.669305" x2="1302.755405" y1="1153.090566" y2="1153.090566"><stop offset=".00001" stop-color="#d4aa00"/><stop offset="1" stop-color="#ffd42a"/></linearGradient><linearGradient id="e" gradientUnits="userSpaceOnUse" x1="81.985789" x2="1505.503335" y1="1463.862593" y2="1469.255688"><stop offset=".00001" stop-color="#d45500"/><stop offset="1" stop-color="#fc0"/></linearGradient><linearGradient id="f" gradientUnits="userSpaceOnUse" x1="57.408685" x2="1708.251265" y1="1783.352781" y2="1785.542459"><stop offset=".00001" stop-color="#a40"/><stop offset="1" stop-color="#f60"/></linearGradient><linearGradient id="g" gradientUnits="userSpaceOnUse" x1="73.794773" x2="1910.999195" y1="2102.883519" y2="2101.82923"><stop offset=".00001" stop-color="#a00"/><stop offset="1" stop-color="#f00"/></linearGradient><path d="m-.026438-.100342h4231.631907v2377.116455h-4231.631907z" fill="#fff"/><path d="m436.129669 92.921631-364.565124.126953v254.829712h363.806823v.760376l221.757599-127.228272-220.994446-128.491943z" fill="url(#a)"/><path d="m679.427124 408.802856v.506958h-607.878799v254.829712l607.108352.253418 221.754395-127.095337-220.995239-128.493408z" fill="url(#b)"/><path d="m880.02594 716.979736v.506836h-808.477615v254.829834h811.001663v-1.647339l218.586487-125.196777-218.586487-126.9729v-1.013794l-2.534363-.506836z" fill="url(#c)"/><path d="m1081.760132 1025.156616v.506836h-1010.171257v254.829834h1013.749504v-2.280884l217.42688-124.568359-217.447144-126.466064v-1.520508l-3.548095-.506958z" fill="url(#d)"/><path d="m1284.508057 1341.443359v.506836h-1212.919182v254.829834h1216.497429v-2.280883l217.42688-124.568238-217.447144-126.466064v-1.52063l-3.548096-.506836z" fill="url(#e)"/><path d="m1487.255981 1657.730225v.506836h-1415.667106v254.829834h1419.245476v-2.281006l217.426757-124.568116-217.447143-126.466308v-1.52063l-3.548096-.506958z" fill="url(#f)"/><path d="m1690.003906 1974.016968v.506836h-1618.415031v254.829712h1621.9934v-2.280762l217.426758-124.568359-217.447143-126.466187v-1.52063l-3.548096-.506836z" fill="url(#g)"/><g fill="#fff"><text font-family="Helvetica" font-size="162.198344" x="117" y="282">A</text><text font-family="Helvetica" font-size="162.198344" x="117" y="598">B</text><text font-family="Helvetica" font-size="162.198344" x="117" y="906">C</text><text font-family="Helvetica" font-size="162.198344" x="117" y="1214">D</text><text font-family="Helvetica" font-size="162.198344" x="117" y="1530">E</text><text font-family="Helvetica" font-size="162.198344" x="117" y="1847">F</text><text font-family="Helvetica" font-size="162.198344" x="117" y="2163">G</text></g><path d="m2017.463745 1186.018555c0 111.87915-76.125366 234.697021-43.2406 335.791748 34.176635 104.670044 169.253662 158.885254 232.723632 246.136963 64.287354 88.113037 74.400879 232.994018 162.602295 297.136474 87.11084 63.463379 227.835694 28.968506 332.535645 63.160156 101.177734 32.881104 194.046387 144.756104 306.220459 144.756104 111.892334 0 204.734863-111.875 305.964355-144.756104 104.682862-34.19165 245.379395.303223 332.622315-63.160156 88.091064-64.142456 98.4729-209.023437 162.498779-297.136474 63.424316-87.251709 198.667969-141.466919 232.716797-246.136963 32.859131-101.094727-43.257568-223.912598-43.257568-335.791748 0-112.046387 76.116699-234.885254 43.257568-335.970215-34.048828-104.675903-169.292481-158.891113-232.716797-246.099243-64.025879-87.96167-74.407715-232.87732-162.498779-297.024781-87.24292-63.568847-227.939453-29.12622-332.622315-63.155517-101.229492-33.025147-194.072021-144.768799-305.964355-144.768799-112.174072 0-205.042725 111.743652-306.220459 144.768799-104.699951 34.029297-245.424805-.41333-332.535645 63.155517-88.201416 64.147461-98.314941 209.063111-162.602295 297.024781-63.46997 87.20813-198.546997 141.42334-232.723632 246.099243-32.884766 101.084961 43.2406 223.923828 43.2406 335.970215z" fill="#a1c900"/><path d="m3088.407715 384.039185 79.21582 11.38208-2.719482 18.926757-57.949707-8.326538-5.958496 41.46875 57.949951 8.326416-2.719483 18.926758-57.949951-8.326538-9.945801 69.220825-21.265869-3.055664zm-134.728272-2.39795 85.062989-1.598877.359375 19.117798-63.58252 1.195069.860108 45.753662 61.434326-1.154785.361328 19.225219-61.434326 1.154663.87622 46.612915 65.623047-1.23352.359375 19.117676-87.10376 1.637329zm819.157471 544.219117 31.00415 121.466796-18.527099 4.729004-12.938233-50.689209-127.087402 32.438965-5.340088-20.92102 127.087403-32.438965-12.725831-49.856568zm-28.817139-70.115113 9.506348 18.061157-132.796875 69.896241-8.605713-16.350098 55.457031-142.570312-102.187988 53.785522-9.40625-17.870972 132.797119-69.89624 8.105225 15.399414-55.912354 143.78125zm-89.939941-152.25476-54.789551-65.087525-114.642822 96.504395 56.104004 66.649047 14.628174-12.313842-42.268311-50.212769 35.666748-30.023559 39.570313 47.00769 14.710449-12.383057-39.570313-47.00769 35.009278-29.470093 40.953857 48.651245zm-108.032715-116.365723 15.783936 14.575561-101.809571 110.250977-15.783935-14.57544zm-114.12207 80.59021 13.051025-19.702271c-20.618164-.256958-38.509277-5.408203-53.674072-15.453613-14.508057-9.610352-23.492432-21.918335-26.952881-36.924072-3.460693-15.00586-.642822-29.374634 8.453369-43.106568 9.01709-13.612548 21.25293-21.807006 36.707764-24.583618 15.45459-2.776733 30.346435.580811 44.675293 10.07251 13.970703 9.254517 25.501465 22.905518 34.592041 40.953613l12.754394-19.254516c-11.512207-17.504639-23.835693-30.607178-36.970459-39.307862-19.045654-12.616089-39.174072-17.015869-60.385986-13.19934-21.21167 3.81665-37.848633 14.829589-49.911133 33.039428-7.593261 11.463135-11.816894 23.998657-12.67041 37.607056-.85376 13.608276 1.726319 26.44165 7.740723 38.500244 6.01416 12.058716 16.006347 22.715088 29.977051 31.969482 17.194824 11.390137 34.732421 17.853272 52.613281 19.389527zm-103.421631-220.489624 19.586182 8.828979-61.670655 136.811035-19.586181-8.829101zm-38.326172-16.782715-76.417236-23.771118-44.574951 143.295532 20.514892 6.38147 20.771729-66.775513 55.902588 17.389648 5.679687-18.258178-55.902832-17.389527 12.444092-40.003784 55.902588 17.389649zm-1062.53418 547.962036-17.067627 83.348633 146.807129 30.062134 17.477051-85.348145-18.732422-3.835815-13.166992 64.300415-45.67334-9.352661 12.326416-60.196167-18.837402-3.857422-12.32666 60.196167-44.831543-9.180298 12.757568-62.300903zm63.987061-165.162598 8.305664-18.643798 137.081055 61.067749-7.518799 16.877563-146.312988 44.657105 105.484619 46.992065-8.218018 18.44751-137.081299-61.067749 7.081787-15.896363 147.545899-45.048584zm94.551758-141.784423-50.45752 68.50061 120.654541 88.873901 51.667969-70.143921-15.395508-11.34021-38.926025 52.845826-37.536865-27.649659 36.441406-49.472656-15.481934-11.40393-36.441406 49.472656-36.844971-27.140015 37.715576-51.202515zm138.050049 69.29248-102.415772-109.688354 27.480957-25.658936c11.097168-10.361328 22.469971-15.836182 34.118652-16.424927 11.648926-.588623 21.847413 3.80188 30.595948 13.171631 5.962646 6.386109 9.522217 13.399048 10.678955 21.039063 1.156982 7.640014-.173096 15.397461-3.98999 23.272216 5.65747-.971313 12.018554-1.031982 19.083007-.18164 7.064698.85022 18.251221 3.387207 33.560547 7.610962 9.637207 2.661255 17.073487 4.486938 22.309326 5.477173l13.141358 2.426635-18.687012 17.44812-20.817139-4.666015-25.597167-7.109986c-7.448731-1.471435-13.76709-2.283447-18.955323-2.435913-5.188476-.152588-9.418457.196412-12.690674 1.046875-3.271972.850586-7.472656 3.670655-12.602539 8.460328l-4.082763 3.812133 44.572998 47.738404zm-69.53833-115.401367-4.710938 4.398682 32.330078 34.626098 5.967285-5.571655c7.956543-7.428955 12.778076-13.204468 14.464844-17.326904 1.686768-4.122315 2.071533-8.327271 1.154541-12.614991-.916992-4.287597-3.012939-8.184936-6.287353-11.692016-3.225831-3.454834-7.062012-5.727051-11.50879-6.816895-4.447021-1.089844-8.869873-.658813-13.269042 1.293091-4.39917 1.951904-10.446045 6.520142-18.140625 13.70459zm244.913574-103.767944-43.580323 25.278076 9.59375 16.540039 24.99585-14.498413 15.684326 27.040283-1.442138 1.581543c-8.369141 9.407837-16.270508 16.267578-23.704102 20.579346-15.30127 8.875244-30.527588 11.45642-45.679199 7.74353-15.151612-3.712891-27.003174-12.94104-35.554932-27.684693-8.156494-14.062255-10.17456-28.745849-6.054199-44.051025 4.120605-15.305298 13.273682-27.072021 27.459961-35.300415 15.239258-8.839233 33.207275-13.259033 53.904541-13.259644l-10.995361-18.956054c-12.47876 1.60852-22.459717 3.527344-29.942383 5.75647-7.48291 2.229003-14.879151 5.4635-22.188965 9.703491-20.071289 11.641968-33.029053 27.768066-38.874268 48.378662-5.84497 20.610718-3.144043 40.610596 8.102539 60.000366 10.671875 18.398682 26.072754 30.14209 46.20337 35.230713 20.130371 5.088745 40.943359 1.398804 62.439453-11.06958 15.734863-9.126709 29.581298-21.79419 41.53955-38.00293zm134.51416-124.885254-24.849365 7.636108-23.707764 61.452271-53.612549-37.691895-24.849121 7.636108 73.74707 51.283326 23.318604 75.88269 21.050049-6.468628-23.318604-75.88269z" fill-rule="evenodd"/><path d="m3021.970947 642.919922c-4.924804-.532715-9.849365-.369019-14.778076-.154053-4.928955-.214966-9.853516-.378662-14.77832.154053-226.865235 3.697754-375.548828 207.78064-345.887207 411.066528 16.358398 114.484009 79.177978 176.137451 117.390381 216.353882 82.169189 86.305664 67.764648 111.249023 95.336425 154.474365-14.957763 19.203125-16.449462 48.778076-1.128418 68.199463-11.888183 19.567383-12.094482 47.080078 3.226807 64.887818-14.019043 21.896606-12.73999 52.838012 5.713379 69.085327-3.993652 25.512207 14.8479 68.731567 65.967529 67.872314 1.256348 4.831543 1.790283 24.355713 19.542725 35.883301 15.60376 10.475708 22.743896 5.810547 82.725586 7.254394 9.268066.145997 18.754638-2.050415 26.506347-7.254394 17.736573-11.516602 18.288331-31.059326 19.542725-35.883301 47.823486.803711 70.388916-39.631103 65.967529-67.872314 18.61084-16.385742 19.598145-47.398926 5.713379-69.085327 15.321045-17.80774 15.114991-45.321167 3.226563-64.887818 15.321289-19.421387 13.829345-48.996338-1.128174-68.199463 12.713379-19.930908 18.717529-43.10083 28.847168-64.293457 27.633057-61.155151 81.367187-98.784912 119.913818-150.568481 164.808594-223.280518 13.577393-562.216309-281.920166-567.032837z"/><path d="m2951.994873 829.541382c33.352051 36.209228 30.310791 84.989136-8.345947 117.778442 31.904785 26.741822 43.107666 73.487793 20.14917 109.844849-14.787598-6.005127-32.328369-6.781494-46.836914.424438-10.541504-7.351196-23.83667-10.626465-36.501465-7.715332-9.624756-35.466308-39.65918-52.216308-75.696289-44.120361 0-8.867554-1.965088-17.735107-6.465821-25.438232 14.217286-1.310303 28.167725-7.132691 38.333497-17.286622 15.029541 18.163697 39.765869 23.350708 61.430908 9.510499 5.628662 11.754638 15.333496 21.593139 27.476562 26.566406l5.968018-14.750733c-24.959717-10.70459-32.751709-49.505737-5.835205-68.090698l-9.062012-13.186401c-17.068359 11.391357-26.166016 32.753051-23.267334 52.987915-16.907471 13.755371-36.353516 9.472168-46.740478-6.259644 5.021972-9.765259 6.708251-21.301636 3.602783-31.916504 23.239746-14.295532 25.408691-42.480468 15.394287-63.84436 32.229248-.835205 53.848633-21.063965 54.891846-52.733154 15.321289-4.803467 27.427978-17.965943 30.885498-33.662964l-15.272706-3.553955c-6.215087 27.660522-40.216308 30.600464-59.15039 8.988769l-11.973145 10.590088c10.02002 11.451538 24.285889 19.300415 39.643311 20.040405-8.265137 70.406861-122.144531 20.436158-99.169678-36.065307 6.476319-17.185425 26.602295-30.500488 49.360596-21.08313 75.858154-112.223145 155.707519 4.343384 97.180908 82.975586zm-162.94165-29.429688c10.948486 28.445191 29.780273 42.067627 54.710693 50.973633 22.274414 17.704346 12.648193 58.224732-17.820312 56.88147 17.262939 19.733642 11.635009 37.197754-6.599366 48.196045-39.554931 23.239013-50.183349-12.77771-97.179931 11.851929-29.622071-35.598389 2.028564-88.662232 45.794189-87.815308-22.973389-24.480469-23.701904-75.59375 21.094727-80.087769zm-5.143555 229.552613c38.764893-17.090332 71.830078-13.777344 81.907471 27.185302-11.875977 8.758789-18.341797 23.849244-16.340576 38.491211-43.056397 28.81482-29.764649 90.602539 26.008544 96.222168 2.777588 20.501221 18.111084 37.64209 37.144288 44.932984l5.774414-14.811768c-34.728272-14.192139-39.385254-60.3396 2.025879-71.414551l-3.45752-15.479248c-20.41626 4.523438-36.185059 18.004273-41.293457 40.723023-43.842285-5.521118-48.408203-50.825806-7.897461-71.984864-9.586426-40.818969 22.656006-49.030639 48.147461-25.183593 45.690918-38.36438 100.10083 38.923095 46.388672 96.148925 63.312988 68.49524-7.957031 152.658082-68.733643 90.556885-46.378906 18.6875-74.602295-8.201538-68.357666-55.38977-48.47998 13.851196-78.172607-24.451538-63.881347-72.178589-45.263672-14.248291-62.014893-54.255859-59.950684-98.06604 6.208496-90.415039 114.081299-80.775147 82.515625-9.752075z" fill="#fff"/><path d="m3159.571533 746.566406c22.694092-9.390625 42.861084 3.836182 49.360596 21.083252 22.988525 56.536377-90.915527 106.379029-99.169678 36.065308 15.357422-.740112 29.623535-8.588867 39.643311-20.040405l-11.973145-10.59021c-18.928467 21.60559-52.933838 18.677368-59.15039-8.98877l-15.272706 3.554077c3.45752 15.697632 15.564209 28.859375 30.885499 33.662842 1.043212 31.669922 22.665283 51.897339 54.891845 52.733276-9.919189 21.161133-8.044677 49.427002 15.394287 63.844361-3.105468 10.614868-1.419189 22.151245 3.602784 31.916382-10.356202 15.685302-29.787842 20.052002-46.740479 6.259765 2.899414-20.234131-6.198975-41.59668-23.267334-52.987793l-9.062012 13.18628c26.90625 18.57727 19.134034 57.381958-5.835205 68.090576l5.968018 14.750854c12.143066-4.973999 21.8479-14.811767 27.476562-26.566528 21.373291 13.65332 46.178955 8.921753 61.430909-9.510498 10.165771 10.15332 24.11621 15.976318 38.33374 17.286743-4.500244 7.703003-6.466065 16.570679-6.466065 25.438232-36.000976-8.087768-66.0625 8.619019-75.696289 44.12024-12.664795-2.911133-25.959961.364257-36.501465 7.715332-14.508545-7.205933-32.049804-6.429444-46.836914-.424439-22.984619-36.398804-11.716552-83.135742 20.14917-109.844726-38.666992-32.798218-41.688965-81.57898-8.345947-117.778565-51.97998-69.837036 3.619873-153.169433 57.524414-123.467773 16.838379 9.327636 29.054688 24.806885 39.656494 40.492187zm86.857422 133.633667c43.751221-.846924 75.428711 52.201905 45.794434 87.81543-10.745118-5.631226-25.791016-14.063477-54.006836-5.72583-31.998535 9.570068-81.479492-18.07605-49.772705-54.322144-30.46753 1.34253-40.098633-39.174438-17.820069-56.881591 23.992188-8.571167 43.397217-21.582154 54.71045-50.973633 44.348388 4.448242 44.320312 55.337036 21.094726 80.087768zm6.611084 257.283692c14.267334 47.645507-15.293213 86.060669-63.881348 72.178711 6.246094 47.198486-22.238281 73.972412-68.357666 55.389526-61.175048 62.508057-131.69458-22.442749-68.733398-90.556641-53.778076-57.296386.626465-134.572998 46.388428-96.149048 25.177978-23.554077 57.811279-15.962646 48.147461 25.183594 40.355224 21.077637 36.113281 66.442627-7.897461 71.984864-5.074707-22.568848-20.706055-36.161866-41.293457-40.723023l-3.45752 15.479248c41.346924 11.057129 36.795899 57.205322 2.025879 71.414673 1.941162 4.925293 3.61499 9.959595 5.774414 14.811645 19.033203-7.290771 34.366699-24.431762 37.144287-44.932983 55.823731-5.62439 69.049317-67.418213 26.008545-96.222168 2.001953-14.641968-4.463867-29.733032-16.340332-38.491089 10.10669-41.083984 43.186279-44.256592 81.907471-27.185425-25.502686-57.380737 35.593017-67.543701 61.660888-41.984863 32.922852 31.542481 33.223389 127.03833-39.096191 149.802979z" fill="#fff"/><path d="m3661.053955 1186.382935c0-360.940796-292.600098-653.540894-653.540771-653.540894-360.940674 0-653.541016 292.600098-653.541016 653.540894 0 360.940551 292.600342 653.540893 653.541016 653.540893 360.940673 0 653.540771-292.600342 653.540771-653.540893z" fill="#fff" fill-rule="evenodd" opacity=".128943"/><path d="m3885.459473 1186.382813c0-484.876343-393.069825-877.94629-877.946289-877.94629-484.876465 0-877.946289 393.069947-877.946289 877.94629 0 484.876464 393.069824 877.946289 877.946289 877.946289 484.876464 0 877.946289-393.069825 877.946289-877.946289z" fill="#fff" fill-rule="evenodd" opacity=".128943"/><path d="m3078.300049 1576.619995c0 7.333374-1.503418 14.116577-4.51001 20.349976-3.006836 6.233398-7.003418 11.58667-11.98999 16.060058-4.986817 4.473389-10.743408 7.956543-17.27002 10.449951-6.526611 2.493409-13.3833 3.739991-20.570068 3.739991l-71.060059-.219971v-176h63.360108c7.626709 0 14.703369 1.136719 21.22998 3.410034 6.526612 2.273316 12.209961 5.573242 17.050049 9.900025 4.840088 4.32666 8.616699 9.606567 11.330078 15.839965 2.713135 6.233277 4.069824 13.236573 4.069824 21.01001 0 6.599976-1.466552 12.979859-4.399902 19.140015-2.93335 6.159912-6.820068 11.366577-11.660156 15.619873 3.813476 1.906738 7.223388 4.32666 10.230224 7.26001 3.006592 2.933349 5.573243 6.196777 7.699952 9.790039 2.126709 3.593383 3.73999 7.406738 4.839843 11.440063 1.100098 4.033325 1.650147 8.103272 1.650147 12.209961zm-42.02002-74.799927c0-4.253418-.80664-7.920044-2.419922-11-1.613525-3.080078-3.776855-5.646728-6.48999-7.700073-2.713379-2.053345-5.830078-3.593384-9.350097-4.619995-3.52002-1.026611-7.186768-1.540039-11-1.540039h-20.02002v48.400024l20.02002.220093c3.813232 0 7.47998-.440063 11-1.320068 3.520019-.880005 6.636718-2.273316 9.350097-4.179932 2.713135-1.906738 4.876465-4.363403 6.48999-7.370117 1.613282-3.006592 2.419922-6.636597 2.419922-10.889893zm6.599854 72.819947c0-3.666626-.696533-7.039917-2.089844-10.119995-1.39331-3.080079-3.300049-5.68335-5.719971-7.810059-2.420166-2.126709-5.206787-3.776611-8.360107-4.949951s-6.563232-1.76001-10.229981-1.76001h-29.47998v48.619995h25.52002c3.666748 0 7.333251-.440063 11-1.319946 3.666748-.880127 6.929931-2.310059 9.790039-4.290039 2.859863-1.979981 5.169921-4.473389 6.929931-7.479981 1.76001-3.006714 2.639893-6.636718 2.639893-10.890014z" fill="#fff" fill-rule="evenodd"/><path d="m3099.742676 1907.446045 21.147705-3.788452 23.014648 128.472412 66.509522-11.914551 3.44751 19.244385-87.657471 15.703003zm-102.339844 3.940185 15.146484.024292 66.896485 151.035279-22.021485-.035401-19.909179-44.504638-63.80835-.102417-18.977783 44.44226-22.02124-.0354zm31.334473 87.384278-24.08252-54.394165-22.538574 54.319458zm-134.560547 23.75-4.952393 23.108154c-17.206299 5.101318-35.892578 5.491211-56.059814 1.16919-16.385987-3.511597-29.580322-9.781617-39.58374-18.810059s-17.093018-20.032471-21.269288-33.012207c-4.176269-12.979736-4.82373-26.191895-1.942382-39.636597 4.577148-21.357666 16.041504-37.686767 34.39331-48.987915 18.351807-11.301269 38.696533-14.558105 61.034424-9.770996 15.405518 3.301514 31.66333 10.99707 48.774414 23.086792l-4.839844 22.582886c-15.055175-13.480103-30.77539-21.975952-47.161132-25.487549-16.805909-3.601685-31.89502-1.287353-45.267579 6.942749-13.372558 8.230225-21.769287 20.328003-25.190918 36.293579-3.45166 16.105713-.825927 30.510864 7.876954 43.215576 8.702636 12.704834 21.562011 20.880371 38.578125 24.5271 17.786376 3.811768 36.322753 2.071533 55.609863-5.220703zm-196.584961-181.896851c20.965576 9.941529 35.275391 24.850952 42.929932 44.728516 7.654541 19.877563 6.74121 39.813598-2.739991 59.808594-9.481445 19.994995-24.365478 33.207153-44.653076 39.636962-20.287598 6.42981-41.140381 4.566529-62.559082-5.589721-20.447754-9.696167-34.375488-24.325195-41.783203-43.887573s-6.432373-39.211426 2.926269-58.94751c9.604004-20.253784 24.409913-33.76062 44.418458-40.521118 20.0083-6.760254 40.495117-5.169678 61.460693 4.77185zm-7.968506 18.810181c-15.530029-7.364258-30.594727-8.563355-45.194824-3.597656-14.600098 4.965576-25.47461 14.986816-32.623779 30.063964-6.934571 14.624146-7.688233 29.167115-2.260987 43.629395s15.679444 25.267944 30.756592 32.417236c15.141602 7.179932 30.123047 8.220703 44.94458 3.122315 14.821533-5.098389 25.730225-15.024292 32.726074-29.777832 6.811768-14.365235 7.478516-28.850464 2.000244-43.455811-5.478515-14.605346-15.594238-25.405761-30.3479-32.401611zm-146.468018-113.860596 17.200684 12.873291-78.205322 104.49292 54.095703 40.486572-11.714844 15.652466-71.295898-53.359741zm777.528809 94.957642-13.711914 6.433838 5.760986 164.012817 19.936035-9.354248-1.775146-48.29187 57.765869-27.10437 36.979248 31.773926 19.936035-9.354248zm6.909424 33.186401 44.969726 38.941162-42.20581 19.803467zm91.428955-89.177246-17.865234 11.933716 83.356933 124.78833 17.865235-11.933716z" fill-rule="evenodd"/></svg>