<svg height="2377" viewBox="0 0 2377 2377" width="2377" xmlns="http://www.w3.org/2000/svg"><path d="m198.463791 1188.018555c0 111.87915-76.125465 234.697021-43.240585 335.791748 34.176635 104.670044 169.253692 158.885254 232.723571 246.136963 64.287476 88.113037 74.400757 232.994018 162.602173 297.136474 87.110901 63.463379 227.835755 28.968506 332.535706 63.160156 101.177856 32.881104 194.046448 144.756104 306.220398 144.756104 111.892456 0 204.734985-111.875 305.964599-144.756104 104.68274-34.19165 245.379273.303223 332.622193-63.160156 88.090942-64.142456 98.4729-209.023437 162.498779-297.136474 63.424316-87.251709 198.667969-141.466919 232.716797-246.136963 32.859131-101.094727-43.257568-223.912598-43.257568-335.791748 0-112.046387 76.116699-234.885254 43.257568-335.970215-34.048828-104.675903-169.292481-158.891113-232.716797-246.099243-64.025879-87.96167-74.407837-232.87732-162.498779-297.024781-87.24292-63.568847-227.939453-29.12622-332.622193-63.155517-101.229614-33.025147-194.072143-144.768799-305.964599-144.768799-112.17395 0-205.042542 111.743652-306.220398 144.768799-104.699951 34.029297-245.424805-.41333-332.535706 63.155517-88.201416 64.147461-98.314697 209.063111-162.602173 297.024781-63.469879 87.20813-198.546936 141.42334-232.723571 246.099243-32.88488 101.084961 43.240585 223.923828 43.240585 335.970215z" fill="#a1c900"/><path d="m1202.970947 644.919922c-4.924682-.532715-9.849365-.369019-14.778198-.154053-4.928833-.214966-9.853516-.378662-14.778198.154053-226.865296 3.697754-375.548889 207.78064-345.887085 411.066528 16.358337 114.484009 79.177856 176.137451 117.390259 216.353882 82.169067 86.305664 67.764709 111.249023 95.336303 154.474365-14.957519 19.203125-16.449402 48.778076-1.128296 68.199463-11.888305 19.567383-12.09436 47.080078 3.226807 64.887818-14.018921 21.896606-12.73999 52.838012 5.713379 69.085327-3.99353 25.512207 14.848022 68.731567 65.967529 67.872314 1.256348 4.831543 1.790283 24.355713 19.542603 35.883301 15.603882 10.475708 22.74414 5.810547 82.725708 7.254394 9.268188.145997 18.754638-2.050415 26.506347-7.254394 17.736573-11.516602 18.288331-31.059326 19.542603-35.883301 47.823608.803711 70.389038-39.631103 65.967529-67.872314 18.61084-16.385742 19.598145-47.398926 5.713379-69.085327 15.321167-17.80774 15.115113-45.321167 3.226807-64.887818 15.321167-19.421387 13.829223-48.996338-1.128296-68.199463 12.713257-19.930908 18.717651-43.10083 28.847046-64.293457 27.633179-61.155151 81.367431-98.784912 119.91394-150.568481 164.808472-223.280518 13.577271-562.216309-281.920166-567.032837z"/><g fill="#fff"><path d="m1132.994873 831.541382c33.352051 36.209228 30.310791 84.989136-8.345947 117.778442 31.904785 26.741822 43.107666 73.487793 20.149292 109.844849-14.787842-6.005127-32.328491-6.781494-46.837036.424438-10.541504-7.351196-23.836792-10.626465-36.501465-7.715332-9.624756-35.466308-39.659058-52.216308-75.696411-44.120361 0-8.867554-1.964905-17.735107-6.465821-25.438232 14.217469-1.310303 28.167908-7.132691 38.333619-17.286622 15.029418 18.163697 39.765869 23.350708 61.43103 9.510499 5.62854 11.754638 15.333374 21.593139 27.47644 26.566406l5.968018-14.750733c-24.959595-10.70459-32.751587-49.505737-5.835205-68.090698l-9.062134-13.186401c-17.068237 11.391357-26.165894 32.753051-23.26709 52.987915-16.907471 13.755371-36.353638 9.472168-46.740478-6.259644 5.02185-9.765259 6.708252-21.301636 3.602661-31.916504 23.239746-14.295532 25.408691-42.480468 15.394409-63.84436 32.229248-.835205 53.848389-21.063965 54.891846-52.733154 15.321167-4.803467 27.427734-17.965943 30.885253-33.662964l-15.27246-3.553955c-6.21521 27.660522-40.216431 30.600464-59.150391 8.988769l-11.973267 10.590088c10.019898 11.451538 24.286011 19.300415 39.643433 20.040405-8.265137 70.406861-122.144531 20.436158-99.169739-36.065307 6.476135-17.185425 26.602173-30.500488 49.360657-21.08313 75.85791-112.223145 155.707519 4.343384 97.180786 82.975586zm-162.941528-29.429688c10.948242 28.445191 29.780273 42.067627 54.710449 50.973633 22.274414 17.704346 12.648315 58.224732-17.820068 56.88147 17.262817 19.733642 11.634948 37.197754-6.599366 48.196045-39.555053 23.239013-50.183532-12.77771-97.180053 11.851929-29.622132-35.598389 2.028625-88.662232 45.79425-87.815308-22.97345-24.480469-23.701965-75.59375 21.094788-80.087769zm-5.143799 229.552613c38.764954-17.090332 71.8302-13.777344 81.907593 27.185302-11.875977 8.758789-18.341797 23.849244-16.340576 38.491211-43.056336 28.81482-29.764527 90.602539 26.008544 96.222168 2.777588 20.501221 18.111084 37.64209 37.144288 44.932984l5.774414-14.811768c-34.728272-14.192139-39.385254-60.3396 2.025879-71.414551l-3.45752-15.479248c-20.41626 4.523438-36.185181 18.004273-41.293335 40.723023-43.842346-5.521118-48.408264-50.825806-7.897461-71.984864-9.586426-40.818969 22.655762-49.030639 48.147339-25.183593 45.690918-38.36438 100.10083 38.923095 46.38855 96.148925 63.31311 68.49524-7.956909 152.658082-68.733399 90.556885-46.379028 18.6875-74.602356-8.201538-68.357666-55.38977-48.480163 13.851196-78.17279-24.451538-63.881347-72.178589-45.263672-14.248291-62.015015-54.255859-59.950806-98.06604 6.208374-90.415039 114.08136-80.775147 82.515503-9.752075z"/><path d="m1340.571411 748.566406c22.694214-9.390625 42.861206 3.836182 49.360596 21.083252 22.988647 56.536377-90.915528 106.379029-99.169556 36.065308 15.3573-.740112 29.623413-8.588867 39.643311-20.040405l-11.973145-10.59021c-18.928589 21.60559-52.933838 18.677368-59.150513-8.98877l-15.27246 3.554077c3.457519 15.697632 15.564209 28.859375 30.885253 33.662842 1.043457 31.669922 22.665406 51.897339 54.891968 52.733276-9.919311 21.161133-8.044677 49.427002 15.394409 63.844361-3.10559 10.614868-1.419311 22.151245 3.602539 31.916382-10.355957 15.685302-29.787841 20.052002-46.740478 6.259765 2.899536-20.234131-6.198731-41.59668-23.26709-52.987793l-9.062012 13.18628c26.906006 18.57727 19.133912 57.381958-5.835327 68.090576l5.96814 14.750854c12.142944-4.973999 21.8479-14.811767 27.476318-26.566528 21.373413 13.65332 46.179077 8.921753 61.431031-9.510498 10.165771 10.15332 24.11621 15.976318 38.333618 17.286743-4.500122 7.703003-6.465821 16.570679-6.465821 25.438232-36.000976-8.087768-66.062622 8.619019-75.696411 44.12024-12.664673-2.911133-25.959961.364257-36.501465 7.715332-14.508422-7.205933-32.049926-6.429444-46.837036-.424439-22.984375-36.398804-11.71643-83.135742 20.149292-109.844726-38.666992-32.798218-41.689087-81.57898-8.345947-117.778565-51.97998-69.837036 3.619873-153.169433 57.524414-123.467773 16.838379 9.327636 29.054565 24.806885 39.656372 40.492187zm86.857666 133.633667c43.751221-.846924 75.428711 52.201905 45.79419 87.81543-10.744873-5.631226-25.790772-14.063477-54.006592-5.72583-31.998535 9.570068-81.479737-18.07605-49.772827-54.322144-30.467652 1.34253-40.098633-39.174438-17.820069-56.881591 23.992188-8.571167 43.397217-21.582154 54.71045-50.973633 44.348266 4.448242 44.32019 55.337036 21.094848 80.087768zm6.610962 257.283692c14.267456 47.645507-15.293091 86.060669-63.881348 72.178711 6.245972 47.198486-22.238159 73.972412-68.357666 55.389526-61.174926 62.508057-131.694702-22.442749-68.73352-90.556641-53.777954-57.296386.626465-134.572998 46.38855-96.149048 25.1781-23.554077 57.811279-15.962646 48.147461 25.183594 40.355346 21.077637 36.113281 66.442627-7.897461 71.984864-5.074707-22.568848-20.705933-36.161866-41.293457-40.723023l-3.457398 15.479248c41.34668 11.057129 36.795899 57.205322 2.025879 71.414673l5.774292 14.811645c19.033325-7.290771 34.366821-24.431762 37.144409-44.932983 55.823731-5.62439 69.049073-67.418213 26.008545-96.222168 2.001831-14.641968-4.463989-29.733032-16.340576-38.491089 10.106812-41.083984 43.186401-44.256592 81.907593-27.185425-25.502686-57.380737 35.592895-67.543701 61.661011-41.984863 32.922851 31.542481 33.223388 127.03833-39.096314 149.802979z"/><path d="m1842.053955 1188.382935c0-360.940796-292.600098-653.540894-653.540893-653.540894-360.940613 0-653.540833 292.600098-653.540833 653.540894 0 360.940551 292.60022 653.540893 653.540833 653.540893 360.940795 0 653.540893-292.600342 653.540893-653.540893z" fill-rule="evenodd" opacity=".128943"/><path d="m2066.459473 1188.382813c0-484.876343-393.069947-877.94629-877.946289-877.94629-484.876404 0-877.946381 393.069947-877.946381 877.94629 0 484.876464 393.069977 877.946289 877.946381 877.946289 484.876342 0 877.946289-393.069825 877.946289-877.946289z" fill-rule="evenodd" opacity=".128943"/></g><path d="m1280.742676 1909.446045 21.147705-3.788452 23.014648 128.472412 66.509522-11.914551 3.44751 19.244385-87.657471 15.703003zm-102.339844 3.940185 15.146484.024292 66.896485 151.035279-22.021485-.035401-19.909179-44.504638-63.80835-.102417-18.977783 44.44226-22.02124-.0354zm31.334473 87.384278-24.08252-54.394165-22.538574 54.319458zm-134.560547 23.75-4.952393 23.108154c-17.206299 5.101318-35.892578 5.491211-56.059814 1.16919-16.385987-3.511597-29.580322-9.781617-39.58374-18.810059s-17.093018-20.032471-21.269288-33.012207c-4.176269-12.979736-4.82373-26.191895-1.942382-39.636597 4.577148-21.357666 16.041504-37.686767 34.39331-48.987915 18.351807-11.301269 38.696533-14.558105 61.034424-9.770996 15.405518 3.301514 31.66333 10.99707 48.774414 23.086792l-4.839844 22.582886c-15.055175-13.480103-30.77539-21.975952-47.161132-25.487549-16.805909-3.601685-31.89502-1.287353-45.267579 6.942749-13.372558 8.230225-21.769287 20.328003-25.190918 36.293579-3.45166 16.105713-.825927 30.510864 7.876954 43.215576 8.702636 12.704834 21.562011 20.880371 38.578125 24.5271 17.786376 3.811768 36.322753 2.071533 55.609863-5.220703zm-196.584961-181.896851c20.965576 9.941529 35.275391 24.850952 42.929932 44.728516 7.654541 19.877563 6.74121 39.813598-2.739991 59.808594-9.481445 19.994995-24.365478 33.207153-44.653076 39.636962-20.287598 6.42981-41.140381 4.566529-62.559082-5.589721-20.447754-9.696167-34.375488-24.325195-41.783203-43.887573s-6.432373-39.211426 2.926269-58.94751c9.604004-20.253784 24.409913-33.76062 44.418458-40.521118 20.0083-6.760254 40.495117-5.169678 61.460693 4.77185zm-7.968506 18.810181c-15.530029-7.364258-30.594727-8.563355-45.194824-3.597656-14.600098 4.965576-25.47461 14.986816-32.623779 30.063964-6.934571 14.624146-7.688233 29.167115-2.260987 43.629395s15.679444 25.267944 30.756592 32.417236c15.141602 7.179932 30.123047 8.220703 44.94458 3.122315 14.821533-5.098389 25.730225-15.024292 32.726074-29.777832 6.811768-14.365235 7.478516-28.850464 2.000244-43.455811-5.478515-14.605346-15.594238-25.405761-30.3479-32.401611zm-146.468018-113.860596 17.200684 12.873291-78.205322 104.49292 54.095703 40.486572-11.714844 15.652466-71.295898-53.359741zm777.528809 94.957642-13.711914 6.433838 5.760986 164.012817 19.936035-9.354248-1.775146-48.29187 57.765869-27.10437 36.979248 31.773926 19.936035-9.354248zm6.909424 33.186401 44.969726 38.941162-42.20581 19.803467zm91.428955-89.177246-17.865234 11.933716 83.356933 124.78833 17.865235-11.933716z" fill-rule="evenodd"/><path d="m1269.407715 386.039185 79.21582 11.38208-2.719482 18.926757-57.949707-8.326538-5.958496 41.46875 57.949951 8.326416-2.719483 18.926758-57.949951-8.326538-9.945801 69.220825-21.265869-3.055664zm-134.728272-2.39795 85.062989-1.598877.359375 19.117798-63.58252 1.195069.860108 45.753662 61.434326-1.154785.361328 19.225219-61.434326 1.154663.87622 46.612915 65.623047-1.23352.359375 19.117676-87.10376 1.637329zm819.157471 544.219117 31.00415 121.466796-18.527099 4.729004-12.938233-50.689209-127.087402 32.438965-5.340088-20.92102 127.087403-32.438965-12.725831-49.856568zm-28.817139-70.115113 9.506348 18.061157-132.796875 69.896241-8.605713-16.350098 55.457031-142.570312-102.187988 53.785522-9.40625-17.870972 132.797119-69.89624 8.105225 15.399414-55.912354 143.78125zm-89.939941-152.25476-54.789551-65.087525-114.642822 96.504395 56.104004 66.649047 14.628174-12.313842-42.268311-50.212769 35.666748-30.023559 39.570313 47.00769 14.710449-12.383057-39.570313-47.00769 35.009278-29.470093 40.953857 48.651245zm-108.032715-116.365723 15.783936 14.575561-101.809571 110.250977-15.783935-14.57544zm-114.12207 80.59021 13.051025-19.702271c-20.618164-.256958-38.509277-5.408203-53.674072-15.453613-14.508057-9.610352-23.492432-21.918335-26.952881-36.924072-3.460693-15.00586-.642822-29.374634 8.453369-43.106568 9.01709-13.612548 21.25293-21.807006 36.707764-24.583618 15.45459-2.776733 30.346435.580811 44.675293 10.07251 13.970703 9.254517 25.501465 22.905518 34.592041 40.953613l12.754394-19.254516c-11.512207-17.504639-23.835693-30.607178-36.970459-39.307862-19.045654-12.616089-39.174072-17.015869-60.385986-13.19934-21.21167 3.81665-37.848633 14.829589-49.911133 33.039428-7.593261 11.463135-11.816894 23.998657-12.67041 37.607056-.85376 13.608276 1.726319 26.44165 7.740723 38.500244 6.01416 12.058716 16.006347 22.715088 29.977051 31.969482 17.194824 11.390137 34.732421 17.853272 52.613281 19.389527zm-103.421631-220.489624 19.586182 8.828979-61.670655 136.811035-19.586181-8.829101zm-38.326172-16.782715-76.417236-23.771118-44.574951 143.295532 20.514892 6.38147 20.771729-66.775513 55.902588 17.389648 5.679687-18.258178-55.902832-17.389527 12.444092-40.003784 55.902588 17.389649zm-1062.53418 547.962036-17.067627 83.348633 146.807129 30.062134 17.477051-85.348145-18.732422-3.835815-13.166992 64.300415-45.67334-9.352661 12.326416-60.196167-18.837402-3.857422-12.32666 60.196167-44.831543-9.180298 12.757568-62.300903zm63.987061-165.162598 8.305664-18.643798 137.081055 61.067749-7.518799 16.877563-146.312988 44.657105 105.484619 46.992065-8.218018 18.44751-137.081299-61.067749 7.081787-15.896363 147.545899-45.048584zm94.551758-141.784423-50.45752 68.50061 120.654541 88.873901 51.667969-70.143921-15.395508-11.34021-38.926025 52.845826-37.536865-27.649659 36.441406-49.472656-15.481934-11.40393-36.441406 49.472656-36.844971-27.140015 37.715576-51.202515zm138.050049 69.29248-102.415772-109.688354 27.480957-25.658936c11.097168-10.361328 22.469971-15.836182 34.118652-16.424927 11.648926-.588623 21.847413 3.80188 30.595948 13.171631 5.962646 6.386109 9.522217 13.399048 10.678955 21.039063 1.156982 7.640014-.173096 15.397461-3.98999 23.272216 5.65747-.971313 12.018554-1.031982 19.083007-.18164 7.064698.85022 18.251221 3.387207 33.560547 7.610962 9.637207 2.661255 17.073487 4.486938 22.309326 5.477173l13.141358 2.426635-18.687012 17.44812-20.817139-4.666015-25.597167-7.109986c-7.448731-1.471435-13.76709-2.283447-18.955323-2.435913-5.188476-.152588-9.418457.196412-12.690674 1.046875-3.271972.850586-7.472656 3.670655-12.602539 8.460328l-4.082763 3.812133 44.572998 47.738404zm-69.53833-115.401367-4.710938 4.398682 32.330078 34.626098 5.967285-5.571655c7.956543-7.428955 12.778076-13.204468 14.464844-17.326904 1.686768-4.122315 2.071533-8.327271 1.154541-12.614991-.916992-4.287597-3.012939-8.184936-6.287353-11.692016-3.225831-3.454834-7.062012-5.727051-11.50879-6.816895-4.447021-1.089844-8.869873-.658813-13.269042 1.293091-4.39917 1.951904-10.446045 6.520142-18.140625 13.70459zm244.913574-103.767944-43.580323 25.278076 9.59375 16.540039 24.99585-14.498413 15.684326 27.040283-1.442138 1.581543c-8.369141 9.407837-16.270508 16.267578-23.704102 20.579346-15.30127 8.875244-30.527588 11.45642-45.679199 7.74353-15.151612-3.712891-27.003174-12.94104-35.554932-27.684693-8.156494-14.062255-10.17456-28.745849-6.054199-44.051025 4.120605-15.305298 13.273682-27.072021 27.459961-35.300415 15.239258-8.839233 33.207275-13.259033 53.904541-13.259644l-10.995361-18.956054c-12.47876 1.60852-22.459717 3.527344-29.942383 5.75647-7.48291 2.229003-14.879151 5.4635-22.188965 9.703491-20.071289 11.641968-33.029053 27.768066-38.874268 48.378662-5.84497 20.610718-3.144043 40.610596 8.102539 60.000366 10.671875 18.398682 26.072754 30.14209 46.20337 35.230713 20.130371 5.088745 40.943359 1.398804 62.439453-11.06958 15.734863-9.126709 29.581298-21.79419 41.53955-38.00293zm134.51416-124.885254-24.849365 7.636108-23.707764 61.452271-53.612549-37.691895-24.849121 7.636108 73.74707 51.283326 23.318604 75.88269 21.050049-6.468628-23.318604-75.88269z" fill-rule="evenodd"/></svg>