<svg height="1920" viewBox="0 0 1283 1920" width="1283" xmlns="http://www.w3.org/2000/svg"><path d="m-0 0h1283v1920h-1283z" fill="#d00000"/><g fill="#fff"><path d="m815.729126 191.686035-28.802246-7.72583 11.234924 25.617432-16.54602-12.4021-9.1922 43.712158 21.039978-12.401977c-16.341797 50.828125-50.250916 32.32666-50.250916 32.32666-22.06134-6.709229-20.222839-39.849243-2.246948-39.849243s14.094727 26.227295 14.094727 26.227295c11.234985-2.236328 24.71698-28.870484 8.783691-44.72876-14.503296-14.435181-30.640747-4.066162-30.640747-4.066162 13.073364-30.700318-3.67688-47.168579-3.67688-47.168579-24.512634 17.078247-18.180176 44.932007-18.180176 44.932007s-6.536682-8.74231-18.793029-7.9292c-10.213562.610108-17.363098 12.4021-17.158814 22.161255 0 13.825073 14.094727 21.551026 14.094727 21.551026s-1.634155-6.912598 2.042724-13.011963c5.106812-8.539063 22.469849-5.489502 21.244263 13.418579-1.429871 19.721313-23.082703 21.754516-31.866394 21.754516-9.192261 0-18.79303-6.709228-22.674194-12.19873-6.945252-9.555786-8.170838-21.551148-8.170838-21.551148l17.975952 9.758912-1.021362-42.49231-16.95459 12.4021 8.783692-30.700196h-32.887818l8.783753 30.700196-16.95459-12.4021-1.021362 42.49231 17.975952-9.758912s-1.225647 12.198731-8.170899 21.551148c-3.881225 5.489502-13.481933 12.19873-22.674194 12.19873-8.987915 0-30.436523-2.033203-31.866394-21.754516-1.429932-19.11145 16.137451-22.161133 21.244263-13.418579 3.67688 6.099365 2.042724 13.011963 2.042724 13.011963s14.094727-7.9292 14.094727-21.551026c0-9.962402-6.945191-21.551147-17.158814-22.161255-12.256286-.81311-18.793029 7.9292-18.793029 7.9292s6.332458-28.057129-18.180176-44.932007c0 0-16.546021 16.468261-3.67688 47.168579 0 0-16.137451-10.369019-30.640747 4.066162-15.933228 15.858276-2.655579 42.492432 8.783691 44.72876 0 0-3.881225-26.227295 14.094727-26.227295s19.610107 33.343261-2.246948 39.849243c0 0-33.90915 18.501465-50.250916-32.32666l21.040039 12.401977-9.192261-43.712158-16.54602 12.4021 11.234955-25.617432-28.802307 7.72583s7.149505 17.078247 5.923858 21.551148c-1.225647 4.4729-3.268371 10.572265-1.838409 15.248535 1.42984 4.676147 5.515289 8.539184 8.375091 11.182129 2.859803 2.643066 6.740967 20.127929 7.353821 23.177612.612793 3.049683 4.289642 17.484985-1.225647 39.849365l23.286987 21.957764s43.101319-21.347778 131.755372-21.551148h1.225647c88.653869.20337 131.755249 21.551148 131.755249 21.551148l23.287048-21.957764c-5.719727-22.36438-2.042725-36.799682-1.225708-39.849365.817078-3.049683 4.698242-20.534546 7.353821-23.177612 2.655517-2.642945 6.945251-6.302613 8.375122-11.182129 1.42987-4.879517-.612854-10.775635-1.83844-15.248535-1.225586-4.472901 4.085388-21.551148 4.085388-21.551148zm-334.18866 41.069214-5.51535-5.082764 2.042755-7.115966 5.51532 5.082763zm21.244263 74.209106-8.375153-7.72583 3.064118-10.978881 8.375152 7.72583zm20.018616-24.804077c0-2.439819 2.042785-4.676147 4.698242-4.676147 2.655579 0 4.698303 2.033081 4.698303 4.676147 0 2.643067-2.042724 4.676148-4.698303 4.676148-2.655457 0-4.698242-2.033081-4.698242-4.676148zm7.558105 23.38086c-2.451294 0-4.698242-2.033081-4.698242-4.676148 0-2.643066 2.042725-4.676147 4.698242-4.676147 2.655518 0 4.698242 2.033081 4.698242 4.676147 0 2.643067-2.042724 4.676148-4.698242 4.676148zm41.467163-11.182129c-10.826416 1.626465-20.427185-3.25293-21.652771-11.182129-1.225647-7.72583 6.536682-15.451782 17.363098-17.078247s20.427185 3.252807 21.652771 11.182129c1.021363 7.725952-6.740905 15.451782-17.363098 17.078247zm29.619385-25.820679c0-2.439697 2.042786-4.676269 4.698303-4.676269 2.655518 0 4.698242 2.033081 4.698242 4.676269 0 2.643066-2.042724 4.4729-4.698242 4.4729-2.655517 0-4.698303-2.033081-4.698303-4.4729zm7.149536 24.194214c-2.451233 0-4.698242-2.033203-4.698242-4.676148 0-2.643188 2.042786-4.676269 4.698242-4.676269 2.655579 0 4.698303 2.033081 4.698303 4.676269 0 2.642945-2.247009 4.676148-4.698303 4.676148zm33.296326-85.594727c1.83844 0 3.26831 1.423218 3.26831 3.253174 0 1.829712-1.42987 3.25293-3.26831 3.25293-1.838501 0-3.268311-1.423218-3.268311-3.25293 0-1.829956 1.42981-3.253174 3.268311-3.253174zm0 82.951661-8.987976-14.638428 8.783752-14.638672 8.987915 14.638672zm33.296326 2.643066c-2.451294 0-4.698182-2.033203-4.698182-4.676148 0-2.643188 2.042664-4.676269 4.698182-4.676269 2.451232 0 4.698242 2.033081 4.698242 4.676269 0 2.642945-2.24701 4.676148-4.698242 4.676148zm2.451232-19.721314c-2.451232 0-4.698242-2.033081-4.698242-4.4729 0-2.439697 2.042725-4.676269 4.698242-4.676269 2.451233 0 4.698304 2.033081 4.698304 4.676269 0 2.643066-2.247071 4.4729-4.698304 4.4729zm55.970459 10.16565c-1.225585 7.725708-11.030578 12.808594-21.652771 11.182129-10.826416-1.626465-18.588806-9.352295-17.363098-17.078247 1.225586-7.72583 11.03064-12.808594 21.652832-11.182129 10.826355 1.626465 18.588745 9.352417 17.363037 17.078247zm19.610108 22.364258c-2.451294 0-4.698242-2.033081-4.698242-4.676148 0-2.643066 2.042724-4.676147 4.698242-4.676147 2.451294 0 4.698242 2.033081 4.698242 4.676147 0 2.643067-2.246948 4.676148-4.698242 4.676148zm3.064148-18.704712c-2.451294 0-4.698303-2.033081-4.698303-4.676148 0-2.643066 2.042663-4.676147 4.698303-4.676147 2.451233 0 4.698181 2.033081 4.698181 4.676147 0 2.643067-2.246948 4.676148-4.698181 4.676148zm24.512634 20.127929-3.064148-10.978881 8.375183-7.72583 3.064026 10.978881zm21.448486-74.209106-2.042724-7.115967 5.515381-5.082763 2.042663 7.115966z"/><path d="m766.29541 331.768555c0 11.677856-55.696472 21.144531-124.40155 21.144531s-124.401489-9.466675-124.401489-21.144531c0-11.677857 55.696411-21.144532 124.401489-21.144532s124.40155 9.466675 124.40155 21.144532z"/><path d="m507.278748 181.927124-5.515351-6.099365c60.668732-53.471192 112.553803-57.537476 114.800751-57.537476l2.655579-.203247 1.225647 2.236328c10.213562 18.908203 12.256286 41.679077 12.46051 42.492432l-8.170838.81311c0-.203247-1.838501-20.127929-10.213623-37.002807-11.030639 1.626464-56.379028 10.368896-107.242675 55.301025z"/><path d="m616.15564 106.2948c0 3.930054-3.200989 7.115967-7.149536 7.115967-3.948548 0-7.149476-3.185913-7.149476-7.115967s3.200928-7.115845 7.149476-7.115845c3.948547 0 7.149536 3.185791 7.149536 7.115845z"/><path d="m592.868591 112.190918c0 3.59314-2.926513 6.505981-6.536621 6.505981-3.610168 0-6.536743-2.912841-6.536743-6.505981 0-3.593262 2.926575-6.505981 6.536743-6.505981 3.610108 0 6.536621 2.912719 6.536621 6.505981z"/><path d="m571.21582 120.323364c0 3.368531-2.743713 6.099365-6.128174 6.099365-3.38446 0-6.128112-2.730834-6.128112-6.099365 0-3.36853 2.743652-6.099365 6.128112-6.099365 3.384461 0 6.128174 2.730835 6.128174 6.099365z"/><path d="m552.218506 129.675781c0 3.144043-2.56073 5.692749-5.719605 5.692749-3.158874 0-5.719604-2.548706-5.719604-5.692749s2.56073-5.692749 5.719604-5.692749c3.158875 0 5.719605 2.548706 5.719605 5.692749z"/><path d="m533.425537 141.467896c0 2.919433-2.377869 5.286132-5.311096 5.286132-2.933228 0-5.311096-2.366699-5.311096-5.286132 0-2.919434 2.377868-5.286011 5.311096-5.286011 2.933227 0 5.311096 2.366577 5.311096 5.286011z"/><path d="m516.266724 154.073242c0 2.582642-2.194947 4.67627-4.902527 4.67627-2.707642 0-4.902558-2.093628-4.902558-4.67627 0-2.582519 2.194916-4.676147 4.902558-4.676147 2.70758 0 4.902527 2.093628 4.902527 4.676147z"/><path d="m502.988983 167.085205c0 2.358154-1.920532 4.269653-4.289642 4.269653-2.369171 0-4.289765-1.911499-4.289765-4.269653 0-2.35791 1.920594-4.269409 4.289765-4.269409 2.36911 0 4.289642 1.911499 4.289642 4.269409z"/><path d="m776.917542 181.927124 5.515319-6.099365c-60.668762-53.471192-112.553772-57.537476-114.800781-57.537476l-2.655517-.203247-1.225647 2.236328c-10.213562 18.908203-12.256287 41.679077-12.460572 42.492432l8.170838.81311c0-.203247 1.838562-20.127929 10.213623-37.002807 11.0307 1.626464 56.379028 10.368896 107.242737 55.301025z"/><path d="m682.339722 106.2948c0 3.930054-3.200989 7.115967-7.149536 7.115967-3.948548 0-7.149476-3.185913-7.149476-7.115967s3.200928-7.115845 7.149476-7.115845c3.948547 0 7.149536 3.185791 7.149536 7.115845z"/><path d="m704.401001 112.190918c0 3.59314-2.926575 6.505981-6.536682 6.505981-3.610047 0-6.536682-2.912841-6.536682-6.505981 0-3.593262 2.926635-6.505981 6.536682-6.505981 3.610107 0 6.536682 2.912719 6.536682 6.505981z"/><path d="m725.236755 120.323364c0 3.368531-2.743652 6.099365-6.128112 6.099365-3.384522 0-6.128235-2.730834-6.128235-6.099365 0-3.36853 2.743713-6.099365 6.128235-6.099365 3.38446 0 6.128112 2.730835 6.128112 6.099365z"/><path d="m648.022034 124.999512c0 3.368774-2.743714 6.099365-6.128174 6.099365-3.384461 0-6.128113-2.730591-6.128113-6.099365 0-3.368531 2.743652-6.099366 6.128113-6.099366 3.38446 0 6.128174 2.730835 6.128174 6.099366z"/><path d="m743.416931 129.675781c0 3.144043-2.56073 5.692749-5.719543 5.692749-3.158936 0-5.719666-2.548706-5.719666-5.692749s2.56073-5.692749 5.719666-5.692749c3.158813 0 5.719543 2.548706 5.719543 5.692749z"/><path d="m761.392883 141.467896c0 2.919433-2.377807 5.286132-5.311096 5.286132-2.933166 0-5.311096-2.366699-5.311096-5.286132 0-2.919434 2.37793-5.286011 5.311096-5.286011 2.933289 0 5.311096 2.366577 5.311096 5.286011z"/><path d="m647.204895 143.704346c0 2.919433-2.377869 5.286133-5.311035 5.286133-2.933167 0-5.311035-2.3667-5.311035-5.286133 0-2.919556 2.377868-5.286133 5.311035-5.286133 2.933166 0 5.311035 2.366577 5.311035 5.286133z"/><path d="m777.734619 154.073242c0 2.582642-2.194885 4.67627-4.902527 4.67627-2.70758 0-4.902466-2.093628-4.902466-4.67627 0-2.582519 2.194886-4.676147 4.902466-4.676147 2.707642 0 4.902527 2.093628 4.902527 4.676147z"/><path d="m789.786682 167.085205c0 2.358154-1.920593 4.269653-4.289734 4.269653-2.36914 0-4.289673-1.911499-4.289673-4.269653 0-2.35791 1.920533-4.269409 4.289673-4.269409 2.369141 0 4.289734 1.911499 4.289734 4.269409z"/><path d="m646.183533 160.172607c0 2.358033-1.920533 4.269654-4.289673 4.269654-2.369141 0-4.289673-1.911621-4.289673-4.269654 0-2.35791 1.920532-4.269531 4.289673-4.269531 2.36914 0 4.289673 1.911621 4.289673 4.269531z"/><path d="m646.183533 74.984741v-11.182251l14.299011 6.302735v-25.414185l-14.503235 8.539185 8.987976-20.12793h-26.351074l8.987976 20.12793-14.503296-8.539185v25.210815l14.299011-6.302612v11.182129c-8.579467 2.033081-14.911865 9.555664-14.911865 18.704712 0 10.572388 8.579407 19.11145 19.201599 19.11145 10.622071 0 19.201477-8.539062 19.201477-19.11145.204285-8.945679-6.128174-16.671631-14.70758-18.501343zm-6.332337 5.895996v10.16565l-7.76239-4.066284zm-8.988037 20.534546s11.030701-4.269531 21.040039 3.049683c0 0-16.341736 8.132568-21.040039-3.049683zm15.524658-10.368896v-10.16565l7.558106 5.082764z"/><path d="m755.521606 1845.599976h-33.599548v-173.200074h33.599548zm-50.941223 0h-36.851074l-16.041077-34.68335h-84.107177l-16.257813 34.68335h-36.851074l81.939453-173.416871h26.229309zm-66.115173-62.646851-28.830566-62.430054-29.2641 62.430054zm417.826294-218.153076h-117.273132v-173.200195h34.249816v140.684448h83.023316zm-134.614868 0h-36.851074l-16.041077-34.68335h-84.107178l-16.257812 34.68335h-36.851075l81.939454-173.416992h26.229309zm-66.115174-62.646973-28.830566-62.429931-29.264099 62.429931zm-126.160766 31.431885c-8.670899 10.54956-19.184204 18.931274-31.540222 25.145508-12.356018 6.214111-25.976319 9.321045-40.861328 9.321045-12.861817 0-24.92865-2.348267-36.200806-7.045044-11.272156-4.696656-21.098999-11.091431-29.480835-19.184204-8.381836-8.092774-14.993286-17.594483-19.834595-28.505371-4.841186-10.910889-7.261841-22.652588-7.261841-35.225342s2.420655-24.314453 7.261841-35.225342c4.841309-10.910889 11.452759-20.448731 19.834595-28.61377s18.208679-14.559814 29.480835-19.184204c11.272156-4.624511 23.338989-6.936645 36.200806-6.936645 14.885009 0 28.50531 3.106933 40.861328 9.321045 12.356018 6.214233 22.652526 14.306884 30.889892 24.278442l-23.194519 23.844849c-5.347046-7.659302-12.247497-13.837281-20.701599-18.533936-8.454163-4.696777-17.739075-7.045166-27.855102-7.045166-8.092835 0-15.715882 1.553589-22.869385 4.660645-7.153443 3.107055-13.403626 7.297973-18.750672 12.572754-5.347046 5.27478-9.574035 11.416504-12.681091 18.425537-3.107056 7.008911-4.660644 14.487549-4.660644 22.435791 0 7.803833 1.553588 15.210083 4.660644 22.218994 3.107056 7.009033 7.334045 13.150879 12.681091 18.425537 5.347046 5.274902 11.597229 9.465698 18.750672 12.572754 7.153503 3.107056 14.77655 4.660644 22.869385 4.660644 10.694091 0 20.159667-2.420654 28.397033-7.26184 8.237305-4.841309 15.101685-11.235962 20.593201-19.184204zm-184.689026-55.493408c0 12.428222-2.420532 24.133789-7.261841 35.116943-4.841186 10.983154-11.452637 20.520996-19.834473 28.61377-8.381897 8.092773-18.136505 14.487548-29.264129 19.184204-11.127655 4.696777-22.977692 7.045044-35.550476 7.045044-12.572785 0-24.458954-2.348267-35.658844-7.045044-11.19989-4.696656-20.990631-11.091431-29.372498-19.184204-8.381836-8.092774-14.993286-17.594483-19.834534-28.505371-4.841247-10.910889-7.26184-22.652588-7.26184-35.225342s2.420593-24.350586 7.26184-35.33374c4.841248-10.983033 11.452698-20.520875 19.834534-28.61377 8.381867-8.092773 18.172608-14.451416 29.372498-19.075806 11.19989-4.624511 23.086059-6.936645 35.658844-6.936645 12.572784 0 24.422821 2.312134 35.550476 6.936645 11.127624 4.62439 20.882232 11.019165 29.264129 19.184204 8.381836 8.165039 14.993287 17.702881 19.834473 28.61377 4.841309 10.910889 7.261841 22.652588 7.261841 35.225342zm-33.816254 0c0-7.948242-1.517395-15.42688-4.552215-22.435791-3.03479-7.009033-7.189545-13.150757-12.464325-18.425537-5.274781-5.274781-11.452698-9.465699-18.533936-12.572754-7.081207-3.107056-14.595886-4.660645-22.544189-4.660645-8.092835 0-15.679749 1.553589-22.760956 4.660645-7.081238 3.107055-13.259155 7.297973-18.533936 12.572754-5.27478 5.27478-9.429535 11.416504-12.464355 18.425537-3.03479 7.008911-4.552185 14.487549-4.552185 22.435791 0 7.803833 1.517395 15.246216 4.552185 22.327392 3.03482 7.081299 7.189575 13.259156 12.464355 18.533936 5.274781 5.27478 11.452698 9.465698 18.533936 12.572754 7.081207 3.107055 14.668121 4.660644 22.760956 4.660644 7.948303 0 15.462982-1.553589 22.544189-4.660644 7.081238-3.107056 13.259155-7.297974 18.533936-12.572754 5.27478-5.27478 9.429535-11.452637 12.464325-18.533936 3.03482-7.081176 4.552215-14.523559 4.552215-22.327392zm-151.739776 86.708496h-117.273178v-173.200195h34.249832v140.684448h83.023346zm503.776062-280.800049h-114.455139v-173.200195h114.455139v27.746826h-81.505982v41.40332h80.422119v27.096314h-80.422119v47.689575h81.505982zm-138.299988-45.521973c0 6.503174-1.408997 12.681153-4.227051 18.533936-2.817993 5.852905-6.755981 11.019287-11.814026 15.499145-5.057983 4.479981-11.055298 8.056641-17.992004 10.730103-6.936707 2.673584-14.595886 4.010376-22.977722 4.010376-7.514771 0-14.270752-.433472-20.268067-1.300659-5.997375-.867066-11.633362-2.23999-16.908142-4.118653-5.274841-1.878662-10.332764-4.299316-15.174011-7.26184-4.841248-2.962525-9.863037-6.539185-15.065613-10.730103l23.844849-24.061645c6.936706 5.780639 13.728821 9.863159 20.376465 12.247558 6.647705 2.384522 13.873352 3.576782 21.677124 3.576782 3.179321 0 6.177978-.469726 8.996032-1.409057 2.817994-.939331 5.27472-2.203858 7.370179-3.793579 2.095459-1.5896 3.757385-3.468262 4.985717-5.635987 1.228394-2.167724 1.842591-4.552246 1.842591-7.153442 0-2.745728-.505799-5.202515-1.517395-7.370239-1.011597-2.167725-2.817994-4.263184-5.419312-6.286377-2.601257-2.023194-6.21405-4.08252-10.838501-6.177979l-17.775268-7.044922c-6.358643-2.312256-12.464295-4.949707-18.317139-7.912231-5.852844-2.962525-10.983032-6.539185-15.390747-10.730103s-7.948303-9.104492-10.621826-14.740478c-2.673523-5.636109-4.010254-12.283692-4.010254-19.942871 0-7.370362 1.481262-14.162354 4.443847-20.376587 2.962525-6.214112 7.008912-11.525025 12.139161-15.932739 5.130249-4.407593 11.127563-7.839844 17.992004-10.296631 6.864441-2.456665 14.270752-3.685059 22.219055-3.685059 13.295349 0 24.495056 1.734131 33.599487 5.202515 9.104432 3.468384 17.197144 8.526245 24.278382 15.17395l-23.411255 23.628174c-4.335449-4.190918-9.176636-7.406494-14.523682-9.646363-5.347046-2.23999-11.633362-3.359985-18.85907-3.359985-3.323852 0-6.394775.505859-9.212768 1.517334-2.818054 1.011719-5.238648 2.348389-7.261841 4.010254-2.023254 1.661987-3.648987 3.612915-4.87738 5.852905-1.228394 2.239991-1.84253 4.588257-1.84253 7.045044 0 2.74585.578064 5.238648 1.734131 7.478638 1.156128 2.23999 3.107056 4.407593 5.852845 6.503052 2.745788 2.095459 6.394714 4.190918 10.94696 6.286377 4.552185 2.095459 10.224304 4.371582 17.01654 6.828369 8.670838 3.03479 16.113282 6.358642 22.327393 9.971435s11.272095 7.586914 15.17395 11.922364c3.901917 4.335449 6.792176 9.212768 8.670899 14.63208 1.878662 5.419311 2.817993 11.524902 2.817993 18.317138zm-143.936035-127.894897v94.078735c0 11.561035-1.734131 22.327271-5.202515 32.298828-3.468323 9.971436-8.490112 18.678467-15.065552 26.12085-6.575439 7.442627-14.595886 13.295288-24.061584 17.558594-9.465759 4.263183-20.268067 6.394653-32.407288 6.394653-11.850219 0-22.544159-2.095337-32.082123-6.286377-9.537994-4.190918-17.666809-9.935303-24.386749-17.233276-6.71994-7.297974-11.886261-15.896485-15.499145-25.795777-3.612854-9.899292-5.419281-20.557006-5.419281-31.973755v-95.162475h33.599517v95.379272c0 6.647705.939332 12.897827 2.818024 18.750733 1.878693 5.852783 4.624451 10.946899 8.237305 15.282348 3.612884 4.33545 8.128906 7.767579 13.548187 10.296631 5.419312 2.528931 11.597229 3.793457 18.533936 3.793457 7.370269 0 13.764953-1.19226 19.184265-3.576782 5.419311-2.384399 9.89917-5.708252 13.439819-9.971435 3.540588-4.263184 6.214111-9.284913 8.020508-15.065552 1.806396-5.78064 2.709595-12.13916 2.709595-19.075806v-95.812866z" fill-rule="evenodd"/><path d="m982.113892 890.800049h-32.949219v-115.75586l-54.626343 92.127808-52.458618-92.994873v116.622925h-32.949219v-173.416992h37.934998l48.123169 86.058227 50.290893-86.058227h36.634339zm-192.492798 0h-117.273133v-173.200195h34.249817v140.684448h83.023316zm-134.614807 0h-36.851136l-16.041015-34.683472h-84.107178l-16.257874 34.683472h-36.851074l81.939514-173.416992h26.229248zm-66.115174-62.646851-28.830566-62.430176-29.26416 62.430176zm-126.160827 31.431763c-8.670868 10.54956-19.184174 18.931274-31.540192 25.145508-12.356018 6.214111-25.976318 9.321045-40.861359 9.321045-12.861816 0-24.928589-2.348267-36.200744-7.045044-11.272156-4.696656-21.09903-11.091431-29.480896-19.184204-8.381836-8.092774-14.993286-17.594483-19.834534-28.505371-4.841248-10.910889-7.261841-22.652588-7.261841-35.225342s2.420593-24.314453 7.261841-35.225342 11.452698-20.448608 19.834534-28.61377c8.381866-8.165039 18.20874-14.559692 29.480896-19.184204 11.272155-4.624511 23.338928-6.936645 36.200744-6.936645 14.885041 0 28.505341 3.106933 40.861359 9.321167 12.356018 6.214111 22.652557 14.306762 30.889893 24.27832l-23.194519 23.844849c-5.347046-7.659302-12.247529-13.837281-20.70163-18.533936-8.454132-4.696777-17.739044-7.045044-27.855103-7.045044-8.092804 0-15.715881 1.553467-22.869323 4.660523-7.153504 3.107055-13.403687 7.297973-18.750733 12.572754-5.347046 5.27478-9.574035 11.416504-12.681091 18.425537-3.107056 7.008911-4.660584 14.487549-4.660584 22.435791 0 7.803833 1.553528 15.210083 4.660584 22.218994 3.107056 7.009033 7.334045 13.150757 12.681091 18.425537 5.347046 5.274902 11.597229 9.465698 18.750733 12.572754 7.153442 3.107056 14.776519 4.660644 22.869323 4.660644 10.694092 0 20.159668-2.420654 28.397034-7.26184 8.237335-4.841309 15.101685-11.235962 20.593231-19.184327zm467.900451-364.69043c0 8.237305-1.553528 15.932617-4.660583 23.086182-3.107056 7.153442-7.334046 13.367432-12.681091 18.642334-5.347046 5.274658-11.633362 9.39331-18.859131 12.355957-7.225708 2.962524-14.884888 4.443725-22.977723 4.443725h-28.613769v56.577271h-33.599548v-173.200195h62.213317c8.092835 0 15.752015 1.481323 22.977723 4.443847 7.225769 2.962647 13.512085 7.045044 18.859131 12.247559 5.347045 5.202637 9.574035 11.34436 12.681091 18.425537 3.107055 7.081299 4.660583 14.740479 4.660583 22.977783zm-33.382751-.433593c0-4.479859-.830933-8.670777-2.492859-12.572632-1.661926-3.901978-3.937988-7.297974-6.828308-10.188233s-6.286316-5.202514-10.188233-6.936645c-3.901916-1.734253-8.092773-2.601319-12.572753-2.601319h-22.327393v65.464844h22.327393c4.47998 0 8.670837-.903198 12.572753-2.709595 3.901917-1.806518 7.297913-4.22705 10.188233-7.26184s5.166382-6.539307 6.828308-10.513428 2.492859-8.201172 2.492859-12.681152zm-114.021607 115.539062h-114.455139v-173.200195h114.455139v27.746826h-81.50592v41.403198h80.422058v27.096436h-80.422058v47.689575h81.50592zm-140.467651 0h-114.455139v-173.200195h114.455139v27.746826h-81.50592v41.403198h80.422058v27.096436h-80.422058v47.689575h81.50592zm-129.62915 0h-43.787751l-69.36676-76.736938v76.736938h-33.599518v-173.41687h33.599518v77.387329l70.884155-77.387329h39.885865l-78.254364 85.19104z" fill-rule="evenodd"/><path d="m755.730103 1004.054504c0 6.365662-1.15802 11.476075-3.474183 15.33136-2.316162 3.855286-5.043212 6.978394-8.181213 9.369263-4.453003 3.496582-10.684143 5.244873-18.693542 5.244873h-33.5318v-62.132446l35.795655.605224 7.463928 1.703492 5.648437 2.465576 4.169068 2.936279c2.121887 1.733337 3.982238 3.780518 5.581115 6.141479 1.598938 2.360962 2.869019 5.095521 3.810425 8.203614.941406 3.108154 1.41211 6.485229 1.41211 10.131286zm-19.052124-.806884c0-5.050721-.963807-8.98816-2.89148-11.812378-1.927612-2.824219-4.243713-4.714417-6.948425-5.670777-2.704651-.95636-5.461609-1.434509-8.270874-1.434509h-7.979492v36.80426h7.979492c4.901306 0 9.145019-1.165527 12.731323-3.496643 3.586304-2.331115 5.379456-7.127685 5.379456-14.389953zm-60.428956 30.75238h-16.676208l-32.231751-34.607666v34.607666h-18.559082v-62.132446h16.63147l32.14209 34.428405v-34.428405h18.693481zm-75.715454 0h-19.186645l-5.065613-12.596802h-26.986816l-5.155335 12.596802h-19.186584l27.479919-62.132446h20.710816zm-28.555786-23.400513-9.10022-22.683288-9.18988 22.683288z" fill-rule="evenodd"/></g></svg>