<svg height="1920" viewBox="0 0 1920 1920" width="1920" xmlns="http://www.w3.org/2000/svg"><path d="m1854.071045 960.505737c0 494.608277-400.346924 895.605957-894.199829 895.605957-493.852509 0-894.1997-400.96289-894.1997-895.605957 0-494.608642 400.347191-895.606201 894.1997-895.606201 493.852905 0 894.199829 400.962647 894.199829 895.606201z" fill="#fff" stroke="#000" stroke-width="18.11771"/><path d="m1493.728271 960.597046c0 295.254639-238.986328 534.62854-533.790771 534.62854-294.80426 0-533.790802-239.353272-533.790802-534.62854 0-295.254639 238.986542-534.628418 533.790802-534.628418 294.804443 0 533.790771 239.353027 533.790771 534.628418z" stroke="#000" stroke-width="5.466145"/><path d="m403.695587 1162.193604c-268.20404-650.288697 665.780731-1127.410645 1098.588471-518.157105" fill="none"/><path d="m209.222946 967.657715 1.259445-48.649292 90.53592 6.714477c10.903289.808777 19.724517-1.326538 26.463897-6.405639 6.73938-5.079163 10.441162-12.096375 11.105469-21.05188.794281-10.707642-3.050171-20.241943-11.533325-28.603516-8.483216-8.361328-19.247193-13.025757-32.292206-13.993164l-51.401047-3.812012c-5.841034-.433349-9.928116 1.221192-12.261307 4.963135-2.33319 3.742066-3.803039 9.701294-4.409576 17.878052l-10.513855-.779785 1.237793-48.357178 112.439758 8.339111c10.513916.779664 16.17511-4.281494 16.983857-15.183837l.649841-8.760621 9.929748.736451-2.254364 46.226318-27.085357.92749c8.933868 8.884278 15.576294 17.647339 19.927429 26.289795 4.351135 8.642212 6.208984 17.246155 5.573578 25.812256-1.039795 14.017273-6.465363 24.479004-16.276886 31.385803-9.811585 6.9068-23.576081 9.703125-41.293945 8.388977l-59.578476-4.418518c-5.646363-.418762-9.695572 1.385193-12.147782 5.412171-2.452209 4.026794-3.967132 9.933837-4.544769 17.721191zm112.208512 136.785034-1.858582-9.482788c14.430115-8.59668 24.409393-17.315796 29.938202-26.157471 5.528778-8.841797 7.091644-19.392822 4.688629-31.653564-1.914886-9.770264-5.696106-17.135742-11.343719-22.096375-5.647614-4.960754-12.015748-6.746582-19.104676-5.357483-11.303924 2.215149-16.830688 10.558899-16.580475 25.031983l-.781494 38.64624c-.45932 9.837647-3.410949 18.124512-8.85498 24.86084-5.444061 6.736328-12.380982 10.93042-20.811066 12.582275-11.495544 2.252686-22.226913.028809-32.194473-6.671631-9.967575-6.700317-16.302948-16.947021-19.006333-30.740234-2.327911-11.877686-.809082-23.414673 4.556519-34.611572l-11.917114-7.511963-1.182724-6.034546 47.317764-12.852905 1.858582 9.482971c-12.239777 6.575867-20.844971 13.931702-25.815827 22.067322-4.97084 8.135498-6.367386 17.758789-4.189651 28.870117 1.802246 9.195556 5.470794 15.986206 11.005752 20.372314 5.534973 4.385987 11.559448 5.940674 18.073548 4.664185 11.495544-2.252564 16.862091-23.594849 16.099823-64.02771-.344605-9.878967 2.349731-18.463562 8.083099-25.753845 5.733368-7.290284 13.293915-11.855286 22.681946-13.694947 12.453491-2.440246 23.623413.24469 33.510101 8.054871 9.886658 7.810364 16.219177 18.803711 18.99765 32.980103 1.464325 7.471435 1.744446 14.229736.840393 20.27539-.904113 6.045654-3.150238 12.602783-6.738556 19.671875l14.097779 7.979737 1.52063 7.758666zm1026.059997-780.189575 5.886597-8.745484 42.124023 25.524781-30.904785 45.913452c14.891357-12.333374 27.97583-20.234985 39.25415-23.70459 11.278443-3.469727 21.452637-2.152588 30.522828 3.951416 6.154907 4.14209 9.773315 9.342285 10.855957 15.600708 1.082519 6.258301-.611084 12.707642-5.080567 19.347656-3.052246 4.534668-6.77417 7.442017-11.166015 8.722168-4.391724 1.280152-8.531006.612183-12.418457-2.003784-3.563111-2.398071-5.593262-5.587891-6.09021-9.569702-.496827-3.981812.617309-7.997192 3.342651-12.045899 1.526123-2.267456 3.673584-4.23413 6.442627-5.90039l4.644043-3.228272c.218017-.323852.111938-.865844-.317871-1.625732l-1.05127-1.060425c-6.964599-4.687012-18.601684-2.694336-34.911865 5.978272-16.310059 8.672485-29.533936 20.539306-39.672119 35.600952l-16.351563 24.292846c-3.815551 5.668335-1.431152 11.390992 7.153321 17.168091l14.577026 9.810059-6.213501 9.231201-70.698975-47.578735 6.213624-9.231324 11.175781 7.520997c7.936401 5.340942 13.648803 5.42041 17.137207.237793l48.727905-72.392579c7.085938-10.526977 6.012573-18.89685-3.219482-25.109863zm-90.092895-56.214234c17.455932 6.824341 29.504028 18.766114 36.144897 35.825318 6.640869 17.059326 5.979981 35.770263-1.982544 56.133667-7.820434 19.999512-20.074951 33.915893-36.764038 41.749512-16.689087 7.83374-33.579468 8.409301-50.671631 1.727172-17.092285-6.682251-28.849975-18.562744-35.273315-35.641845-6.423584-17.079224-5.76062-35.527344 1.988647-55.345093 7.749268-19.817871 19.748902-33.886353 35.999146-42.206055 16.250122-8.31958 33.102905-9.067138 50.558838-2.242676zm-3.839112 9.817872c-11.091797-4.336304-21.584961-2.831666-31.479858 4.513916-9.894898 7.345825-18.432495 20.200073-25.613037 38.563354-7.607056 19.454102-10.365479 35.353882-8.275147 47.699585 2.09021 12.345703 8.863037 20.75769 20.31836 25.236206 11.455444 4.478516 22.21936 2.817749 32.291992-4.982544 10.072754-7.800049 18.912475-21.427124 26.519531-40.881225 7.180542-18.363282 9.500366-33.543702 6.959717-45.541504-2.540894-11.997803-9.447876-20.200318-20.721558-24.607788zm-139.007324-45.688111 5.132935-29.721191c2.425415-14.042969 6.931152-24.358765 13.517578-30.947754 6.586303-6.588989 14.304443-9.119263 23.154419-7.591065 3.655273.630982 6.665283 1.844239 9.030029 3.639161 2.364624 1.795166 3.397461 3.558349 3.098511 5.289672l-.487915 1.104371-7.057007 4.724609c-2.581299 2.327881-4.154419 5.126831-4.719238 8.397217-.764161 4.42456-.015381 8.119629 2.246093 11.085449 2.261597 2.965942 5.412354 4.797729 9.452515 5.495361 4.809692.830445 8.843628-.15686 12.101929-2.962036 3.258178-2.805298 5.36914-6.997192 6.332641-12.57605 1.528239-8.848958-.337361-16.401937-5.596801-22.658935-5.259522-6.25708-13.179688-10.299072-23.761109-12.126099-15.583496-2.69104-29.266235 1.682007-41.048706 13.118775-11.782471 11.436889-19.650391 28.601196-23.604004 51.493164l-1.74414 10.099365-23.375245-4.036133-2.192627 12.696533 23.375122 4.036133-17.442016 100.994141c-.697754 4.039795-2.237549 6.646484-4.619629 7.819946-2.38208 1.173584-5.977905 1.345093-10.787598.514526l-11.543335-1.993042-1.893798 10.964966 82.82312 14.301148 1.893798-10.964966-18.46936-3.189087c-10.196533-1.760742-14.547241-6.96936-13.052246-15.625977l17.043457-98.685791 33.764038 5.830078 2.192871-12.696411zm-878.520401 525.37085 10.531113 3.596557 3.691574-10.807129c4.038696-11.823242 11.231125-15.968261 21.57753-12.434692l81.754608 27.920899c7.759827 2.650146 10.251404 8.039306 7.474823 16.167968l-4.638184 13.578247 10.531098 3.596558 25.178528-73.710693-10.531128-3.596558-5.016724 14.686646c-2.3349 6.835449-6.643097 9.180297-12.924835 7.035156l-112.239441-38.332154zm-56.88945-71.723389c-4.213654 2.067871-7.046127 5.226318-8.497528 9.47522-1.388291 4.064331-.98642 8.172607 1.205582 12.325073 2.192031 4.152344 5.412719 6.954224 9.662139 8.405518 4.249405 1.451172 8.356934 1.203735 12.322724-.742554 3.96579-1.946167 6.705902-5.136231 8.220398-9.569824 1.514496-4.433838 1.298523-8.633423-.647919-12.598877-1.946442-3.96521-5.044327-6.673706-9.293732-8.124878-4.434173-1.514282-8.75801-1.237549-12.971664.830322zm108.262543-30.479248-8.903229-5.078125c8.941467-24.341675-1.765625-45.169189-32.121597-62.483276l4.933487-8.648072 48.331909 27.567017 22.055633-38.661987 11.701416 6.674194-22.055633 38.661743 76.567901 43.671875c6.444275 3.675537 12.402436 5.05127 17.874573 4.126953 5.472107-.924316 9.755921-4.099487 12.851471-9.525757 3.772675-6.613281 3.779541-13.520141.020538-20.720825-3.758972-7.200805-11.319488-14.041504-22.681762-20.522094l4.933502-8.648072c15.262756 8.705445 25.011169 18.704224 29.245453 29.996704 4.234314 11.292481 3.110809 22.619263-3.370453 33.980469-5.513947 9.665527-12.495545 15.796753-20.944977 18.394165-8.449463 2.59729-17.337677 1.236084-26.664947-4.083984l-79.874848-45.557984zm112.314636-141.676392c-6.397797-1.46289-9.881012-2.461792-10.449738-2.996948-1.990539-1.873169-2.114166-5.943237-.370971-12.210937 1.743255-6.2677 5.223877-12.173584 10.441986-17.718262 6.154693-6.539673 13.120727-10.238281 20.898285-11.095947 7.777557-.857666 14.580932 1.456054 20.410339 6.941284l14.928955 14.047241c-17.38501 23.315308-28.077545 44.148071-32.077911 62.499268-4.000366 18.351196-.953156 32.276001 9.141693 41.774658 7.10907 6.689331 15.371795 9.304077 24.788421 7.843994 9.416657-1.459717 18.740906-7.094482 27.972962-16.904053 7.492676-7.961425 12.355102-16.119018 14.587463-24.473022 1.864441-6.823609 2.470032-16.440064 1.816834-28.84961 15.957123 6.972901 28.551544 5.554688 37.7836-4.254882 5.887146-6.255371 8.537536-14.483887 7.951416-24.685791l-9.571534-1.366577c-.33435 2.634277-.888244 4.860595-1.661682 6.679565-.773437 1.818726-1.896057 3.51001-3.367798 5.073975-5.351928 5.686645-12.648681 4.182006-21.890441-4.514039l-54.810578-51.573852c-7.819946-7.358276-17.226318-10.110718-28.219391-8.257813-10.993011 1.853028-21.774414 8.395142-32.344452 19.626343-11.640411 12.368653-18.532592 25.317871-20.676727 38.848145-2.144104 13.530151.480469 23.773559 7.873932 30.730346 4.123199 3.879761 8.390503 5.683594 12.801971 5.411377 4.411499-.271972 8.356537-2.256225 11.835297-5.952514 6.95752-7.392823 6.881714-14.433594-.227356-21.122925-1.706146-1.605347-4.227631-2.771729-7.564575-3.499024zm63.110077-16.210571 14.289123 13.445435c9.668305 9.097412 14.755829 19.714721 15.262696 31.852539.506805 12.137695-3.119843 22.329346-10.880127 30.575073-4.682892 4.97583-9.924164 7.482666-15.723938 7.520752-5.799744.038208-11.401001-2.484741-16.803864-7.568481-8.815216-8.2948-12.021057-18.347901-9.617554-30.159668 2.403504-11.81189 10.227967-27.03357 23.473664-45.66565zm-16.771088-179.164184 40.532166-29.053711 54.567779 86.411621c1.088135-19.849976 8.317932-33.99585 21.689575-42.438233 14.692261-9.276123 29.980835-11.483154 45.866211-6.621093 15.885315 4.862182 29.560791 16.371826 41.026856 34.529052 11.257629 17.827271 15.768982 35.757569 13.534241 53.791748-2.234803 18.034058-11.358521 32.105957-27.37146 42.216065-13.206543 8.338013-29.300782 9.726196-48.283326 4.164429l-.118896 14.620239c-.165527 4.491333-.704651 8.756592-1.617371 12.795898l-6.203247 1.146118c-1.823852-5.082275-4.099487-10.513916-6.826843-16.295532-2.727417-5.781494-5.550354-10.983154-8.468994-15.60498l-82.71164-130.97937c-2.605926-4.126709-6.124267-6.407349-10.555023-6.842164-4.430816-.434936-9.204895.963257-14.322448 4.194214l-4.952424 3.126709zm120.606354 28.093994c-20.965332 13.236816-20.19043 37.682129 2.324707 73.336303 10.111023 16.011475 20.454834 26.449952 31.03186 31.315918 10.577027 4.865967 20.652771 4.276246 30.227478-1.76892 9.574768-6.045044 14.208557-15.435303 13.901551-28.170411-.307068-12.735473-5.09906-26.448364-14.376099-41.13916-22.098267-34.994018-43.134583-46.18518-63.109497-33.57373zm102.786987-151.052857-49.313171 22.625855 3.980835 10.076904 11.439697-4.518433c5.084351-2.008178 9.581238-2.315063 13.490723-.920654 3.909546 1.394409 6.760864 4.361084 8.554077 8.900269l61.219543 154.965698c3.012513 7.625854.251648 13.124023-8.282776 16.494995l-12.801574 5.056275 4.088501 10.349243 72.179016-28.509156-4.088501-10.349121-13.346314 5.271485c-3.086853 1.219238-5.951843 1.406372-8.594787.561157-2.642945-.845215-4.466492-2.538574-5.470703-5.080567zm230.451416 126.887329-10.29895-2.033935c-6.836975 23.568725-19.61908 37.311645-38.346863 41.22937-16.434509 3.43811-30.108398-1.380005-41.021911-14.454102-3.172852-3.724121-5.836609-8.352295-7.991516-13.884887-2.154908-5.532471-4.012024-12.024781-5.571229-19.476929l96.313477-20.148437c-4.757751-22.738404-13.979858-39.407227-27.666809-50.006592-13.68689-10.599243-29.702942-13.979981-48.048462-10.142212-18.154358 3.797851-31.736145 13.719238-40.745605 29.76477-9.009522 16.045288-11.255372 34.86377-6.737488 56.455811 4.277954 20.445679 13.833557 35.8479 28.667053 46.207519 14.833496 10.359375 31.327148 13.640137 49.481628 9.842286 26.371644-5.516846 43.693787-23.300904 51.966675-53.352662zm-47.319946-31.685058-58.189453 12.172973c-3.478394-16.623901-2.852844-30.316894 1.876587-41.079101 4.72937-10.762207 12.444763-17.262451 23.146362-19.501221 9.17273-1.918945 17.749573.22583 25.730591 6.434326 7.981079 6.208374 13.090942 14.662964 15.329895 25.363404 1.999023 9.553955-.632263 15.090576-7.893982 16.609619z" fill-rule="evenodd"/><path d="m657.012024 1561.884521-7.502136-7.342651c23.384704-20.610596 47.619445-26.001343 72.704834-16.172363 17.269043 6.766357 29.27063 18.545288 36.005493 35.336914 6.734802 16.791626 6.291321 34.911377-1.330506 54.359863-8.049133 20.538941-20.237426 35.052857-36.565185 43.541992-16.327698 8.489136-33.125794 9.350464-50.394714 2.584107-17.450806-6.837647-28.997986-18.438355-34.642151-34.802735-5.644104-16.364257-4.227906-35.360961 4.248718-56.9906l91.615845 35.897217c2.778015-7.088623 4.781067-13.537354 6.009094-19.346314s1.534973-11.140137.920715-15.99353c-1.968078-16.915894-10.768493-28.436279-26.401367-34.561646-17.81427-6.97998-36.037048-2.48352-54.66864 13.489746zm70.080017 66.772095-55.351257-21.687866c-6.907593-2.706543-12.142151.484131-15.703675 9.572266-3.989013 10.178588-4.34552 20.050537-1.06958 29.616088 3.275879 9.565552 9.27649 16.05774 18.001831 19.476563 10.179627 3.988525 20.195557 2.776123 30.048096-3.637329 9.852661-6.41333 17.877441-17.526489 24.074585-33.339722zm164.123291 7.595581-9.53772-1.558349c-3.037414-16.518677-7.738769-28.907715-14.104126-37.167847-6.365417-8.26001-15.713684-13.397339-28.045349-15.412109-9.826721-1.605591-18.048279-.624756-24.664978 2.942627-6.616638 3.567382-10.507385 8.915161-11.672363 16.043823-1.857666 11.367065 4.041626 19.451904 17.69812 24.254761l35.961243 14.183471c9.063537 3.854614 15.805664 9.505738 20.226562 16.953369 4.421021 7.447876 5.938782 15.410279 4.553406 23.887452-1.889099 11.559692-7.709168 20.845214-17.460449 27.856567-9.751221 7.011352-21.563172 9.383545-35.436219 7.116821-11.946228-1.951782-22.234375-7.391113-30.864685-16.317871l-11.190612 8.556397-6.069397-.9917 4.418701-48.828369 9.537597 1.55835c1.905335 13.762085 5.806702 24.388672 11.704285 31.879883 5.897522 7.491333 14.433899 12.14978 25.609436 13.97583 9.248657 1.511108 16.892212.435791 22.930847-3.226074 6.038636-3.661744 9.59314-8.767945 10.663636-15.318482 1.889099-11.559692-16.252808-24.018555-54.426331-37.376831-9.382141-3.115356-16.493042-8.628906-21.332703-16.540649-4.83966-7.911866-6.487976-16.587891-4.945251-26.028321 2.046509-12.523071 8.451599-22.059082 19.215393-28.608276 10.763672-6.549316 23.274597-8.659058 37.532959-6.329346 7.514587 1.227783 13.948547 3.317505 19.302063 6.269287 5.353455 2.95166 10.719543 7.339356 16.098206 13.16333l12.388244-10.437622 7.803589 1.275025zm196.503784 77.985474-48.32251 5.80542-6.478637-90.544556c-.780152-10.904297-4.171631-19.322021-10.174561-25.253418-6.002868-5.931396-13.483154-8.57666-22.441162-7.935791-10.710632.766113-19.587952 5.95166-26.632263 15.556397-7.044373 9.604858-10.099732 20.930175-9.16626 33.97644l3.678101 51.405884c.41803 5.841553 2.647522 9.645386 6.688598 11.411255 4.041077 1.765991 10.151001 2.356323 18.330078 1.77124l.752381 10.514893-48.030518 5.784545-8.045959-112.450439c-.75232-10.514893-6.581116-15.382202-17.486511-14.602051l-8.763245.626953-.71051-9.930786 46.069275-4.46997 4.84375 26.662353c7.496337-10.126343 15.204956-17.968262 23.126098-23.525757 7.921143-5.557373 16.165772-8.642578 24.734314-9.255615 14.02124-1.00293 25.160034 2.848389 33.416626 11.554321 8.256592 8.705933 13.018677 21.918457 14.286621 39.638062l4.263306 59.584106c.404053 5.646851 2.776123 9.39148 7.116211 11.233887s10.404907 2.484985 18.194458 1.927734zm694.770386-569.148682-9.906006 53.339966-193.260742-46.799316c-2.656494-.643311-5.091309-.128174-7.304688 1.54541-2.213134 1.673462-3.710449 4.122925-4.491699 7.348389l-3.377441 13.945312-10.815918-2.619141 18.266601-75.418701 10.815674 2.619141-3.239624 13.376221c-2.15979 8.91748.744995 14.341064 8.7146 16.270996l161.952026 39.217651c4.743653 1.148682 8.811524.526978 12.203247-1.865601 3.391724-2.392334 5.730957-6.244873 7.0177-11.557373l2.895142-11.953125zm-461.732178 576.279663 47.47937-26.256469-4.724609-9.750367-11.069092 5.362671c-4.919678 2.383423-9.380737 3.026245-13.383789 1.928711s-7.068481-3.842285-9.196777-8.234375l-72.65857-149.944214c-3.575439-7.378662-1.234375-13.068237 7.02356-17.069091l12.386719-6.000977-4.852417-10.013916-69.840088 33.835938 4.852417 10.013793 12.913818-6.256347c2.986939-1.447144 5.829712-1.848267 8.528687-1.203491 2.698852.644775 4.644165 2.197021 5.835937 4.656494zm115.977051-202.487548c6.044189 2.557128 9.299561 4.148803 9.766113 4.775024 1.633057 2.191528 1.044312 6.220947-1.766357 12.088135-2.810547 5.867065-7.268677 11.074951-13.374634 15.623657-7.201782 5.365112-14.706543 7.79126-22.514404 7.27832-7.807862-.512939-14.102905-3.978515-18.885376-10.39685l-12.247437-16.437378c21.187989-19.922974 35.353028-38.569824 42.495484-55.941162 7.142456-17.371216 6.572754-31.614136-1.708985-42.728882-5.832275-7.827393-13.511596-11.843994-23.038574-12.049927-9.5271-.206055-19.69165 3.714722-30.494385 11.762451-8.767456 6.531372-14.979248 13.715088-18.63562 21.55127-3.026977 6.393554-5.302124 15.756592-6.825073 28.089721-14.494995-9.651001-27.143555-10.452514-37.946289-2.404785-6.888794 5.131714-10.934937 12.771363-12.138672 22.918946l9.186035 3.015991c.789063-2.535156 1.723023-4.63086 2.802124-6.286743 1.079102-1.656006 2.479737-3.125367 4.201904-4.408326 6.262452-4.665405 13.184571-1.910278 20.76648 8.265259l44.966064 60.348389c6.415406 8.609985 15.1969 12.962036 26.344727 13.05603 11.147827.094116 22.90564-4.46582 35.273926-13.679931 13.620849-10.146973 22.667724-21.694581 27.140869-34.642823 4.473144-12.948364 3.67688-23.492553-2.388672-31.633056-3.38269-4.539795-7.269531-7.060669-11.660767-7.562745-4.391235-.501953-8.62207.763184-12.692749 3.795655-8.141113 6.064941-9.295654 13.010986-3.463378 20.838257 1.399658 1.87854 3.678833 3.467163 6.837646 4.765503zm-64.970947 4.947021-11.722779-15.732788c-7.931884-10.645142-11.08789-21.987427-9.468017-34.027344 1.619629-12.039917 6.969848-21.442016 16.050293-28.206787 5.479736-4.082153 11.078125-5.635864 16.79541-4.661011 5.717407.974732 10.792236 4.436524 15.224731 10.385254 7.231934 9.705811 8.633667 20.164063 4.205079 31.375122-4.428589 11.21106-14.79004 24.833374-31.084717 40.867554zm78.099853-106.501099-8.043091 5.483765c-7.432739-12.098267-11.192138-23.790039-11.27832-35.075684-.086182-11.285644 3.761231-21.564086 11.542359-30.835571 12.173584-14.505493 26.936645-22.378052 44.289306-23.618286 17.352539-1.240112 34.179444 4.979004 50.480835 18.657471 17.497803 14.682251 27.545899 31.332153 30.144165 49.950073 2.598267 18.617798-2.377563 35.403564-14.927856 50.357544-8.53418 10.168823-18.666626 16.320312-30.397827 18.45459-10.90625 2.062011-19.948365.081421-27.127076-5.942139-4.037963-3.388184-6.410766-7.545532-7.118774-12.471924-.708008-4.926513.381103-9.109497 3.2677-12.548828 2.63562-3.140381 6.07898-4.965698 10.330322-5.475952 4.251343-.510376 8.171631.740356 11.760865 3.752075 2.392944 2.007813 4.158325 4.763428 5.296142 8.266602l2.560181 7.882324c2.392944 2.007812 5.816406 2.332031 10.27063.972534 4.454264-1.359375 8.689372-4.431722 12.705322-9.217041 8.283203-9.869751 10.496216-21.009766 6.639282-33.420776-3.856933-12.410767-13.487426-25.078858-28.891479-38.004273-14.207764-11.921631-27.659058-18.366455-40.354492-19.334839-12.695679-.968505-23.059204 3.33252-31.091431 12.903077-10.918579 13.010009-10.9375 29.43164-.056763 49.265258zm161.478394-80.180786c17.567261-5.154175 30.498413-16.133789 38.793945-32.939087 8.295654-16.805298 8.994629-33.658569 2.097168-50.560302-6.897583-16.901734-19.887451-30.061402-38.970337-39.479493-19.082886-9.41809-37.408203-11.659057-54.97644-6.723266-17.56836 4.936035-30.413574 15.631347-38.536377 32.086548-8.122803 16.4552-8.996338 33.331176-2.620728 50.62854 6.375733 17.297241 19.192383 30.697998 38.450196 40.202392 19.608032 9.677246 38.195556 11.938721 55.762573 6.784668zm27.539551-69.352783c6.471557 10.487061 7.071777 21.06958 1.800537 31.747925-5.357544 10.853393-14.122315 17.031616-26.294922 18.53479-12.172486 1.503296-27.099732-2.108399-44.781983-10.835327-18.732788-9.24524-31.553466-19.219239-38.462646-29.922241-6.909424-10.702881-7.641968-21.568482-2.197998-32.597046 5.44397-11.028443 14.406128-17.054932 26.886719-18.079468 12.48059-1.024658 28.087036 3.085571 46.819702 12.33081 17.682251 8.726807 29.759033 18.333496 36.230591 28.820557z" fill-rule="evenodd"/><text style="font-family:Keep Calm;font-size:743.19043;font-weight:500;fill:#fff;baseline-shift:2;letter-spacing:104.04666" x="721.500089" y="1233">L</text><path d="m1547.726929 801.101196c268.204467 650.288575-691.319153 1089.02649-1124.126465 479.773072" fill="none"/></svg>