<?xml version="1.0" encoding="UTF-8"?>
<!-- Generated by Pixelmator Pro 3.6.12 -->
<svg width="2500" height="2500" viewBox="0 0 2500 2500" xmlns="http://www.w3.org/2000/svg">
    <g id="Group">
        <g id="Publicdomainvectorsorg">
            <path id="Path" fill="#60d838" stroke="none" d="M 226.372055 1249.971191 C 226.372055 1365.550659 147.728775 1492.430664 181.701294 1596.869141 C 217.008316 1705.000977 356.553009 1761.009277 422.122101 1851.146973 C 488.535828 1942.174316 498.983643 2091.846924 590.102295 2158.11084 C 680.094299 2223.67334 825.473572 2188.037598 933.636414 2223.360107 C 1038.160645 2257.328613 1134.10083 2372.904053 1249.984863 2372.904053 C 1365.578125 2372.904053 1461.491455 2257.328613 1566.069092 2223.360107 C 1674.214111 2188.037598 1819.564209 2223.67334 1909.692627 2158.11084 C 2000.697144 2091.846924 2011.422485 1942.174316 2077.565918 1851.146973 C 2143.088135 1761.009277 2282.804932 1705.000977 2317.97998 1596.869141 C 2351.925537 1492.430664 2273.291504 1365.550659 2273.291504 1249.971191 C 2273.291504 1134.218872 2351.925537 1007.317261 2317.97998 902.888916 C 2282.804932 794.750854 2143.088135 738.742554 2077.565918 648.650024 C 2011.422485 557.779053 2000.697144 408.070313 1909.692627 341.80127 C 1819.564209 276.129883 1674.214111 311.711914 1566.069092 276.556885 C 1461.491455 242.439453 1365.578125 127 1249.984863 127 C 1134.10083 127 1038.160645 242.439453 933.636414 276.556885 C 825.473572 311.711914 680.094299 276.129883 590.102295 341.80127 C 498.983643 408.070313 488.535828 557.779053 422.122101 648.650024 C 356.553009 738.742554 217.008316 794.750854 181.701294 902.888916 C 147.728775 1007.317261 226.372055 1134.218872 226.372055 1249.971191 Z"/>
        </g>
        <path id="LLM-SUITABLE-FOR-LOCAL-USE" fill="#000000" fill-rule="evenodd" stroke="none" d="M 1210.1604 2126.59082 L 1190.313354 2124.436768 L 1209.810181 1944.809082 L 1112.585083 1934.256348 L 1114.466675 1916.921631 L 1231.538574 1929.628662 Z M 1371.500977 2117.169678 L 1352.203369 2119.664307 L 1253.623901 1932.639893 L 1276.680786 1929.659302 L 1308.921143 1993.779541 L 1383.605225 1984.125244 L 1399.483398 1913.784912 L 1421.287231 1910.966309 Z M 1316.670166 2010.359375 L 1358.430908 2094.907471 L 1379.825806 2002.195435 Z M 1509.265503 2073.360596 L 1499.462402 2049.795166 C 1507.547119 2053.000732 1516.163696 2055.072754 1525.312378 2056.010986 C 1539.56665 2057.379883 1552.604492 2055.605469 1564.426025 2050.6875 C 1582.625122 2043.116943 1595.054443 2028.914429 1601.714355 2008.079834 C 1605.07666 1997.740356 1606.475708 1987.396729 1605.911377 1977.04834 C 1605.347168 1966.700195 1602.929688 1956.393066 1598.659058 1946.126953 C 1589.923584 1925.128174 1575.884766 1909.80249 1556.542236 1900.149902 C 1537.355225 1890.432495 1518.506958 1889.423828 1499.996826 1897.124023 C 1491.286133 1900.747559 1483.109131 1906.201904 1475.465576 1913.487061 C 1467.821899 1920.772217 1460.776611 1930.043701 1454.329468 1941.301514 L 1444.914673 1918.669434 C 1461.099121 1898.799316 1477.668335 1885.337891 1494.623047 1878.284912 C 1516.555176 1869.161133 1539.291504 1869.647217 1562.83252 1879.74292 C 1588.135742 1890.565186 1606.481201 1909.664307 1617.869629 1937.040771 C 1628.93457 1963.639282 1630.040649 1989.544922 1621.18811 2014.758545 C 1612.089111 2040.256958 1595.17395 2058.150146 1570.441895 2068.438477 C 1560.797974 2072.450439 1550.928345 2074.822754 1540.832642 2075.555664 C 1530.737061 2076.288574 1520.214722 2075.556885 1509.265503 2073.360596 Z M 1665.762329 1780.05481 C 1683.751587 1765.865356 1705.021606 1760.460205 1729.572998 1763.839111 C 1756.385986 1767.365234 1779.286621 1781.165039 1798.275391 1805.23877 C 1816.429565 1828.254517 1824.822144 1853.176025 1823.453491 1880.003906 C 1821.751343 1905.592896 1811.641235 1925.69043 1793.122803 1940.297241 C 1774.339966 1955.112671 1752.412354 1960.500244 1727.339355 1956.459839 C 1701.24353 1951.938843 1678.910156 1937.90625 1660.338745 1914.36145 C 1641.036865 1889.890869 1632.926514 1864.103027 1636.007324 1836.997559 C 1638.516235 1812.703247 1648.434448 1793.722656 1665.762329 1780.05481 Z M 1678.533813 1793.798096 C 1663.85144 1805.37915 1656.203247 1821.389282 1655.588867 1841.828857 C 1655.051025 1862.637207 1662.189697 1882.432617 1677.005127 1901.215454 C 1684.204224 1910.342285 1692.138062 1917.81665 1700.807007 1923.638428 C 1709.47583 1929.460205 1718.827393 1933.563232 1728.861816 1935.947754 C 1749.035034 1940.848877 1766.528687 1937.456787 1781.343384 1925.771484 C 1796.025757 1914.19043 1803.399292 1897.967896 1803.463989 1877.103638 C 1803.60498 1856.608154 1796.267944 1836.96936 1781.452515 1818.186523 C 1766.011108 1798.609863 1748.148071 1786.844482 1727.863159 1782.889648 C 1708.865601 1779.207031 1692.422607 1782.843018 1678.533813 1793.798096 Z M 1977.712036 1738.861816 L 1965.53833 1754.684082 L 1822.336792 1644.504395 L 1762.701172 1722.01355 L 1748.881714 1711.380859 L 1820.69104 1618.049438 Z M 2103.31543 1454.117554 L 2083.219482 1516.40625 C 2077.839844 1533.080688 2070.665771 1545.989746 2061.697266 1555.133545 C 2049.087158 1567.88208 2033.803833 1571.359741 2015.84668 1565.566284 C 2003.501099 1561.583252 1994.512451 1554.877441 1988.880493 1545.448608 C 1983.248413 1536.019775 1980.564697 1522.939697 1980.829102 1506.208008 L 1975.254761 1512.375488 C 1973.540161 1514.123535 1971.834595 1515.432129 1970.138184 1516.300903 C 1963.5177 1520.360718 1955.040771 1522.493774 1944.707031 1522.700195 L 1872.013916 1525.800659 L 1878.919434 1504.396484 L 1922.395508 1504.615356 C 1944.237183 1504.404175 1959.36792 1501.67395 1967.788208 1496.424683 C 1975.577515 1492.033936 1981.799805 1482.623779 1986.4552 1468.193848 L 1995.455688 1440.296265 L 1908.636475 1412.286255 L 1914.765991 1393.286987 Z M 2065.461426 1514.659912 L 2080.591553 1467.763062 L 2010.366455 1445.106812 L 2001.055664 1473.966431 C 1997.331299 1485.510254 1995.27124 1495.599487 1994.875244 1504.234131 C 1994.479126 1512.868896 1995.884399 1520.447266 1999.09082 1526.96936 C 2001.050781 1531.319092 2003.92627 1535.300293 2007.717285 1538.913208 C 2011.508301 1542.526123 2015.728516 1545.08252 2020.378052 1546.58252 C 2029.196411 1549.42749 2037.655151 1548.173584 2045.754883 1542.820801 C 2054.702637 1537.033691 2061.271484 1527.646729 2065.461426 1514.659912 Z M 1922.270264 1282.750732 C 1923.33667 1259.86377 1933.188843 1240.25354 1951.827148 1223.919434 C 1972.05835 1205.973022 1997.487671 1197.713501 2028.115845 1199.140625 C 2057.397705 1200.505005 2081.723877 1210.492554 2101.094971 1229.103638 C 2119.311768 1247.154907 2127.87085 1267.960449 2126.773193 1291.520508 C 2125.659668 1315.417358 2115.363281 1335.512817 2095.883545 1351.807739 C 2075.37085 1368.560425 2050.137207 1376.23877 2020.182129 1374.843018 C 1989.04895 1373.392334 1964.253296 1362.624023 1945.794189 1342.537598 C 1929.084351 1324.725098 1921.243042 1304.796387 1922.270264 1282.750732 Z M 1941.02063 1282.106567 C 1940.150269 1300.786377 1947.234497 1317.053955 1962.27356 1330.909546 C 1977.641357 1344.949097 1997.273315 1352.525513 2021.170044 1353.638916 C 2032.78186 1354.180054 2043.626587 1353.08313 2053.70459 1350.348267 C 2063.782471 1347.613525 2073.009033 1343.236938 2081.384766 1337.218384 C 2098.304688 1325.189209 2107.203369 1309.750732 2108.081543 1290.902588 C 2108.952148 1272.222778 2101.527344 1256.023682 2085.807373 1242.305054 C 2070.416016 1228.770264 2050.772217 1221.446289 2026.875488 1220.332886 C 2001.968994 1219.172363 1981.377075 1224.958862 1965.099121 1237.692627 C 1949.869995 1249.631958 1941.843994 1264.436401 1941.02063 1282.106567 Z M 2093.681885 1011.948608 L 2118.877197 1132.666504 L 2101.80835 1136.228882 L 2080.691895 1035.053467 L 2008.706543 1050.077637 L 2028.945313 1147.047729 L 2013.113403 1150.351929 L 1992.874756 1053.381836 L 1903.820557 1071.968506 L 1899.741821 1052.426025 Z M 1528.362427 420.552246 L 1546.737549 426.953613 L 1551.242432 638.320068 L 1529.287842 630.671753 L 1529.135864 558.902466 L 1458.022095 534.12854 L 1412.355835 589.936157 L 1391.594482 582.703491 Z M 1529.622192 540.607544 L 1530.093384 446.30957 L 1469.485718 519.657837 Z M 1238.446533 371.79541 L 1390.905884 383.201416 L 1389.60498 400.589355 L 1323.329346 395.631104 L 1309.849609 575.810181 L 1290.193726 574.3396 L 1303.673462 394.1604 L 1237.145752 389.18335 Z M 1162.344116 379.28418 L 1181.980225 377.570313 L 1199.206543 574.939087 L 1179.570313 576.652954 Z M 644.15332 928.747559 L 485.401154 810.21936 L 500.973114 789.362793 L 678.34906 825.924316 L 594.404846 664.223999 L 609.069702 644.58252 L 767.821838 763.110718 L 757.087769 777.487549 L 619.192078 674.53125 L 708.25531 842.891846 L 703.115051 849.776489 L 517.345398 811.363159 L 655.038574 914.168335 Z M 411.649841 989.167236 L 418.813629 970.533325 L 587.462341 1035.370239 L 622.555908 944.087646 L 638.831116 950.344604 L 596.57373 1060.261108 Z M 376.001221 1166.795776 L 379.162781 1147.084229 L 557.565247 1175.698364 L 573.052917 1079.136475 L 590.269409 1081.897827 L 571.620178 1198.171387 Z M 906.579529 2058.26416 L 924.146851 2067.203125 L 981.562683 1954.366699 C 992.335388 1933.195679 993.757629 1913.126953 985.82959 1894.159668 C 978.423035 1876.025146 963.984314 1861.495117 942.513 1850.569702 C 923.894531 1841.095825 904.812317 1838.66333 885.265808 1843.272217 C 864.133484 1848.397461 848.295776 1861.320068 837.752319 1882.040527 L 780.680298 1994.201294 L 799.373718 2003.713379 L 857.591797 1889.300293 C 865.537598 1873.684814 877.432922 1864.237915 893.278259 1860.959106 C 906.934448 1858.267578 920.744263 1860.474609 934.708069 1867.579956 C 950.023254 1875.373047 960.724243 1885.732666 966.81134 1898.659302 C 973.491028 1913.021729 972.819763 1928.085449 964.797607 1943.851074 L 906.579529 2058.26416 Z M 636.25647 1858.079834 L 653.201843 1838.993896 C 654.016602 1844.673584 655.142517 1850.066162 656.579529 1855.171875 C 658.016541 1860.27771 659.757629 1864.977539 661.802795 1869.271362 C 666.229797 1879.51001 672.348633 1888.096436 680.159485 1895.03125 C 689.986023 1903.755615 700.292786 1908.513428 711.080017 1909.304443 C 722.105103 1910.081543 730.69342 1907.005615 736.845215 1900.07666 C 745.793335 1889.998047 745.071533 1875.84021 734.67981 1857.602539 L 705.186035 1807.085938 C 696.569824 1786.594727 698.581238 1769.231445 711.220459 1754.995483 C 723.524109 1741.137573 738.776917 1734.741943 756.97937 1735.808594 C 774.230469 1736.931763 790.414612 1744.204346 805.53241 1757.626465 C 815.610901 1766.574463 823.577637 1777.139648 829.432861 1789.322021 C 832.948547 1796.273315 836.241699 1805.505127 839.312439 1817.017578 L 822.19928 1836.292603 C 820.216431 1818.987305 815.814758 1804.153076 808.99408 1791.789307 C 806.837097 1787.621338 804.407532 1783.887451 801.705444 1780.587158 C 799.003296 1777.286987 796.077515 1774.23877 792.927979 1771.442505 C 782.849487 1762.494385 772.108887 1757.464111 760.705872 1756.351563 C 748.099548 1755.071777 737.825867 1758.904297 729.884399 1767.848877 C 720.265198 1778.68335 720.24585 1793.422119 729.826355 1812.066162 L 759.27771 1861.869263 C 767.977539 1881.758789 766.063782 1898.758301 753.536438 1912.868164 C 743.022461 1924.710449 729.804688 1930.209473 713.882874 1929.365234 C 697.485352 1928.549561 682.105896 1921.766113 667.74408 1909.015137 C 658.925354 1901.185547 651.560852 1891.718262 645.65033 1880.613281 C 642.457214 1875.074707 639.325928 1867.563721 636.25647 1858.079834 Z M 571.884949 1808.663696 L 500.299774 1708.248779 L 514.497803 1698.127075 L 574.494385 1782.286377 L 630.257568 1742.532959 L 572.461365 1661.460449 L 586.659363 1651.338623 L 644.455566 1732.411377 L 707.626404 1687.377197 L 647.189758 1602.60083 L 661.387756 1592.479004 L 733.413025 1693.51123 L 571.884949 1808.663696 Z M 1966.26355 744.127563 L 2030.161865 849.600708 L 2015.248657 858.635498 L 1961.69458 770.236938 L 1903.122314 805.721436 L 1954.712402 890.878052 L 1939.799194 899.912842 L 1888.209106 814.756226 L 1821.856079 854.95459 L 1875.803101 944.001587 L 1860.889893 953.036377 L 1796.598755 846.914795 L 1966.26355 744.127563 Z M 1847.530029 609.055786 L 1861.219116 623.586792 L 1729.704346 747.482178 L 1796.763794 818.665771 L 1784.072144 830.62207 L 1703.323608 744.907471 L 1847.530029 609.055786 Z M 1736.430054 523.161621 L 1680.039795 485.200562 L 1569.40271 649.549683 L 1632.710571 692.167603 C 1647.105103 701.857788 1662.390991 705.547729 1678.568359 703.237427 C 1695.259155 701.069702 1708.26123 693.068237 1717.575195 679.232666 C 1723.313965 670.707642 1726.042603 661.375 1725.76123 651.234253 C 1725.353638 637.962402 1718.752319 625.293701 1705.957153 613.227661 C 1710.719604 613.996704 1715.144897 614.437134 1719.232788 614.54895 C 1723.32076 614.660767 1727.095662 614.257202 1730.557495 613.338257 C 1742.297485 610.68103 1751.742432 604.04187 1758.892456 593.420654 C 1767.453735 580.703125 1769.217773 567.674805 1764.184692 554.335449 C 1759.796631 543.05481 1750.545044 532.663696 1736.430054 523.161621 Z M 1639.165161 581.667969 L 1675.011719 605.799316 C 1689.546021 615.583618 1698.903687 625.741577 1703.084961 636.273682 C 1707.266235 646.805664 1705.970093 657.102661 1699.196289 667.164917 C 1692.516602 677.087402 1683.169922 682.675659 1671.155762 683.929932 C 1659.42395 684.765015 1647.548828 681.137085 1635.530029 673.046265 L 1595.700562 646.233643 L 1639.165161 581.667969 Z M 1686.863281 510.813354 L 1725.644653 536.92041 C 1736.126099 543.976318 1742.444214 552.088135 1744.599121 561.256104 C 1745.963867 569.485962 1744.294189 577.094482 1739.59021 584.082153 C 1733.569092 593.026367 1725.299561 598.070557 1714.781128 599.214722 C 1704.262817 600.358887 1692.714844 596.69751 1680.137085 588.230225 L 1648.902344 567.203613 L 1686.863281 510.813354 Z M 880.144836 498.172974 L 867.404236 476.057373 C 857.436462 475.966919 849.320496 476.55957 843.056091 477.835327 C 830.651062 479.926636 819.339478 483.915649 809.121033 489.802368 C 792.479492 499.389526 781.176636 511.830811 775.212219 527.126831 C 769.371521 541.962769 770.403687 556.241455 778.308838 569.963501 C 787.727661 586.312988 803.247192 593.509521 824.86792 591.552979 L 881.432739 579.381104 C 902.150574 576.194824 916.125488 580.878784 923.357788 593.432861 C 929.328674 603.797363 929.711914 614.755859 924.507446 626.308838 C 919.842529 636.773315 911.671082 645.369263 899.992798 652.097046 C 896.343323 654.199463 892.525757 656.009888 888.539856 657.528442 C 884.554016 659.046997 880.242981 660.169556 875.606567 660.89624 C 861.719543 663.452515 846.254761 662.932129 829.211731 659.335083 L 842.078491 681.669678 C 853.971008 682.401123 863.770508 682.199585 871.477173 681.065063 C 884.886597 679.367188 897.430237 675.154419 909.108521 668.426758 C 926.625916 658.335083 938.647522 645.285278 945.173645 629.276733 C 951.947327 612.348022 950.708862 595.85498 941.458191 579.797363 C 931.955261 563.30188 916.121582 555.897583 893.956604 557.584351 L 836.701599 569.570557 C 816.112244 573.654785 802.453918 569.85791 795.726196 558.179688 C 791.10083 550.150879 790.901672 541.030518 795.128662 530.818237 C 799.293823 520.836182 807.069397 512.565552 818.45575 506.005981 C 827.506409 500.791992 837.588257 497.705811 848.70166 496.747314 C 853.42218 496.166626 858.431396 496.002808 863.729492 496.255859 C 869.027527 496.508911 874.499268 497.147949 880.144836 498.172974 Z M 960.779968 421.525635 L 941.759033 426.695068 L 974.961609 548.86792 C 981.191284 571.790649 993.610718 587.619019 1012.220398 596.353271 C 1029.884644 604.820801 1050.340332 605.895508 1073.588257 599.577515 C 1093.747314 594.098999 1109.522705 583.090576 1120.914795 566.55188 C 1133.13562 548.565918 1136.19751 528.355713 1130.100342 505.920654 L 1097.09668 384.479492 L 1076.856445 389.97998 L 1110.522827 513.859863 C 1115.117798 530.767456 1112.644287 545.755005 1103.102173 558.822998 C 1094.788208 569.986084 1083.071777 577.621948 1067.952515 581.730835 C 1051.370117 586.237427 1036.484253 585.743896 1023.294373 580.250366 C 1008.701416 574.090576 999.085571 562.47583 994.446472 545.40564 L 960.779968 421.525635 Z"/>
        <g id="Group-copy">
            <path id="path1" fill="#000000" stroke="none" d="M 1264.102783 688.90979 C 1259.015259 688.359497 1253.927612 688.528564 1248.835815 688.75061 C 1243.744019 688.528564 1238.656372 688.359497 1233.568848 688.90979 C 999.200073 692.729858 845.598816 903.562622 876.241699 1113.572144 C 893.141113 1231.842651 958.03833 1295.535278 997.514587 1337.081787 C 1082.401367 1426.242065 1067.52063 1452.010254 1096.00415 1496.665405 C 1080.551758 1516.503662 1079.01062 1547.056641 1094.838501 1567.120483 C 1082.557007 1587.334961 1082.344116 1615.75769 1098.171997 1634.154419 C 1083.689331 1656.775146 1085.01062 1688.73999 1104.074341 1705.52478 C 1099.94873 1731.880859 1119.413452 1776.529541 1172.223633 1775.641846 C 1173.521606 1780.633301 1174.073242 1800.803223 1192.41272 1812.711914 C 1208.532715 1823.53418 1215.909058 1818.714722 1277.874512 1820.206421 C 1287.449219 1820.357056 1297.249512 1818.088135 1305.257446 1812.711914 C 1323.580688 1800.814453 1324.150757 1780.625488 1325.446533 1775.641846 C 1374.851807 1776.472168 1398.163574 1734.700073 1393.595825 1705.52478 C 1412.822266 1688.597168 1413.842163 1656.558105 1399.498291 1634.154419 C 1415.32605 1615.75769 1415.113281 1587.334229 1402.831787 1567.120483 C 1418.659546 1547.056641 1417.118408 1516.503662 1401.666138 1496.665405 C 1414.799927 1476.075195 1421.002808 1452.139038 1431.467285 1430.245361 C 1460.014404 1367.067627 1515.525879 1328.193237 1555.34729 1274.696899 C 1725.606812 1044.031494 1569.373657 693.88562 1264.102783 688.90979 Z"/>
            <g id="g1">
                <path id="path2" fill="#ffffff" stroke="none" d="M 1191.812256 881.703613 C 1226.267456 919.110474 1223.12561 969.503784 1183.190308 1003.377563 C 1216.150269 1031.003906 1227.723755 1079.295898 1204.005981 1116.855469 C 1188.729126 1110.651733 1170.608154 1109.849609 1155.619873 1117.293945 C 1144.729614 1109.699707 1130.994751 1106.31604 1117.911133 1109.323364 C 1107.968018 1072.684082 1076.940308 1055.380127 1039.711182 1063.743896 C 1039.711182 1054.583008 1037.681152 1045.422119 1033.031372 1037.464233 C 1047.719116 1036.110596 1062.130981 1030.095703 1072.632935 1019.605835 C 1088.159424 1038.370361 1113.714111 1043.728882 1136.095703 1029.430908 C 1141.9104 1041.574341 1151.936279 1051.738281 1164.480957 1056.876099 L 1170.646362 1041.637329 C 1144.861206 1030.578735 1136.811523 990.494263 1164.618164 971.294678 L 1155.256348 957.672119 C 1137.623535 969.440186 1128.224976 991.508423 1131.219604 1012.412598 C 1113.75293 1026.622803 1093.663696 1022.197998 1082.933228 1005.945801 C 1088.121216 995.857666 1089.863403 983.939697 1086.655029 972.973755 C 1110.663452 958.205444 1112.904175 929.088257 1102.558594 907.017822 C 1135.853882 906.154907 1158.18811 885.257202 1159.265991 852.540527 C 1175.093872 847.578125 1187.600952 833.980347 1191.172852 817.76416 L 1175.395142 814.092651 C 1168.974365 842.668091 1133.848633 845.7052 1114.28833 823.378662 L 1101.919189 834.319092 C 1112.270508 846.149414 1127.008423 854.257813 1142.873779 855.022339 C 1134.335327 927.757813 1016.689392 876.134399 1040.424072 817.76416 C 1047.11438 800.010376 1067.906006 786.254883 1091.417236 795.983643 C 1169.78418 680.048828 1252.274658 800.470825 1191.812256 881.703613 Z M 1023.481506 851.300537 C 1034.79187 880.686523 1054.246704 894.759644 1080.001587 903.960205 C 1103.012695 922.250122 1093.068115 964.110718 1061.592041 962.7229 C 1079.425781 983.109375 1073.611816 1001.151001 1054.774414 1012.513062 C 1013.911133 1036.520752 1002.931091 999.312744 954.380188 1024.75708 C 923.77832 987.981201 956.475891 933.162231 1001.689026 934.037231 C 977.95575 908.74707 977.203186 855.943237 1023.481506 851.300537 Z M 1018.167603 1088.445557 C 1058.214722 1070.789917 1092.373535 1074.212524 1102.78418 1116.530029 C 1090.515503 1125.578491 1083.835815 1141.167969 1085.903198 1156.294312 C 1041.422852 1186.062134 1055.154175 1249.893555 1112.771973 1255.698975 C 1115.641479 1276.878174 1131.482056 1294.58606 1151.144897 1302.118042 C 1153.37561 1297.105469 1155.10498 1291.904663 1157.110229 1286.816406 C 1121.233276 1272.154907 1116.422241 1224.481079 1159.203125 1213.039917 L 1155.631226 1197.048584 C 1134.539673 1201.72168 1118.249268 1215.648315 1112.972168 1239.11853 C 1067.679688 1233.414917 1062.962769 1186.611694 1104.813477 1164.752808 C 1094.909912 1122.583862 1128.218628 1114.100464 1154.553345 1138.736328 C 1201.755371 1099.103027 1257.964844 1178.946777 1202.476074 1238.06543 C 1267.883301 1308.82605 1194.255981 1395.772583 1131.46936 1331.61731 C 1083.556396 1350.922852 1054.399536 1323.144531 1060.85083 1274.39563 C 1010.767212 1288.704956 980.092468 1249.135254 994.856567 1199.829712 C 948.095825 1185.110107 930.790466 1143.779297 932.922913 1098.520142 C 939.33667 1005.114746 1050.777466 1015.073486 1018.167603 1088.445557 Z"/>
                <path id="path3" fill="#ffffff" stroke="none" d="M 1406.254395 795.984375 C 1429.699097 786.283203 1450.533203 799.947388 1457.247559 817.764893 C 1480.99646 876.171143 1363.325073 927.662354 1354.797852 855.023071 C 1370.663208 854.258545 1385.401123 846.150024 1395.752441 834.319824 L 1383.383179 823.379395 C 1363.828613 845.699585 1328.698608 842.674438 1322.276489 814.093262 L 1306.498779 817.764893 C 1310.070679 833.981812 1322.577759 847.578857 1338.40564 852.541138 C 1339.483521 885.258545 1361.820679 906.154907 1395.113037 907.018433 C 1384.865723 928.879517 1386.802246 958.080322 1411.016602 972.974487 C 1407.808228 983.94043 1409.550415 995.858398 1414.738403 1005.946533 C 1404.039795 1022.150635 1383.965332 1026.661743 1366.452026 1012.41333 C 1369.447388 991.509888 1360.048096 969.440918 1342.415283 957.672974 L 1333.053467 971.29541 C 1360.849487 990.487183 1352.820313 1030.575195 1327.025269 1041.638062 L 1333.190674 1056.876709 C 1345.735352 1051.738281 1355.76123 1041.575073 1361.575928 1029.431519 C 1383.65625 1043.536499 1409.282227 1038.648315 1425.038696 1019.606567 C 1435.540649 1030.095703 1449.952515 1036.111206 1464.640137 1037.465088 C 1459.991089 1045.422852 1457.960449 1054.58374 1457.960449 1063.744507 C 1420.768799 1055.389282 1389.712891 1072.648682 1379.760498 1109.324097 C 1366.67688 1106.316772 1352.941895 1109.700439 1342.051758 1117.294678 C 1327.063354 1109.850342 1308.941772 1110.652466 1293.665649 1116.856079 C 1269.921021 1079.253418 1281.561646 1030.970703 1314.481323 1003.378418 C 1274.5354 969.495361 1271.41333 919.101196 1305.859375 881.704346 C 1252.160034 809.557495 1309.598877 723.468872 1365.286377 754.152832 C 1382.681641 763.789063 1395.30188 779.780273 1406.254395 795.984375 Z M 1495.984741 934.037964 C 1541.182983 933.162964 1573.908203 987.966309 1543.293579 1024.75769 C 1532.193237 1018.940308 1516.64978 1010.229126 1487.500732 1018.842651 C 1454.443848 1028.729248 1403.326172 1000.168579 1436.081665 962.723755 C 1404.606323 964.110718 1394.65686 922.253662 1417.672241 903.960815 C 1442.458008 895.106201 1462.504883 881.664795 1474.192261 851.30127 C 1520.007324 855.896606 1519.978271 908.468506 1495.984741 934.037964 Z M 1502.814331 1199.831055 C 1517.553711 1249.05249 1487.015503 1288.738159 1436.82019 1274.396973 C 1443.272827 1323.156616 1413.846436 1350.81604 1366.20166 1331.618652 C 1303.003296 1396.194092 1230.151245 1308.433472 1295.194824 1238.066772 C 1239.638184 1178.875366 1295.841919 1099.042847 1343.117554 1138.737793 C 1369.128418 1114.404663 1402.840942 1122.24707 1392.857422 1164.754272 C 1434.547607 1186.528931 1430.165161 1233.394409 1384.69873 1239.119995 C 1379.456299 1215.804688 1363.308105 1201.762085 1342.039673 1197.050049 L 1338.467896 1213.04126 C 1381.182129 1224.464111 1376.480713 1272.138672 1340.560669 1286.817871 C 1342.565918 1291.906128 1344.295288 1297.106934 1346.526123 1302.119507 C 1366.188843 1294.587524 1382.029419 1276.879639 1384.898926 1255.700317 C 1442.56897 1249.890015 1456.231812 1186.052246 1411.7677 1156.295654 C 1413.835815 1141.169434 1407.156128 1125.579224 1394.886719 1116.531494 C 1405.327759 1074.088745 1439.501465 1070.811157 1479.503296 1088.446899 C 1453.157227 1029.168457 1516.273438 1018.669312 1543.203735 1045.073364 C 1577.215454 1077.659302 1577.526001 1176.313477 1502.814331 1199.831055 Z"/>
            </g>
        </g>
        <path id="Oval" fill="#ffffff" fill-rule="evenodd" stroke="none" opacity="0.128943" d="M 1924.323242 1250.347534 C 1924.323242 877.468872 1622.04541 575.19104 1249.166748 575.19104 C 876.288147 575.19104 574.010315 877.468872 574.010315 1250.347534 C 574.010315 1623.226074 876.288147 1925.503906 1249.166748 1925.503906 C 1622.04541 1925.503906 1924.323242 1623.226074 1924.323242 1250.347534 Z"/>
    </g>
</svg>
