<svg height="1920" viewBox="0 0 1920 1920" width="1920" xmlns="http://www.w3.org/2000/svg" xmlns:xlink="http://www.w3.org/1999/xlink"><radialGradient id="a" cx="961.453683" cy="958.496159" gradientUnits="userSpaceOnUse" r="733.434973"><stop offset=".00001" stop-color="#cdea8d"/><stop offset="1" stop-color="#33a02c"/></radialGradient><radialGradient id="b" cx="961.453683" cy="958.496159" gradientUnits="userSpaceOnUse" r="446.836974"><stop offset=".00001" stop-color="#cdea8d"/><stop offset=".5" stop-color="#a4d756"/><stop offset="1" stop-color="#6ab31d"/></radialGradient><clipPath id="c"><path clip-rule="evenodd" d="m953.436951 1187.523218h240.303009v-426.551697h-240.303009z"/></clipPath><clipPath id="d"><path clip-rule="evenodd" d="m971.691914 1187.523218h-240.303009v-426.551697h240.303009z"/></clipPath><path d="m1741.811035 958.489014c45.27124 24.640319 88.497437 52.645752 129.480347 83.955322-46.331909 30.531494-95.20459 56.842773-146.396973 78.331543 39.266113 33.400513 75.625 69.967895 109.175781 109.106934-51.680664 20.229492-104.971313 35.789062-159.544067 46.044921 31.360962 40.894165 59.311035 84.214844 83.91919 129.534912-54.748169 8.951172-110.10669 12.987793-165.602662 11.667725 22.173951 46.579102 40.509888 94.722656 55.236451 144.125244-55.434815-2.625122-110.419434-10.118652-164.435059-22.900512 12.063599 50.127563 20.029785 101.041015 24.234131 152.381958-53.702759-14.002808-105.940552-32.667969-156.140869-56.400147 1.411621 51.539185-1.365845 102.979248-7.996704 154.129273-49.612915-24.846192-96.875611-54.019166-140.971802-87.717408-9.43103 50.715088-22.898682 100.46106-40.112915 149.085327-43.32544-34.674926-83.407959-73.134643-119.507324-115.287963-19.73993 47.601684-43.325501 93.402587-70.108216 137.463378-35.107483-42.984985-66.376831-88.793457-93.029846-137.463378-29.132873 42.542358-61.630737 82.55896-97.012939 120.049682-25.592408-49.303345-46.659913-100.644165-62.599854-153.847046-37.388977 35.499024-77.540161 67.838867-119.995666 97.05774-14.696167-53.48523-24.52417-108.137818-29.003174-163.469605-43.973999 26.883667-89.970093 50.173218-137.568543 69.914551-3.174225-55.385254-1.434509-110.862061 5.669403-165.903931-48.582763 17.215332-98.386413 30.43982-149.036987 39.917359 8.347626-54.851075 21.502441-108.771241 39.830658-161.14209-51.1008 6.760986-102.575485 9.43164-154.088318 8.218384 19.518555-51.981812 43.561966-102.010132 72.404877-149.421021-51.390762-4.036865-102.300797-12.201904-152.440178-24.212891 29.926437-46.731689 63.919868-90.632568 102.064262-130.946777-49.422119-14.735229-97.470764-33.354736-144.016216-55.530029 39.067661-39.429077 81.500332-75.172302 127.114864-106.764344-45.263534-24.655456-88.512657-52.660949-129.487918-83.947692 46.331806-30.5542 95.189273-56.88855 146.381641-78.331421-39.250794-33.45398-75.617294-69.990723-109.175804-109.106934 51.695991-20.275268 104.986717-35.834839 159.551719-46.067871-31.360946-40.916992-59.303482-84.214844-83.919158-129.511963 54.771026-8.996948 110.114318-13.056518 165.6026-11.721069-22.143433-46.533447-40.479279-94.692139-55.205964-144.0719 55.427247 2.625 110.404328 10.088135 164.404664 22.877564-12.048401-50.127564-20.037415-101.041016-24.211274-152.412354 53.687531 14.025635 105.932923 32.698365 156.118042 56.400025-1.388733-51.516236 1.373474-103.009644 7.996704-154.136963 49.635743 24.846313 96.860291 54.019409 141.002137 87.717529 9.408325-50.692261 22.898864-100.453491 40.113098-149.054809 43.317749 34.667236 83.407898 73.081298 119.492065 115.287963 19.762757-47.601806 43.333069-93.433105 70.123413-137.463501 35.092224 42.962159 66.376892 88.785889 93.022217 137.463501 29.125244-42.550048 61.63086-82.589477 96.997681-120.049682 25.622925 49.280517 46.675171 100.629028 62.62268 153.816528 37.388916-35.491455 77.524903-67.831299 119.995728-97.050049 14.680908 53.507935 24.501221 108.137818 28.972656 163.469483 43.98169-26.883667 89.99292-50.150269 137.598999-69.921997 3.159058 55.408081 1.411621 110.861938-5.69226 165.926758 48.620849-17.184937 98.409301-30.43982 149.075195-39.947876-8.370606 54.873901-21.517822 108.771118-39.876465 161.142089 51.100708-6.730468 102.590698-9.408935 154.126465-8.165039-19.549072 51.951294-43.592529 101.987305-72.442993 149.398194 51.390747 4.006225 102.293091 12.201782 152.470703 24.190063-29.949341 46.746948-63.935181 90.655152-102.102417 130.99231 49.437256 14.681884 97.478271 33.331909 144.008545 55.507324-39.067749 39.604492-81.492676 75.317139-127.122437 106.90918z" fill="#33982a" stroke="#165829" stroke-width="26.370804"/><path d="m228.145218 958.489014c0 404.438842 329.015304 733.468872 733.411423 733.468872 404.418945 0 733.434326-329.03003 733.434326-733.468872 0-404.446411-329.015381-733.484009-733.434326-733.484009-404.365601 0-733.380906 329.030029-733.380906 733.484009z" fill="url(#a)"/><path d="m959.618469 435.664063c288.253723 0 522.751282 234.536376 522.751282 522.824951 0 288.273437-234.48999 522.786865-522.751282 522.786865-288.261352 0-522.774109-234.498291-522.774109-522.794495 0-139.477966 54.442932-270.714538 153.271912-369.542541 98.828918-98.828003 230.018433-153.282349 369.502197-153.282349z" fill="#edb329"/><path d="m959.694763 230.010742c-404.418945 0-733.43425 329.03772-733.43425 733.484192 0 404.438904 329.007675 733.476624 733.43425 733.476624 404.403748 0 733.441834-329.03772 733.434265-733.476624 0-404.48468-329.099243-733.514709-733.434265-733.514709z" fill="none" stroke="#abda4d" stroke-width="9.995404"/><g fill="#fff"><path d="m333.667511 1030.991821 16.227905-49.952636h52.54715l-42.527527-30.894654 16.250244-49.952575-42.497772 30.894714-42.527496-30.894714 16.250213 49.952575-42.527527 30.894654h52.554596z"/><path d="m369.943024 842.794922 16.235351-49.952637h52.539704l-42.520081-30.894653 16.242767-49.952637-42.497741 30.820313-42.512635-30.820313 16.235352 49.952637-42.520081 30.894653h52.554566z"/><path d="m373.195129 1201.545166 16.227906-50.026978h52.547149l-42.512664-30.894653 16.235351-49.952637-42.497742 30.894776-42.512634-30.894776 16.227905 49.952637-42.52008 30.894653h52.554596z"/><path d="m1589.790527 1032.539063 16.228028-50.012208h52.554565l-42.505249-30.894653 16.227905-49.952637-42.505249 30.894776-42.505127-30.894776 16.227906 49.952637-42.505127 30.894653h52.554565z"/><path d="m1559.715698 844.356934 16.227906-50.026978h52.554565l-42.505127-30.894653 16.227783-49.952515-42.505127 30.894531-42.505249-30.894531 16.227905 49.952515-42.505126 30.894653h52.554565z"/><path d="m1559.567993 1202.846436 16.227905-49.952393h52.554566l-42.505127-30.894775 16.227905-50.0271-42.505249 30.894775-42.505127-30.894775 16.227905 50.0271-42.505249 30.894775h52.554566z"/></g><path d="m592.077271 588.946411c-98.844239 98.828125-153.264283 230.049439-153.264283 369.542603 0 288.227539 234.497559 522.786865 522.736023 522.786865 288.26886 0 522.766541-234.559326 522.766541-522.786865 0-288.265625-234.497681-522.802002-522.766541-522.802002-139.407532 0-270.627502 54.431396-369.448852 153.259399z" fill="#33a02c"/><path d="m625.635742 622.499634c-89.870849 89.89978-139.369263 209.20166-139.369263 335.98938 0 262.068847 213.20868 475.3302 475.282532 475.3302 262.111878 0 475.312927-213.261353 475.312927-475.3302 0-262.106812-213.193481-475.345337-475.312927-475.345337-126.741028 0-246.027099 49.501831-335.890381 139.355957z" fill="#a0c07c"/><path d="m645.764771 642.652832c-84.483826 84.482056-131.021668 196.641357-131.021668 315.836182 0 246.364257 200.435425 446.836181 446.805908 446.836181 246.385681 0 446.821106-200.471924 446.821106-446.836181 0-246.402344-200.435425-446.87439-446.821106-446.87439-119.110595 0-231.269897 46.556274-315.761352 131.038208z" fill="url(#b)" stroke="#33a02c" stroke-width="9.995404"/><path d="m1288.517456 967.250916c0-20.34076-7.451904-39.216065-20.101318-54.726197 10.641479-20.967102 16.803222-45.712585 16.803222-72.198913 0-75.438477-49.884033-136.815552-111.211059-136.815552l-.179566.004028c-19.696411-31.684204-54.893676-52.847656-94.983764-52.847656-61.552368 0-111.641053 49.891724-111.641053 111.214478v376.880126c5.468873 49.494874 24.322022 101.156983 83.645203 119.493775 12.970947 4.012207 26.238403 6.036987 39.43042 6.036987 45.80127 0 84.271484-24.891601 95.718628-61.932373 1.306763-4.221191 2.200195-8.475342 2.772095-12.763061 33.911499-17.781617 56.889282-51.640992 56.889282-90.439698 0-17.685302-4.78418-34.356079-13.196411-48.94812 33.456421-16.48706 56.054321-47.486633 56.054321-82.957824z" fill="#047101" stroke="#fff" stroke-width="53.760937"/><path d="m634.961304 967.250916c0-20.34076 7.451965-39.216065 20.10144-54.726197-10.641479-20.967102-16.803345-45.712585-16.803345-72.198913 0-75.438477 49.884095-136.815552 111.211121-136.815552.062561 0 .11261.004028.179504.004028 19.696412-31.684204 54.893677-52.847656 94.983765-52.847656 61.552429 0 111.641113 49.891724 111.641113 111.214478v376.880126c-5.468872 49.494874-24.322021 101.156983-83.645263 119.493775-12.970887 4.012207-26.238282 6.036987-39.430359 6.036987-45.801209 0-84.271485-24.891601-95.718689-61.932373-1.306763-4.221191-2.200134-8.475342-2.772034-12.763061-33.911499-17.781617-56.889343-51.640992-56.889343-90.439698 0-17.685302 4.784241-34.356079 13.196472-48.94812-33.456482-16.48706-56.054382-47.486633-56.054382-82.957824z" fill="#047101" stroke="#fff" stroke-width="53.760937"/><g clip-path="url(#c)" fill="#fff"><g fill-rule="evenodd"><path d="m1156.962402 790.49646 1.365235 34.668579-13.130616 13.354248-9.322021-.014038-65.77771 62.170044-165.332519 3.744751.00238-4.756592 163.314636-2.808655 65.546265-63.393005 9.336426.016357 10.360473-10.709716-1.207275-34.449707 10.02539-8.656861c-1.356811-2.445068-1.941894-5.331543-1.444824-8.286011 1.143067-6.792968 7.57605-11.372436 14.36853-10.22937 6.791993 1.143067 11.372315 7.576172 10.229249 14.369141-1.143067 6.792847-7.576661 11.372925-14.368531 10.229858-2.199219-.370117-4.165527-1.293823-5.736084-2.708862z"/><path d="m1036.581299 781.331665-19.486084 18.834595-112.226685.864136-.00708 5.044311 114.700623-1.230225 19.525451-19.977661 4.977784-.661743c1.792846 1.422608 3.781128 2.364868 6.010742 2.740235 6.791992 1.142944 13.225464-3.437012 14.36853-10.229981l.002441-.000366c1.143067-6.792969-3.437377-13.226074-10.229248-14.369141-6.79248-1.143188-13.225463 3.436524-14.36853 10.22937-.498901 2.9646.089966 5.859619 1.484375 8.139649z"/><path d="m1128.032959 829.414551-63.327881 61.038208-159.932007 2.867676.115113-4.9469 157.87976-1.59436 61.00232-59.638184.082397-8.659668c-.519775-1.143432-.683838-3.128784-.344604-5.144409 1.142944-6.792969 7.576049-11.372436 14.368408-10.22937 6.791992 1.143066 11.372314 7.576172 10.22937 14.369019-1.143066 6.792968-7.57666 11.373046-14.368652 10.22998-2.082764-.350586-3.957398-1.198975-5.490967-2.274048l-.22107 3.977661z"/><path d="m904.697144 861.874146.105529-4.385743 136.605896-2.203735c1.334351-2.749268 3.469117-5.105347 6.387696-6.477173 6.231811-2.931274 13.661621-.256225 16.594604 5.975952 2.931275 6.231812.261109 13.66333-5.970581 16.596558l-.004639-.000244c-6.232299 2.931152-13.662597.256103-16.595214-5.975952-.887696-1.887818-1.263306-3.888794-1.270264-5.712647z"/><path d="m1115.84729 902.082336-37.406128 37.291199-.535889 12.360596-11.374755 12.095642-146.607361 1.789795-13.140625 13.355041.345398 99.684327-2.265381 4.286254-.33313-109.022216 13.140259-13.352723 146.602539-1.790527 9.353882-9.322388.535888-12.360595 39.431763-40.063599 10.0979-.482361c.658081-3.022461 2.639283-5.886108 5.659668-7.673706 5.927369-3.510498 13.577027-1.550659 17.085328 4.379761 3.510498 5.927368 1.550659 13.577515-4.379395 17.086609-5.927368 3.510559-13.576294 1.545776-17.085449-4.379761-.802857-1.355591-1.317505-2.797119-1.420044-4.288818z"/><path d="m1143.058472 937.971924-27.046631 27.957275-.817261 23.209839-11.120117 10.581848-84.286377 1.38147-115.250122 116.726257-.00708 8.957032 117.523193-120.634644 84.276734-1.383179 13.130615-13.354248.817383-23.209839 24.51538-25.450683 20.689332.732239c.398193 2.517883 1.503295 4.771057 3.295532 6.611938 4.801147 4.9375 12.69873 5.051209 17.636108.248291 4.937378-4.802429 5.050903-12.699646.248291-17.63739-4.801636-4.937561-12.69873-5.051209-17.636108-.248352-1.738037 1.685119-2.897705 3.751465-3.34375 5.988281z"/><path d="m1109.071167 1016.129822-17.147095.222534-34.209839 31.737976-52.710083 2.228516-100.505066 101.828369.0094-7.189453 98.127014-99.78833 52.727905-1.282959 34.052735-31.068055 17.147094-.222473 22.1073-21.911804c-1.533569-2.459778-2.280517-5.598694-1.738769-8.818054 1.143066-6.792969 7.575927-11.372559 14.36853-10.229431 6.79187 1.143066 11.372314 7.576172 10.229248 14.369079-1.143188 6.792969-7.57666 11.372925-14.368652 10.229859-2.170044-.365235-4.109864-1.269471-5.656128-2.665467z"/><path d="m1125.21814 1068.658447-20.713745 21.417969-81.094666.265869-58.448364 58.710327.503845 38.212769-4.950867-.001465-1.005432-41.237549 61.943726-59.940185 80.82959-.271485 22.165405-21.952392 3.327881.529785c.038696-2.006104.69226-4.167481 2.001831-6.094605 3.827759-5.726928 11.572143-7.265869 17.298706-3.438354 5.726562 3.828003 7.266235 11.573486 3.438965 17.300537l-.001709.001709c-3.827759 5.726929-11.573243 7.266113-17.299317 3.438721-2.444214-1.636719-4.130615-3.987793-4.974853-6.51294z"/><path d="m1013.093872 1143.973999-18.566955 21.48938 1.33081 21.827881-4.298401-.001099-1.535583-24.329101 21.871765-24.641236s30.924805 9.742432 33.245483 9.555298c1.698731-2.369263 4.436524-4.105102 7.670899-4.642456 6.794677-1.122803 13.215576 3.474609 14.34021 10.269043 1.12268 6.795654-3.474488 13.217529-10.268921 14.341553-6.795166 1.122802-13.216065-3.474488-14.340454-10.27002-.271119-1.644775-.207154-3.267822.091674-4.866211z"/></g><path d="m1120.302246 771.979492c1.143067-6.792969 7.57605-11.372558 14.36853-10.22937 6.791993 1.143066 11.372315 7.576172 10.229248 14.369141l.004639-.01648c-1.142944 6.792847-7.576538 11.372925-14.36853 10.229859l-3.015747-.756592-9.280518 9.490112-.286255 29.525879-58.260009 56.350464-154.910462 1.202759.0047-4.382691 152.985351-.460327 55.920411-54.982666.286376-29.525879 10.136109-9.716797c-3.00061-2.71167-4.534058-6.838745-3.816406-11.103515z"/><path d="m1090.936523 787.444824c6.791993 1.143067 13.225708-3.4375 14.368653-10.230346 1.143066-6.792847-3.437134-13.225953-10.229248-14.369141-6.792359-1.143066-13.225342 3.436523-14.368531 10.22937-.526489 3.129395.159546 6.186279 1.884156 8.754028l-12.252564 11.409912-31.291748.955323-15.324585 18.542724-118.870239 2.289429-.007019 5.609619 121.139221-3.610596 15.559693-19.297729 31.125122-1.180664 12.841796-11.603027c1.381348 1.263549 3.295411 2.143554 5.42566 2.502075z"/><path d="m1092.844727 827.926758c6.791992 1.143188 13.225463-3.43689 14.368652-10.229859 1.142944-6.792968-3.437378-13.225952-10.229248-14.369018-6.792603-1.143189-13.225586 3.436401-14.36853 10.22937-.648926 3.855835.545288 7.593018 2.892089 10.281982l-9.692749 12.15857-34.401489-.148804-7.213135 5.790772-129.454467 1.56311.075622 4.789917 130.392517-2.096802 7.055664-6.011963 35.821534-.19812 10.751342-13.170898c1.192383.69873 2.54834 1.166015 4.006226 1.411377z"/><path d="m1050.549194 826.805176c6.791993 1.142944 13.225586-3.437012 14.368653-10.229859 1.143066-6.792968-3.437256-13.226074-10.229248-14.36914-6.792481-1.143189-13.225464 3.436523-14.368531 10.22937-.398681 2.368774-.102661 4.695068.72876 6.887817l-8.574951 10.008911-127.639099 3.049805-.004639 4.79126 130.210632-2.972656 8.77356-10.94336c1.720337 1.823731 4.05127 3.097779 6.7323 3.54895z"/><path d="m1127.627563 869.03186c4.627442 5.102539 12.514161 5.488404 17.616822.857788l-.01416-.002319c5.102295-4.628296 5.488037-12.515015.857788-17.618042-4.62793-5.102661-12.514527-5.48352-17.616333-.857666-1.640015 1.487305-2.768555 3.309937-3.457276 5.389771l-3.268188 1.128662-48.724732 48.30188-168.267639 1.987976-.007019 4.536865 170.544068-2.220093 49.0531-48.876648c.359009 2.780152 1.408447 5.305542 3.286743 7.375122z"/><path d="m1167.980713 898.766602c1.143066-6.792969 7.576172-11.372559 14.36853-10.229371 6.791992 1.143067 11.372315 7.576172 10.229248 14.36908-1.143066 6.792908-7.57666 11.372925-14.368652 10.229858-2.964356-.498901-5.508179-2.007995-7.247315-4.158691l-15.311645 15.372314-37.332886-.056457-47.269165 49.638733-53.874817 1.657837-112.601501 118.20758-.002259-8.452148 109.770142-114.823059 54.448181-1.640564 47.647949-49.577454 36.958985-.004699 14.968262-14.604676c-.546265-1.845398-.72876-3.86853-.382447-5.92688z"/><path d="m1179.196411 874.839966c6.791992 1.143066 13.225586-3.43689 14.368652-10.229859 1.143067-6.792846-3.437255-13.226074-10.229248-14.369018-6.792358-1.143189-13.225463 3.436401-14.36853 10.22937l-.058472 3.810791-10.998535 12.189331-44.023071.37439-35.783081 39.030334-173.363037 1.238526-.00708 5.514221 175.908081-1.939026 35.487793-38.799011 43.642334-.438477 10.971313-12.567017c1.698975 3.135254 4.745362 5.331543 8.451783 5.955445z"/><path d="m1045.202759 949.575928c4.842773 4.899658 12.738281 4.943237 17.637817.09906l-.000366-.000488c4.899292-4.843262 4.942871-12.73877.099121-17.638611-4.842895-4.89972-12.737915-4.943238-17.637451-.099182-2.144043 2.114929-3.370239 4.814147-3.562378 7.643066l-137.024231 1.88324-.0047 4.412597 137.174683-1.987487c.554199 1.946289 1.643433 3.99768 3.31665 5.687439z"/><path d="m1087.126587 991.732788c5.563965 4.059754 13.366821 2.842407 17.426392-2.723389 4.059448-5.564453 2.842163-13.36676-2.723877-17.426818-5.564454-4.059815-13.366333-2.842286-17.425904 2.723083-1.092529 1.519714-1.824341 3.204773-2.171264 4.970032-10.603516.068603-61.891358 1.969971-61.891358 1.969971l-115.788025 123.273742.252381 6.432984 118.347534-124.678101 59.219116-1.695435c.723877 2.89148 2.32251 5.3797 4.755493 7.154053z"/><path d="m1171.584595 997.071655c5.075561 4.659851 12.966308 4.314087 17.620727-.760559l-.004638-.000854c4.659668-5.076294 4.31372-12.967102-.760621-17.621888-5.075927-4.659973-12.965332-4.318969-17.620605.76056-2.836792 3.094177-3.817505 7.235473-2.933594 10.921447l-9.280029 9.190857.283081 28.454163-14.403442 13.920654-52.300415.92749-25.35376 21.532715-54.951966.871826-71.862976 69.934082.349183 52.034668 5.574523.00708-1.02716-49.322509 68.926025-68.390869 55.190857-1.200196 23.878784-20.678711 53.518799-1.303222 16.396729-16.501709.031982-28.014588 6.824585-7.107971 1.901245 2.347351z"/><path d="m1043.39978 1033.143311c5.108887 4.620605 12.994263 4.224243 17.614746-.885987l.004761.000244c4.615601-5.110595 4.218994-12.995483-.890869-17.616394-5.109497-4.620788-12.994385-4.224243-17.61499.886048-2.031128 2.243469-3.091797 5.024353-3.138062 7.696533-10.31311.565674-31.209961.8302-31.209961.8302l-103.64032 106.710938-.009399 7.126709 105.896668-108.791993 29.661621-1.194824c.546753 1.960083 1.697021 3.767578 3.327514 5.237549z"/><path d="m1127.411865 1033.702637c4.368286 5.328003 12.224488 6.102295 17.552124 1.733642l-.018799-.002441c5.327515-4.36853 6.102539-12.229675 1.733277-17.552796-4.368286-5.327941-12.224488-6.102172-17.552124-1.73352-1.906494 1.562073-3.225952 3.571655-3.912232 5.784912-11.374145.521668-34.274536.485291-34.274536.485291l-30.536499 30.480713-53.57843 1.376953-75.684509 75.999755-.09491 56.952149 4.830566.00708-.415832-54.560059 74.129883-72.388183 53.293213-2.953369s20.43103-19.550782 30.331543-29.862549l31.336425-1.066895c.145508 2.510132 1.071656 5.1167 2.86084 7.30127z"/><path d="m1092.204712 1076.209717c6.117187 3.166504 13.641479.771484 16.807861-5.346558 3.166382-6.118164.771485-13.641968-5.346313-16.808594s-13.641602-.771606-16.807862 5.34607c-1.027832 1.964111-1.434936 4.087402-1.425659 6.104248l-4.944824.288574-8.939453 7.077881-55.337341 1.863037-66.241517 66.000854.855408 46.507081 4.885437.00476-1.200134-43.990844 63.698364-64.177857 55.62677-2.115112 7.438599-6.372437 5.262817-.369629c1.054688 2.434082 2.999024 4.614258 5.64502 5.981202z"/><path d="m1046.995239 1117.491699c5.169922 4.55127 13.050537 4.049439 17.601807-1.122314h-.000488c4.551025-5.171387 4.049072-13.051514-1.122315-17.603028-5.17041-4.551513-13.050659-4.04956-17.601806 1.122315-1.472413 1.675049-2.400025 3.635986-3.05896 5.952881l-29.740784-.01416-43.238403 45.93164 1.488159 35.76416 5.144714-.245117-1.598572-32.725097 40.49762-43.677491 27.85498.016358c.399048 2.453369 1.718872 4.79248 3.775513 6.601562z"/><path d="m1089.827759 1118.398926c5.810303 3.697632 13.522949 1.977051 17.218384-3.82251 3.697509-5.810547 1.976806-13.523315-3.822266-17.218994-5.810669-3.697754-13.522827-1.977051-17.218262 3.822021-1.435302 2.254029-2.056518 4.791504-1.8573 7.278321l-3.174438 1.014892-16.937012 17.386231-54.505127.166992-29.869262 30.189209 1.62854 30.06958 5.127868.00708-1.73822-27.289795 25.698975-27.259888 55.939209-.834106 17.191406-18.897583 1.683472-.35437c.814331 2.35376 2.432739 4.339844 4.638916 5.742187z"/><path d="m1031.668457 1170.709473c-1.143188 6.792968-7.576782 11.373535-14.368774 10.230346-6.792481-1.143066-11.372132-7.577148-10.229065-14.369995 1.143066-6.792969 7.576049-11.37268 14.368469-10.229492 6.791992 1.143189 11.372314 7.576172 10.22937 14.369141z"/></g><g clip-path="url(#d)" fill="#fff"><g fill-rule="evenodd"><path d="m768.166504 790.49646-1.365234 34.668579 13.130615 13.354248 9.32196-.014038 65.777649 62.170044 165.332581 3.744751-.002381-4.756592-163.314575-2.808655-65.546265-63.393005-9.336425.016357-10.360474-10.709716 1.207275-34.449707-10.025451-8.656861c1.356811-2.445068 1.941955-5.331543 1.444885-8.286011-1.143127-6.792968-7.576111-11.372436-14.368591-10.22937-6.791992 1.143067-11.372315 7.576172-10.229187 14.369141 1.143005 6.792847 7.576599 11.372925 14.36853 10.229858 2.199097-.370117 4.165527-1.293823 5.736084-2.708862z"/><path d="m888.547607 781.331665 19.486023 18.834595 112.226746.864136.007019 5.044311-114.700623-1.230225-19.525451-19.977661-4.977783-.661743c-1.792847 1.422608-3.781067 2.364868-6.010682 2.740235-6.791992 1.142944-13.225524-3.437012-14.368652-10.229981l-.002319-.000366c-1.143128-6.792969 3.437256-13.226074 10.229248-14.369141 6.79248-1.143188 13.225403 3.436524 14.36853 10.22937.49884 2.9646-.089966 5.859619-1.484375 8.139649z"/><path d="m797.095825 829.414551 63.328003 61.038208 159.931946 2.867676-.115112-4.9469-157.8797-1.59436-61.002319-59.638184-.082459-8.659668c.519775-1.143432.683838-3.128784.344666-5.144409-1.143067-6.792969-7.57605-11.372436-14.36847-10.22937-6.792053 1.143066-11.372314 7.576172-10.229309 14.369019 1.143067 6.792968 7.57666 11.373046 14.368653 10.22998 2.082763-.350586 3.957336-1.198975 5.490905-2.274048l.22107 3.977661z"/><path d="m1020.431702 861.874146-.105469-4.385743-136.605957-2.203735c-1.33429-2.749268-3.469055-5.105347-6.387695-6.477173-6.231812-2.931274-13.661622-.256225-16.594666 5.975952-2.931152 6.231812-.261047 13.66333 5.970642 16.596558l.0047-.000244c6.2323 2.931152 13.662597.256103 16.595215-5.975952.887695-1.887818 1.263244-3.888794 1.270202-5.712647z"/><path d="m809.281616 902.082336 37.406128 37.291199.535889 12.360596 11.374695 12.095642 146.60736 1.789795 13.140625 13.355041-.345397 99.684327 2.26538 4.286254.33313-109.022216-13.140259-13.352723-146.602478-1.790527-9.353942-9.322388-.535889-12.360595-39.431763-40.063599-10.0979-.482361c-.65802-3.022461-2.639221-5.886108-5.659607-7.673706-5.927368-3.510498-13.577088-1.550659-17.085388 4.379761-3.510437 5.927368-1.550598 13.577515 4.379394 17.086609 5.927429 3.510559 13.576294 1.545776 17.085449-4.379761.802918-1.355591 1.317505-2.797119 1.420105-4.288818z"/><path d="m782.070374 937.971924 27.04663 27.957275.817322 23.209839 11.120056 10.581848 84.286377 1.38147 115.250183 116.726257.007019 8.957032-117.523132-120.634644-84.276733-1.383179-13.130616-13.354248-.817443-23.209839-24.515381-25.450683-20.68927.732239c-.398194 2.517883-1.503357 4.771057-3.295532 6.611938-4.801148 4.9375-12.698731 5.051209-17.636231.248291-4.937378-4.802429-5.050842-12.699646-.248291-17.63739 4.801697-4.937561 12.698792-5.051209 17.636231-.248352 1.737976 1.685119 2.897644 3.751465 3.34375 5.988281z"/><path d="m816.057678 1016.129822 17.147095.222534 34.2099 31.737976 52.710022 2.228516 100.505066 101.828369-.0094-7.189453-98.127014-99.78833-52.727844-1.282959-34.052795-31.068055-17.147095-.222473-22.1073-21.911804c1.53363-2.459778 2.280579-5.598694 1.738831-8.818054-1.143067-6.792969-7.57605-11.372559-14.368531-10.229431-6.791931 1.143066-11.372314 7.576172-10.229248 14.369079 1.143128 6.792969 7.576599 11.372925 14.368592 10.229859 2.170043-.365235 4.109863-1.269471 5.656189-2.665467z"/><path d="m799.910767 1068.658447 20.713745 21.417969 81.094604.265869 58.448364 58.710327-.503845 38.212769 4.950928-.001465 1.005432-41.237549-61.943787-59.940185-80.829589-.271485-22.165406-21.952392-3.32788.529785c-.038697-2.006104-.692261-4.167481-2.00177-6.094605-3.827759-5.726928-11.572144-7.265869-17.298707-3.438354-5.726562 3.828003-7.266296 11.573486-3.439025 17.300537l.001709.001709c3.827819 5.726929 11.573242 7.266113 17.299316 3.438721 2.444214-1.636719 4.130615-3.987793 4.974853-6.51294z"/><path d="m912.034973 1143.973999 18.567017 21.48938-1.330811 21.827881 4.298401-.001099 1.535584-24.329101-21.871827-24.641236s-30.924743 9.742432-33.245483 9.555298c-1.698669-2.369263-4.436462-4.105102-7.670898-4.642456-6.794739-1.122803-13.215638 3.474609-14.340149 10.269043-1.122803 6.795654 3.474365 13.217529 10.26886 14.341553 6.795227 1.122802 13.216125-3.474488 14.340393-10.27002.271179-1.644775.207214-3.267822-.091614-4.866211z"/></g><path d="m804.826599 771.979492c-1.143005-6.792969-7.575989-11.372558-14.36853-10.22937-6.791931 1.143066-11.372254 7.576172-10.229248 14.369141l-.004639-.01648c1.143006 6.792847 7.576599 11.372925 14.368591 10.229859l3.015625-.756592 9.28064 9.490112.286255 29.525879 58.259949 56.350464 154.910461 1.202759-.0047-4.382691-152.985351-.460327-55.920471-54.982666-.286255-29.525879-10.136109-9.716797c3.000489-2.71167 4.533997-6.838745 3.816346-11.103515z"/><path d="m834.192322 787.444824c-6.791992 1.143067-13.225647-3.4375-14.368653-10.230346-1.143127-6.792847 3.437195-13.225953 10.229248-14.369141 6.79242-1.143066 13.225403 3.436523 14.368531 10.22937.52655 3.129395-.159546 6.186279-1.884217 8.754028l12.252564 11.409912 31.29187.955323 15.324585 18.542724 118.870178 2.289429.00708 5.609619-121.139221-3.610596-15.559753-19.297729-31.125061-1.180664-12.841858-11.603027c-1.381348 1.263549-3.295349 2.143554-5.425659 2.502075z"/><path d="m832.284119 827.926758c-6.791993 1.143188-13.225464-3.43689-14.368592-10.229859-1.143005-6.792968 3.437317-13.225952 10.229248-14.369018 6.792481-1.143189 13.225525 3.436401 14.368531 10.22937.648864 3.855835-.545349 7.593018-2.89209 10.281982l9.692688 12.15857 34.401489-.148804 7.213074 5.790772 129.45459 1.56311-.075684 4.789917-130.392578-2.096802-7.055542-6.011963-35.821594-.19812-10.751282-13.170898c-1.192383.69873-2.54834 1.166015-4.006226 1.411377z"/><path d="m874.579651 826.805176c-6.791992 1.142944-13.225525-3.437012-14.368652-10.229859-1.143067-6.792968 3.437316-13.226074 10.229248-14.36914 6.792541-1.143189 13.225463 3.436523 14.368591 10.22937.39862 2.368774.102661 4.695068-.72876 6.887817l8.57489 10.008911 127.639099 3.049805.0047 4.79126-130.210693-2.972656-8.77356-10.94336c-1.720337 1.823731-4.051269 3.097779-6.7323 3.54895z"/><path d="m797.501282 869.03186c-4.627381 5.102539-12.514099 5.488404-17.616822.857788l.014161-.002319c-5.102295-4.628296-5.488038-12.515015-.857727-17.618042 4.627929-5.102661 12.514465-5.48352 17.616333-.857666 1.640014 1.487305 2.768554 3.309937 3.457214 5.389771l3.268188 1.128662 48.724793 48.30188 168.267578 1.987976.00708 4.536865-170.544128-2.220093-49.053162-48.876648c-.358948 2.780152-1.408447 5.305542-3.286682 7.375122z"/><path d="m757.148132 898.766602c-1.143066-6.792969-7.576111-11.372559-14.36853-10.229371-6.791931 1.143067-11.372314 7.576172-10.229248 14.36908 1.143127 6.792908 7.576599 11.372925 14.368652 10.229858 2.964356-.498901 5.50824-2.007995 7.247315-4.158691l15.311584 15.372314 37.332947-.056457 47.269226 49.638733 53.874756 1.657837 112.601501 118.20758.00232-8.452148-109.770142-114.823059-54.448181-1.640564-47.647949-49.577454-36.959046-.004699-14.9682-14.604676c.546203-1.845398.728759-3.86853.382385-5.92688z"/><path d="m745.932434 874.839966c-6.792053 1.143066-13.225525-3.43689-14.368652-10.229859-1.143067-6.792846 3.437317-13.226074 10.229248-14.369018 6.792419-1.143189 13.225464 3.436401 14.36853 10.22937l.058533 3.810791 10.998474 12.189331 44.023071.37439 35.783142 39.030334 173.362976 1.238526.00708 5.514221-175.908081-1.939026-35.487732-38.799011-43.642395-.438477-10.971313-12.567017c-1.698975 3.135254-4.7453 5.331543-8.451782 5.955445z"/><path d="m879.926147 949.575928c-4.842834 4.899658-12.738342 4.943237-17.637878.09906l.000427-.000488c-4.899353-4.843262-4.942871-12.73877-.099121-17.638611 4.842896-4.89972 12.737854-4.943238 17.63739-.099182 2.144043 2.114929 3.370301 4.814147 3.562439 7.643066l137.02417 1.88324.0047 4.412597-137.174744-1.987487c-.554077 1.946289-1.643371 3.99768-3.316589 5.687439z"/><path d="m838.002258 991.732788c-5.563965 4.059754-13.36676 2.842407-17.426391-2.723389-4.059449-5.564453-2.842102-13.36676 2.723877-17.426818 5.564514-4.059815 13.366333-2.842286 17.425903 2.723083 1.092529 1.519714 1.824402 3.204773 2.171265 4.970032 10.603576.068603 61.891357 1.969971 61.891357 1.969971l115.788086 123.273742-.25238 6.432984-118.347596-124.678101-59.219177-1.695435c-.723816 2.89148-2.322449 5.3797-4.755371 7.154053z"/><path d="m753.544189 997.071655c-5.075439 4.659851-12.966247 4.314087-17.620605-.760559l.004639-.000854c-4.659668-5.076294-4.313782-12.967102.760498-17.621888 5.075988-4.659973 12.965393-4.318969 17.620666.76056 2.836792 3.094177 3.817566 7.235473 2.933594 10.921447l9.280029 9.190857-.283081 28.454163 14.403443 13.920654 52.300415.92749 25.35382 21.532715 54.951966.871826 71.862915 69.934082-.349121 52.034668-5.574585.00708 1.02716-49.322509-68.925964-68.390869-55.190918-1.200196-23.878784-20.678711-53.518738-1.303222-16.396789-16.501709-.031983-28.014588-6.824524-7.107971-1.901245 2.347351z"/><path d="m881.729126 1033.143311c-5.108948 4.620605-12.994263 4.224243-17.614807-.885987l-.004761.000244c-4.6156-5.110595-4.219055-12.995483.89093-17.616394 5.109497-4.620788 12.994324-4.224243 17.614929.886048 2.031128 2.243469 3.091858 5.024353 3.138001 7.696533 10.313232.565674 31.210022.8302 31.210022.8302l103.64032 106.710938.009399 7.126709-105.896667-108.791993-29.66156-1.194824c-.546814 1.960083-1.697083 3.767578-3.327576 5.237549z"/><path d="m797.717041 1033.702637c-4.368286 5.328003-12.224548 6.102295-17.552185 1.733642l.018799-.002441c-5.327576-4.36853-6.102478-12.229675-1.733277-17.552796 4.368348-5.327941 12.224488-6.102172 17.552124-1.73352 1.906556 1.562073 3.225953 3.571655 3.912232 5.784912 11.374145.521668 34.274536.485291 34.274536.485291l30.53656 30.480713 53.578369 1.376953 75.684509 75.999755.09491 56.952149-4.830566.00708.415893-54.560059-74.129944-72.388183-53.293273-2.953369s-20.430909-19.550782-30.331421-29.862549l-31.336487-1.066895c-.145447 2.510132-1.071594 5.1167-2.860779 7.30127z"/><path d="m832.924194 1076.209717c-6.117248 3.166504-13.641601.771484-16.807922-5.346558-3.166382-6.118164-.771423-13.641968 5.346313-16.808594 6.117798-3.166626 13.641602-.771606 16.807862 5.34607 1.027832 1.964111 1.434936 4.087402 1.425659 6.104248l4.944885.288574 8.939392 7.077881 55.337342 1.863037 66.241577 66.000854-.855469 46.507081-4.885437.00476 1.200134-43.990844-63.698303-64.177857-55.62677-2.115112-7.438599-6.372437-5.262817-.369629c-1.054749 2.434082-2.999084 4.614258-5.645142 5.981202z"/><path d="m878.133667 1117.491699c-5.169983 4.55127-13.050598 4.049439-17.601807-1.122314h.000428c-4.551026-5.171387-4.049073-13.051514 1.122314-17.603028 5.170471-4.551513 13.050659-4.04956 17.601868 1.122315 1.472351 1.675049 2.399963 3.635986 3.058899 5.952881l29.740844-.01416 43.238404 45.93164-1.488221 35.76416-5.144714-.245117 1.598572-32.725097-40.49762-43.677491-27.85498.016358c-.399048 2.453369-1.718872 4.79248-3.775513 6.601562z"/><path d="m835.301086 1118.398926c-5.810241 3.697632-13.522949 1.977051-17.218444-3.82251-3.697388-5.810547-1.976746-13.523315 3.822326-17.218994 5.810669-3.697754 13.522888-1.977051 17.218262 3.822021 1.435364 2.254029 2.05658 4.791504 1.857361 7.278321l3.174377 1.014892 16.937073 17.386231 54.505066.166992 29.869263 30.189209-1.628479 30.06958-5.127869.00708 1.738159-27.289795-25.698974-27.259888-55.93927-.834106-17.191346-18.897583-1.683471-.35437c-.81427 2.35376-2.432679 4.339844-4.638855 5.742187z"/><path d="m893.460449 1170.709473c1.143128 6.792968 7.576782 11.373535 14.368775 10.230346 6.792419-1.143066 11.37207-7.577148 10.229004-14.369995-1.143006-6.792969-7.57605-11.37268-14.36847-10.229492-6.791992 1.143189-11.372314 7.576172-10.229309 14.369141z"/></g><path d="m1161.768921 1506.385742c-2.705689-6.930908-4.858032-12.444092 8.846313-17.794189 20.477662-7.994385 43.758179-1.834595 54.950318 26.834228 9.593261 24.573365 2.40747 46.620606-22.795899 56.459839-13.389282 5.227173-15.603149-.443603-18.554931-8.004639zm57.396728 76.344238c26.463501-10.331176 48.417603-41.048339 33.966187-78.065795-15.127808-38.750245-49.116455-44.904908-78.100342-33.589722l-58.282959 22.753174.419678 6.189697c.161865 3.204346.215698 4.272461.64624 5.375122 1.291382 3.307983 3.838623 2.858032 7.146607 1.566773 4.095581-1.598877 7.841552-2.698243 11.285278 6.122924l25.458862 65.213745c3.566773 9.136231-.056152 10.550538-6.671997 13.133423l.261963 6.251099c.161865 3.204346.215698 4.272461.64624 5.375244 1.291382 3.307861 3.996216 2.796509 6.989136 1.628174zm-169.416626 44.444947c4.209351-.39148 4.397339 1.628906 4.616456 3.986206l12.796386-1.19043 5.732544-26.007568c.606934-2.604004 1.335205-5.728638 1.162842-7.580689-.187866-2.020508-1.628906-2.905395-4.659546-2.623535l-8.923706.8302c-2.067505 6.985352-7.498535 16.151856-28.545044 18.109619-18.184143 1.691651-18.622742-3.022827-19.719055-14.808837l-5.779419-62.129517c-.908386-9.765503 4.311096-10.251099 13.066528-11.065552l1.47229-6.080932c.728272-3.124634.97107-4.16626.861451-5.344849-.328919-3.535889-3.069886-3.790283-6.437317-3.477051l-48.322876 4.494995-1.47229 6.080933c-.728333 3.124756-.97107 4.16626-.861451 5.344971.328858 3.535766 2.901429 3.805908 6.437317 3.47705 4.377625-.407226 8.281555-.430664 9.158631 8.998047l6.484192 69.706299c.908447 9.765503-2.964173 10.125733-10.035828 10.783569l-1.47229 6.081055c-.728272 3.124634-.971069 4.166138-.86145 5.344849.328979 3.535766 3.069885 3.790283 6.268921 3.492676zm282.751709-108.554688 1.52295 6.068482-36.72583 23.86145c-2.835938 1.842651-5.381104 2.891235-7.315796-.086548-.644898-.992432-.914063-2.027588-1.72168-5.13269l-1.07373-6.359986c6.298828-4.083618 8.029052-5.205322 4.949462-19.953613l-15.028442-73.72168c-2.216675-10.860717-3.534546-14.440918-5.943481-20.942016l13.612548-8.844483c4.395752-2.855957 5.388428-3.500854 11.618775 1.122315l73.098511 53.536377c8.293945 6.093383 12.647949 5.284301 15.617553 4.732544 2.141358-.39795 3.562866-.661988 5.222657 1.8927.460693.708984 1.083984 3.530517 1.395629 4.941284l1.56543 6.444214-41.97229 27.270386c-2.977661 1.934692-5.522949 2.983276-7.457642.005615-.644897-.992676-.914184-2.02771-1.721679-5.132813l-1.522827-6.068481c8.649658-5.619995 14.037963-9.12085 10.813476-14.083862-1.105591-1.701416-3.848633-3.750733-5.939575-5.417115l-16.032837-12.571899-24.956421 16.214722 4.469361 18.673339c1.253784 5.033448 1.600708 7.429566 2.614135 8.98938 1.566162 2.410645 4.500733 4.133789 11.732422-.564819 3.119507-2.026855 5.522949-2.983398 7.457642-.005615.644897.992553.914184 2.02771 1.721679 5.132812zm-38.166503-76.434204 6.417114 28.499146 16.023193-10.410645zm176.277099-27.684814-2.62439-5.679566c-1.370727-2.901001-1.827514-3.86792-2.645629-4.723266-2.45459-2.566285-4.638306-1.179688-7.204468 1.274902-9.531738 9.116821-11.120362 10.63623-17.899536 3.548584l-48.622925-50.835693c-5.727295-5.987793-7.097901-8.888672-.499146-15.20044 8.1875-7.831054 11.741944-6.316772 13.845826-4.117187l3.022949 3.894531c2.688232 2.810547 4.276855 1.291138 5.987671-.345215l5.74353-5.493408-14.737427-31.06543-8.899292 8.664917c.512207 3.145874.736572 4.524536-6.253784 11.210571l-42.037231 40.20752c-5.254517 5.025879-6.705079 5.711304-9.164917 3.384033l-9.042847 8.649414 10.040893 21.751465c1.599122 3.384522 2.273804 5.312988 3.442627 6.535156 1.636353 1.710694 2.720215 1.375977 4.553223-.377197l5.74353-5.493408-.271728-1.543457c-1.298096-7.261963-2.975098-16.644776 6.254761-25.472901 4.521484-4.324707 7.602905-3.060058 13.3302 2.927735l48.622925 50.835693c6.779174 7.087769 5.068359 8.724121-6.662964 19.944824l2.624511 5.679566c1.370606 2.901001 1.827515 3.867798 2.645752 4.723266 2.454468 2.566285 4.760376 1.062745 7.204346-1.274902zm59.49646-71.045655-3.633301-5.093505c-1.885498-2.595948-2.514038-3.461182-3.476684-4.149903-2.888428-2.065918-4.776734-.297851-6.940918 2.728028-5.016968 7.014526-8.378052 6.481689-10.716187 4.809326-1.513061-1.082032-2.710815-3.186158-5.715698-7.414429l-10.978516-15.752441 17.313599-24.207032 19.516113 5.850464c2.554932.787842 5.856812 1.694214 7.507325 2.874756 4.813842 3.442993 1.075805 8.669434-4.925049 17.059448l3.633423 5.093628c1.885498 2.595948 2.513916 3.461182 3.476806 4.149903 2.888184 2.065795 4.874878.160156 6.940674-2.728028l29.11853-40.711914-3.81018-5.427734c-.805176-1.199707-2.41565-3.598877-3.103272-4.09082-2.478027-1.772217-3.704956-1.007447-5.553223.144775-2.56311 1.5979-6.321289 3.940674-16.267334 1.296142l-87.59851-23.152343c-7.488159-2.029419-8.17688-1.066651-11.226319 3.197021l-9.443969 13.20398c4.616333 5.172729 7.150268 8.024658 13.179199 17.326416l40.906738 63.14563c8.251831 12.605712 7.050415 14.28186 2.677368 20.3833l3.321656 5.528809c1.885498 2.595947 2.513916 3.461304 3.476806 4.149902 2.888306 2.065918 4.874878.160401 6.842285-2.590454zm-67.267944-62.041503 27.692016 8.371704-11.116089 15.541992zm-579.972046 341.61267-2.550232 5.713257-43.621277-3.915283c-3.36853-.30249-6.017883-1.049561-5.700439-4.586426.105835-1.178955.533386-2.159302 1.815979-5.100097l3.083679-5.665162c7.475891.678467 9.529541.864869 16.216125-12.636474l33.711487-67.262695c4.964234-9.910889 6.138916-13.54065 8.259461-20.14148l16.168457 1.451294c5.22113.468628 6.400146.574463 8.444824 8.058472l24.42633 87.251831c2.759827 9.914795 6.683899 11.967651 9.360169 13.367676 1.929993 1.009643 3.21112 1.679809 2.938721 4.714233-.075562.842041-1.328003 3.446167-1.954163 4.748169l-2.748901 6.035034-49.852967-4.474731c-3.536804-.317505-6.186279-1.064576-5.868774-4.601441.105835-1.178955.533386-2.15918 1.81604-5.100097l2.55011-5.713379c10.273987.922119 16.673828 1.49646 17.203003-4.398194.159179-1.773681-.508118-4.536743-1.089783-6.945312l-5.080994-20.773194-29.642334-2.660644-8.017578 17.446655c-2.122619 4.733032-3.329651 6.831787-3.495971 8.684448-.25702 2.863282.986694 6.030884 9.576232 6.80188 3.705262.332642 6.186219 1.064575 5.868775 4.601441-.105835 1.178955-.533386 2.159301-1.815979 5.100219zm-101.074158-33.856567c14.955994 4.282959 30.588806 3.131104 39.811463 1.022827l-13.53064 20.223145c-4.626465 6.94226-19.793091 5.237426-38.000366.023437-40.316101-11.545166-52.815003-45.906372-43.271607-79.232055 9.636536-33.651001 44.627259-50.191163 76.977722-40.927002 5.527222 1.582763 9.776795 3.327392 13.004456 4.955322 3.436768 1.511841 5.688965 2.860351 7.477234 3.372436 4.836609 1.385132 6.338135-1.425171 8.116272-4.753296l8.444702 5.274415c3.482422 2.5802 3.156616 3.718139 2.598022 5.668945-.279296.975464-2.650512 4.342041-3.812866 5.944092l-10.996155 15.671875c-7.892456-8.064698-14.299743-13.945069-27.467529-17.715943-24.05957-6.889892-43.325073 9.404175-49.144287 29.724854-6.331177 22.108764 4.921143 43.624389 29.793579 50.746948zm-97.106201-9.973633 4.295959-4.548706c2.182984-2.351318 2.910645-3.135132 3.400391-4.212768 1.469116-3.232911-.630249-4.744141-3.863159-6.213257-4.002625-1.81897-7.403565-3.735962-3.48584-12.357056l28.963379-63.734863c4.057617-8.928955 7.598511-7.319824 14.064331-4.381592l4.295959-4.548706c2.182984-2.351318 2.910584-3.135132 3.40033-4.212769 1.469177-3.23291-.784119-4.814087-3.863159-6.213256l-41.412171-18.819214-4.295959 4.548706c-2.182922 2.351318-2.910645 3.135132-3.40033 4.212768-1.469177 3.23291.630188 4.744141 3.863099 6.213379 4.002685 1.818848 7.403564 3.73584 3.485839 12.356934l-28.963317 63.734863c-4.057679 8.928955-7.598511 7.319824-14.064393 4.381592l-4.295959 4.548706c-2.182922 2.351318-2.910645 3.135132-3.40033 4.212769-1.469177 3.23291.78418 4.814086 3.863099 6.213256zm215.369324-39.856079-12.554322 26.377319 19.031678 1.708252zm-344.31189-37.469604-4.981506 3.785644-37.780518-25.33313c-2.808929-1.883423-4.773559-3.811645-2.795898-6.761108.65924-.983154 1.505157-1.637451 4.043029-3.600464l4.981507-3.785522c5.898804 3.955322 9.129089 6.121337 14.591247-2.024659l38.988526-58.145385c5.273803-7.865113 2.231872-10.31189-1.4198-12.760621-2.949402-1.977539-4.77356-3.811523-2.795898-6.760986.65924-.983154 1.505188-1.637451 4.042968-3.600586l4.981568-3.7854 37.780456 25.333008c2.80896 1.883545 4.77356 3.811645 2.79596 6.761108-.659302.983154-1.505249 1.637451-4.04303 3.600464l-4.981567 3.785522c-5.898804-3.955322-9.12909-6.121338-14.591248 2.024659l-9.700073 14.466186 38.061401 25.521362 9.700073-14.466064c5.273804-7.865112 2.231873-10.312012-1.419799-12.76062-2.949402-1.977661-4.77356-3.811646-2.795899-6.760987.65918-.983154 1.505127-1.637451 4.042969-3.600585l4.981506-3.785523 37.780518 25.33313c2.80896 1.883545 4.77362 3.811645 2.795898 6.760986-.65918.983155-1.505188 1.637451-4.04303 3.600586l-4.981445 3.785523c-5.898865-3.955323-9.12915-6.121338-14.591309 2.024658l-38.988525 58.145386c-5.273804 7.865112-2.231872 10.312011 1.4198 12.760498 2.949402 1.977783 4.773621 3.811767 2.795898 6.761108-.659179.983154-1.505127 1.637451-4.043029 3.600464l-4.981446 3.785644-37.780517-25.333129c-2.808899-1.883545-4.773621-3.811646-2.795899-6.761109.65918-.983154 1.505127-1.637451 4.04303-3.600464l4.981445-3.785522c5.898865 3.955322 9.129151 6.121338 14.591309-2.024658l19.400085-28.932251-38.061401-25.521485-19.400085 28.932251c-5.273804 7.865113-2.231812 10.312012 1.419799 12.76062 2.949402 1.977662 4.773621 3.811646 2.79596 6.760987-.659241.983154-1.505188 1.637573-4.04303 3.600464zm-82.684662-57.959961 5.622284-2.74524c2.870972-1.432251 3.827942-1.90979 4.66568-2.745971 2.513214-2.508789 1.080231-4.662354-1.428558-7.175537-9.318329-9.334717-10.871369-10.890625-3.930176-17.81958l49.785339-49.697876c5.864197-5.853882 8.735169-7.286255 15.18628-.823609 8.004272 8.018311 6.566223 11.604126 4.412048 13.754517l-3.829041 3.105469c-2.752502 2.74768-1.199401 4.303588.473084 5.979003l5.614868 5.624756 30.743408-15.397583-8.852966-8.712158c-3.134216.579102-4.507752.833008-11.341675-6.012939l-41.096313-41.168702c-5.137024-5.145996-5.853211-6.581543-3.579163-9.090576l-8.840485-8.855957-21.532043 10.503296c-3.349487 1.671021-5.263245 2.386841-6.460022 3.581421-1.675446 1.672607-1.317688 2.749023.474274 4.54419l5.614929 5.624755 1.537231-.304687c7.232636-1.452881 16.577423-3.329834 25.600708 5.709228 4.420227 4.428101 3.221802 7.535889-2.642334 13.389649l-49.78537 49.697998c-6.941223 6.928955-8.613739 5.25354-20.082489-6.235352l-5.622253 2.745117c-2.870972 1.432374-3.827972 1.909791-4.66571 2.746094-2.513215 2.508789-.960755 4.781983 1.428558 7.175537zm-86.191559-87.606324c1.942292-1.353515 3.607117-2.513671 1.190094-5.982055l-41.089508-58.962158c-1.836914-2.635987-2.967651-5.145874-.054199-7.176148.971161-.67688 1.996887-.97937 5.074219-1.887329l6.015899-1.718994c4.060608 5.826904 6.284272 9.017822 14.330872 3.410278l57.436157-40.026001c7.769165-5.414184 5.822968-8.79834 3.309265-12.405517-2.030304-2.91333-3.064331-5.284424-.150909-7.31482.971161-.676635 1.996918-.97937 5.074249-1.887207l6.015869-1.718994 45.730194 65.62146c5.414155 7.769287 6.532258 9.669434 4.3125 11.216309-1.803527 1.256836-4.700042 1.832519-7.264495 2.589111l-18.228424 5.489258-3.57721-5.133179c-2.900452-4.161987-2.980225-5.755371-.8992-7.205566.832397-.580078 2.980652-1.046509 4.645446-2.206787 4.300782-2.997193 1.787079-6.604248-4.110473-15.067017-9.958191-14.289795-12.102081-15.887329-20.148682-10.279785l-13.457275 9.378052 18.756164 26.91455c2.417023 3.468384 3.076874 5.894043.163452 7.924317-.832397.5802-2.648529 1.227417-4.561309 1.735962l-5.877167 1.622314c-4.477264 1.265137-6.301605-.76123-7.848511-2.980957-2.030304-2.913452-8.511841-16.946533-11.315613-20.969726-3.19046-4.57837-6.658844-2.161377-11.098358.932495l-19.006653 13.245361c-7.491668 5.220825-9.20288 8.68042.368561 22.415161 13.43869 19.28418 21.363037 19.120606 31.090973 17.700318l5.124085 7.353027c1.740264 2.497192 1.681304 4.187134.016479 5.34729-1.526062 1.063476-4.603363 1.971435-7.167816 2.727905l-25.450897 7.842896z" fill="#fff" fill-rule="evenodd"/><path d="m1166.143555 328.171265c2.651367-7.177735 4.760376-12.887329 18.952758-7.64502 21.207154 7.833374 34.90564 28.465943 23.939087 58.155762-9.400024 25.44873-29.979614 37.498291-56.080688 27.857178-13.866333-5.121705-11.697022-10.994385-8.804688-18.82483zm-7.983399 97.90271c27.406006 10.123046 65.263062 1.489013 79.42334-36.847046 14.822998-40.130371-7.114502-68.070069-37.130737-79.157227l-60.358643-22.294922-3.903442 5.046875c-2.063477 2.574829-2.751221 3.432984-3.173096 4.574829-1.265381 3.425782 1.000855 4.819092 4.426636 6.084473 4.241455 1.566772 7.873047 3.278809 4.498657 12.414307l-24.946167 67.536377c-3.494873 9.46167-7.246948 8.075805-14.098511 5.545044l-4.066528 4.98645c-2.063477 2.574829-2.751221 3.433227-3.173096 4.575073-1.265381 3.425781 1.163941 4.879272 4.26355 6.02417zm-95.821167-27.241578c4.316162.521363 4.065918 2.59314 3.773926 5.010254l13.121338 1.585083 11.415893-24.896118c1.176026-2.485473 2.587281-5.468017 2.816651-7.367187.250366-2.071778-1.005615-3.274536-4.113281-3.650025l-9.150513-1.105468c-5.573364 8.435546-10.875732 14.626586-34.873901 11.727417-17.092408-2.06482-18.574341-5.747315-17.448121-15.070313l2.857544-23.652954c.667359-5.52478 1.188843-9.840942 6.886231-9.15271 5.006836.604858 20.211548 5.244385 23.83728 5.682373 2.762329.33374 5.566406.322144 7.662476-3.979004l2.781006-5.619751c.920044-1.815674 1.667358-3.652344 1.79248-4.688232.437988-3.625611-1.874756-4.780884-6.19104-5.302246l-33.493896-4.046387 2.023193-16.746948c1.209717-10.013672 3.903686-10.564087 21.686523-8.415772 10.531617 1.272217 15.02063 1.814575 14.373902 7.166626-.250244 2.0719-1.36377 4.039307-1.489014 5.075318-.312744 2.589721.964233 3.619751 6.143677 4.245483l6.387939.771851 8.274536-17.743531c1.176026-2.485473 2.718262-5.101928 2.989502-7.346313.333618-2.762329-1.889892-3.206177-11.558227-4.374268l-81.663147-9.865356-2.801819 5.792358c-1.411255 2.982666-1.881714 3.976807-2.02771 5.185425-.437988 3.62561 2.089172 4.456421 5.714783 4.894409 4.488891.542236 8.418152 1.36731 7.250122 11.035645l-8.634888 71.476806c-1.209717 10.01355-5.180664 9.533936-12.431946 8.657837l-2.801819 5.792481c-1.411315 2.982544-1.881713 3.976684-2.027771 5.185302-.437927 3.625611 2.261841 4.477295 5.542176 4.873536zm-168.808349-2.758667 1.409912-6.278076c.695495-3.225464.927368-4.300659.794433-5.510742-.398681-3.630127-3.048584-3.864014-6.678772-3.465332-5.704528.626587-11.447082.907227-12.510192-8.773193l-6.511597-59.292725c20.896667 13.450684 49.189392 40.084961 60.553467 59.131104 3.238403 5.592773 5.745361 12.490356 6.770507 21.825073l20.225281-2.221069-10.934875-99.570435c-1.006165-9.161865 1.837646-10.348877 10.999511-11.355103l1.409913-6.278076c.695495-3.225464.927307-4.300659.794372-5.51062-.398621-3.630249-3.221374-3.845093-6.678711-3.465332l-41.660522 4.575195-1.409973 6.277955c-.695435 3.225585-.927247 4.300659-.794373 5.510742.398682 3.630127 3.048584 3.864013 6.678711 3.465454 4.494568-.493653 8.546387-.238892 9.571533 9.095825l3.280213 33.055298c-24.493714-23.902466-37.307618-35.441651-63.48108-52.336548l-31.807251 3.493042-1.409912 6.278198c-.695495 3.225342-.927368 4.300537-.794494 5.51062.398681 3.630249 3.048706 3.864014 6.678833 3.465332 4.494507-.493652 8.508362-.584594 9.571472 9.095948l7.859436 71.566162c1.101074 10.026245-2.874817 10.46289-10.135193 11.260254l-1.409912 6.277954c-.695496 3.225586-.927307 4.300659-.794434 5.510742.398682 3.630127 3.221497 3.844971 6.678833 3.465454zm509.312988 205.192505-6.146729 1.90271-25.938598-35.538696c-2.050537-2.809326-3.269531-5.364502-.31958-7.517456.983276-.717651 2.031128-1.05188 5.174682-2.054565l6.146607-1.90271c4.306274 5.899902 6.664184 9.130493 14.811401 3.184204l58.154175-42.445069c7.866211-5.741333 5.789185-9.177246 3.123535-12.829467-2.152954-2.94983-3.269409-5.364258-.319702-7.517334.983398-.717774 2.03125-1.05188 5.174927-2.054444l6.146606-1.902832 18.864502 25.846314c-1.622192 31.110473-5.250366 47.968139-13.786133 81.110595l27.034668-19.301269c7.585327-5.536255 5.789185-9.177246 3.123535-12.829346-2.152954-2.949951-3.269409-5.36438-.319702-7.517456.983399-.717773 2.03125-1.05188 5.174927-2.054443l6.146606-1.90271 24.708374 33.852905c2.050416 2.809448 3.26941 5.364502.319581 7.517578-.983277.717652-2.031128 1.05188-5.174683 2.054444l-6.146851 1.902709c-5.433715-7.444824-7.879028-9.32019-15.323852-3.886352l-80.910278 59.053833-11.99524-16.434937c7.585327-5.536132 12.319336-11.144409 15.557373-16.737304 10.860718-19.337525 19.87439-57.134766 21.136475-81.954102l-48.180908 35.165894c-7.866333 5.741333-4.763916 10.581909-1.380616 15.217285 2.152955 2.949951 3.26941 5.364502.319581 7.517578-.983277.717651-2.031128 1.05188-5.174683 2.054443zm-3.13794-93.085327c-22.766235 27.434326-57.038574 36.05542-88.889282 9.624268-31.716797-26.320069-29.696899-61.705445-6.930542-89.139771 22.87732-27.568359 57.172364-35.944458 88.889282-9.624389 31.850708 26.431152 29.807862 61.571533 6.930542 89.139892zm-16.592407-77.496948c-16.460693-13.659668-37.620361-6.134644-56.388672 16.482056-18.101928 21.81372-21.263305 43.596679-4.802612 57.256469 16.728272 13.881836 37.287109 6.536133 55.389038-15.277588 18.768433-22.616699 22.53064-44.578979 5.802246-58.460937zm-839.233398 153.441528 3.673584 5.282715-36.61734 49.920166c-2.057129 2.804444-4.123535 4.739502-7.068268 2.579468-.981598-.719971-1.617218-1.617554-3.524109-4.310425l-3.673584-5.282715c9.874298-13.461548 11.314331-15.424804 3.181244-21.390503l-58.333679-42.788696c-6.871033-5.040039-10.217957-5.769653-14.023682-.581299-7.768829 10.591065-4.392517 19.793579-1.779358 26.916138l.551239 1.514526-4.83432 6.590576c-1.542847 2.103272-2.580658 2.636109-4.543823 1.196045-1.402252-1.028442-2.430451-2.861084-4.655182-6.002685l-14.058716-20.233277 7.61145-10.376709c2.90738 1.917115 4.253754.963624 8.676636-5.066162l35.383026-48.237426c5.883789-8.021363 5.410004-9.377442 4.328919-12.471802l7.463104-10.366821 20.48056 28.825927-4.83432 6.590576c-1.440002 1.963257-2.77713 3.786133-6.002319 1.420411l-3.757965-3.403565c-2.524048-1.85144-6.394501-2.749389-13.28595 6.645752-5.554321 7.572022-3.6474 10.264893 3.223633 15.30481l58.333649 42.788818c8.133117 5.965698 9.470275 4.142822 17.493164-6.7948 2.159973-2.944702 4.123535-4.739502 7.068237-2.57959.981567.720093 1.617248 1.617676 3.52417 4.310547zm65.779114-57.792114-2.43982-5.953979c-1.277221-3.042359-1.702942-4.056641-2.504944-4.972413-2.405883-2.747558-4.712097-1.421386-7.459533.984497-5.494995 4.811768-8.340821 6.841309-14.756531-.485229l-19.13269-21.849121c1.029724-2.519775 1.290649-4.597534 3.645629-6.659668 3.79419-3.322388 45.205872 11.499878 55.21991 16.600342 6.315979 3.253051 8.622925 3.775635 13.463684-.463257l20.802429-18.216187-3.176696-7.85144c-.524048-1.390381-1.277222-3.042358-2.079224-3.95813-1.507263-1.721191-3.444946-.757324-6.089478.558228-2.581726 1.284301-5.837158 2.903686-10.023437 2.687133-19.042908-.892578-41.164185-9.260131-55.300476-13.524658 7.045898-13.335815 12.046509-27.423218.589844-40.50647-15.466492-17.662475-34.177002-4.976684-41.503663 1.439087l-49.585601 43.420777 2.439819 5.953979c1.277191 3.042359 1.702972 4.056519 2.504913 4.972412 2.405915 2.747315 4.712097 1.421387 7.459595-.984497 3.401642-2.978759 6.639923-5.352051 12.941101 1.84375l47.545227 54.295533c6.644898 7.588256 3.635681 10.223388-1.859253 15.035156l2.439881 5.953979c1.27716 3.042359 1.702942 4.056519 2.504882 4.972412 2.405884 2.747437 4.842896 1.306885 7.459595-.984497zm94.001342-73.778686.988526 6.358032-39.856507 20.980468c-3.077697 1.62024-5.782898 2.45459-7.484008-.777099-.567017-1.077149-.74524-2.162476-1.28003-5.418457l-.988586-6.358032.487488-.256226c6.834961-3.589233 8.712524-4.575195 6.946533-19.968872l-8.452759-76.91272c-1.248047-11.331177-2.260742-15.121704-4.115967-22.006103l14.773072-7.77649c4.770446-2.51123 5.847656-3.078247 11.79309 2.242798l69.822022 61.705811c7.920349 7.02063 12.455444 6.601929 15.548584 6.316406 2.230591-.205933 3.711182-.342651 5.170593 2.42981.405029.769409.777771 3.717529.964173 5.191772l.996704 6.746826-45.550293 23.977539c-3.231629 1.701172-5.936829 2.535523-7.63794-.696167-.567016-1.077148-.745239-2.162475-1.28009-5.418335l-.988465-6.358154c9.386963-4.941284 15.23462-8.019531 12.399476-13.405517-.972046-1.84668-3.588379-4.203492-5.572876-6.106812l-15.236206-14.383667-27.083924 14.256958 2.819885 19.544067c.810364 5.272705.940064 7.759156 1.831177 9.451905 1.377075 2.616089 4.220093 4.657104 12.068299.525757 3.385559-1.782105 5.936828-2.535645 7.637939.696044.567017 1.077149.7453 2.162598 1.28009 5.418458zm-167.921692 10.217163c-6.644897-7.588257-6.220581-10.271485 3.46106-18.74939 4.317444-3.780762 13.722595-8.086914 20.482056-.367798 7.590332 8.667969-.303955 23.416992-5.334351 32.815186l-2.454895 4.749389zm294.57721-61.049073-.190247 6.431641-44.680908 13.856934c-3.322021 1.030273-6.134155 1.356201-7.215881-2.131836-.360535-1.162354-.337464-2.261597-.268189-5.559082l.190308-6.433838c6.976196-2.163575 10.796509-3.348389 7.808777-12.982178l-21.326294-68.765381c-2.884766-9.301514-6.808106-8.448975-11.126648-7.109741-3.488159 1.081909-6.134216 1.356201-7.215942-2.131836-.360596-1.162354-.337464-2.261963-.268128-5.561157l.190308-6.431763 44.680847-13.856812c3.322021-1.030273 6.134155-1.356201 7.215942 2.131836.360596 1.162354.337464 2.261963.268128 5.561158l-.190308 6.431762c-6.976196 2.163453-10.796448 3.348389-7.808716 12.982056l21.326294 68.765381c2.884705 9.301636 6.808045 8.449097 11.126648 7.109619 3.488098-1.081665 6.134094-1.355957 7.215943 2.13208.360534 1.16272.337463 2.262207.268066 5.561157zm-158.548767-31.036132 3.88977 29.789794 17.389038-9.153564z" fill="#fff" fill-rule="evenodd"/></svg>