<svg height="1920" viewBox="0 0 1920 1920" width="1920" xmlns="http://www.w3.org/2000/svg"><path d="m1922.611328 1352.076172-559.769897 564.51709-795.018616 3.402588-564.5264-559.867188-3.319755-794.943481 559.788172-564.522705 794.954406-3.283081 564.517212 559.770019z"/><path d="m1332.938232 50.567871-750.972778 3.209839-528.750629 533.214844 3.086418 750.972778 533.33334 528.908691 750.972839-3.209838 528.75061-533.214722-3.086426-750.9729zm-40.738769 99.753052 474.706299 470.755615 2.716064 668.523438-470.755737 474.706298-668.404846 2.716065-474.706192-470.597534-2.839493-668.52356 470.755524-474.706177 668.523376-2.839477z" fill="#f00"/><path d="m1769.693237 1289.566406-470.716186 474.700196-668.53357 2.85559-474.708007-470.797973-2.78595-668.470337 470.731628-474.704956 668.479615-2.755127 474.700195 470.716186z"/><path d="m593.027161 356.582764 11.453613 39.987304 13.463318 42.599976 10.448608-47.221069 9.042114-50.235108h32.552857c-4.689087 23.309448-10.114441 46.953125-16.276184 70.933228-6.02832 23.979004-12.592591 46.751709-19.692322 68.322021h-28.734436c-4.688538-12.859985-9.243225-26.323364-13.66394-40.391113l-13.061158-42.599487-12.860046 42.599487c-4.286804 14.065674-8.774292 27.529053-13.462891 40.391113h-28.734436c-7.100036-21.567627-13.73114-44.341797-19.893341-68.322021-6.02829-23.979126-11.386474-47.624634-16.0755-70.933228h33.959137l9.444336 50.235108 10.850769 47.221069 13.664001-43.001831 10.850769-39.585449h26.725159" fill="#fff"/><path d="m775.308716 480.987671-10.247864-30.141235h-54.253845l-10.247986 30.141235h-32.552246l28.533752-77.564453 13.262146-31.949829 13.664063-29.739502h29.940063l13.462952 29.739502 13.262207 31.949829 13.865112 35.968384 14.86969 41.596069h-33.557312m-37.575866-107.705689-19.692444 52.646729h39.585144l-19.893433-52.646729" fill="#fff"/><path d="m867.674133 340.108643c20.89795.000122 36.90625 3.751098 48.023621 11.252563 11.118713 7.36792 16.677978 18.888672 16.678345 34.56189-.000122 9.779419-2.277405 17.749756-6.832154 23.911987-4.420715 6.02832-10.85083 10.784058-19.290527 14.266846l17.883667 26.122314 16.678345 30.744141h-35.164795l-15.874451-27.529175-16.075073-23.30896h-15.472473v50.836426h-31.347046v-137.244385c6.832153-1.339477 13.865112-2.277222 21.098694-2.813232l19.692199-.803711m1.808533 26.725219-11.252991.602906v37.776855h8.841492c11.788696.000122 20.227966-1.473389 25.318787-4.420654 5.090271-2.947022 7.635742-7.970825 7.635742-15.070801-.000122-6.831787-2.612366-11.654297-7.836853-14.467895-5.090759-2.947022-12.659363-4.420777-22.706665-4.420777" fill="#fff"/><path d="m1054.538208 480.987671c-8.975464-15.941528-18.687622-31.681641-29.136597-47.221802-10.448913-15.539184-21.567871-30.207886-33.356201-44.005859v91.227661h-30.945068v-139.251343h25.519348c4.420715 4.420776 9.310059 9.846069 14.668579 16.276123l16.276123 20.6969c5.626465 7.233886 11.185852 14.802856 16.67804 22.706543l15.472534 22.505493v-82.184693h31.145874v139.251343h-26.323486" fill="#fff"/><path d="m1113.007324 341.728394h31.347046v139.251464h-31.347046z" fill="#fff"/><path d="m1270.004883 480.987671c-8.975342-15.941528-18.687622-31.681641-29.136597-47.221802-10.448974-15.539184-21.567505-30.207886-33.356201-44.005859v91.227661h-30.944702v-139.251343h25.519287c4.420776 4.420776 9.310059 9.846069 14.668579 16.276123l16.276245 20.6969c5.626343 7.233886 11.185791 14.802856 16.678345 22.706543l15.472534 22.505493v-82.184693h31.145874v139.251343h-26.323364" fill="#fff"/><path d="m1396.385132 365.827148c-14.601929.000123-25.184815 4.085816-31.748779 12.257569-6.429932 8.037964-9.64502 19.089355-9.64502 33.155151 0 6.832153.803833 13.061279 2.411377 18.687622 1.607422 5.492554 4.018433 10.247925 7.233887 14.266846 3.214966 4.019043 7.234008 7.16687 12.05664 9.444336 4.822388 2.143432 10.448975 3.215088 16.878907 3.215088l15.472656-1.004883v-48.426636h31.346924v68.922363c-3.751099 1.473633-9.779419 3.014283-18.084717 4.62146-8.305908 1.741578-18.553711 2.612427-30.744141 2.612427-10.448974 0-19.960083-1.607666-28.533691-4.822632-8.439697-3.214965-15.673706-7.903564-21.701538-14.065673-6.028321-6.162232-10.716919-13.730835-14.065796-22.706665-3.214966-8.975342-4.82251-19.223389-4.82251-30.744141-.000122-11.654297 1.808472-21.969238 5.425415-30.944702 3.616821-8.975464 8.573608-16.544068 14.869629-22.706543 6.296143-6.296143 13.664063-11.051514 22.10376-14.266968 8.573608-3.214844 17.682983-4.822388 27.328003-4.822388 6.563965.000122 12.458252.468994 17.682861 1.406494 5.358398.803833 9.912964 1.808594 13.664063 3.014161 3.884765 1.071777 7.032959 2.210449 9.444335 3.415893l5.425416 2.813233-9.042115 25.117675c-4.286865-2.277343-9.243286-4.219726-14.869751-5.827148-5.492553-1.741333-11.520752-2.612183-18.084717-2.612305" fill="#fff"/><text><tspan fill="#fff" font-family="Helvetica" font-size="142.222222" font-weight="700" x="569.277778" y="1138">RECKLESS</tspan><tspan fill="#fff" font-family="Helvetica" font-size="142.222222" font-weight="700" x="304.659722" y="1344.4">ANTROPOMISFISM</tspan><tspan fill="#fff" font-family="Helvetica" font-size="142.222222" font-weight="700" x="703.652778" y="1550.8">AHEAD</tspan></text><text fill="#fff" font-family="Helvetica" font-size="379.259259" font-weight="700" x="863.259259" y="855">=</text><g fill="none" stroke="#9e9e9e"><path d="m478.315094 682.719116-59.549591.000366" stroke-width="8.932456"/><path d="m478.315094 829.533203h-59.549652" stroke-width="10.709795"/><path d="m478.315094 808.559937h-59.549652" stroke-width="10.709795"/><path d="m478.315094 787.58606-59.549591.000366" stroke-width="8.932456"/><path d="m478.315063 766.613159h-59.549621" stroke-width="10.709795"/><path d="m478.315063 745.639526h-59.549621" stroke-width="10.709795"/><path d="m478.315094 724.66626h-59.549652" stroke-width="10.709795"/><path d="m478.315277 703.692627h-59.549835" stroke-width="10.709795"/><path d="m770.646545 682.719116-59.54956.000366" stroke-width="8.932456"/><path d="m770.646545 829.533203h-59.549621" stroke-width="10.709795"/><path d="m770.646545 808.559937h-59.549621" stroke-width="10.709795"/><path d="m770.646545 787.58606-59.54956.000366" stroke-width="8.932456"/><path d="m770.646484 766.613159h-59.54956" stroke-width="10.709795"/><path d="m770.646484 745.639526h-59.54956" stroke-width="10.709795"/><path d="m770.646545 724.66626h-59.549621" stroke-width="10.709795"/><path d="m770.646729 703.692627h-59.549805" stroke-width="10.709795"/><path d="m664.341187 928.394897-.000367-59.549682" stroke-width="8.932456"/><path d="m517.527039 928.394897v-59.549682" stroke-width="10.709795"/><path d="m538.500244 928.394897v-59.549682" stroke-width="10.709795"/><path d="m559.474243 928.394897-.000366-59.549682" stroke-width="8.932455"/><path d="m580.447083 928.394836v-59.549621" stroke-width="10.709795"/><path d="m601.420715 928.394836v-59.549621" stroke-width="10.709795"/><path d="m622.393921 928.394897v-59.549682" stroke-width="10.709795"/><path d="m643.367554 928.395081v-59.549866" stroke-width="10.709795"/><path d="m664.341187 635.963379-.000367-59.549683" stroke-width="8.932456"/><path d="m517.527039 635.963379v-59.549683" stroke-width="10.709795"/><path d="m538.500244 635.963379v-59.549683" stroke-width="10.709795"/><path d="m559.474243 635.963379-.000366-59.549683" stroke-width="8.932455"/><path d="m580.447083 635.963257v-59.549561" stroke-width="10.709795"/><path d="m601.420715 635.963257v-59.549561" stroke-width="10.709795"/><path d="m622.393921 635.963379v-59.549683" stroke-width="10.709795"/><path d="m643.367554 635.963501v-59.549805" stroke-width="10.709795"/></g><path d="m483.449585 629.911133-11.148102 11.147949v234.203613h245.345917v-245.363281l-234.197815.011963z" fill="#fff" fill-rule="evenodd"/><path d="m508.773468 657.086304c0 5.138916-4.165833 9.304687-9.304626 9.304687-5.138825 0-9.304657-4.165771-9.304657-9.304687 0-5.138794 4.165832-9.304566 9.304657-9.304566 5.138793 0 9.304626 4.165772 9.304626 9.304566z" fill="#262626"/><path d="m1171.463013 719.66272c2.337768-2.566773 3.555786-17.075928 16.73584-24.967896 1.401611-16.307739 9.532959-27.867676 23.944091-35.569336.66272-2.728759 2.102295-6.270752 7.225708-11.134033 3.103394-2.948486 6.466919-12.244141 24.435425-21.574463 14.141113-7.343262 26.197632-8.707763 29.145386-10.08374 11.209228-5.240356 21.6156-6.129639 32.357422-5.850708 12.84143-6.897705 25.530639-7.368042 39.533081-4.01062 13.515747-2.075928 24.591308-1.029541 36.485107 3.498779 22.737061-2.220825 40.545777 3.936768 54.016724 16.648193 12.586182-1.67456 24.702637 10.001587 33.34021 19.678956 13.796753 15.463745 21.473755 14.031494 28.299682 34.431518 1.008667 3.018067 11.03064 16.757813 4.545899 24.818726-.619263.763183-.591797.711425.260376 2.205688 6.117309 10.659546-1.506836 24.207276-9.931641 33.153076-3.084594 14.982544-12.765381 29.016602-47.156616 35.349854-1.145508 3.655029-2.369263 4.78479-5.762817 8.26709l-.213501 1.863403c-.436402 3.717529-1.265869 3.204712-.944825 4.709717 2.098999 9.677368-12.83496 16.209961-15.703369 18.590698-8.535766 7.064331-18.17102 11.792847-27.109253 13.980225-21.191528 5.199218-48.759643-1.407105-48.759643-1.407105l-1.968872 3.957886c-5.76001 11.267456-15.314331 17.751099-15.314331 17.751099-12.225098 20.144897-19.591797 35.145019-20.147095 36.701538-2.485107 6.932129-7.252075 13.996948-14.266846 15.835022-2.664428.702575-5.250122-.09729-6.748779-.283631-10.449219-1.283691 4.019409-24.68872 2.843384-27.738159-.116211-.302246-1.505371.289307-7.480103 1.541626-4.462646.938965-2.373413.725464-9.410766.848267-14.313477.244384-11.610108 2.672729-30.221802-1.585694-24.761719-5.669311-32.807617-18.523925-33.442627-24.730713-.096558-.936279-.105225-.947754-1.199463-2.065307-1.980469-2.021485-2.682373-3.656738-3.337891-7.74353-.461181-2.887818-.313476-1.150635.886475-7.401001-31.880127-.027466-44.149902-20.374878-45.477539-51.837159-.128418-3.033569-1.089966-43.064575 10.542969-55.848266z" fill="#fff"/></svg>