<svg height="2750" viewBox="0 0 2750 2750" width="2750" xmlns="http://www.w3.org/2000/svg" xmlns:xlink="http://www.w3.org/1999/xlink"><clipPath id="a"><path clip-rule="evenodd" d="m1375.315613 2589.304993c668.727783 0 1214.1604-545.414673 1214.1604-1214.148194 0-668.736572-545.432617-1214.156982-1214.1604-1214.156982-668.727539 0-1214.147705 545.42041-1214.147705 1214.156982 0 668.733521 545.420166 1214.148194 1214.147705 1214.148194z"/></clipPath><clipPath id="b"><path clip-rule="evenodd" d="m1375.315613 2589.304993c668.727783 0 1214.1604-545.414673 1214.1604-1214.148194 0-668.736572-545.432617-1214.156982-1214.1604-1214.156982-668.727539 0-1214.147705 545.42041-1214.147705 1214.156982 0 668.733521 545.420166 1214.148194 1214.147705 1214.148194z"/></clipPath><g fill-rule="evenodd"><path d="m1375.315552 2589.304932c668.727783 0 1214.160278-545.414551 1214.160278-1214.148194 0-668.73645-545.432495-1214.156738-1214.160278-1214.156738-668.727478 0-1214.147644 545.420288-1214.147644 1214.156738 0 668.733643 545.420166 1214.148194 1214.147644 1214.148194z" fill="#b51700"/><path clip-path="url(#a)" d="m59 1832h3175v-836h-3175z" fill="#ed230d"/><g clip-path="url(#b)"><path d="m3473.475098 1642.252686h-1187.064453c-24.683594 0-44.876954 20.193115-44.876954 44.878906 0 24.681518 20.19336 44.880859 44.876954 44.880859h1187.064453c24.684814 0 44.879882-20.199341 44.879882-44.880859 0-24.685791-20.195068-44.878906-44.879882-44.878906z" fill="#d8a05e"/><path d="m2812.185059 1235.860229c-44.298584 0-80.428711-36.128051-80.428711-80.426757 0-44.298584 36.130127-80.426392 80.428711-80.426392s80.426269 36.127808 80.426269 80.426392c0 44.298706-36.127685 80.426757-80.426269 80.426757z" fill="#8bc362"/><path d="m2949.789307 1445.239502h-411.81958v-61.212402h411.81958z" fill="#464744"/><path d="m2897.218018 1502.362427h-516.168457c-51.268555 0-93.214112 41.943481-93.214112 93.214111 0 51.270508 41.945557 93.21814 93.214112 93.21814h516.168457c51.266601 0 93.214111-41.947632 93.214111-93.21814 0-51.27063-41.94751-93.214111-93.214111-93.214111z" fill="#60605d"/><path d="m2471.183594 1502.362427h-90.134033c-9.434815 0-18.550293 1.420898-27.152588 4.061157h87.892822zm-123.399903 6.176025c-10.065918 3.873779-19.30542 9.455322-27.356201 16.376465h102.899414l12.350098-16.376465zm-32.121582 20.76709c-7.578613 7.478882-13.894775 16.234009-18.581054 25.913086h99.168213l7.303711-25.913086zm-21.19458 31.83667c-3.894043 9.711914-6.190185 20.219604-6.571045 31.197632h87.893067l6.570801-31.197632z" fill="#2e2f2c"/><path d="m2985.108887 1502.362427h-516.168213c-51.270752 0-93.216309 41.943481-93.216309 93.214111 0 51.270508 41.945557 93.21814 93.216309 93.21814h516.168213c51.268554 0 93.214111-41.947632 93.214111-93.21814 0-51.27063-41.945557-93.214111-93.214111-93.214111z" fill="#464744"/><path d="m2471.183594 1688.790527h-90.134033c-9.434815 0-18.550293-1.424926-27.152588-4.060913h87.892822zm-123.399903-6.176025c-10.065918-3.879761-19.30542-9.455322-27.356201-16.378296h102.899414l12.350098 16.378296zm-32.121582-20.76709c-7.578613-7.480713-13.894775-16.234009-18.581054-25.913086h99.168213l7.303711 25.913086zm-21.19458-31.83667c-3.894043-9.711914-6.190185-20.219604-6.571045-31.199707h87.893067l6.570801 31.199707z" fill="#2e2f2c"/><path d="m2985.108887 1523.227417h-516.168213c-39.791992 0-72.347168 32.553345-72.347168 72.349121 0 39.795899 32.555176 72.347168 72.347168 72.347168h516.168213c39.789795 0 72.345215-32.551269 72.345215-72.347168 0-39.795776-32.55542-72.349121-72.345215-72.349121z" fill="#797a77"/><path d="m2969.803223 1523.227417h-500.862549c-39.791992 0-72.347168 32.557251-72.347168 72.349121 0 39.791748 32.555176 72.347168 72.347168 72.347168h500.862549c39.791992 0 72.349365-32.55542 72.349365-72.347168 0-39.79187-32.557373-72.349121-72.349365-72.349121z" fill="#2e2f2c"/><path d="m2985.108887 1502.362427h-4.484375l-.018311.736816c0 8.838745 7.16333 15.997681 16.001953 15.997681 7.694336 0 14.118653-5.434937 15.649414-12.67334-8.600341-2.640259-17.717773-4.061157-27.148681-4.061157zm-10.988037 0h-31.997559c0 8.830444 7.165283 15.995605 15.999756 15.995605s15.997803-7.165161 15.997803-15.995605zm-38.517579 0h-31.997558c0 8.830444 7.165283 15.995605 15.995605 15.995605 8.838623 0 16.001953-7.165161 16.001953-15.995605zm-38.513671 0h-32.001465c0 8.830444 7.165283 15.995605 16 15.995605 8.836181 0 16.001465-7.165161 16.001465-15.995605zm-38.517334 0h-31.997559c0 8.830444 7.161133 15.995605 15.999756 15.995605 8.832275 0 15.997803-7.165161 15.997803-15.995605zm-38.517823 0h-31.997314c0 8.830444 7.163086 15.995605 16.001709 15.995605 8.834717 0 15.995605-7.165161 15.995605-15.995605zm-38.517334 0h-31.993408c0 8.830444 7.163086 15.995605 15.997803 15.995605 8.838379 0 15.995605-7.165161 15.995605-15.995605zm-38.513671 0h-31.997559c0 8.830444 7.163574 15.995605 15.997803 15.995605 8.834472 0 15.999756-7.165161 15.999756-15.995605zm-38.515381 0h-31.997559c0 8.830444 7.160889 15.995605 15.995606 15.995605 8.834472 0 16.001953-7.165161 16.001953-15.995605zm-38.517578 0h-31.997559c0 8.830444 7.161133 15.995605 15.995605 15.995605 8.838623 0 16.001954-7.165161 16.001954-15.995605zm-38.517579 0h-31.997314c0 8.830444 7.160889 15.995605 15.999512 15.995605 8.83667 0 15.997802-7.165161 15.997802-15.995605zm-38.517822 0h-31.993408c0 8.830444 7.161377 15.995605 15.998047 15.995605 8.834228 0 15.995361-7.165161 15.995361-15.995605zm-38.513183 0h-31.997559c0 8.830444 7.16333 15.995605 15.997559 15.995605 8.838623 0 16-7.165161 16-15.995605zm-38.517579 0h-31.997558c0 8.830444 7.163086 15.995605 15.997558 15.995605 8.838623 0 16-7.165161 16-15.995605zm-38.50122 0h-4.482422c-9.433106 0-18.55249 1.420898-27.150879 4.061157 1.530518 7.238403 7.955078 12.67334 15.653564 12.67334 8.834717 0 15.997803-7.158936 15.997803-15.997681zm-37.746094 6.176025c-10.066162 3.873779-19.307617 9.451294-27.360596 16.376465 2.904785 4.024292 7.637451 6.644165 12.980957 6.644165 8.834473 0 15.995606-7.16333 15.995606-15.997925 0-2.519897-.583985-4.901611-1.615967-7.022705zm-32.124023 20.76709c3.442382 2.931152 5.622558 7.299805 5.622558 12.177002 0 8.834595-7.16333 15.999878-16.001953 15.999878-2.998291 0-5.803467-.828613-8.203369-2.263794 4.685791-9.679077 11.004394-18.434204 18.582764-25.913086zm-21.192627 31.83667c-3.893799 9.716186-6.192139 20.219604-6.570801 31.197632l1.927734.114013c8.838623 0 16.001709-7.163208 16.001709-16.001709 0-7.220336-4.789551-13.322998-11.358642-15.309936zm-6.570801 37.668823c.378662 10.980103 2.677002 21.483765 6.570801 31.199707 6.569091-1.986694 11.358642-8.093628 11.358642-15.311767 0-8.838501-7.163086-15.999878-16.001709-15.999878zm9.180664 37.123291c4.689941 9.679077 11.004394 18.436279 18.582764 25.913086 3.442382-2.933349 5.622558-7.301636 5.622558-12.172851 0-8.838501-7.16333-16.001954-16.001953-16.001954-2.998291 0-5.803467.826539-8.203369 2.261719zm23.346191 30.30188c2.904785-4.024536 7.637451-6.64209 12.980957-6.64209 8.834473 0 15.995606 7.161011 15.995606 15.995606 0 2.520019-.583985 4.901855-1.615967 7.02478-10.066162-3.87561-19.307617-9.453247-27.360596-16.378296zm33.473389 18.493408c8.600342 2.635987 17.717773 4.060913 27.150879 4.060913h4.482422l.018066-.738891c0-8.838501-7.163086-15.995606-15.997803-15.995606-7.69458 0-14.123046 5.43274-15.653564 12.673584zm38.136963 4.060913h31.997558c0-8.834594-7.161377-15.99768-15.995849-15.99768-8.838623 0-16.001709 7.163086-16.001709 15.99768zm38.517578 0h31.997559c0-8.834594-7.161377-15.99768-16-15.99768-8.834229 0-15.997559 7.163086-15.997559 15.99768zm38.517334 0h31.997803c0-8.834594-7.165528-15.99768-15.999756-15.99768-8.83667 0-15.998047 7.163086-15.998047 15.99768zm38.513916 0h31.997314c0-8.834594-7.161132-15.99768-15.997802-15.99768-8.834473 0-15.999512 7.163086-15.999512 15.99768zm38.517334 0h31.997559c0-8.834594-7.163331-15.99768-15.997803-15.99768-8.838623 0-15.999756 7.163086-15.999756 15.99768zm38.517578 0h31.997559c0-8.834594-7.16333-15.99768-16.001953-15.99768-8.834717 0-15.995606 7.163086-15.995606 15.99768zm38.513428 0h31.997558c0-8.834594-7.16333-15.99768-15.997802-15.99768-8.838379 0-15.999756 7.163086-15.999756 15.99768zm38.519775 0h31.993408c0-8.834594-7.157226-15.99768-15.995605-15.99768-8.838867 0-15.997803 7.163086-15.997803 15.99768zm38.513428 0h31.997314c0-8.834594-7.165039-15.99768-15.995605-15.99768-8.838623 0-16.001709 7.163086-16.001709 15.99768zm38.517578 0h31.997559c0-8.834594-7.165528-15.99768-15.997803-15.99768-8.838623 0-15.999756 7.163086-15.999756 15.99768zm38.513428 0h31.997558c0-8.834594-7.161377-15.99768-15.997558-15.99768-8.834717 0-16 7.163086-16 15.99768zm38.517578 0h31.997558c0-8.834594-7.16333-15.99768-16.001953-15.99768-8.830322 0-15.995605 7.163086-15.995605 15.99768zm38.517578 0h31.997559c0-8.834594-7.16333-15.99768-16.001709-15.99768-8.834717 0-15.99585 7.163086-15.99585 15.99768zm38.501221 0h4.484375c9.430908 0 18.54834-1.424926 27.148681-4.060913-1.530761-7.240844-7.955078-12.673584-15.653564-12.673584-8.834473 0-15.997803 7.157105-15.997803 15.995606zm37.750244-6.176025c10.065918-3.87561 19.303467-9.453247 27.356201-16.378296-2.906738-4.020386-7.637451-6.64209-12.980957-6.64209-8.834473 0-15.995605 7.161011-15.995605 15.995606 0 2.520019.584228 4.905761 1.620361 7.02478zm32.117676-20.76709c-3.440186-2.933349-5.616455-7.301636-5.616455-12.172851 0-8.838501 7.159179-16.001954 15.997802-16.001954 2.998535 0 5.805664.82251 8.203614 2.261719-4.690186 9.679077-11.002442 18.432373-18.584961 25.913086zm21.19873-31.83667c3.894043-9.711914 6.188233-20.219604 6.566651-31.195556l-1.927735-.116089c-8.838379 0-16.001709 7.161377-16.001709 15.999878 0 7.218139 4.789795 13.325073 11.362793 15.311767zm6.566651-37.674927c-.378418-10.973999-2.672608-21.481689-6.566651-31.193603-6.572998 1.986938-11.362793 8.0896-11.362793 15.309936 0 8.838501 7.16333 16.001709 16.001709 16.001709zm-9.18042-37.117187c-4.68628-9.679077-11.002442-18.434204-18.584961-25.913086-3.440186 2.931152-5.616455 7.299805-5.616455 12.177002 0 8.834595 7.159179 15.999878 15.997802 15.999878 2.998535 0 5.805664-.828613 8.203614-2.263794zm-23.346436-30.303711c-2.906738 4.020386-7.637451 6.644165-12.980957 6.644165-8.834473 0-15.995605-7.16333-15.995605-15.997925 0-2.519897.584228-4.905761 1.620361-7.022705 10.065918 3.873779 19.30542 9.451294 27.356201 16.376465z" fill="#171716"/><path d="m3002.977539 1502.362427h-534.572266l15.30127 96.448608h462.229248z" fill="#4b7f3d"/><path d="m3302.413818 1502.362427h-516.164306c-51.270752 0-93.218262 41.943481-93.218262 93.214111 0 51.270508 41.94751 93.21814 93.218262 93.21814h516.164306c51.272705 0 93.218018-41.947632 93.218018-93.21814 0-51.27063-41.945313-93.214111-93.218018-93.214111z" fill="#60605d"/><path d="m2876.381836 1502.362427h-90.132324c-9.435059 0-18.554444 1.420898-27.151123 4.061157h87.88916zm-123.398193 6.176025c-10.066163 3.873779-19.30542 9.455322-27.358643 16.376465h102.899658l12.347901-16.376465zm-32.121827 20.76709c-7.578613 7.478882-13.893066 16.234009-18.583007 25.913086h99.17041l7.301513-25.913086zm-21.19458 31.83667c-3.895996 9.711914-6.190185 20.219604-6.568847 31.197632h87.88916l6.568847-31.197632z" fill="#2e2f2c"/><path d="m2876.381836 1688.790527h-90.132324c-9.435059 0-18.554444-1.424926-27.151123-4.060913h87.88916zm-123.398193-6.176025c-10.066163-3.879761-19.30542-9.455322-27.358643-16.378296h102.899658l12.347901 16.378296zm-32.121827-20.76709c-7.578613-7.480713-13.893066-16.234009-18.583007-25.913086h99.17041l7.301513 25.913086zm-21.19458-31.83667c-3.895996-9.711914-6.190185-20.219604-6.568847-31.199707h87.88916l6.568847 31.199707z" fill="#2e2f2c"/><path d="m2949.412598 1502.362427h-534.572022l15.301514-70.335816h462.229248z" fill="#75ae4c"/><path d="m2990.833008 1230.988892h-275.475098c-39.791992 0-72.345459 32.557251-72.345459 72.34497v.003907c0 39.792114 32.553467 72.347412 72.345459 72.347412h275.475098c39.791748 0 72.349365-32.555298 72.349365-72.347412v-.003907c0-39.787719-32.557617-72.34497-72.349365-72.34497z" fill="#75ae4c"/><path d="m2797.925537 1261.946167h-50.258789v82.781738h50.258789c22.859863 0 41.391846-18.530151 41.391846-41.390136 0-22.859375-18.531983-41.391602-41.391846-41.391602z" fill="#5b9241"/><path d="m2747.666748 1344.727905c-22.798584 0-41.395996-18.593139-41.395996-41.390136 0-22.798584 18.597412-41.391602 41.395996-41.391602 22.796631 0 41.387695 18.593018 41.387695 41.391602 0 22.796997-18.591064 41.390136-41.387695 41.390136z" fill="#8bc362"/><path d="m2746.797607 1272.726685h-435.475341v61.216674h435.475341c16.832276 0 30.605225-13.773071 30.605225-30.60559v-.003907c0-16.834472-13.772949-30.607177-30.605225-30.607177z" fill="#b1d281"/><path d="m2368.017578 1261.946167h-50.259033v82.781738h50.259033c22.859863 0 41.391846-18.530151 41.391846-41.390136 0-22.859375-18.531983-41.391602-41.391846-41.391602z" fill="#5b9241"/><path d="m2317.758545 1344.727905c-22.798584 0-41.391602-18.593139-41.391602-41.390136 0-22.798584 18.593018-41.391602 41.391602-41.391602 22.796875 0 41.390137 18.593018 41.390137 41.391602 0 22.796997-18.593262 41.390136-41.390137 41.390136z" fill="#8bc362"/><path d="m2317.758545 1333.772095c-16.760742 0-30.436035-13.675049-30.436035-30.434326 0-16.760865 13.675293-30.435914 30.436035-30.435914 16.759277 0 30.43457 13.675049 30.43457 30.435914 0 16.759277-13.675293 30.434326-30.43457 30.434326z" fill="#4d7739"/><path d="m2237.475098 1642.252686h-1187.064453c-24.683716 0-44.876832 20.193115-44.876832 44.878906 0 24.681518 20.193116 44.880859 44.876832 44.880859h1187.064453c24.684814 0 44.879882-20.199341 44.879882-44.880859 0-24.685791-20.195068-44.878906-44.879882-44.878906z" fill="#d8a05e"/><path d="m1867.973511 1245.583984h-143.998047v-34.08789h143.998047z" fill="#4b7f3d"/><path d="m1600.314941 1075.00708h-24.130004v160.853149h24.130004c44.412476.596192 80.424439-36.007812 80.424439-80.426757 0-44.418824-36.011963-81.022705-80.424439-80.426392z" fill="#5b9241"/><path d="m1576.184937 1235.860229c-44.298462 0-80.428589-36.128051-80.428589-80.426757 0-44.298584 36.130127-80.426392 80.428589-80.426392 44.298828 0 80.426513 36.127808 80.426513 80.426392 0 44.298706-36.127685 80.426757-80.426513 80.426757z" fill="#8bc362"/><path d="m1922.155151 1386.807617h-388.902954v-34.782104h388.902954z" fill="#171716"/><path d="m1767.225708 1386.807617h-233.977539v-34.782104h233.977539z" fill="#464744"/><path d="m1986.479858 1445.239502h-272.690551v-61.212402h272.690551z" fill="#171716"/><path d="m1713.789307 1445.239502h-411.819703v-61.212402h411.819703z" fill="#464744"/><path d="m1661.218018 1502.362427h-516.168457c-51.268433 0-93.214112 41.943481-93.214112 93.214111 0 51.270508 41.945679 93.21814 93.214112 93.21814h516.168457c51.266479 0 93.213989-41.947632 93.213989-93.21814 0-51.27063-41.94751-93.214111-93.213989-93.214111z" fill="#60605d"/><path d="m1235.183716 1502.362427h-90.134155c-9.434937 0-18.550415 1.420898-27.15271 4.061157h87.892944zm-123.399903 6.176025c-10.066162 3.873779-19.305542 9.455322-27.356445 16.376465h102.899658l12.349976-16.376465zm-32.121704 20.76709c-7.578613 7.478882-13.894897 16.234009-18.580932 25.913086h99.168213l7.303711-25.913086zm-21.194702 31.83667c-3.893921 9.711914-6.190185 20.219604-6.570923 31.197632h87.893189l6.570801-31.197632z" fill="#2e2f2c"/><path d="m1749.109009 1502.362427h-516.168335c-51.27063 0-93.216431 41.943481-93.216431 93.214111 0 51.270508 41.945801 93.21814 93.216431 93.21814h516.168335c51.268432 0 93.213989-41.947632 93.213989-93.21814 0-51.27063-41.945557-93.214111-93.213989-93.214111z" fill="#464744"/><path d="m1235.183716 1688.790527h-90.134155c-9.434937 0-18.550415-1.424926-27.15271-4.060913h87.892944zm-123.399903-6.176025c-10.066162-3.879761-19.305542-9.455322-27.356445-16.378296h102.899658l12.349976 16.378296zm-32.121704-20.76709c-7.578613-7.480713-13.894897-16.234009-18.580932-25.913086h99.168213l7.303711 25.913086zm-21.194702-31.83667c-3.893921-9.711914-6.190185-20.219604-6.570923-31.199707h87.893189l6.570801 31.199707z" fill="#2e2f2c"/><path d="m1749.109009 1523.227417h-516.168335c-39.791992 0-72.347168 32.553345-72.347168 72.349121 0 39.795899 32.555176 72.347168 72.347168 72.347168h516.168335c39.789795 0 72.34497-32.551269 72.34497-72.347168 0-39.795776-32.555175-72.349121-72.34497-72.349121z" fill="#797a77"/><path d="m1733.803223 1523.227417h-500.862549c-39.791992 0-72.347168 32.557251-72.347168 72.349121 0 39.791748 32.555176 72.347168 72.347168 72.347168h500.862549c39.791992 0 72.349243-32.55542 72.349243-72.347168 0-39.79187-32.557251-72.349121-72.349243-72.349121z" fill="#2e2f2c"/><path d="m1749.109009 1502.362427h-4.484619l-.018311.736816c0 8.838745 7.163452 15.997681 16.001953 15.997681 7.69458 0 14.118897-5.434937 15.649658-12.67334-8.600463-2.640259-17.717773-4.061157-27.148681-4.061157zm-10.988281 0h-31.997559c0 8.830444 7.165283 15.995605 15.999878 15.995605 8.834473 0 15.997681-7.165161 15.997681-15.995605zm-38.517457 0h-31.997558c0 8.830444 7.165161 15.995605 15.995605 15.995605 8.838745 0 16.001953-7.165161 16.001953-15.995605zm-38.513671 0h-32.001465c0 8.830444 7.165283 15.995605 15.999878 15.995605 8.836303 0 16.001587-7.165161 16.001587-15.995605zm-38.517456 0h-31.997559c0 8.830444 7.161255 15.995605 15.999878 15.995605 8.832397 0 15.997681-7.165161 15.997681-15.995605zm-38.517579 0h-31.997558c0 8.830444 7.163208 15.995605 16.001953 15.995605 8.834473 0 15.995605-7.165161 15.995605-15.995605zm-38.517456 0h-31.993408c0 8.830444 7.163086 15.995605 15.997681 15.995605 8.838501 0 15.995727-7.165161 15.995727-15.995605zm-38.513671 0h-31.997559c0 8.830444 7.163452 15.995605 15.997681 15.995605 8.834716 0 15.999878-7.165161 15.999878-15.995605zm-38.515503 0h-31.997437c0 8.830444 7.161011 15.995605 15.995728 15.995605 8.834472 0 16.001709-7.165161 16.001709-15.995605zm-38.517334 0h-31.997803c0 8.830444 7.161377 15.995605 15.995849 15.995605 8.838379 0 16.001954-7.165161 16.001954-15.995605zm-38.517579 0h-31.997558c0 8.830444 7.161011 15.995605 15.999512 15.995605 8.83667 0 15.998046-7.165161 15.998046-15.995605zm-38.517944 0h-31.993286c0 8.830444 7.161133 15.995605 15.997803 15.995605 8.834472 0 15.995483-7.165161 15.995483-15.995605zm-38.513306 0h-31.997436c0 8.830444 7.163208 15.995605 15.997681 15.995605 8.838623 0 15.999755-7.165161 15.999755-15.995605zm-38.517456 0h-31.99768c0 8.830444 7.16333 15.995605 15.997802 15.995605 8.838501 0 15.999878-7.165161 15.999878-15.995605zm-38.50122 0h-4.482422c-9.432984 0-18.552612 1.420898-27.150879 4.061157 1.530518 7.238403 7.955078 12.67334 15.653564 12.67334 8.834595 0 15.997803-7.158936 15.997803-15.997681zm-37.746094 6.176025c-10.06604 3.873779-19.307617 9.451294-27.360596 16.376465 2.904663 4.024292 7.637451 6.644165 12.981079 6.644165 8.834351 0 15.995484-7.16333 15.995484-15.997925 0-2.519897-.584107-4.901611-1.615967-7.022705zm-32.123901 20.76709c3.44226 2.931152 5.622314 7.299805 5.622314 12.177002 0 8.834595-7.163086 15.999878-16.001953 15.999878-2.998169 0-5.803223-.828613-8.203369-2.263794 4.685913-9.679077 11.004394-18.434204 18.583008-25.913086zm-21.192627 31.83667c-3.894043 9.716186-6.192261 20.219604-6.570801 31.197632l1.927612.114013c8.838623 0 16.001709-7.163208 16.001709-16.001709 0-7.220336-4.789673-13.322998-11.35852-15.309936zm-6.570801 37.668823c.37854 10.980103 2.676758 21.483765 6.570801 31.199707 6.568847-1.986694 11.35852-8.093628 11.35852-15.311767 0-8.838501-7.163086-15.999878-16.001709-15.999878zm9.18042 37.123291c4.690063 9.679077 11.004394 18.436279 18.583008 25.913086 3.44226-2.933349 5.622314-7.301636 5.622314-12.172851 0-8.838501-7.163086-16.001954-16.001953-16.001954-2.998169 0-5.803223.826539-8.203369 2.261719zm23.346313 30.30188c2.904663-4.024536 7.637451-6.64209 12.981079-6.64209 8.834351 0 15.995484 7.161011 15.995484 15.995606 0 2.520019-.584107 4.901855-1.615967 7.02478-10.06604-3.87561-19.307617-9.453247-27.360596-16.378296zm33.473389 18.493408c8.60022 2.635987 17.717895 4.060913 27.150879 4.060913h4.482422l.018066-.738891c0-8.838501-7.163208-15.995606-15.997803-15.995606-7.694458 0-14.123046 5.43274-15.653564 12.673584zm38.136841 4.060913h31.99768c0-8.834594-7.161377-15.99768-15.995727-15.99768-8.838623 0-16.001953 7.163086-16.001953 15.99768zm38.5177 0h31.997436c0-8.834594-7.161132-15.99768-15.999755-15.99768-8.834473 0-15.997681 7.163086-15.997681 15.99768zm38.517456 0h31.997559c0-8.834594-7.165284-15.99768-15.999756-15.99768-8.83667 0-15.997803 7.163086-15.997803 15.99768zm38.513672 0h31.997558c0-8.834594-7.161376-15.99768-15.998046-15.99768-8.834229 0-15.999512 7.163086-15.999512 15.99768zm38.517334 0h31.997803c0-8.834594-7.163575-15.99768-15.997803-15.99768-8.838623 0-16 7.163086-16 15.99768zm38.5177 0h31.997437c0-8.834594-7.163086-15.99768-16.001709-15.99768-8.834717 0-15.995728 7.163086-15.995728 15.99768zm38.51355 0h31.997314c0-8.834594-7.163086-15.99768-15.997802-15.99768-8.838379 0-15.999512 7.163086-15.999512 15.99768zm38.519653 0h31.993408c0-8.834594-7.157226-15.99768-15.995727-15.99768-8.838745 0-15.997681 7.163086-15.997681 15.99768zm38.513306 0h31.997558c0-8.834594-7.165283-15.99768-15.995605-15.99768-8.838745 0-16.001953 7.163086-16.001953 15.99768zm38.517578 0h31.997559c0-8.834594-7.165284-15.99768-15.997681-15.99768-8.838623 0-15.999878 7.163086-15.999878 15.99768zm38.51355 0h31.997558c0-8.834594-7.161377-15.99768-15.99768-15.99768-8.834595 0-15.999878 7.163086-15.999878 15.99768zm38.517578 0h31.997558c0-8.834594-7.163208-15.99768-16.001953-15.99768-8.830444 0-15.995605 7.163086-15.995605 15.99768zm38.517456 0h31.997559c0-8.834594-7.163208-15.99768-16.001587-15.99768-8.834595 0-15.995972 7.163086-15.995972 15.99768zm38.501221 0h4.484619c9.430908 0 18.548218-1.424926 27.148681-4.060913-1.530761-7.240844-7.955078-12.673584-15.653808-12.673584-8.834351 0-15.997803 7.157105-15.997803 15.995606zm37.750366-6.176025c10.06604-3.87561 19.303467-9.453247 27.356323-16.378296-2.906738-4.020386-7.637695-6.64209-12.980957-6.64209-8.834473 0-15.99585 7.161011-15.99585 15.995606 0 2.520019.584229 4.905761 1.620484 7.02478zm32.117554-20.76709c-3.440186-2.933349-5.616211-7.301636-5.616211-12.172851 0-8.838501 7.159179-16.001954 15.99768-16.001954 2.998413 0 5.805664.82251 8.203614 2.261719-4.690064 9.679077-11.002442 18.432373-18.585083 25.913086zm21.19873-31.83667c3.894165-9.711914 6.188355-20.219604 6.566773-31.195556l-1.927735-.116089c-8.838379 0-16.001831 7.161377-16.001831 15.999878 0 7.218139 4.789917 13.325073 11.362793 15.311767zm6.566773-37.674927c-.378418-10.973999-2.672608-21.481689-6.566773-31.193603-6.572876 1.986938-11.362793 8.0896-11.362793 15.309936 0 8.838501 7.163452 16.001709 16.001831 16.001709zm-9.18042-37.117187c-4.686158-9.679077-11.002442-18.434204-18.585083-25.913086-3.440186 2.931152-5.616211 7.299805-5.616211 12.177002 0 8.834595 7.159179 15.999878 15.99768 15.999878 2.998413 0 5.805664-.828613 8.203614-2.263794zm-23.346314-30.303711c-2.906738 4.020386-7.637695 6.644165-12.980957 6.644165-8.834473 0-15.99585-7.16333-15.99585-15.997925 0-2.519897.584229-4.905761 1.620484-7.022705 10.06604 3.873779 19.305542 9.451294 27.356323 16.376465z" fill="#171716"/><path d="m1766.977539 1502.362427h-534.572266l15.301392 96.448608h462.229126z" fill="#4b7f3d"/><path d="m2066.413818 1502.362427h-516.164428c-51.27063 0-93.218018 41.943481-93.218018 93.214111 0 51.270508 41.947388 93.21814 93.218018 93.21814h516.164428c51.272705 0 93.218018-41.947632 93.218018-93.21814 0-51.27063-41.945313-93.214111-93.218018-93.214111z" fill="#60605d"/><path d="m1640.381714 1502.362427h-90.132324c-9.434815 0-18.554322 1.420898-27.150879 4.061157h87.889038zm-123.398193 6.176025c-10.065918 3.873779-19.30542 9.455322-27.358399 16.376465h102.899536l12.347901-16.376465zm-32.121583 20.76709c-7.578613 7.478882-13.893066 16.234009-18.583129 25.913086h99.17041l7.301513-25.913086zm-21.19458 31.83667c-3.896118 9.711914-6.190185 20.219604-6.568969 31.197632h87.889038l6.568847-31.197632z" fill="#2e2f2c"/><path d="m2154.304688 1502.362427h-516.166382c-51.266358 0-93.214112 41.943481-93.214112 93.214111 0 51.270508 41.947754 93.21814 93.214112 93.21814h516.166382c51.271484 0 93.218017-41.947632 93.218017-93.21814 0-51.27063-41.946533-93.214111-93.218017-93.214111z" fill="#464744"/><path d="m1640.381714 1688.790527h-90.132324c-9.434815 0-18.554322-1.424926-27.150879-4.060913h87.889038zm-123.398193-6.176025c-10.065918-3.879761-19.30542-9.455322-27.358399-16.378296h102.899536l12.347901 16.378296zm-32.121583-20.76709c-7.578613-7.480713-13.893066-16.234009-18.583129-25.913086h99.17041l7.301513 25.913086zm-21.19458-31.83667c-3.896118-9.711914-6.190185-20.219604-6.568969-31.199707h87.889038l6.568847 31.199707z" fill="#2e2f2c"/><path d="m2154.304688 1523.227417h-516.166382c-39.79187 0-72.349121 32.553345-72.349121 72.349121 0 39.795899 32.557251 72.347168 72.349121 72.347168h516.166382c39.793945 0 72.351318-32.551269 72.351318-72.347168 0-39.795776-32.557373-72.349121-72.351318-72.349121z" fill="#797a77"/><path d="m2139.003174 1523.227417h-500.864868c-39.79187 0-72.349121 32.557251-72.349121 72.349121 0 39.791748 32.557251 72.347168 72.349121 72.347168h500.864868c39.791992 0 72.347168-32.55542 72.347168-72.347168 0-39.79187-32.555176-72.349121-72.347168-72.349121z" fill="#90918e"/><path d="m2154.304688 1502.362427h-4.482178l-.016602.736816c0 8.838745 7.161377 15.997681 15.997803 15.997681 7.696533 0 14.123047-5.434937 15.653809-12.67334-8.600342-2.640259-17.715821-4.061157-27.152832-4.061157zm-10.986084 0h-31.995606c0 8.830444 7.161377 15.995605 15.997803 15.995605 8.83667 0 15.997803-7.165161 15.997803-15.995605zm-38.517579 0h-31.995605c0 8.830444 7.16333 15.995605 15.997803 15.995605 8.838623 0 15.997802-7.165161 15.997802-15.995605zm-38.513427 0h-31.999634c0 8.830444 7.163208 15.995605 15.997681 15.995605 8.838623 0 16.001953-7.165161 16.001953-15.995605zm-38.51355 0h-32.001587c0 8.830444 7.165283 15.995605 15.999634 15.995605 8.834594 0 16.001953-7.165161 16.001953-15.995605zm-38.517578 0h-32.001709c0 8.830444 7.165283 15.995605 15.999878 15.995605 8.836548 0 16.001831-7.165161 16.001831-15.995605zm-38.517456 0h-31.997559c0 8.830444 7.161011 15.995605 15.999756 15.995605 8.836426 0 15.997803-7.165161 15.997803-15.995605zm-38.517823 0h-31.997314c0 8.830444 7.163208 15.995605 16.001709 15.995605 8.830322 0 15.995605-7.165161 15.995605-15.995605zm-38.517456 0h-31.997558c0 8.830444 7.16333 15.995605 16.001831 15.995605 8.834595 0 15.995727-7.165161 15.995727-15.995605zm-38.515503 0h-31.995483c0 8.830444 7.159302 15.995605 15.997803 15.995605 8.834472 0 15.99768-7.165161 15.99768-15.995605zm-38.517456 0h-31.995483c0 8.830444 7.163086 15.995605 15.997681 15.995605 8.838501 0 15.997802-7.165161 15.997802-15.995605zm-38.513672 0h-31.997558c0 8.830444 7.161377 15.995605 15.99585 15.995605 8.8385 0 16.001708-7.165161 16.001708-15.995605zm-38.517456 0h-31.997558c0 8.830444 7.165283 15.995605 15.995605 15.995605 8.838745 0 16.001953-7.165161 16.001953-15.995605zm-38.517578 0h-31.997558c0 8.830444 7.165283 15.995605 15.999878 15.995605 8.836303 0 15.99768-7.165161 15.99768-15.995605zm-38.499145 0h-4.484619c-9.432862 0-18.550293 1.420898-27.150757 4.061157 1.530762 7.238403 7.957153 12.67334 15.65393 12.67334 8.838379 0 15.997681-7.158936 15.997681-15.997681zm-37.750366 6.176025c-10.065918 3.873779-19.305542 9.451294-27.354126 16.376465 2.902465 4.024292 7.631347 6.644165 12.974853 6.644165 8.836426 0 16.001709-7.16333 16.001709-15.997925 0-2.519897-.584106-4.901611-1.622436-7.022705zm-32.121827 20.76709c3.440186 2.931152 5.620362 7.299805 5.620362 12.177002 0 8.834595-7.161133 15.999878-15.995606 15.999878-3.002563 0-5.807617-.828613-8.203247-2.263794 4.681763-9.679077 11.000122-18.434204 18.578491-25.913086zm-21.194458 31.83667c-3.892089 9.716186-6.190063 20.219604-6.568847 31.197632l1.931762.114013c8.834595 0 15.995728-7.163208 15.995728-16.001709 0-7.220336-4.783691-13.322998-11.358643-15.309936zm-6.568847 37.668823c.378784 10.980103 2.676758 21.483765 6.568847 31.199707 6.574952-1.986694 11.358643-8.093628 11.358643-15.311767 0-8.838501-7.161133-15.999878-15.995728-15.999878zm9.184814 37.123291c4.685669 9.679077 11.000122 18.436279 18.578491 25.913086 3.440186-2.933349 5.620362-7.301636 5.620362-12.172851 0-8.838501-7.161133-16.001954-15.995606-16.001954-3.002563 0-5.807617.826539-8.203247 2.261719zm23.346192 30.30188c2.902465-4.024536 7.631347-6.64209 12.974853-6.64209 8.836426 0 16.001709 7.161011 16.001709 15.995606 0 2.520019-.584106 4.901855-1.622436 7.02478-10.065918-3.87561-19.305542-9.453247-27.354126-16.378296zm33.469116 18.493408c8.600464 2.635987 17.717895 4.060913 27.150757 4.060913h4.484619l.018066-.738891c0-8.838501-7.161133-15.995606-15.999512-15.995606-7.696777 0-14.121215 5.43274-15.65393 12.673584zm38.136963 4.060913h32.001465c0-8.834594-7.165284-15.99768-16.001587-15.99768-8.834595 0-15.999878 7.163086-15.999878 15.99768zm38.517578 0h32.001709c0-8.834594-7.167359-15.99768-16.001953-15.99768-8.834473 0-15.999756 7.163086-15.999756 15.99768zm38.517456 0h31.997558c0-8.834594-7.163208-15.99768-16.001708-15.99768-8.830567 0-15.99585 7.163086-15.99585 15.99768zm38.515747 0h31.995483c0-8.834594-7.159301-15.99768-15.997802-15.99768-8.834595 0-15.997681 7.163086-15.997681 15.99768zm38.517456 0h31.995483c0-8.834594-7.159301-15.99768-15.99768-15.99768-8.834595 0-15.997803 7.163086-15.997803 15.99768zm38.513428 0h31.997558c0-8.834594-7.161132-15.99768-15.995727-15.99768-8.838501 0-16.001831 7.163086-16.001831 15.99768zm38.5177 0h31.997314c0-8.834594-7.165283-15.99768-15.995605-15.99768-8.838501 0-16.001709 7.163086-16.001709 15.99768zm38.517578 0h31.997559c0-8.834594-7.165284-15.99768-15.997803-15.99768-8.838745 0-15.999756 7.163086-15.999756 15.99768zm38.513306 0h31.997558c0-8.834594-7.161132-15.99768-15.99768-15.99768-8.834595 0-15.999878 7.163086-15.999878 15.99768zm38.5177 0h32.001587c0-8.834594-7.167359-15.99768-16.00586-15.99768-8.830444 0-15.995727 7.163086-15.995727 15.99768zm38.515503 0h31.995483c0-8.834594-7.159179-15.99768-15.997802-15.99768-8.834473 0-15.997681 7.163086-15.997681 15.99768zm38.517456 0h31.995605c0-8.834594-7.159179-15.99768-15.997802-15.99768-8.834473 0-15.997803 7.163086-15.997803 15.99768zm38.517578 0h31.995606c0-8.834594-7.163331-15.99768-15.997803-15.99768-8.838623 0-15.997803 7.163086-15.997803 15.99768zm38.499512 0h4.482178c9.437011 0 18.55249-1.424926 27.150634-4.060913-1.528564-7.240844-7.955078-12.673584-15.651611-12.673584-8.836426 0-15.997803 7.157105-15.997803 15.995606 0 .248413.006348.496704.016602.738891zm37.75-6.176025c10.065918-3.87561 19.303467-9.453247 27.357422-16.378296-2.905762-4.020386-7.636719-6.64209-12.979981-6.64209-8.83667 0-15.997803 7.161011-15.997803 15.995606 0 2.520019.582276 4.905761 1.620362 7.02478zm32.121826-20.76709c-3.440186-2.933349-5.622559-7.301636-5.622559-12.172851 0-8.838501 7.16333-16.001954 15.999024-16.001954 2.998291 0 5.80542.82251 8.204345 2.261719-4.687988 9.679077-11.004638 18.432373-18.58081 25.913086zm21.194336-31.83667c3.89331-9.711914 6.19043-20.219604 6.570068-31.195556l-1.931885-.116089c-8.834472 0-15.998779 7.161377-15.998779 15.999878 0 7.218139 4.786865 13.325073 11.360596 15.311767zm6.570068-37.674927c-.379638-10.973999-2.676758-21.481689-6.570068-31.193603-6.573731 1.986938-11.360596 8.0896-11.360596 15.309936 0 8.838501 7.164307 16.001709 15.998779 16.001709zm-9.183594-37.117187c-4.685791-9.679077-11.002441-18.434204-18.58081-25.913086-3.440186 2.931152-5.622559 7.299805-5.622559 12.177002 0 8.834595 7.16333 15.999878 15.999024 15.999878 2.998291 0 5.80542-.828613 8.204345-2.263794zm-23.345214-30.303711c-2.905762 4.020386-7.636719 6.644165-12.979981 6.644165-8.83667 0-15.997803-7.16333-15.997803-15.997925 0-2.519897.582276-4.905761 1.620362-7.022705 10.065918 3.873779 19.305664 9.451294 27.357422 16.376465z" fill="#171716"/><path d="m2131.469482 1536.79248c-32.46997 0-58.78833 26.314209-58.78833 58.784058 0 32.46582 26.31836 58.783936 58.78833 58.783936h11.315918v-1.09314c27.051026-5.276123 47.468018-29.096924 47.468018-57.690796 0-28.593994-20.416992-52.414551-47.468018-57.692993v-1.091065z" fill="#e5e5e0"/><path d="m2142.783203 1654.362549c-32.375976 0-58.786133-26.40979-58.786133-58.786011 0-32.378174 26.410157-58.784058 58.786133-58.784058 32.378174 0 58.785889 26.405884 58.785889 58.784058 0 32.376221-26.407715 58.786011-58.785889 58.786011z" fill="#c7c7c2"/><path d="m2142.7854 1635.958618c-22.24292 0-40.384277-18.139038-40.384277-40.38208 0-22.24292 18.141357-40.388306 40.384277-40.388306 22.244873 0 40.386231 18.145386 40.386231 40.388306 0 22.243042-18.141358 40.38208-40.386231 40.38208z" fill="#adadaa"/><path d="m2142.7854 1616.2948c-11.413818 0-20.720459-9.308716-20.720459-20.718262 0-11.413574 9.306641-20.724487 20.720459-20.724487 11.411621 0 20.722413 9.310913 20.722413 20.724487 0 11.409546-9.310792 20.718262-20.722413 20.718262z" fill="#c7c7c2"/><path d="m1966.079102 1536.79248c-32.46167 0-58.783814 26.314209-58.783814 58.784058 0 32.46582 26.322144 58.783936 58.783814 58.783936h.055053 11.26709v-1.09314c27.048828-5.276123 47.463867-29.096924 47.463867-57.690796 0-28.593994-20.415039-52.414551-47.463867-57.692993v-1.091065h-11.26709c-.018432 0-.036743 0-.055053 0z" fill="#e5e5e0"/><path d="m1977.401245 1536.79248c-32.469971 0-58.788086 26.314209-58.788086 58.784058 0 32.46582 26.318115 58.783936 58.788086 58.783936 32.461548 0 58.783814-26.318116 58.783814-58.783936 0-32.469849-26.322266-58.784058-58.783814-58.784058z" fill="#c7c7c2"/><path d="m1977.401245 1555.188232c-22.308227 0-40.388428 18.082154-40.388428 40.388306 0 22.304077 18.080201 40.38208 40.388428 40.38208 22.299805 0 40.38208-18.078003 40.38208-40.38208 0-22.306152-18.082275-40.388306-40.38208-40.388306z" fill="#adadaa"/><path d="m1977.401245 1574.852051c-11.446167 0-20.724487 9.27832-20.724487 20.724487 0 11.442017 9.27832 20.722534 20.724487 20.722534 11.437988 0 20.716187-9.280517 20.716187-20.722534 0-11.446167-9.278199-20.724487-20.716187-20.724487z" fill="#c7c7c2"/><path d="m1800.690918 1536.79248c-32.465698 0-58.784058 26.314209-58.784058 58.784058 0 32.46582 26.31836 58.783936 58.784058 58.783936h.055054 11.263061v-1.09314c27.048828-5.276123 47.465943-29.096924 47.465943-57.690796 0-28.593994-20.417115-52.414551-47.465943-57.692993v-1.091065h-11.263061c-.018311 0-.036621 0-.055054 0z" fill="#e5e5e0"/><path d="m1812.009033 1536.79248c-32.463745 0-58.786255 26.314209-58.786255 58.784058 0 32.46582 26.32251 58.783936 58.786255 58.783936 32.465698 0 58.787842-26.318116 58.787842-58.783936 0-32.469849-26.322144-58.784058-58.787842-58.784058z" fill="#c7c7c2"/><path d="m1812.009033 1555.188232c-22.300171 0-40.386352 18.082154-40.386352 40.388306 0 22.304077 18.086181 40.38208 40.386352 40.38208 22.305786 0 40.388184-18.078003 40.388184-40.38208 0-22.306152-18.082398-40.388306-40.388184-40.388306z" fill="#adadaa"/><path d="m1812.009033 1574.852051c-11.442261 0-20.722534 9.27832-20.722534 20.724487 0 11.442017 9.280273 20.722534 20.722534 20.722534 11.44812 0 20.724365-9.280517 20.724365-20.722534 0-11.446167-9.276245-20.724487-20.724365-20.724487z" fill="#c7c7c2"/><path d="m1635.30481 1536.79248c-32.465821 0-58.784058 26.314209-58.784058 58.784058 0 32.46582 26.318237 58.783936 58.784058 58.783936h11.317993v-1.09314c27.049072-5.276123 47.465942-29.096924 47.465942-57.690796 0-28.593994-20.41687-52.414551-47.465942-57.692993v-1.091065z" fill="#e5e5e0"/><path d="m1646.61853 1654.362549c-32.373901 0-58.783935-26.40979-58.783935-58.786011 0-32.378174 26.410034-58.784058 58.783935-58.784058 32.382447 0 58.788208 26.405884 58.788208 58.784058 0 32.376221-26.405761 58.786011-58.788208 58.786011z" fill="#c7c7c2"/><path d="m1646.622803 1635.958618c-22.247193 0-40.384278-18.139038-40.384278-40.38208 0-22.24292 18.137085-40.388306 40.384278-40.388306 22.24292 0 40.384033 18.145386 40.384033 40.388306 0 22.243042-18.141113 40.38208-40.384033 40.38208z" fill="#adadaa"/><path d="m1646.622803 1616.2948c-11.413574 0-20.720337-9.308716-20.720337-20.718262 0-11.413574 9.306763-20.724487 20.720337-20.724487s20.720215 9.310913 20.720215 20.724487c0 11.409546-9.306641 20.718262-20.720215 20.718262z" fill="#c7c7c2"/><path d="m1713.41272 1502.362427h-534.572144l15.301514-70.335816h462.229248z" fill="#75ae4c"/><path d="m2143.318604 1502.362427h-534.574341l15.303711-70.335816h462.226928z" fill="#5b9241"/><path d="m1754.833008 1230.988892h-275.475098c-39.791992 0-72.345337 32.557251-72.345337 72.34497v.003907c0 39.792114 32.553345 72.347412 72.345337 72.347412h275.475098c39.79187 0 72.349243-32.555298 72.349243-72.347412v-.003907c0-39.787719-32.557373-72.34497-72.349243-72.34497z" fill="#75ae4c"/><path d="m1984.395264 1230.988892h-275.475098c-39.791748 0-72.345093 32.557251-72.345093 72.34497v.003907c0 39.792114 32.553345 72.347412 72.345093 72.347412h275.475098c39.791992 0 72.347412-32.555298 72.347412-72.347412v-.003907c0-39.787719-32.55542-72.34497-72.347412-72.34497z" fill="#5b9241"/><path d="m1561.925659 1261.946167h-50.258789v82.781738h50.258789c22.859741 0 41.391724-18.530151 41.391724-41.390136 0-22.859375-18.531983-41.391602-41.391724-41.391602z" fill="#5b9241"/><path d="m1511.66687 1344.727905c-22.798706 0-41.395996-18.593139-41.395996-41.390136 0-22.798584 18.59729-41.391602 41.395996-41.391602 22.796509 0 41.387695 18.593018 41.387695 41.391602 0 22.796997-18.591186 41.390136-41.387695 41.390136z" fill="#8bc362"/><path d="m1510.797607 1272.726685h-435.475341v61.216674h435.475341c16.832398 0 30.605103-13.773071 30.605103-30.60559v-.003907c0-16.834472-13.772705-30.607177-30.605103-30.607177z" fill="#b1d281"/><path d="m1132.0177 1261.946167h-50.259033v82.781738h50.259033c22.859863 0 41.391724-18.530151 41.391724-41.390136 0-22.859375-18.531861-41.391602-41.391724-41.391602z" fill="#5b9241"/><path d="m1081.758667 1344.727905c-22.798584 0-41.391724-18.593139-41.391724-41.390136 0-22.798584 18.59314-41.391602 41.391724-41.391602 22.796875 0 41.390015 18.593018 41.390015 41.391602 0 22.796997-18.59314 41.390136-41.390015 41.390136z" fill="#8bc362"/><path d="m1081.758667 1333.772095c-16.760986 0-30.436157-13.675049-30.436157-30.434326 0-16.760865 13.675171-30.435914 30.436157-30.435914 16.759155 0 30.434326 13.675049 30.434326 30.435914 0 16.759277-13.675171 30.434326-30.434326 30.434326z" fill="#4d7739"/><path d="m1983.389893 1249.787598h-203.899659c-29.453003 0-53.550415 24.097412-53.550415 53.546264v.003907c0 29.451416 24.097412 53.54663 53.550415 53.54663h203.899659c29.453125 0 53.546386-24.095214 53.546386-53.54663v-.003907c0-29.448852-24.093261-53.546264-53.546386-53.546264z" fill="#4b7c3c"/><path d="m587.326843 1258.406982 51.817322 43.729126-4.490906-43.729126z" fill="#fff"/><path d="m626.420654 1719.187866 14.110047 14.546265c5.036743 5.192139 10.715576 9.714477 16.932739 13.483765 2.742981 1.663696 4.266968 4.744018 4.065735 8.217163-.202393 3.4729-2.105652 6.882202-5.074036 9.092529-8.495239 6.333008-18.490234 9.737427-28.221557 9.614502-5.796814-.073486-11.150391-1.992432-15.319703-5.488403-3.250122-2.726197-7.724304-3.720093-12.297119-2.732178-2.764648.597534-5.481262.061401-7.531006-1.483032-2.050293-1.546631-3.260376-3.974122-3.353698-6.728028l2.620117-12.88501z" fill="#1a1a1a"/><path d="m742.707703 1581.399902c-.41919.601197-.583008 1.417969-.380677 2.244385.345703 1.415405 1.640747 2.316528 2.891236 2.011719 1.249206-.305908 1.982788-1.703247 1.635864-3.118775-.152954-.621704-.486694-1.144409-.919189-1.509521l-4.845093-33.741333c-1.443115-10.061279-7.188233-16.155762-13.598328-18.330078-2.470703-.838379-5.045044-1.091431-7.519409-.765015-2.496033.331299-4.883667 1.248169-6.95813 2.747925-4.989685 3.60791-8.160339 10.549072-6.575073 20.726074l5.507812 35.362793c-.405945.598877-.562683 1.404663-.362671 2.217896.345765 1.417846 1.639527 2.317749 2.890015 2.012939 1.250427-.305908 1.982849-1.700928 1.635986-3.120117-.154235-.634766-.50122-1.164795-.948181-1.532349l-5.522094-35.438598c-1.36731-8.778443 1.198547-14.645142 5.279968-17.598999 1.633606-1.18042 3.511596-1.903321 5.472839-2.162232 1.980408-.261474 4.052429-.054321 6.056946.623902 5.360779 1.818969 10.180725 7.031616 11.426269 15.712402z" fill="#1a1a1a"/><path d="m654.939697 1676.352539 26.54834-106.978638 66.114258 9.368531-10.67218 118.172485z" fill="#ddd"/><path d="m747.602295 1578.742432 4.943848-6.244873 11.715393-.261475 18.738464 108.540039-25.247253-1.561279-20.822632 17.700073z" fill="#929292"/><path d="m752.546143 1572.497559 5.206604 106.717285-20.822632 17.700073 10.67218-118.172485z" fill="#d5d5d5"/><path d="m764.261536 1572.236084-68.197083-11.192383.911865 6.052124-15.488281 2.278076 66.114258 9.368531 4.943848-6.244873z" fill="#005c7d"/><path d="m699.789185 1581.399902c.41809.601197.583129 1.417969.380737 2.244385-.346924 1.415405-1.640808 2.316528-2.891174 2.011719-1.249207-.305908-1.982911-1.703247-1.634705-3.118775l.919128-1.509521 4.842774-33.741333c1.445495-10.061279 7.189392-16.155762 13.600647-18.330078 2.469482-.838379 5.043762-1.091431 7.518249-.765015 2.495972.331299 4.884827 1.248169 6.958069 2.747925 4.988587 3.60791 8.16034 10.549072 6.575073 20.726074l-5.507751 35.362793c.404846.598877.562561 1.404663.363831 2.217896-.346924 1.417846-1.639466 2.317749-2.889954 2.012939-1.251709-.305908-1.98407-1.700928-1.638367-3.120117l.94928-1.532349 5.520996-35.438598c1.368469-8.778443-1.198669-14.645142-5.278809-17.598999-1.633544-1.18042-3.510376-1.903321-5.471679-2.162232-1.980347-.261474-4.055969-.054321-6.058167.623902-5.360779 1.818969-10.179321 7.031616-11.424988 15.712402z" fill="#1a1a1a"/><path d="m743.365479 1484.366333 8.677124 22.589233c3.57788 8.759156 1.004699 18.827637-6.334107 24.799073-5.264465 4.282715-10.03363 9.142212-14.213745 14.489746-5.687256 7.275024-12.155151 3.368286-16.912293-2.105713l-5.214965-6.004028-3.723572 3.234497c-1.713074 1.489013-4.142822 1.819091-6.191956.845581-2.047973-.973389-3.32373-3.068238-3.250244-5.33545.122864-3.859741.895081-7.670043 2.282898-11.274292 1.916565-4.979003 3.185059-10.184326 3.77417-15.485961 1.450501-13.076661 10.054138-24.260621 22.321167-29.017334l7.18335-3.433228c2.490051-1.189087 5.171631-1.084228 7.562927.296265 2.390015 1.380615 3.822327 3.649536 4.039246 6.401611z" fill="#f63"/><path d="m718.971008 1476.92688-32.657104 135.643677-11.691345 17.635131-36.690186 114.618531-33.865478 8.817138-35.477906-47.47583 48.583435-208.213623z" fill="#1a1a1a"/><path d="m709.696411 1467.431885-18.545776 22.381347c-10.273316 12.398316-21.880249 23.977539-34.671387 34.589356l-7.256897 31.198364c-5.223267 22.456177-10.868347 44.838745-16.932617 67.142944l-15.11731 17.633912-22.781372 107.837524-37.646301 9.495117-14.764893-29.164795c-16.385803-32.360717-19.505249-68.390991-8.869262-102.408203l-8.064026-65.110718-6.449829-17.633789c-8.913788-24.36792-4.16565-50.822265 12.900696-71.891723z" fill="#333"/><path d="m727.033936 1371.579956 5.887085 13.880737c12.244201 28.87146 15.20404 60.837769 8.466369 91.46753l-1.208252 18.422851-30.805664 5.430542-21.606811-48.158081c-9.608277-21.417114-13.454834-44.971802-11.159974-68.332031z" fill="#f63"/><path d="m689.137695 1281.977905 10.480469 7.659302c23.110169 16.887451 44.450745 36.067993 63.700073 57.249634l-2.01654 6.046875c-12.022522 36.071045-49.793518 56.801513-86.679138 47.574341z" fill="#dcdcdc"/><path d="m634.653259 1258.406982 4.490906 43.729126-51.817322-43.729126-57.440551 28.811768c-14.219788 65.739502-22.334473 134.767212-22.57724 208.033569 77.799469 20.676758 166.459564 29.031128 219.724884-3.226074.127624-85.465942-11.507019-132.754272-37.896241-210.04834z" fill="#f5f5f5"/><path d="m529.886292 1287.21875c-30.164704 12.48999-67.587464 34.946533-94.664124 66.839355 20.876221 31.257447 49.439362 54.087525 89.078735 57.996583 20.503846-48.317627 26.837342-85.38501 5.585389-124.835938z" fill="#fff"/><path d="m504.28064 1369.260986c-6.14505-12.272461-17.500702-21.115356-30.903839-24.06604-13.404236-2.950805-27.424073.305908-38.154633 8.863159l-16.613403 19.436158 2.015381 4.837768c20.709259 49.701416 72.216949 79.299195 125.585876 72.167115l5.241455-17.135132-44.142425-58.055542z" fill="#f63"/><path d="m543.066467 1426.914185c7.196595-1.468384 14.614319 1.169799 19.267945 6.852783 2.920105 3.566406 7.588195 5.199951 12.094177 4.233276 9.425232-2.022095 3.7453 17.918091-16.126221 10.48291l3.629028 15.11792h10.279969l-8.666809 10.886475c-3.606202 4.527099-10.058411 5.583008-14.917969 2.440674l-16.731567-3.046021c-4.997559-.909546-8.966858-4.719848-10.079407-9.675903-2.134094-9.507691-5.594971-18.6698-10.281189-27.214356z" fill="#f63"/><path d="m572.6698 1502.733154c-.41919.599976-.582459 1.417969-.381287 2.241944.345764 1.416748 1.641358 2.317749 2.891236 2.01184 1.249816-.304809 1.982238-1.70227 1.635314-3.118896l-.91864-1.508301-4.843811-33.743164c-1.444397-10.059448-7.188904-16.155029-13.600708-18.329468-2.469543-.83667-5.044555-1.09082-7.51886-.763183-2.495544.32959-4.884338 1.246216-6.95758 2.747803-4.989014 3.608642-8.160339 10.549316-6.575562 20.724487l5.509522 35.364013c-.406616.597413-.563904 1.404542-.365051 2.218995.346923 1.416626 1.641296 2.317749 2.891174 2.011718 1.250488-.30603 1.982788-1.702148 1.636536-3.118896l-.94867-1.533447-5.521484-35.438843c-1.3667-8.780029 1.197998-14.646118 5.279907-17.598877 1.632996-1.180542 3.510986-1.90332 5.470398-2.161743 1.982178-.262573 4.055542-.055298 6.058838.624145 5.360718 1.817139 10.180053 7.029663 11.426208 15.711792z" fill="#1a1a1a"/><path d="m484.901215 1597.68335 26.54956-106.97815 66.112946 9.370484-10.672119 118.170044z" fill="#d5d5d5"/><path d="m577.563721 1500.075684 4.94519-6.247315 11.71344-.259033 18.739746 108.540039-25.246704-1.5625-20.823791 17.698853z" fill="#646464"/><path d="m582.508911 1493.828369 5.206482 106.718506-20.823791 17.698853 10.672119-118.170044z" fill="#929292"/><path d="m594.222351 1493.569336-68.196411-11.193726.911377 6.051636-15.486542 2.277954 66.112946 9.370484 4.94519-6.247315z" fill="#454444"/><path d="m529.751343 1502.733154c.41803.599976.581848 1.417969.380005 2.241944-.346253 1.416748-1.640747 2.317749-2.889832 2.01184-1.250488-.304809-1.982971-1.70227-1.637207-3.118896l.919129-1.508301 4.844604-33.743164c1.443787-10.059448 7.189392-16.155029 13.600037-18.329468 2.469421-.83667 5.043823-1.09082 7.518249-.763183 2.496033.32959 4.884949 1.246216 6.958069 2.747803 4.989197 3.608642 8.160522 10.549316 6.575684 20.724487l-5.509461 35.364013c.407166.597413.563721 1.404542.36499 2.218995-.346374 1.416626-1.640197 2.317749-2.890625 2.011718-1.249878-.30603-1.983459-1.702148-1.636474-3.118896l.947998-1.533447 5.521606-35.438843c1.36792-8.780029-1.198059-14.646118-5.280029-17.598877-1.633545-1.180542-3.510437-1.90332-5.470947-2.161743-1.980469-.262573-4.054993-.055298-6.057068.624145-5.360718 1.817139-10.181153 7.029663-11.427429 15.711792z" fill="#1a1a1a"/><path d="m566.762085 1450.14856c-2.453857.012085-5.272766-.472901-8.459717-1.665406l2.914673 12.144165-12.285156 9.95166-2.069519 6.027588-14.967346-2.724365c-3.762146-.684814-6.941773-3.012817-8.757874-6.236572l19.202271-32.544434 22.980163 11.489991z" fill="#f63"/><path d="m590.512634 1724.87146 14.110779 16.732788c5.037842 5.971436 10.715515 11.374268 16.932739 16.106201 2.742981 2.087891 4.266907 5.404053 4.064453 8.847168-.20227 3.439209-2.103332 6.554444-5.071533 8.308472-8.497741 5.013916-18.491516 6.870117-28.222168 5.240356-5.798034-.971069-11.15039-3.717651-15.320373-7.861694-3.249512-3.229736-7.724304-4.916138-12.295899-4.636719-2.76654.168579-5.482483-.787964-7.532776-2.650268-2.050293-1.864746-3.259216-4.478882-3.3526-7.247315l2.618958-12.477783z" fill="#333"/><path d="m644.531433 1194.487061h-47.326843l-9.877747 63.919921 37.544556 10.394898 9.783081-10.394898z" fill="#f63"/><path d="m634.65448 1258.406982 8.622925-55.812133c-34.912293-6.839356-52.077515 51.97998-8.622925 55.812133z" fill="#de4d1d"/><path d="m644.643494 1154.678955c-23.145203 0-54.934388 21.684448-51.905213 48.432129 3.028443 26.749023 24.246155 48.432861 47.391297 48.432861 23.145141 0 39.452697-21.683838 36.424194-48.432861-3.028564-26.747681-8.765137-48.432129-31.910278-48.432129z" fill="#f63"/><path d="m674.452881 1188.627563 2.464661-27.313842c1.076904-11.962403-4.574097-23.533692-14.67273-30.035279-10.098755-6.502807-22.971741-6.859375-33.414917-.925781l-28.528809 3.538086c-8.182678 1.014893-15.016662 6.723755-17.470031 14.595703l-3.095826 3.317627c-3.854919 4.128906-5.92102 9.613892-5.749938 15.2594.737854 24.406372 6.364257 48.417114 16.547241 70.610595 4.293335-11.252075 9.33728-23.021728 12.642883-34.562988l14.376465-3.701904-7.297852-27.92273 4.890869 2.654419c17.183289 9.322388 38.108277 8.403687 54.407349-2.388306z" fill="#333"/><path d="m595.643188 1184.535889c-5.631713 1.033081-8.939025 10.188476-7.386169 20.447876 1.552673 10.259521 7.377197 17.737426 13.010193 16.703857 5.632996-1.03479 8.939819-10.189697 7.387024-20.449097-1.554016-10.2583-7.377381-17.737426-13.011048-16.702636z" fill="#f63"/><path d="m645.816833 1228.588501c-3.110473 0-6.9328 3.094727-8.539855 6.913574-1.604554 3.818115-.38556 6.914185 2.724914 6.914185s6.934021-3.09607 8.539917-6.914185c1.604614-3.818847.386597-6.913574-2.724976-6.913574z" fill="#fff"/><g fill="#333"><path d="m649.418762 1188.547974-12.289978 1.625732c-1.361267.179443-2.692383.614868-3.94043 1.290772l-1.864807-4.494019c2.163575-1.643066 4.61261-2.667725 7.158081-2.997192l10.458863-1.354004z"/><path d="m641.100525 1204.615112c2.5672 0 4.660889-2.784546 4.660889-6.197265 0-3.413452-2.093689-6.197388-4.660889-6.197388-2.568298 0-4.662048 2.783936-4.662048 6.197388 0 3.412719 2.09375 6.197265 4.662048 6.197265z"/><path d="m661.562927 1188.547974 10.11438 1.625732c1.1203.179443 2.215393.614868 3.242981 1.290772l1.53595-4.494019c-1.7818-1.643066-3.79834-2.667725-5.89209-2.997192l-8.608521-1.354004z"/><path d="m667.406738 1204.615112c2.275635 0 4.133179-2.784546 4.133179-6.197265 0-3.413452-1.857544-6.197388-4.133179-6.197388-2.275573 0-4.132019 2.783936-4.132019 6.197388 0 3.412719 1.856446 6.197265 4.132019 6.197265z"/></g><path d="m660.724426 1217.946045c4.028504 0 6.297974-1.762451 6.297974 0 0 1.761719-4.763184 6.059448-8.793945 6.059448-4.028382 0-5.799317-4.297729-5.799317-6.059448 0-1.762451 4.264588 0 8.295288 0z" fill="#ed5421"/></g><g fill="#fff"><path d="m2149.255859 818.163086c-6.001953 7.414185-12.533447 13.813354-19.594726 19.19751-7.061279 5.384277-14.431153 9.841552-22.110352 13.372192s-15.534668 6.1344-23.56665 7.811401c-8.032471 1.677002-16.02002 2.515503-23.964111 2.515503-15.711304 0-30.451294-2.82434-44.220704-8.473266-13.769409-5.649048-25.773315-13.41626-36.012085-23.302002-10.238769-9.885742-18.35913-21.536621-24.361206-34.952881-6.001953-13.416382-9.003051-27.891724-9.003051-43.426514 0-15.18164 2.957031-29.436157 8.870727-42.764282 5.913819-13.328003 14.034058-24.934692 24.361084-34.820679 10.327027-9.885498 22.375122-17.696777 36.144531-23.434082 13.76941-5.737548 28.5094-8.605957 44.220704-8.605957 18.182617 0 34.732421 3.707032 49.649169 11.121338 14.916749 7.414307 27.582764 17.299805 37.997803 29.656983l-27.803222 28.333129c-7.943848-10.768432-16.858399-18.491577-26.744385-23.169555-9.885498-4.678223-20.918457-7.01709-33.099365-7.01709-10.062256 0-19.506592 1.853516-28.333008 5.560791-8.826538 3.707031-16.549683 8.782227-23.169434 15.225586-6.620117 6.443481-11.827515 13.945923-15.623047 22.507568-3.79541 8.56189-5.692993 17.697144-5.692993 27.40625 0 9.885742 1.897583 19.109375 5.692993 27.671143 3.795532 8.561767 9.00293 16.108276 15.623047 22.639892 6.619751 6.531739 14.342896 11.651001 23.169434 15.358277 8.826416 3.707031 18.270752 5.560669 28.333008 5.560669 9.53247 0 18.535644-1.765381 27.009277-5.296021 8.473389-3.530517 16.063965-8.208618 22.772217-14.034057v-20.389283h-43.42627v-34.952758h82.880615zm-258.439697 38.924805h-40.248901l-95.590943-148.549927v148.549927h-40.248901v-211.835938h46.074463l89.765381 138.223023v-138.223023h40.248901zm-239.639526 0h-41.043213v-211.571289h41.043213zm-104.593994 0h-40.24878l-95.591064-148.549927v148.549927h-40.248657v-211.835938h46.074218l89.765503 138.223023v-138.223023h40.24878zm-225.075562 0h-45.280029l-15.093262-48.192749c-1.588867-5.295899-3.574707-10.150391-5.957886-14.563599-2.383178-4.41333-5.251709-8.208618-8.605835-11.38623-3.354126-3.177613-7.370117-5.648926-12.048217-7.414307-4.678101-1.765259-10.19458-2.647949-16.549683-2.647949h-15.358032v84.204834h-40.513672v-211.571289l83.675171-.264649c9.003174 0 17.388183 1.544678 25.155517 4.634033 7.767334 3.089112 14.475464 7.369873 20.124512 12.84253 5.648804 5.472412 10.062134 11.915527 13.239746 19.329834 3.177612 7.414306 4.766236 15.446289 4.766236 24.096435 0 6.178589-.970948 12.180542-2.912842 18.005982-1.941773 5.825561-4.677857 11.209716-8.208618 16.152465-3.530518 4.942994-7.723023 9.312012-12.577637 13.107422s-10.19458 6.663941-16.020142 8.605835c6.708252 2.471436 12.180542 6.046143 16.417359 10.724121 4.236694 4.678101 7.590698 10.282837 10.062133 16.814576l20.256836 56.533691c1.677002 4.14856 3.486451 7.811401 5.428345 10.989014zm-53.753418-148.020386c0-4.942871-.926758-9.444214-2.780395-13.504517-1.853516-4.060058-4.369019-7.59082-7.546631-10.591797-3.177613-3.000976-6.928711-5.340087-11.253784-7.017089-4.324952-1.677002-8.958863-2.515625-13.901734-2.515625h-29.656982v65.934082h29.656982c4.942871 0 9.576782-.750367 13.901734-2.250733 4.325073-1.50061 8.076171-3.663086 11.253784-6.487549 3.177612-2.824463 5.693115-6.222656 7.546631-10.19458 1.853637-3.972046 2.780395-8.429321 2.780395-13.372192zm-447.76831 148.020386 68.84674-211.835938h-43.16156l-45.279907 137.163696-38.660095-137.163696h-33.893799l-38.660034 136.898926-44.750305-136.898926h-43.426392l68.84668 211.835938h36.012085l39.189697-130.808716 38.924866 130.808716zm252.084838 0h45.015259l-100.09259-211.835938h-32.040161l-100.09253 211.835938h45.015137l19.859619-42.367188h102.740418zm-70.965026-152.786744 35.217712 76.261109h-70.965027z"/><path d="m2149.228027 2020.400024c0 7.968018-1.343994 15.432007-4.031982 22.391968-2.688232 6.959961-6.431885 13.055908-11.232178 18.288086-4.799804 5.231934-10.535888 9.359863-17.208008 12.383789-6.671875 3.02417-13.943847 4.536133-21.815918 4.536133h-48.095947v-115.199951h48.095947c7.872071 0 15.144043 1.535889 21.815918 4.60791 6.67212 3.072021 12.408204 7.199951 17.208008 12.384033 4.800293 5.184082 8.543946 11.280029 11.232178 18.287964 2.687988 7.008057 4.031982 14.447998 4.031982 22.320068zm-22.60791-.576049c.095703-5.375977-.720215-10.46399-2.448242-15.263916-1.728027-4.800049-4.223877-9-7.487793-12.600098-3.26416-3.599976-7.271973-6.431885-12.023926-8.495972-4.752197-2.063965-10.104004-3.095947-16.056152-3.095947h-19.439941v78.623901h19.439941c5.855957 0 11.111816-.983886 15.768066-2.951904 4.656006-1.968018 8.615967-4.704101 11.879883-8.208008 3.26416-3.504028 5.78418-7.63208 7.560059-12.384033s2.711914-9.959961 2.808105-15.624023zm-114.336059 58.176025h-22.320069v-115.05603h22.320069zm-49.680054-76.463989c0 5.472046-1.031983 10.583984-3.095947 15.336059-2.064087 4.751953-4.872071 8.879883-8.424073 12.383911-3.552002 3.504029-7.727905 6.239991-12.527954 8.208008-4.800049 1.968018-9.888061 2.952027-15.264038 2.952027h-19.007934v37.583984h-22.320069v-115.05603h41.328003c5.375977 0 10.463989.984009 15.264038 2.952026 4.800049 1.968018 8.975952 4.679932 12.527954 8.135986 3.552002 3.456055 6.359986 7.536011 8.424073 12.239991 2.063964 4.704101 3.095947 9.791992 3.095947 15.264038zm-22.176025-.287964c0-2.976074-.552002-5.76001-1.656006-8.352051s-2.615967-4.848022-4.536011-6.768066c-1.919922-1.919922-4.175903-3.455933-6.767944-4.60791-2.592041-1.1521-5.375977-1.728028-8.352051-1.728028h-14.831909v43.488037h14.831909c2.976074 0 5.76001-.600097 8.352051-1.800049 2.592041-1.199951 4.848022-2.807983 6.767944-4.823974 1.920044-2.015991 3.432007-4.343994 4.536011-6.984009s1.656006-5.447998 1.656006-8.42395zm-90.143921-38.447998v62.495972c0 7.680053-1.1521 14.831909-3.456055 21.455932-2.303955 6.624024-5.640015 12.407959-10.008057 17.352051-4.36792 4.944092-9.695923 8.832031-15.983886 11.664062-6.288086 2.832032-13.46399 4.248047-21.528077 4.248047-7.87207 0-14.975952-1.39209-21.312011-4.176269-6.33606-2.783692-11.735962-6.599854-16.199951-11.447754-4.46399-4.848145-7.895997-10.560059-10.296021-17.136109-2.400024-6.576049-3.599976-13.655883-3.599976-21.23999v-63.215942h22.319947v63.359985c0 4.416016.624023 8.567993 1.87207 12.455933 1.247925 3.888061 3.071899 7.271972 5.471924 10.152099 2.400024 2.879883 5.400024 5.159913 9 6.839844 3.600098 1.680176 7.703979 2.52002 12.312012 2.52002 4.895996 0 9.144043-.791992 12.744018-2.375977 3.599976-1.583984 6.57605-3.791992 8.927979-6.624023 2.35205-2.831909 4.128051-6.167969 5.328003-10.007935 1.200073-3.839966 1.800048-8.063965 1.800048-12.671997v-63.647949zm-128.304078 20.015991h-31.823974v95.18396h-22.608032v-95.18396h-31.823975v-19.87207h86.255981zm-107.855957 64.94397c0 4.320068-.936035 8.424072-2.807983 12.312011-1.87207 3.88794-4.488037 7.320069-7.848022 10.296143-3.359986 2.97583-7.343995 5.351807-11.952027 7.12793-4.608032 1.775879-9.695923 2.664062-15.264038 2.664062-4.991943 0-9.47998-.288086-13.463989-.864258-3.984009-.575927-7.727905-1.487793-11.231934-2.735839-3.504028-1.248047-6.864013-2.855957-10.080078-4.824219-3.215942-1.967774-6.55188-4.34375-10.007934-7.12793l15.839965-15.983887c4.608033 3.839844 9.119996 6.552002 13.536011 8.135987 4.416016 1.583984 9.215943 2.375976 14.400025 2.375976 2.111938 0 4.104003-.312011 5.975952-.936035 1.87207-.624023 3.504028-1.464111 4.895996-2.520019 1.39209-1.055909 2.495971-2.303955 3.312012-3.743897.81604-1.439941 1.223999-3.023926 1.223999-4.752075 0-1.823975-.335938-3.455933-1.007935-4.895996-.671997-1.439942-1.87207-2.831909-3.600098-4.175903-1.727905-1.343995-4.127929-2.712037-7.199951-4.104004l-11.807983-4.680054c-4.223999-1.536011-8.28003-3.287964-12.167969-5.255982-3.888062-1.968017-7.296021-4.343994-10.223999-7.128051-2.928101-2.784058-5.280029-6.047974-7.05603-9.791992-1.776001-3.744019-2.664063-8.159913-2.664063-13.247925 0-4.896118.984009-9.407959 2.952027-13.536011 1.968017-4.128052 4.656005-7.656006 8.063964-10.584106 3.408081-2.927979 7.39209-5.207886 11.952027-6.839966 4.560058-1.631958 9.47998-2.447998 14.76001-2.447998 8.832031 0 16.271972 1.151977 22.320068 3.456054 6.047974 2.303955 11.42395 5.663941 16.12793 10.079956l-15.552002 15.696045c-2.880005-2.784057-6.095948-4.920044-9.64795-6.407959-3.552002-1.488037-7.728027-2.232055-12.528076-2.232055-2.208008 0-4.247925.336059-6.119995 1.007934-1.871948.672119-3.47998 1.560059-4.823974 2.664063-1.343995 1.104004-2.423951 2.400024-3.239991 3.887939-.81604 1.488037-1.223999 3.048096-1.223999 4.680054 0 1.823975.384033 3.47998 1.151978 4.968018.768066 1.487915 2.063965 2.927978 3.888061 4.319946 1.823975 1.39209 4.247925 2.784057 7.271973 4.176025l11.303955 4.536011c5.760132 2.015991 10.70398 4.223999 14.832031 6.624023 4.128052 2.400025 7.488037 5.039917 10.079956 7.920044 2.592041 2.879883 4.512085 6.119873 5.76001 9.719971 1.248047 3.599976 1.87207 7.656006 1.87207 12.167969zm-164.016113 0c0 4.320068-.935913 8.424072-2.807861 12.312011-1.87207 3.88794-4.488037 7.320069-7.848023 10.296143-3.359985 2.97583-7.343994 5.351807-11.952026 7.12793-4.608032 1.775879-9.696045 2.664062-15.263916 2.664062-4.992188 0-9.47998-.288086-13.464111-.864258-3.984009-.575927-7.728028-1.487793-11.231934-2.735839-3.504028-1.248047-6.864014-2.855957-10.080078-4.824219-3.216065-1.967774-6.552002-4.34375-10.007935-7.12793l15.839966-15.983887c4.608032 3.839844 9.119995 6.552002 13.536011 8.135987 4.416016 1.583984 9.215942 2.375976 14.400024 2.375976 2.112061 0 4.104004-.312011 5.975952-.936035 1.871949-.624023 3.504029-1.464111 4.895997-2.520019 1.391967-1.055909 2.495971-2.303955 3.312011-3.743897.81604-1.439941 1.223999-3.023926 1.223999-4.752075 0-1.823975-.335937-3.455933-1.008056-4.895996-.671875-1.439942-1.871949-2.831909-3.599854-4.175903-1.728027-1.343995-4.128052-2.712037-7.200073-4.104004l-11.807983-4.680054c-4.224122-1.536011-8.28003-3.287964-12.167969-5.255982-3.888062-1.968017-7.296021-4.343994-10.224121-7.128051-2.927979-2.784058-5.279908-6.047974-7.055909-9.791992-1.776-3.744019-2.664062-8.159913-2.664062-13.247925 0-4.896118.984009-9.407959 2.952026-13.536011 1.968018-4.128052 4.656006-7.656006 8.064087-10.584106 3.407959-2.927979 7.391846-5.207886 11.951905-6.839966 4.560058-1.631958 9.47998-2.447998 14.760009-2.447998 8.832032 0 16.271973 1.151977 22.320069 3.456054 6.047973 2.303955 11.42395 5.663941 16.127929 10.079956l-15.552002 15.696045c-2.880004-2.784057-6.095947-4.920044-9.647949-6.407959-3.552002-1.488037-7.728027-2.232055-12.528076-2.232055-2.208008 0-4.247925.336059-6.119873 1.007934-1.87207.672119-3.480103 1.560059-4.824097 2.664063s-2.42395 2.400024-3.23999 3.887939c-.81604 1.488037-1.223999 3.048096-1.223999 4.680054 0 1.823975.384033 3.47998 1.151978 4.968018.767944 1.487915 2.064087 2.927978 3.888061 4.319946 1.823975 1.39209 4.247925 2.784057 7.271973 4.176025l11.303955 4.536011c5.76001 2.015991 10.704101 4.223999 14.832031 6.624023 4.128052 2.400025 7.488037 5.039917 10.080078 7.920044 2.591919 2.879883 4.511963 6.119873 5.76001 9.719971 1.247925 3.599976 1.871826 7.656006 1.871826 12.167969zm-111.455932 30.23999h-22.319947v-115.05603h22.319947zm-115.199952 0h-22.319946v-115.05603h22.319946zm-46.800048 0h-24.479981l-10.656006-23.040039h-55.871948l-10.800049 23.040039h-24.47998l54.432007-115.199951h17.42395zm-43.920044-41.615967-19.151856-41.472046-19.440063 41.472046zm-159.407959 11.375977c0 4.320068-.935975 8.424072-2.807984 12.312011-1.872009 3.88794-4.487976 7.320069-7.847961 10.296143-3.360047 2.97583-7.343994 5.351807-11.952027 7.12793-4.608032 1.775879-9.695983 2.664062-15.263977 2.664062-4.992065 0-9.47998-.288086-13.463989-.864258-3.98407-.575927-7.728027-1.487793-11.232056-2.735839-3.504028-1.248047-6.863952-2.855957-10.079956-4.824219-3.216064-1.967774-6.552002-4.34375-10.008056-7.12793l15.840027-15.983887c4.608032 3.839844 9.119995 6.552002 13.53601 8.135987 4.416016 1.583984 9.216004 2.375976 14.399964 2.375976 2.11206 0 4.104004-.312011 5.976074-.936035 1.871948-.624023 3.503906-1.464111 4.895996-2.520019 1.391968-1.055909 2.495972-2.303955 3.311951-3.743897.815979-1.439941 1.223999-3.023926 1.223999-4.752075 0-1.823975-.335999-3.455933-1.007996-4.895996-.671997-1.439942-1.871948-2.831909-3.599975-4.175903-1.728028-1.343995-4.127991-2.712037-7.200013-4.104004l-11.808044-4.680054c-4.223999-1.536011-8.279907-3.287964-12.167969-5.255982-3.888-1.968017-7.29602-4.343994-10.223999-7.128051-2.927978-2.784058-5.280029-6.047974-7.05603-9.791992-1.776001-3.744019-2.663941-8.159913-2.663941-13.247925 0-4.896118.984009-9.407959 2.951966-13.536011 1.968017-4.128052 4.656006-7.656006 8.064026-10.584106 3.407959-2.927979 7.391967-5.207886 11.952026-6.839966 4.559937-1.631958 9.479919-2.447998 14.759949-2.447998 8.832092 0 16.271972 1.151977 22.320007 3.456054 6.048035 2.303955 11.42395 5.663941 16.127991 10.079956l-15.552002 15.696045c-2.880005-2.784057-6.096008-4.920044-9.64801-6.407959-3.552002-1.488037-7.727967-2.232055-12.527955-2.232055-2.208007 0-4.248046.336059-6.119995 1.007934-1.87207.672119-3.47998 1.560059-4.824035 2.664063-1.343994 1.104004-2.424012 2.400024-3.239991 3.887939-.815979 1.488037-1.223999 3.048096-1.223999 4.680054 0 1.823975.383973 3.47998 1.152039 4.968018.767944 1.487915 2.063965 2.927978 3.887939 4.319946 1.824036 1.39209 4.248047 2.784057 7.272034 4.176025l11.304016 4.536011c5.76001 2.015991 10.70398 4.223999 14.831971 6.624023 4.12799 2.400025 7.487976 5.039917 10.080017 7.920044 2.59198 2.879883 4.511962 6.119873 5.760009 9.719971 1.247986 3.599976 1.871949 7.656006 1.871949 12.167969zm-111.455933 30.23999h-22.320068v-115.05603h22.320068zm-56.880005 0h-22.320068v-50.976074h-45.359986v50.976074h-22.319946v-115.05603h22.319946v45.648071h45.359986v-45.648071h22.320068zm-117.360046-95.18396h-31.823975v95.18396h-22.608032v-95.18396h-31.823975v-19.87207h86.255982z"/><path d="m1943.728027 2307.600098h-76.031982l26.210327-115.056153h76.031982l-4.198974 18.432129h-54.143921l-6.265503 27.503906h53.42395l-4.100464 18h-53.42395l-7.216919 31.679932h54.143921zm-97.943115-30.240235c-.984131 4.320069-2.855102 8.424073-5.612793 12.312012-2.75769 3.888184-6.155517 7.320068-10.193359 10.296143-4.038086 2.976074-8.563233 5.35205-13.575928 7.127929-5.012573 1.776123-10.302856 2.664063-15.87085 2.664063-4.992065 0-9.414428-.288086-13.267211-.864014-3.852784-.575928-7.389039-1.488037-10.608643-2.736084-3.219727-1.247803-6.213379-2.855957-8.981079-4.823974-2.7677-1.968018-5.5625-4.343995-8.384155-7.12793l19.481201-15.983887c3.733276 3.839844 7.627441 6.551758 11.682617 8.135742 4.055054 1.584229 8.674683 2.376221 13.858765 2.376221 2.111938 0 4.174926-.312012 6.189086-.936035 2.014283-.624024 3.837525-1.464111 5.470093-2.52002 1.632569-1.055908 3.020874-2.303955 4.164917-3.743896 1.144043-1.440186 1.912842-3.02417 2.306519-4.752197.415527-1.823975.451294-3.455811.1073-4.895997-.343995-1.439941-1.226807-2.832031-2.648682-4.176025s-3.510132-2.711914-6.265015-4.104004l-10.741943-4.679931c-3.874146-1.535889-7.531006-3.287842-10.970703-5.256104-3.439575-1.967773-6.306275-4.34375-8.60022-7.12793-2.293701-2.783935-3.9021-6.047851-4.825195-9.791992-.923096-3.743896-.805176-8.159912.353882-13.248047 1.115356-4.895996 3.127197-9.407959 6.035522-13.535888 2.908447-4.128174 6.400147-7.656006 10.475098-10.583985 4.075073-2.927978 8.578369-5.208008 13.510254-6.840088 4.931762-1.631836 10.037597-2.447998 15.317627-2.447998 8.832031 0 16.009521 1.1521 21.532714 3.456055 5.523194 2.303955 10.13379 5.663818 13.831665 10.080078l-19.127563 15.696045c-2.24585-2.78418-4.975098-4.920166-8.188232-6.408203-3.213135-1.487793-7.219483-2.231934-12.019532-2.231934-2.208007 0-4.324463.335938-6.349609 1.008057-2.025024.671875-3.835449 1.559814-5.430908 2.663818s-2.970703 2.400147-4.125733 3.888184c-1.154907 1.488037-1.918335 3.047851-2.290039 4.679932-.415527 1.823974-.408691 3.47998.020264 4.968017.429077 1.488037 1.396851 2.927979 2.903931 4.320068 1.506836 1.391846 3.613647 2.783936 6.320678 4.176026l10.27063 4.535889c5.300659 2.016113 9.741699 4.223876 13.322998 6.624023 3.581299 2.400146 6.339844 5.040039 8.275757 7.919922 1.935913 2.880127 3.117798 6.120117 3.545776 9.719971.427857 3.600097.12793 7.656005-.899902 12.167968zm-100.90332-27.359863c-1.88086 8.256104-5.260132 16.031982-10.138184 23.328125-4.878052 7.295898-10.713379 13.631836-17.506225 19.007813-6.792603 5.375976-14.240235 9.624023-22.343018 12.74414-8.102905 3.119873-16.330078 4.679932-24.682129 4.679932s-15.8927-1.560059-22.621826-4.679932c-6.72937-3.120117-12.265503-7.368164-16.609009-12.74414-4.343262-5.375977-7.297363-11.687989-8.862182-18.936036-1.564942-7.248047-1.396119-15.047851.506591-23.399902 1.902588-8.352051 5.292969-16.176025 10.171021-23.471924 4.878052-7.296142 10.713379-13.63208 17.506103-19.008056 6.792725-5.375977 14.258912-9.600098 22.398804-12.671875 8.139771-3.072266 16.38562-4.608155 24.737671-4.608155s15.874023 1.535889 22.566284 4.608155c6.692261 3.071777 12.204468 7.319824 16.536743 12.743896 4.33252 5.424072 7.281128 11.76001 8.845948 19.008057 1.564941 7.248047 1.395996 15.047851-.506592 23.399902zm-22.463989 0c1.202758-5.280029 1.326538-10.248047.371215-14.904053-.955322-4.656006-2.785888-8.736084-5.491699-12.23999-2.70581-3.503906-6.175537-6.288086-10.409424-8.352051-4.233764-2.063965-8.9906-3.095947-14.27063-3.095947-5.376098 0-10.651123 1.031982-15.825317 3.095947s-9.912353 4.848145-14.2146 8.352051c-4.302246 3.503906-7.991699 7.583984-11.068359 12.23999s-5.216431 9.624024-6.419189 14.904053c-1.181031 5.184082-1.299195 10.12793-.354737 14.832031.944336 4.704102 2.769409 8.807862 5.47522 12.312012 2.705811 3.503906 6.175537 6.288086 10.409424 8.352051 4.233764 2.063965 9.038574 3.095947 14.414673 3.095947 5.280029 0 10.50708-1.031982 15.681274-3.095947s9.912354-4.848145 14.2146-8.352051c4.302246-3.50415 7.997192-7.60791 11.084839-12.312012 3.087524-4.704101 5.221679-9.647949 6.40271-14.832031zm-118.534668-18.864014c-1.246582 5.471924-3.442994 10.583985-6.5896 15.335938-3.146606 4.752197-6.894897 8.880127-11.245117 12.384033-4.35022 3.50415-9.149536 6.23999-14.397949 8.208008-5.248169 1.968017-10.560425 2.952148-15.936402 2.952148h-19.008056l-8.561768 37.583985h-22.319946l26.210327-115.056153h41.328003c5.375976 0 10.239746.983887 14.59143 2.952149 4.351685 1.967773 7.909913 4.679931 10.674561 8.135986 2.76477 3.455811 4.643311 7.535889 5.63562 12.23999.992554 4.704102.865479 9.791993-.381103 15.263916zm-22.110352-.287841c.677856-2.976075.760132-5.760254.246582-8.352051-.51355-2.592041-1.511597-4.848145-2.994263-6.768067s-3.388672-3.456054-5.718139-4.60791c-2.329712-1.152099-4.982544-1.728027-7.958496-1.728027h-14.832032l-9.906738 43.487793h14.832031c2.975952 0 5.896729-.599854 8.762085-1.799805 2.865357-1.200195 5.487549-2.808105 7.866944-4.824219 2.379272-2.015869 4.421508-4.34375 6.126953-6.983886 1.705444-2.640137 2.897094-5.447998 3.575073-8.423828zm-102.588501 76.751953h-24.624023l-2.237671-26.208008c-.208008-2.880127-.686524-5.52002-1.435791-7.920166-.749268-2.399903-1.839112-4.463867-3.269532-6.191895-1.430297-1.728027-3.308105-3.072021-5.633422-4.031982-2.325318-.959961-5.215943-1.439942-8.671997-1.439942h-8.351929l-10.431641 45.791993h-22.031982l26.210327-115.056153 45.536743-.144043c4.895996 0 9.264649.840088 13.105957 2.52002 3.841309 1.680176 6.958984 4.008057 9.353027 6.984131 2.394043 2.97583 3.995728 6.47998 4.805298 10.511963.809571 4.031982.678467 8.399902-.393066 13.104004-.765503 3.359863-2.037109 6.624023-3.814697 9.791992-1.777832 3.167968-3.93274 6.095947-6.465088 8.783935-2.532349 2.687989-5.353638 5.063965-8.463867 7.128174-3.110108 2.063965-6.369629 3.624024-9.778077 4.679932 3.341919 1.343994 5.875 3.287842 7.599366 5.832031 1.724609 2.543945 2.854248 5.591797 3.389038 9.143799l4.012329 30.74414zm-10.894653-80.496094c.612304-2.687988.666015-5.135986.16101-7.343994-.505126-2.208008-1.435668-4.12793-2.79187-5.76001-1.356201-1.63208-3.106567-2.904053-5.250732-3.815918-2.144165-.912109-4.560303-1.368164-7.248291-1.368164h-16.128052l-8.168091 35.855957h16.128052c2.687988 0 5.300903-.407715 7.838745-1.223877 2.537842-.815918 4.845703-1.991943 6.923706-3.528076 2.077881-1.535889 3.866822-3.383789 5.366944-5.543945 1.500122-2.159913 2.556152-4.583985 3.168579-7.271973zm-81.230347-34.704102-14.236816 62.496094c-1.749512 7.680176-4.530762 14.832031-8.343872 21.456055-3.812867 6.624023-8.466431 12.407959-13.960816 17.352051-5.494263 4.943847-11.707886 8.831787-18.641113 11.663818-6.933228 2.832031-14.431519 4.248047-22.495606 4.248047-7.87207 0-14.658935-1.391846-20.360717-4.176026-5.701905-2.783935-10.232422-6.599853-13.592163-11.447998-3.35962-4.8479-5.490357-10.559814-6.392212-17.135986-.901978-6.575928-.489258-13.656006 1.238403-21.23999l14.400879-63.216065h22.320068l-14.433716 63.360108c-1.005981 4.416015-1.327758 8.567871-.965454 12.456054.362305 3.88794 1.415406 7.271973 3.159302 10.151856 1.743897 2.880127 4.224487 5.160156 7.441772 6.840088 3.217408 1.679931 7.130005 2.520019 11.738038 2.520019 4.895996 0 9.324462-.791992 13.285156-2.375976 3.960937-1.583985 7.439819-3.791992 10.437012-6.624024 2.99707-2.832031 5.533203-6.167968 7.60791-10.008056s3.637085-8.063965 4.686767-12.671875l14.499268-63.648194zm-137.128174 38.736084c-1.246582 5.471924-3.442993 10.583985-6.589477 15.335938-3.146729 4.752197-6.89502 8.880127-11.24524 12.384033-4.350219 3.50415-9.149536 6.23999-14.397949 8.208008-5.248169 1.968017-10.560425 2.952148-15.936401 2.952148h-19.008057l-8.561767 37.583985h-22.319947l26.210327-115.056153h41.328003c5.375977 0 10.239746.983887 14.591431 2.952149 4.351685 1.967773 7.909912 4.679931 10.674561 8.135986 2.76477 3.455811 4.64331 7.535889 5.635742 12.23999.992431 4.704102.865356 9.791993-.381226 15.263916zm-22.110351-.287841c.677856-2.976075.760131-5.760254.246582-8.352051-.51355-2.592041-1.511597-4.848145-2.994263-6.768067s-3.38855-3.456054-5.71814-4.60791c-2.329712-1.152099-4.982422-1.728027-7.958496-1.728027h-14.832031l-9.906738 43.487793h14.832031c2.976074 0 5.896728-.599854 8.762085-1.799805 2.865478-1.200195 5.487549-2.808105 7.866943-4.824219 2.379273-2.015869 4.421509-4.34375 6.126953-6.983886 1.705445-2.640137 2.897095-5.447998 3.575074-8.423828zm-168.828492 76.751953h-21.887939l-33.581116-80.78418-18.402954 80.78418h-21.888l26.243103-115.200196h25.05603l31.692444 75.167969 17.123535-75.167969h21.887939zm-112.878479-57.600098c-1.880737 8.256104-5.260131 16.031982-10.138183 23.328125-4.878113 7.295898-10.71344 13.631836-17.506104 19.007813-6.792724 5.375976-14.240417 9.624023-22.3432 12.74414-8.102784 3.119873-16.330078 4.679932-24.682129 4.679932s-15.892578-1.560059-22.621887-4.679932c-6.72931-3.120117-12.265503-7.368164-16.608765-12.74414-4.343384-5.375977-7.297424-11.687989-8.862366-18.936036-1.56488-7.248047-1.395935-15.047851.506653-23.399902 1.902649-8.352051 5.292969-16.176025 10.17102-23.471924 4.878174-7.296142 10.713379-13.63208 17.506104-19.008056 6.792725-5.375977 14.25885-9.600098 22.398743-12.671875 8.139892-3.072266 16.385681-4.608155 24.737732-4.608155 8.35205 0 15.874084 1.535889 22.566284 4.608155 6.6922 3.071777 12.204468 7.319824 16.536865 12.743896s7.281006 11.76001 8.845886 19.008057c1.564881 7.248047 1.395996 15.047851-.506653 23.399902zm-22.463989 0c1.20282-5.280029 1.326538-10.248047.371155-14.904053-.955322-4.656006-2.785828-8.736084-5.491638-12.23999-2.70575-3.503906-6.175537-6.288086-10.409302-8.352051-4.233948-2.063965-8.990784-3.095947-14.270813-3.095947-5.375977 0-10.651062 1.031982-15.825256 3.095947-5.174195 2.063965-9.912415 4.848145-14.214661 8.352051-4.302185 3.503906-7.991577 7.583984-11.068298 12.23999-3.07666 4.656006-5.21637 9.624024-6.41919 14.904053-1.180908 5.184082-1.299194 10.12793-.354797 14.832031.944458 4.704102 2.769531 8.807862 5.47522 12.312012 2.70581 3.503906 6.175598 6.288086 10.409423 8.352051 4.233826 2.063965 9.038697 3.095947 14.414673 3.095947 5.28003 0 10.50708-1.031982 15.681397-3.095947 5.174133-2.063965 9.912353-4.848145 14.214538-8.352051 4.302307-3.50415 7.997132-7.60791 11.084717-12.312012 3.087647-4.704101 5.221924-9.647949 6.402832-14.832031z"/></g></g></svg>