<?xml version="1.0" encoding="UTF-8"?>
<!-- Generated by Pixelmator Pro 3.6.12 -->
<svg width="1920" height="1920" viewBox="0 0 1920 1920" xmlns="http://www.w3.org/2000/svg">
    <g id="Group">
        <path id="Path" fill="#000000" stroke="none" d="M 1922.611328 1352.076172 L 1362.841431 1916.593262 L 567.822815 1919.99585 L 3.296415 1360.128662 L -0.02334 565.185181 L 559.764832 0.662476 L 1354.719238 -2.620605 L 1919.23645 557.149414 Z"/>
        <path id="path1" fill="#ff0000" stroke="none" d="M 1332.938232 50.567871 L 581.965454 53.77771 L 53.214825 586.992554 L 56.301243 1337.965332 L 589.634583 1866.874023 L 1340.607422 1863.664185 L 1869.358032 1330.449463 L 1866.271606 579.476563 L 1332.938232 50.567871 Z M 1292.199463 150.320923 L 1766.905762 621.076538 L 1769.621826 1289.599976 L 1298.866089 1764.306274 L 630.461243 1767.022339 L 155.755051 1296.424805 L 152.915558 627.901245 L 623.671082 153.195068 L 1292.194458 150.355591 Z"/>
        <path id="path2" fill="#000000" stroke="none" d="M 1769.693237 1289.566406 L 1298.977051 1764.266602 L 630.443481 1767.122192 L 155.735474 1296.324219 L 152.949524 627.853882 L 623.681152 153.148926 L 1292.160767 150.393799 L 1766.860962 621.109985 Z"/>
        <g id="g1">
            <path id="path3" fill="#ffffff" stroke="none" d="M 593.027161 356.582764 L 604.480774 396.570068 L 617.944092 439.170044 L 628.3927 391.948975 L 637.434814 341.713867 L 669.987671 341.713867 C 665.298584 365.023315 659.87323 388.666992 653.711487 412.647095 C 647.683167 436.626099 641.118896 459.398804 634.019165 480.969116 L 605.284729 480.969116 C 600.596191 468.109131 596.041504 454.645752 591.620789 440.578003 L 578.559631 397.978516 L 565.699585 440.578003 C 561.412781 454.643677 556.925293 468.107056 552.236694 480.969116 L 523.502258 480.969116 C 516.402222 459.401489 509.771118 436.627319 503.608917 412.647095 C 497.580627 388.667969 492.222443 365.022461 487.533417 341.713867 L 521.492554 341.713867 L 530.93689 391.948975 L 541.787659 439.170044 L 555.45166 396.168213 L 566.302429 356.582764 L 593.027588 356.582764"/>
            <path id="path4" fill="#ffffff" stroke="none" d="M 775.308716 480.987671 L 765.060852 450.846436 L 710.807007 450.846436 L 700.559021 480.987671 L 668.006775 480.987671 L 696.540527 403.423218 L 709.802673 371.473389 L 723.466736 341.733887 L 753.406799 341.733887 L 766.869751 371.473389 L 780.131958 403.423218 L 793.99707 439.391602 L 808.86676 480.987671 L 775.309448 480.987671 M 737.733582 373.281982 L 718.041138 425.928711 L 757.626282 425.928711 L 737.732849 373.281982"/>
            <path id="path5" fill="#ffffff" stroke="none" d="M 867.674133 340.108643 C 888.572083 340.108765 904.580383 343.859741 915.697754 351.361206 C 926.816467 358.729126 932.375732 370.249878 932.376099 385.923096 C 932.375977 395.702515 930.098694 403.672852 925.543945 409.835083 C 921.12323 415.863403 914.693115 420.619141 906.253418 424.101929 L 924.137085 450.224243 L 940.81543 480.968384 L 905.650635 480.968384 L 889.776184 453.439209 L 873.701111 430.130249 L 858.228638 430.130249 L 858.228638 480.966675 L 826.881592 480.966675 L 826.881592 343.72229 C 833.713745 342.382813 840.746704 341.445068 847.980286 340.909058 L 867.672485 340.105347 M 869.481018 366.830566 L 858.228027 367.433472 L 858.228027 405.210327 L 867.069519 405.210327 C 878.858215 405.210449 887.297485 403.736938 892.388306 400.789673 C 897.478577 397.842651 900.024048 392.818848 900.024048 385.718872 C 900.023926 378.887085 897.411682 374.064575 892.187195 371.250977 C 887.096436 368.303955 879.527832 366.8302 869.48053 366.8302"/>
            <path id="path6" fill="#ffffff" stroke="none" d="M 1054.538208 480.987671 C 1045.562744 465.046143 1035.850586 449.30603 1025.401611 433.765869 C 1014.952698 418.226685 1003.83374 403.557983 992.04541 389.76001 L 992.04541 480.987671 L 961.100342 480.987671 L 961.100342 341.736328 L 986.61969 341.736328 C 991.040405 346.157104 995.929749 351.582397 1001.288269 358.012451 L 1017.564392 378.709351 C 1023.190857 385.943237 1028.750244 393.512207 1034.242432 401.415894 L 1049.714966 423.921387 L 1049.714966 341.736694 L 1080.86084 341.736694 L 1080.86084 480.988037 L 1054.537354 480.988037"/>
            <path id="path7" fill="#ffffff" stroke="none" d="M 1113.007324 341.728394 L 1144.35437 341.728394 L 1144.35437 480.979858 L 1113.007324 480.979858 L 1113.007324 341.728394"/>
            <path id="path8" fill="#ffffff" stroke="none" d="M 1270.004883 480.987671 C 1261.029541 465.046143 1251.317261 449.30603 1240.868286 433.765869 C 1230.419312 418.226685 1219.300781 403.557983 1207.512085 389.76001 L 1207.512085 480.987671 L 1176.567383 480.987671 L 1176.567383 341.736328 L 1202.08667 341.736328 C 1206.507446 346.157104 1211.396729 351.582397 1216.755249 358.012451 L 1233.031494 378.709351 C 1238.657837 385.943237 1244.217285 393.512207 1249.709839 401.415894 L 1265.182373 423.921387 L 1265.182373 341.736694 L 1296.328247 341.736694 L 1296.328247 480.988037 L 1270.004883 480.988037"/>
            <path id="path9" fill="#ffffff" stroke="none" d="M 1396.385132 365.827148 C 1381.783203 365.827271 1371.200317 369.912964 1364.636353 378.084717 C 1358.206421 386.122681 1354.991333 397.174072 1354.991333 411.239868 C 1354.991333 418.072021 1355.795166 424.301147 1357.40271 429.92749 C 1359.010132 435.420044 1361.421143 440.175415 1364.636597 444.194336 C 1367.851563 448.213379 1371.870605 451.361206 1376.693237 453.638672 C 1381.515625 455.782104 1387.142212 456.85376 1393.572144 456.85376 L 1409.0448 455.848877 L 1409.0448 407.422241 L 1440.391724 407.422241 L 1440.391724 476.344604 C 1436.640625 477.818237 1430.612305 479.358887 1422.307007 480.966064 C 1414.001099 482.707642 1403.753296 483.578491 1391.562866 483.578491 C 1381.113892 483.578491 1371.602783 481.970825 1363.029175 478.755859 C 1354.589478 475.540894 1347.355469 470.852295 1341.327637 464.690186 C 1335.299316 458.527954 1330.610718 450.959351 1327.261841 441.983521 C 1324.046875 433.008179 1322.439331 422.760132 1322.439331 411.23938 C 1322.439209 399.585083 1324.247803 389.270142 1327.864746 380.294678 C 1331.481567 371.319214 1336.438354 363.75061 1342.734375 357.588135 C 1349.030518 351.291992 1356.398438 346.536621 1364.838135 343.321167 C 1373.411743 340.106323 1382.521118 338.498779 1392.166138 338.498779 C 1398.730103 338.498901 1404.62439 338.967773 1409.848999 339.905273 C 1415.207397 340.709106 1419.761963 341.713867 1423.513062 342.919434 C 1427.397827 343.991211 1430.546021 345.129883 1432.957397 346.335327 L 1438.382813 349.14856 L 1429.340698 374.266235 C 1425.053833 371.988892 1420.097412 370.046509 1414.470947 368.439087 C 1408.978394 366.697754 1402.950195 365.826904 1396.38623 365.826782"/>
        </g>
    </g>
    <path id="RECKLESS-ANTROPOMISFISM-AHEAD" fill="#ffffff" fill-rule="evenodd" stroke="none" d="M 1163.569458 1548.800049 L 1119.472168 1548.800049 L 1119.472168 1446.438965 L 1163.569458 1446.438965 C 1169.912109 1446.531494 1175.189819 1447.272217 1179.402832 1448.661133 C 1186.578735 1451.022217 1192.388916 1455.35083 1196.833252 1461.647217 C 1200.398193 1466.739868 1202.828613 1472.249023 1204.125 1478.175049 C 1205.421387 1484.100952 1206.069458 1489.749023 1206.069458 1495.119385 C 1206.069458 1508.730591 1203.338013 1520.258301 1197.875 1529.702759 C 1190.467529 1542.434326 1179.032471 1548.800049 1163.569458 1548.800049 Z M 1179.472168 1472.550049 C 1176.185181 1466.994385 1169.680664 1464.216675 1159.958252 1464.216675 L 1140.236084 1464.216675 L 1140.236084 1531.022217 L 1159.958252 1531.022217 C 1170.051025 1531.022217 1177.087891 1526.04541 1181.069458 1516.091675 C 1183.245361 1510.628662 1184.333252 1504.124146 1184.333252 1496.577759 C 1184.333252 1486.161133 1182.712891 1478.151855 1179.472168 1472.550049 Z M 1076.694458 1527.758301 L 1038.986084 1527.758301 L 1031.902832 1548.800049 L 1009.541687 1548.800049 L 1046.069458 1446.438965 L 1070.236084 1446.438965 L 1106.486084 1548.800049 L 1083.291748 1548.800049 Z M 1070.722168 1510.119385 L 1057.944458 1469.841675 L 1044.75 1510.119385 Z M 993.152771 1504.077759 L 943.430542 1504.077759 L 943.430542 1530.397217 L 1000.097229 1530.397217 L 1000.097229 1548.800049 L 922.527771 1548.800049 L 922.527771 1446.438965 L 997.597229 1446.438965 L 997.597229 1464.563965 L 943.430542 1464.563965 L 943.430542 1486.300049 L 993.152771 1486.300049 Z M 880.236084 1548.800049 L 880.236084 1503.105591 L 840.236084 1503.105591 L 840.236084 1548.800049 L 819.055542 1548.800049 L 819.055542 1446.438965 L 840.236084 1446.438965 L 840.236084 1485.466675 L 880.236084 1485.466675 L 880.236084 1446.438965 L 901.486084 1446.438965 L 901.486084 1548.800049 Z M 776.416687 1527.758301 L 738.708374 1527.758301 L 731.625 1548.800049 L 709.263916 1548.800049 L 745.791626 1446.438965 L 769.958313 1446.438965 L 806.208313 1548.800049 L 783.013916 1548.800049 Z M 770.444458 1510.119385 L 757.666687 1469.841675 L 744.472229 1510.119385 Z M 1522.284668 1342.400024 L 1502.354126 1342.400024 L 1502.354126 1240.038818 L 1533.465332 1240.038818 L 1552.076416 1320.525024 L 1570.548584 1240.038818 L 1601.3125 1240.038818 L 1601.3125 1342.400024 L 1581.381958 1342.400024 L 1581.520874 1256.497192 L 1562.145874 1342.400024 L 1541.381958 1342.400024 L 1522.145874 1256.497192 L 1522.284668 1273.163818 Z M 1444.993042 1327.608398 C 1450.039429 1327.608398 1454.136597 1327.052734 1457.284668 1325.94165 C 1463.256958 1323.812012 1466.243042 1319.85376 1466.243042 1314.06665 C 1466.243042 1310.687012 1464.761597 1308.071289 1461.798584 1306.219482 C 1458.835693 1304.413818 1454.182861 1302.81665 1447.840332 1301.427734 L 1437.006958 1298.997192 C 1426.358765 1296.589844 1418.997681 1293.974121 1414.923584 1291.150024 C 1408.025391 1286.427734 1404.576416 1279.043579 1404.576416 1268.997192 C 1404.576416 1259.830566 1407.909668 1252.214844 1414.576416 1246.150024 C 1421.243042 1240.085205 1431.034668 1237.052734 1443.951416 1237.052734 C 1454.738525 1237.052734 1463.939819 1239.911621 1471.555542 1245.62915 C 1479.171387 1251.346802 1483.164307 1259.645264 1483.534668 1270.525024 L 1462.979126 1270.525024 C 1462.608765 1264.367554 1459.923584 1259.992676 1454.923584 1257.400024 C 1451.59021 1255.687012 1447.446777 1254.830566 1442.493042 1254.830566 C 1436.983765 1254.830566 1432.585693 1255.94165 1429.298584 1258.163818 C 1426.011597 1260.386108 1424.368042 1263.487915 1424.368042 1267.469482 C 1424.368042 1271.126831 1425.988403 1273.858398 1429.229126 1275.663818 C 1431.3125 1276.867554 1435.756958 1278.279663 1442.5625 1279.900024 L 1460.201416 1284.136108 C 1467.932861 1285.988037 1473.766235 1288.464844 1477.701416 1291.56665 C 1483.8125 1296.38147 1486.868042 1303.348999 1486.868042 1312.469482 C 1486.868042 1321.821289 1483.291748 1329.587402 1476.138916 1335.768066 C 1468.986084 1341.948608 1458.881958 1345.038818 1445.826416 1345.038818 C 1432.493042 1345.038818 1422.006958 1341.994873 1414.368042 1335.906982 C 1406.729126 1329.81897 1402.909668 1321.450928 1402.909668 1310.802734 L 1423.326416 1310.802734 C 1423.974487 1315.47876 1425.247681 1318.974121 1427.145874 1321.288818 C 1430.618042 1325.501831 1436.567139 1327.608398 1444.993042 1327.608398 Z M 1366.659668 1240.038818 L 1387.909668 1240.038818 L 1387.909668 1342.400024 L 1366.659668 1342.400024 Z M 1354.020874 1258.163818 L 1302.701416 1258.163818 L 1302.701416 1281.705566 L 1347.631958 1281.705566 L 1347.631958 1299.483398 L 1302.701416 1299.483398 L 1302.701416 1342.400024 L 1281.451416 1342.400024 L 1281.451416 1240.177734 L 1354.020874 1240.177734 Z M 1223.743042 1327.608398 C 1228.789307 1327.608398 1232.886475 1327.052734 1236.034668 1325.94165 C 1242.006958 1323.812012 1244.993042 1319.85376 1244.993042 1314.06665 C 1244.993042 1310.687012 1243.511597 1308.071289 1240.548584 1306.219482 C 1237.585693 1304.413818 1232.932861 1302.81665 1226.590332 1301.427734 L 1215.756958 1298.997192 C 1205.108765 1296.589844 1197.747681 1293.974121 1193.673584 1291.150024 C 1186.775391 1286.427734 1183.326416 1279.043579 1183.326416 1268.997192 C 1183.326416 1259.830566 1186.659668 1252.214844 1193.326416 1246.150024 C 1199.993164 1240.085205 1209.784668 1237.052734 1222.701416 1237.052734 C 1233.488525 1237.052734 1242.689697 1239.911621 1250.305542 1245.62915 C 1257.921387 1251.346802 1261.914307 1259.645264 1262.284668 1270.525024 L 1241.729248 1270.525024 C 1241.358765 1264.367554 1238.673584 1259.992676 1233.673584 1257.400024 C 1230.340332 1255.687012 1226.196777 1254.830566 1221.243042 1254.830566 C 1215.733765 1254.830566 1211.335693 1255.94165 1208.048584 1258.163818 C 1204.761475 1260.386108 1203.118042 1263.487915 1203.118042 1267.469482 C 1203.118042 1271.126831 1204.738403 1273.858398 1207.979248 1275.663818 C 1210.0625 1276.867554 1214.506836 1278.279663 1221.3125 1279.900024 L 1238.951416 1284.136108 C 1246.682861 1285.988037 1252.516113 1288.464844 1256.451416 1291.56665 C 1262.5625 1296.38147 1265.618042 1303.348999 1265.618042 1312.469482 C 1265.618042 1321.821289 1262.041748 1329.587402 1254.888916 1335.768066 C 1247.736084 1341.948608 1237.63208 1345.038818 1224.576416 1345.038818 C 1211.24292 1345.038818 1200.756958 1341.994873 1193.118042 1335.906982 C 1185.479126 1329.81897 1181.659668 1321.450928 1181.659668 1310.802734 L 1202.076416 1310.802734 C 1202.724609 1315.47876 1203.997681 1318.974121 1205.895752 1321.288818 C 1209.368164 1325.501831 1215.317139 1327.608398 1223.743042 1327.608398 Z M 1145.409668 1240.038818 L 1166.659668 1240.038818 L 1166.659668 1342.400024 L 1145.409668 1342.400024 Z M 1048.1875 1342.400024 L 1028.256958 1342.400024 L 1028.256958 1240.038818 L 1059.368042 1240.038818 L 1077.979248 1320.525024 L 1096.451416 1240.038818 L 1127.215332 1240.038818 L 1127.215332 1342.400024 L 1107.284668 1342.400024 L 1107.423584 1256.497192 L 1088.048584 1342.400024 L 1067.284668 1342.400024 L 1048.048584 1256.497192 L 1048.1875 1273.163818 Z M 963.256958 1345.247192 C 948.627258 1345.247192 937.446777 1341.265747 929.715271 1333.302734 C 919.344849 1323.53418 914.159729 1309.460205 914.159729 1291.080566 C 914.159729 1272.330444 919.344849 1258.256592 929.715271 1248.858398 C 937.446777 1240.895264 948.627258 1236.913818 963.256958 1236.913818 C 977.886658 1236.913818 989.067078 1240.895264 996.798584 1248.858398 C 1007.122742 1258.256592 1012.284729 1272.330444 1012.284729 1291.080566 C 1012.284729 1309.460205 1007.122742 1323.53418 996.798584 1333.302734 C 989.067078 1341.265747 977.886658 1345.247192 963.256958 1345.247192 Z M 983.465271 1317.747192 C 988.419006 1311.497192 990.895813 1302.608398 990.895813 1291.080566 C 990.895813 1279.598999 988.40741 1270.721802 983.430542 1264.448608 C 978.453674 1258.175415 971.729187 1255.038818 963.256958 1255.038818 C 954.784668 1255.038818 948.025513 1258.163818 942.979187 1264.413818 C 937.932861 1270.66394 935.409729 1279.552734 935.409729 1291.080566 C 935.409729 1302.608398 937.932861 1311.497192 942.979187 1317.747192 C 948.025513 1323.997314 954.784668 1327.122192 963.256958 1327.122192 C 971.729187 1327.122192 978.465271 1323.997314 983.465271 1317.747192 Z M 866.590271 1305.594482 L 844.854187 1305.594482 L 844.854187 1342.400024 L 823.604187 1342.400024 L 823.604187 1240.038818 L 868.1875 1240.038818 C 878.465332 1240.038818 886.659668 1242.677734 892.770813 1247.955566 C 898.881958 1253.233398 901.9375 1261.404541 901.9375 1272.469482 C 901.9375 1284.552856 898.881958 1293.094482 892.770813 1298.094482 C 886.659668 1303.094482 877.932922 1305.594482 866.590271 1305.594482 Z M 876.590271 1284.275024 C 879.368042 1281.821289 880.756958 1277.932373 880.756958 1272.608398 C 880.756958 1267.28418 879.356506 1263.488037 876.555542 1261.219482 C 873.754639 1258.950928 869.831055 1257.81665 864.784729 1257.81665 L 844.854187 1257.81665 L 844.854187 1287.955566 L 864.784729 1287.955566 C 869.831055 1287.955566 873.766174 1286.72876 876.590271 1284.275024 Z M 757.770813 1345.247192 C 743.141113 1345.247192 731.960693 1341.265747 724.229126 1333.302734 C 713.858765 1323.53418 708.673584 1309.460205 708.673584 1291.080566 C 708.673584 1272.330444 713.858765 1258.256592 724.229126 1248.858398 C 731.960693 1240.895264 743.141113 1236.913818 757.770813 1236.913818 C 772.400513 1236.913818 783.580994 1240.895264 791.3125 1248.858398 C 801.636597 1258.256592 806.798584 1272.330444 806.798584 1291.080566 C 806.798584 1309.460205 801.636597 1323.53418 791.3125 1333.302734 C 783.580994 1341.265747 772.400513 1345.247192 757.770813 1345.247192 Z M 777.979187 1317.747192 C 782.932922 1311.497192 785.409729 1302.608398 785.409729 1291.080566 C 785.409729 1279.598999 782.921326 1270.721802 777.944458 1264.448608 C 772.96759 1258.175415 766.243103 1255.038818 757.770813 1255.038818 C 749.298584 1255.038818 742.539368 1258.163818 737.493042 1264.413818 C 732.446777 1270.66394 729.923584 1279.552734 729.923584 1291.080566 C 729.923584 1302.608398 732.446777 1311.497192 737.493042 1317.747192 C 742.539368 1323.997314 749.298584 1327.122192 757.770813 1327.122192 C 766.243103 1327.122192 772.979126 1323.997314 777.979187 1317.747192 Z M 653.256958 1302.261108 L 631.173584 1302.261108 L 631.173584 1342.400024 L 610.270874 1342.400024 L 610.270874 1240.038818 L 660.479126 1240.038818 C 667.655151 1240.177734 673.175903 1241.057373 677.041626 1242.677734 C 680.907471 1244.298096 684.182861 1246.682373 686.868042 1249.830566 C 689.090332 1252.423096 690.849487 1255.293457 692.145874 1258.44165 C 693.442139 1261.589844 694.090271 1265.177734 694.090271 1269.205566 C 694.090271 1274.06665 692.863403 1278.84668 690.409729 1283.545898 C 687.955994 1288.244873 683.905151 1291.56665 678.256958 1293.511108 C 682.979187 1295.409302 686.324097 1298.105957 688.291626 1301.601318 C 690.259277 1305.096802 691.243042 1310.432373 691.243042 1317.608398 L 691.243042 1324.483398 C 691.243042 1329.159302 691.428223 1332.330566 691.798584 1333.997192 C 692.354126 1336.636108 693.650452 1338.580566 695.6875 1339.830566 L 695.6875 1342.400024 L 672.145874 1342.400024 L 670.756958 1336.913818 C 670.201416 1334.043457 669.900452 1331.10376 669.854126 1328.094482 L 669.715271 1318.580566 C 669.622681 1312.052734 668.430542 1307.700928 666.138916 1305.525024 C 663.847168 1303.349121 659.553284 1302.261108 653.256958 1302.261108 Z M 666.243042 1283.650024 C 670.502319 1281.705566 672.631958 1277.863037 672.631958 1272.122192 C 672.631958 1265.918457 670.571777 1261.751831 666.451416 1259.622192 C 664.136597 1258.418457 660.664368 1257.81665 656.034729 1257.81665 L 631.173584 1257.81665 L 631.173584 1285.31665 L 655.409729 1285.31665 C 660.224548 1285.31665 663.835632 1284.761108 666.243042 1283.650024 Z M 597.284729 1240.038818 L 597.284729 1258.163818 L 566.659729 1258.163818 L 566.659729 1342.400024 L 545.131958 1342.400024 L 545.131958 1258.163818 L 514.368042 1258.163818 L 514.368042 1240.038818 Z M 502.979156 1342.400024 L 481.590271 1342.400024 L 439.784729 1269.69165 L 439.784729 1342.400024 L 419.854187 1342.400024 L 419.854187 1240.038818 L 442.284729 1240.038818 L 483.048615 1311.497192 L 483.048615 1240.038818 L 502.979156 1240.038818 Z M 377.423615 1321.358398 L 339.715271 1321.358398 L 332.631958 1342.400024 L 310.270844 1342.400024 L 346.798615 1240.038818 L 370.965271 1240.038818 L 407.215271 1342.400024 L 384.020813 1342.400024 Z M 371.451385 1303.719482 L 358.673615 1263.44165 L 345.479156 1303.719482 Z M 1298.847168 1121.208374 C 1303.893555 1121.208374 1307.990723 1120.652832 1311.138916 1119.541626 C 1317.111084 1117.411987 1320.097168 1113.453735 1320.097168 1107.666626 C 1320.097168 1104.286987 1318.615723 1101.671265 1315.652832 1099.819458 C 1312.689819 1098.013916 1308.037109 1096.416748 1301.694458 1095.027832 L 1290.861084 1092.597168 C 1280.212891 1090.189819 1272.851929 1087.574097 1268.777832 1084.75 C 1261.879639 1080.02771 1258.430542 1072.643555 1258.430542 1062.597168 C 1258.430542 1053.43042 1261.763916 1045.814819 1268.430542 1039.75 C 1275.09729 1033.685181 1284.888794 1030.652832 1297.805542 1030.652832 C 1308.592651 1030.652832 1317.793945 1033.511475 1325.409668 1039.229248 C 1333.025513 1044.946777 1337.018555 1053.245361 1337.388916 1064.125 L 1316.833374 1064.125 C 1316.463013 1057.967529 1313.777832 1053.592529 1308.777832 1051 C 1305.444458 1049.287109 1301.300903 1048.430542 1296.347168 1048.430542 C 1290.837891 1048.430542 1286.439819 1049.541626 1283.152832 1051.763916 C 1279.865723 1053.986084 1278.222168 1057.087891 1278.222168 1061.069458 C 1278.222168 1064.726807 1279.842529 1067.458252 1283.083374 1069.263916 C 1285.166626 1070.467529 1289.611084 1071.879639 1296.416626 1073.5 L 1314.055542 1077.736084 C 1321.787109 1079.588013 1327.620361 1082.064819 1331.555542 1085.166626 C 1337.666748 1089.981445 1340.722168 1096.948975 1340.722168 1106.069458 C 1340.722168 1115.421387 1337.145874 1123.1875 1329.993042 1129.368042 C 1322.84021 1135.548584 1312.736206 1138.638916 1299.680542 1138.638916 C 1286.347168 1138.638916 1275.861206 1135.594971 1268.222168 1129.506958 C 1260.583252 1123.418945 1256.763916 1115.051025 1256.763916 1104.402832 L 1277.180542 1104.402832 C 1277.828735 1109.078735 1279.101807 1112.574097 1281 1114.888916 C 1284.47229 1119.101807 1290.421265 1121.208374 1298.847168 1121.208374 Z M 1203.986084 1121.208374 C 1209.032471 1121.208374 1213.129639 1120.652832 1216.277832 1119.541626 C 1222.25 1117.411987 1225.236084 1113.453735 1225.236084 1107.666626 C 1225.236084 1104.286987 1223.754639 1101.671265 1220.791748 1099.819458 C 1217.828613 1098.013916 1213.176025 1096.416748 1206.833252 1095.027832 L 1196 1092.597168 C 1185.351807 1090.189819 1177.990723 1087.574097 1173.916748 1084.75 C 1167.018555 1080.02771 1163.569458 1072.643555 1163.569458 1062.597168 C 1163.569458 1053.43042 1166.902832 1045.814819 1173.569458 1039.75 C 1180.236084 1033.685181 1190.02771 1030.652832 1202.944458 1030.652832 C 1213.731445 1030.652832 1222.932861 1033.511475 1230.548584 1039.229248 C 1238.164307 1044.946777 1242.157471 1053.245361 1242.527832 1064.125 L 1221.972168 1064.125 C 1221.601807 1057.967529 1218.916748 1053.592529 1213.916748 1051 C 1210.583252 1049.287109 1206.439819 1048.430542 1201.486084 1048.430542 C 1195.976807 1048.430542 1191.578735 1049.541626 1188.291748 1051.763916 C 1185.004639 1053.986084 1183.361084 1057.087891 1183.361084 1061.069458 C 1183.361084 1064.726807 1184.981445 1067.458252 1188.222168 1069.263916 C 1190.305542 1070.467529 1194.75 1071.879639 1201.555542 1073.5 L 1219.194458 1077.736084 C 1226.926025 1079.588013 1232.759277 1082.064819 1236.694458 1085.166626 C 1242.805664 1089.981445 1245.861084 1096.948975 1245.861084 1106.069458 C 1245.861084 1115.421387 1242.284668 1123.1875 1235.131958 1129.368042 C 1227.979126 1135.548584 1217.875 1138.638916 1204.819458 1138.638916 C 1191.486084 1138.638916 1181 1135.594971 1173.361084 1129.506958 C 1165.722168 1123.418945 1161.902832 1115.051025 1161.902832 1104.402832 L 1182.319458 1104.402832 C 1182.967529 1109.078735 1184.240723 1112.574097 1186.138916 1114.888916 C 1189.611084 1119.101807 1195.560059 1121.208374 1203.986084 1121.208374 Z M 1143.222168 1091.277832 L 1093.5 1091.277832 L 1093.5 1117.597168 L 1150.166748 1117.597168 L 1150.166748 1136 L 1072.597168 1136 L 1072.597168 1033.638916 L 1147.666748 1033.638916 L 1147.666748 1051.763916 L 1093.5 1051.763916 L 1093.5 1073.5 L 1143.222168 1073.5 Z M 985.097229 1033.638916 L 1006.486084 1033.638916 L 1006.486084 1117.597168 L 1057.180542 1117.597168 L 1057.180542 1136 L 985.097229 1136 Z M 973.083313 1136 L 945.583313 1136 L 913.986084 1091.277832 L 903.777771 1101.763916 L 903.777771 1136 L 882.736084 1136 L 882.736084 1033.638916 L 903.777771 1033.638916 L 903.777771 1075.791626 L 943.291687 1033.638916 L 970.930542 1033.638916 L 928.986084 1075.791626 Z M 851.902771 1128.361084 C 844.263855 1135.351929 834.495422 1138.847168 822.597229 1138.847168 C 807.874939 1138.847168 796.300964 1134.125 787.875 1124.680542 C 779.449036 1115.189697 775.236084 1102.180664 775.236084 1085.652832 C 775.236084 1067.782227 780.02771 1054.009277 789.611084 1044.333252 C 797.944458 1035.907349 808.546204 1031.694458 821.416687 1031.694458 C 838.638977 1031.694458 851.231445 1037.342529 859.194458 1048.638916 C 863.59259 1054.981445 865.953674 1061.347168 866.277771 1067.736084 L 844.888916 1067.736084 C 843.5 1062.828613 841.71759 1059.125 839.541687 1056.625 C 835.652771 1052.180542 829.888916 1049.958252 822.25 1049.958252 C 814.472168 1049.958252 808.338013 1053.094849 803.847229 1059.368042 C 799.356445 1065.641235 797.111084 1074.518433 797.111084 1086 C 797.111084 1097.481567 799.483765 1106.081055 804.229187 1111.798584 C 808.974548 1117.516235 815.004578 1120.375 822.319458 1120.375 C 829.819458 1120.375 835.536987 1117.921387 839.472229 1113.013916 C 841.648132 1110.375 843.453674 1106.416748 844.888916 1101.138916 L 866.069458 1101.138916 C 864.21759 1112.296387 859.495422 1121.370361 851.902771 1128.361084 Z M 756.069458 1091.277832 L 706.347229 1091.277832 L 706.347229 1117.597168 L 763.013916 1117.597168 L 763.013916 1136 L 685.444458 1136 L 685.444458 1033.638916 L 760.513916 1033.638916 L 760.513916 1051.763916 L 706.347229 1051.763916 L 706.347229 1073.5 L 756.069458 1073.5 Z M 625.583374 1095.861084 L 603.5 1095.861084 L 603.5 1136 L 582.597229 1136 L 582.597229 1033.638916 L 632.805542 1033.638916 C 639.981506 1033.777832 645.502319 1034.657471 649.368042 1036.277832 C 653.233826 1037.898193 656.509277 1040.282471 659.194458 1043.430542 C 661.416687 1046.023193 663.175903 1048.893555 664.472229 1052.041748 C 665.768555 1055.189819 666.416626 1058.777832 666.416626 1062.805542 C 666.416626 1067.666748 665.189819 1072.446777 662.736084 1077.145874 C 660.28241 1081.844971 656.231506 1085.166626 650.583374 1087.111084 C 655.305542 1089.009277 658.650452 1091.706055 660.618042 1095.201416 C 662.585693 1098.696777 663.569458 1104.032349 663.569458 1111.208374 L 663.569458 1118.083374 C 663.569458 1122.759277 663.754639 1125.930542 664.125 1127.597168 C 664.680542 1130.236084 665.976807 1132.180542 668.013916 1133.430542 L 668.013916 1136 L 644.472229 1136 L 643.083374 1130.513916 C 642.527771 1127.643555 642.226807 1124.703735 642.180542 1121.694458 L 642.041626 1112.180542 C 641.949097 1105.65271 640.756958 1101.300903 638.465271 1099.125 C 636.173584 1096.949097 631.879639 1095.861084 625.583374 1095.861084 Z M 638.569458 1077.25 C 642.828735 1075.305542 644.958374 1071.463013 644.958374 1065.722168 C 644.958374 1059.518555 642.898193 1055.351807 638.777771 1053.222168 C 636.462952 1052.018555 632.990723 1051.416748 628.361084 1051.416748 L 603.5 1051.416748 L 603.5 1078.916626 L 627.736084 1078.916626 C 632.550964 1078.916626 636.161987 1078.361084 638.569458 1077.25 Z"/>
    <g id="g2">
        <text id="text1" xml:space="preserve" x="863.259259" y="855" font-family="Helvetica" font-size="379.259259" font-weight="700" fill="#ffffff">=</text>
        <g id="layer1-copy">
            <g id="g7284">
                <path id="path7252" fill="none" stroke="#9e9e9e" stroke-width="8.932456" d="M 478.315094 682.719116 L 418.765503 682.719482"/>
                <path id="path7256" fill="none" stroke="#9e9e9e" stroke-width="10.709795" d="M 478.315094 829.533203 L 418.765442 829.533203"/>
                <path id="path7260" fill="none" stroke="#9e9e9e" stroke-width="10.709795" d="M 478.315094 808.559937 L 418.765442 808.559937"/>
                <path id="path7264" fill="none" stroke="#9e9e9e" stroke-width="8.932456" d="M 478.315094 787.58606 L 418.765503 787.586426"/>
                <path id="path7268" fill="none" stroke="#9e9e9e" stroke-width="10.709795" d="M 478.315063 766.613159 L 418.765442 766.613159"/>
                <path id="path7272" fill="none" stroke="#9e9e9e" stroke-width="10.709795" d="M 478.315063 745.639526 L 418.765442 745.639526"/>
                <path id="path7276" fill="none" stroke="#9e9e9e" stroke-width="10.709795" d="M 478.315094 724.66626 L 418.765442 724.66626"/>
                <path id="path7280" fill="none" stroke="#9e9e9e" stroke-width="10.709795" d="M 478.315277 703.692627 L 418.765442 703.692627"/>
            </g>
            <g id="g7294">
                <path id="path7296" fill="none" stroke="#9e9e9e" stroke-width="8.932456" d="M 770.646545 682.719116 L 711.096985 682.719482"/>
                <path id="path7298" fill="none" stroke="#9e9e9e" stroke-width="10.709795" d="M 770.646545 829.533203 L 711.096924 829.533203"/>
                <path id="path7300" fill="none" stroke="#9e9e9e" stroke-width="10.709795" d="M 770.646545 808.559937 L 711.096924 808.559937"/>
                <path id="path7302" fill="none" stroke="#9e9e9e" stroke-width="8.932456" d="M 770.646545 787.58606 L 711.096985 787.586426"/>
                <path id="path7304" fill="none" stroke="#9e9e9e" stroke-width="10.709795" d="M 770.646484 766.613159 L 711.096924 766.613159"/>
                <path id="path7306" fill="none" stroke="#9e9e9e" stroke-width="10.709795" d="M 770.646484 745.639526 L 711.096924 745.639526"/>
                <path id="path7308" fill="none" stroke="#9e9e9e" stroke-width="10.709795" d="M 770.646545 724.66626 L 711.096924 724.66626"/>
                <path id="path7310" fill="none" stroke="#9e9e9e" stroke-width="10.709795" d="M 770.646729 703.692627 L 711.096924 703.692627"/>
            </g>
            <g id="g7312">
                <path id="path7314" fill="none" stroke="#9e9e9e" stroke-width="8.932456" d="M 664.341187 928.394897 L 664.34082 868.845215"/>
                <path id="path7316" fill="none" stroke="#9e9e9e" stroke-width="10.709795" d="M 517.527039 928.394897 L 517.527039 868.845215"/>
                <path id="path7318" fill="none" stroke="#9e9e9e" stroke-width="10.709795" d="M 538.500244 928.394897 L 538.500244 868.845215"/>
                <path id="path7320" fill="none" stroke="#9e9e9e" stroke-width="8.932455" d="M 559.474243 928.394897 L 559.473877 868.845215"/>
                <path id="path7322" fill="none" stroke="#9e9e9e" stroke-width="10.709795" d="M 580.447083 928.394836 L 580.447083 868.845215"/>
                <path id="path7324" fill="none" stroke="#9e9e9e" stroke-width="10.709795" d="M 601.420715 928.394836 L 601.420715 868.845215"/>
                <path id="path7326" fill="none" stroke="#9e9e9e" stroke-width="10.709795" d="M 622.393921 928.394897 L 622.393921 868.845215"/>
                <path id="path7328" fill="none" stroke="#9e9e9e" stroke-width="10.709795" d="M 643.367554 928.395081 L 643.367554 868.845215"/>
            </g>
            <g id="g7330">
                <path id="path7332" fill="none" stroke="#9e9e9e" stroke-width="8.932456" d="M 664.341187 635.963379 L 664.34082 576.413696"/>
                <path id="path7334" fill="none" stroke="#9e9e9e" stroke-width="10.709795" d="M 517.527039 635.963379 L 517.527039 576.413696"/>
                <path id="path7336" fill="none" stroke="#9e9e9e" stroke-width="10.709795" d="M 538.500244 635.963379 L 538.500244 576.413696"/>
                <path id="path7338" fill="none" stroke="#9e9e9e" stroke-width="8.932455" d="M 559.474243 635.963379 L 559.473877 576.413696"/>
                <path id="path7340" fill="none" stroke="#9e9e9e" stroke-width="10.709795" d="M 580.447083 635.963257 L 580.447083 576.413696"/>
                <path id="path7342" fill="none" stroke="#9e9e9e" stroke-width="10.709795" d="M 601.420715 635.963257 L 601.420715 576.413696"/>
                <path id="path7344" fill="none" stroke="#9e9e9e" stroke-width="10.709795" d="M 622.393921 635.963379 L 622.393921 576.413696"/>
                <path id="path7346" fill="none" stroke="#9e9e9e" stroke-width="10.709795" d="M 643.367554 635.963501 L 643.367554 576.413696"/>
            </g>
            <path id="path7348" fill="#ffffff" fill-rule="evenodd" stroke="none" d="M 483.449585 629.911133 L 472.301483 641.059082 L 472.301483 875.262695 L 717.6474 875.262695 L 717.6474 629.899414 L 483.449585 629.911377 Z"/>
            <path id="path7250" fill="#262626" stroke="none" d="M 508.773468 657.086304 C 508.773468 662.22522 504.607635 666.390991 499.468842 666.390991 C 494.330017 666.390991 490.164185 662.22522 490.164185 657.086304 C 490.164185 651.94751 494.330017 647.781738 499.468842 647.781738 C 504.607635 647.781738 508.773468 651.94751 508.773468 657.086304 Z"/>
        </g>
        <path id="Path-copy" fill="#ffffff" stroke="none" d="M 1171.463013 719.66272 C 1173.800781 717.095947 1175.018799 702.586792 1188.198853 694.694824 C 1189.600464 678.387085 1197.731812 666.827148 1212.142944 659.125488 C 1212.805664 656.396729 1214.245239 652.854736 1219.368652 647.991455 C 1222.472046 645.042969 1225.835571 635.747314 1243.804077 626.416992 C 1257.94519 619.07373 1270.001709 617.709229 1272.949463 616.333252 C 1284.158691 611.092896 1294.565063 610.203613 1305.306885 610.482544 C 1318.148315 603.584839 1330.837524 603.114502 1344.839966 606.471924 C 1358.355713 604.395996 1369.431274 605.442383 1381.325073 609.970703 C 1404.062134 607.749878 1421.87085 613.907471 1435.341797 626.618896 C 1447.927979 624.944336 1460.044434 636.620483 1468.682007 646.297852 C 1482.47876 661.761597 1490.155762 660.329346 1496.981689 680.72937 C 1497.990356 683.747437 1508.012329 697.487183 1501.527588 705.548096 C 1500.908325 706.311279 1500.935791 706.259521 1501.787964 707.753784 C 1507.905273 718.41333 1500.281128 731.96106 1491.856323 740.90686 C 1488.771729 755.889404 1479.090942 769.923462 1444.699707 776.256714 C 1443.554199 779.911743 1442.330444 781.041504 1438.93689 784.523804 L 1438.723389 786.387207 C 1438.286987 790.104736 1437.45752 789.591919 1437.778564 791.096924 C 1439.877563 800.774292 1424.943604 807.306885 1422.075195 809.687622 C 1413.539429 816.751953 1403.904175 821.480469 1394.965942 823.667847 C 1373.774414 828.867065 1346.206299 822.260742 1346.206299 822.260742 L 1344.237427 826.218628 C 1338.477417 837.486084 1328.923096 843.969727 1328.923096 843.969727 C 1316.697998 864.114624 1309.331299 879.114746 1308.776001 880.671265 C 1306.290894 887.603394 1301.523926 894.668213 1294.509155 896.506287 C 1291.844727 897.208862 1289.259033 896.408997 1287.760376 896.222656 C 1277.311157 894.938965 1291.779785 871.533936 1290.60376 868.484497 C 1290.487549 868.182251 1289.098389 868.773804 1283.123657 870.026123 C 1278.661011 870.965088 1280.750244 870.751587 1273.712891 870.87439 C 1259.399414 871.118774 1262.102783 873.547119 1243.491089 869.288696 C 1218.72937 863.619385 1210.683472 850.764771 1210.048462 844.557983 C 1209.951904 843.621704 1209.943237 843.610229 1208.848999 842.492676 C 1206.86853 840.471191 1206.166626 838.835938 1205.511108 834.749146 C 1205.049927 831.861328 1205.197632 833.598511 1206.397583 827.348145 C 1174.517456 827.320679 1162.247681 806.973267 1160.920044 775.510986 C 1160.791626 772.477417 1159.830078 732.446411 1171.463013 719.66272 Z"/>
    </g>
</svg>
